0
SECTION
2
HEADER
9
$ACADVER
1
AC1015
9
$INSUNITS
70
4
0
ENDSEC
0
SECTION
2
TABLES
0
TABLE
2
LAYER
70
1
0
LAYER
2
BOARD_OUTLINE
70
0
62
7
6
CONTINUOUS
0
ENDTAB
0
ENDSEC
0
SECTION
2
ENTITIES
0
LWPOLYLINE
100
AcDbEntity
8
BOARD_OUTLINE
100
AcDbPolyline
90
510
70
1
38
0.000000000
10
41.387482194
20
2.500000000
10
50.500000000
20
2.500000000
10
50.537396038
20
2.499533773
10
50.574768828
20
2.498135382
10
50.612095140
20
2.495805696
10
50.649351770
20
2.492546163
10
50.686515557
20
2.488358810
10
50.723563399
20
2.483246239
10
50.760472267
20
2.477211630
10
50.797219215
20
2.470258732
10
50.833781401
20
2.462391868
10
50.870136097
20
2.453615929
10
50.906260702
20
2.443936370
10
50.942132762
20
2.433359209
10
50.977729975
20
2.421891019
10
51.013030215
20
2.409538931
10
51.048011537
20
2.396310623
10
51.082652194
20
2.382214318
10
51.116930655
20
2.367258778
10
51.150825609
20
2.351453302
10
51.184315986
20
2.334807713
10
51.217380968
20
2.317332360
10
51.250000000
20
2.299038106
10
51.282152805
20
2.279936322
10
51.313819396
20
2.260038885
10
51.344980087
20
2.239358161
10
51.375615508
20
2.217907009
10
51.405706615
20
2.195698761
10
51.435234703
20
2.172747224
10
51.464181415
20
2.149066665
10
51.492528756
20
2.124671804
10
51.520259107
20
2.099577808
10
51.547355227
20
2.073800274
10
51.573800274
20
2.047355227
10
51.599577808
20
2.020259107
10
51.624671804
20
1.992528756
10
51.649066665
20
1.964181415
10
51.672747224
20
1.935234703
10
51.695698761
20
1.905706615
10
51.717907009
20
1.875615508
10
51.739358161
20
1.844980087
10
51.760038885
20
1.813819396
10
51.779936322
20
1.782152805
10
51.799038106
20
1.750000000
10
51.817332360
20
1.717380968
10
51.834807713
20
1.684315986
10
51.851453302
20
1.650825609
10
51.867258778
20
1.616930655
10
51.882214318
20
1.582652194
10
51.896310623
20
1.548011537
10
51.909538931
20
1.513030215
10
51.921891019
20
1.477729975
10
51.933359209
20
1.442132762
10
51.943936370
20
1.406260702
10
51.953615929
20
1.370136097
10
51.962391868
20
1.333781401
10
51.970258732
20
1.297219215
10
51.977211630
20
1.260472267
10
51.983246239
20
1.223563399
10
51.988358810
20
1.186515557
10
51.992546163
20
1.149351770
10
51.995805696
20
1.112095140
10
51.998135382
20
1.074768828
10
51.999533773
20
1.037396038
10
52.000000000
20
1.000000000
10
52.000000000
20
-1.000000000
10
51.999533773
20
-1.037396038
10
51.998135382
20
-1.074768828
10
51.995805696
20
-1.112095140
10
51.992546163
20
-1.149351770
10
51.988358810
20
-1.186515557
10
51.983246239
20
-1.223563399
10
51.977211630
20
-1.260472267
10
51.970258732
20
-1.297219215
10
51.962391868
20
-1.333781401
10
51.953615929
20
-1.370136097
10
51.943936370
20
-1.406260702
10
51.933359209
20
-1.442132762
10
51.921891019
20
-1.477729975
10
51.909538931
20
-1.513030215
10
51.896310623
20
-1.548011537
10
51.882214318
20
-1.582652194
10
51.867258778
20
-1.616930655
10
51.851453302
20
-1.650825609
10
51.834807713
20
-1.684315986
10
51.817332360
20
-1.717380968
10
51.799038106
20
-1.750000000
10
51.779936322
20
-1.782152805
10
51.760038885
20
-1.813819396
10
51.739358161
20
-1.844980087
10
51.717907009
20
-1.875615508
10
51.695698761
20
-1.905706615
10
51.672747224
20
-1.935234703
10
51.649066665
20
-1.964181415
10
51.624671804
20
-1.992528756
10
51.599577808
20
-2.020259107
10
51.573800274
20
-2.047355227
10
51.547355227
20
-2.073800274
10
51.520259107
20
-2.099577808
10
51.492528756
20
-2.124671804
10
51.464181415
20
-2.149066665
10
51.435234703
20
-2.172747224
10
51.405706615
20
-2.195698761
10
51.375615508
20
-2.217907009
10
51.344980087
20
-2.239358161
10
51.313819396
20
-2.260038885
10
51.282152805
20
-2.279936322
10
51.250000000
20
-2.299038106
10
51.217380968
20
-2.317332360
10
51.184315986
20
-2.334807713
10
51.150825609
20
-2.351453302
10
51.116930655
20
-2.367258778
10
51.082652194
20
-2.382214318
10
51.048011537
20
-2.396310623
10
51.013030215
20
-2.409538931
10
50.977729975
20
-2.421891019
10
50.942132762
20
-2.433359209
10
50.906260702
20
-2.443936370
10
50.870136097
20
-2.453615929
10
50.833781401
20
-2.462391868
10
50.797219215
20
-2.470258732
10
50.760472267
20
-2.477211630
10
50.723563399
20
-2.483246239
10
50.686515557
20
-2.488358810
10
50.649351770
20
-2.492546163
10
50.612095140
20
-2.495805696
10
50.574768828
20
-2.498135382
10
50.537396038
20
-2.499533773
10
50.500000000
20
-2.500000000
10
41.387482194
20
-2.500000000
10
41.355420273
20
-2.500342695
10
41.323373002
20
-2.501370622
10
41.291355024
20
-2.503083313
10
41.259380970
20
-2.505479985
10
41.227465448
20
-2.508559542
10
41.195623042
20
-2.512320577
10
41.163868301
20
-2.516761372
10
41.132215736
20
-2.521879898
10
41.100679808
20
-2.527673816
10
41.069274928
20
-2.534140479
10
41.038015446
20
-2.541276931
10
41.006915643
20
-2.549079912
10
40.975989732
20
-2.557545857
10
40.945251843
20
-2.566670897
10
40.914716020
20
-2.576450863
10
40.884396216
20
-2.586881286
10
40.854306286
20
-2.597957400
10
40.824459978
20
-2.609674144
10
40.794870929
20
-2.622026165
10
40.765552661
20
-2.635007818
10
40.736518568
20
-2.648613172
10
40.707781917
20
-2.662836011
10
40.679355840
20
-2.677669834
10
40.651253324
20
-2.693107866
10
40.623487210
20
-2.709143050
10
40.596070186
20
-2.725768061
10
40.569014779
20
-2.742975302
10
40.542333351
20
-2.760756911
10
40.516038094
20
-2.779104763
10
40.490141022
20
-2.798010473
10
40.464653970
20
-2.817465405
10
40.439588581
20
-2.837460667
10
40.414956311
20
-2.857987125
10
40.390768413
20
-2.879035398
10
40.367035940
20
-2.900595869
10
40.343769735
20
-2.922658687
10
40.320980430
20
-2.945213771
10
40.298678438
20
-2.968250814
10
40.276873949
20
-2.991759291
10
40.255576927
20
-3.015728459
10
40.234797101
20
-3.040147367
10
40.214543968
20
-3.065004857
10
40.194826781
20
-3.090289570
10
40.175654549
20
-3.115989954
10
40.157036034
20
-3.142094266
10
40.138979742
20
-3.168590578
10
40.121493923
20
-3.195466782
10
40.104586568
20
-3.222710599
10
40.088265402
20
-3.250309579
10
40.072537881
20
-3.278251113
10
40.057411194
20
-3.306522433
10
40.042892251
20
-3.335110621
10
40.028987686
20
-3.364002615
10
40.015703854
20
-3.393185213
10
40.003046823
20
-3.422645080
10
39.991022377
20
-3.452368756
10
39.979636010
20
-3.482342659
10
39.968892925
20
-3.512553093
10
39.958798031
20
-3.542986254
10
39.949355940
20
-3.573628237
10
39.940570968
20
-3.604465041
10
39.932447126
20
-3.635482575
10
39.924988129
20
-3.666666667
10
39.910070135
20
-3.729034850
10
39.893822452
20
-3.791069918
10
39.876252506
20
-3.852743525
10
39.857368325
20
-3.914027491
10
39.837178537
20
-3.974893814
10
39.815692367
20
-4.035314683
10
39.792919634
20
-4.095262489
10
39.768870742
20
-4.154709841
10
39.743556680
20
-4.213629575
10
39.716989015
20
-4.271994770
10
39.689179886
20
-4.329778757
10
39.660142000
20
-4.386955134
10
39.629888625
20
-4.443497774
10
39.598433584
20
-4.499380841
10
39.565791251
20
-4.554578803
10
39.531976541
20
-4.609066436
10
39.497004904
20
-4.662818845
10
39.460892319
20
-4.715811468
10
39.423655289
20
-4.768020091
10
39.385310826
20
-4.819420860
10
39.345876452
20
-4.869990287
10
39.305370185
20
-4.919705266
10
39.263810534
20
-4.968543082
10
39.221216488
20
-5.016481419
10
39.177607511
20
-5.063498372
10
39.133003526
20
-5.109572458
10
39.087424917
20
-5.154682625
10
39.040892508
20
-5.198808261
10
38.993427562
20
-5.241929204
10
38.945051766
20
-5.284025750
10
38.895787225
20
-5.325078665
10
38.845656448
20
-5.365069190
10
38.794682343
20
-5.403979053
10
38.742888200
20
-5.441790475
10
38.690297686
20
-5.478486178
10
38.636934830
20
-5.514049395
10
38.582824016
20
-5.548463878
10
38.527989967
20
-5.581713900
10
38.472457740
20
-5.613784269
10
38.416252708
20
-5.644660331
10
38.359400553
20
-5.674327978
10
38.301927252
20
-5.702773655
10
38.243859066
20
-5.729984363
10
38.185222529
20
-5.755947670
10
38.126044432
20
-5.780651711
10
38.066351815
20
-5.804085200
10
38.006171955
20
-5.826237428
10
37.945532348
20
-5.847098274
10
37.884460702
20
-5.866658205
10
37.822984923
20
-5.884908286
10
37.761133101
20
-5.901840175
10
37.698933496
20
-5.917446138
10
37.636414531
20
-5.931719043
10
37.573604771
20
-5.944652368
10
37.510532916
20
-5.956240204
10
37.447227785
20
-5.966477256
10
37.383718304
20
-5.975358846
10
37.320033492
20
-5.982880917
10
37.256202448
20
-5.989040031
10
37.192254339
20
-5.993833374
10
37.128218384
20
-5.997258755
10
37.064123842
20
-5.999314611
10
37.000000000
20
-6.000000000
10
-37.000000000
20
-6.000000000
10
-37.074792075
20
-5.999067546
10
-37.149537657
20
-5.996270764
10
-37.224190281
20
-5.991611392
10
-37.298703540
20
-5.985092326
10
-37.373031114
20
-5.976717620
10
-37.447126799
20
-5.966492479
10
-37.520944533
20
-5.954423259
10
-37.594438430
20
-5.940517464
10
-37.667562802
20
-5.924783737
10
-37.740272193
20
-5.907231859
10
-37.812521404
20
-5.887872741
10
-37.884265523
20
-5.866718417
10
-37.955459951
20
-5.843782039
10
-38.026060430
20
-5.819077862
10
-38.096023073
20
-5.792621246
10
-38.165304389
20
-5.764428636
10
-38.233861309
20
-5.734517557
10
-38.301651217
20
-5.702906604
10
-38.368631972
20
-5.669615426
10
-38.434761936
20
-5.634664720
10
-38.500000000
20
-5.598076211
10
-38.564305610
20
-5.559872645
10
-38.627638792
20
-5.520077769
10
-38.689960174
20
-5.478716323
10
-38.751231017
20
-5.435814017
10
-38.811413231
20
-5.391397522
10
-38.870469406
20
-5.345494447
10
-38.928362829
20
-5.298133329
10
-38.985057513
20
-5.249343609
10
-39.040518213
20
-5.199155615
10
-39.094710454
20
-5.147600548
10
-39.147600548
20
-5.094710454
10
-39.199155615
20
-5.040518213
10
-39.249343609
20
-4.985057513
10
-39.298133329
20
-4.928362829
10
-39.345494447
20
-4.870469406
10
-39.391397522
20
-4.811413231
10
-39.435814017
20
-4.751231017
10
-39.478716323
20
-4.689960174
10
-39.520077769
20
-4.627638792
10
-39.559872645
20
-4.564305610
10
-39.598076211
20
-4.500000000
10
-39.634664720
20
-4.434761936
10
-39.669615426
20
-4.368631972
10
-39.702906604
20
-4.301651217
10
-39.734517557
20
-4.233861309
10
-39.764428636
20
-4.165304389
10
-39.792621246
20
-4.096023073
10
-39.819077862
20
-4.026060430
10
-39.843782039
20
-3.955459951
10
-39.866718417
20
-3.884265523
10
-39.887872741
20
-3.812521404
10
-39.907231859
20
-3.740272193
10
-39.924783737
20
-3.667562802
10
-39.940517464
20
-3.594438430
10
-39.954423259
20
-3.520944533
10
-39.966492479
20
-3.447126799
10
-39.976717620
20
-3.373031114
10
-39.985092326
20
-3.298703540
10
-39.991611392
20
-3.224190281
10
-39.996270764
20
-3.149537657
10
-39.999067546
20
-3.074792075
10
-40.000000000
20
-3.000000000
10
-40.000000000
20
3.000000000
10
-39.999067546
20
3.074792075
10
-39.996270764
20
3.149537657
10
-39.991611392
20
3.224190281
10
-39.985092326
20
3.298703540
10
-39.976717620
20
3.373031114
10
-39.966492479
20
3.447126799
10
-39.954423259
20
3.520944533
10
-39.940517464
20
3.594438430
10
-39.924783737
20
3.667562802
10
-39.907231859
20
3.740272193
10
-39.887872741
20
3.812521404
10
-39.866718417
20
3.884265523
10
-39.843782039
20
3.955459951
10
-39.819077862
20
4.026060430
10
-39.792621246
20
4.096023073
10
-39.764428636
20
4.165304389
10
-39.734517557
20
4.233861309
10
-39.702906604
20
4.301651217
10
-39.669615426
20
4.368631972
10
-39.634664720
20
4.434761936
10
-39.598076211
20
4.500000000
10
-39.559872645
20
4.564305610
10
-39.520077769
20
4.627638792
10
-39.478716323
20
4.689960174
10
-39.435814017
20
4.751231017
10
-39.391397522
20
4.811413231
10
-39.345494447
20
4.870469406
10
-39.298133329
20
4.928362829
10
-39.249343609
20
4.985057513
10
-39.199155615
20
5.040518213
10
-39.147600548
20
5.094710454
10
-39.094710454
20
5.147600548
10
-39.040518213
20
5.199155615
10
-38.985057513
20
5.249343609
10
-38.928362829
20
5.298133329
10
-38.870469406
20
5.345494447
10
-38.811413231
20
5.391397522
10
-38.751231017
20
5.435814017
10
-38.689960174
20
5.478716323
10
-38.627638792
20
5.520077769
10
-38.564305610
20
5.559872645
10
-38.500000000
20
5.598076211
10
-38.434761936
20
5.634664720
10
-38.368631972
20
5.669615426
10
-38.301651217
20
5.702906604
10
-38.233861309
20
5.734517557
10
-38.165304389
20
5.764428636
10
-38.096023073
20
5.792621246
10
-38.026060430
20
5.819077862
10
-37.955459951
20
5.843782039
10
-37.884265523
20
5.866718417
10
-37.812521404
20
5.887872741
10
-37.740272193
20
5.907231859
10
-37.667562802
20
5.924783737
10
-37.594438430
20
5.940517464
10
-37.520944533
20
5.954423259
10
-37.447126799
20
5.966492479
10
-37.373031114
20
5.976717620
10
-37.298703540
20
5.985092326
10
-37.224190281
20
5.991611392
10
-37.149537657
20
5.996270764
10
-37.074792075
20
5.999067546
10
-37.000000000
20
6.000000000
10
37.000000000
20
6.000000000
10
37.064123842
20
5.999314611
10
37.128218384
20
5.997258755
10
37.192254339
20
5.993833374
10
37.256202448
20
5.989040031
10
37.320033492
20
5.982880917
10
37.383718304
20
5.975358846
10
37.447227785
20
5.966477256
10
37.510532916
20
5.956240204
10
37.573604771
20
5.944652368
10
37.636414531
20
5.931719043
10
37.698933496
20
5.917446138
10
37.761133101
20
5.901840175
10
37.822984923
20
5.884908286
10
37.884460702
20
5.866658205
10
37.945532348
20
5.847098274
10
38.006171955
20
5.826237428
10
38.066351815
20
5.804085200
10
38.126044432
20
5.780651711
10
38.185222529
20
5.755947670
10
38.243859066
20
5.729984363
10
38.301927252
20
5.702773655
10
38.359400553
20
5.674327978
10
38.416252708
20
5.644660331
10
38.472457740
20
5.613784269
10
38.527989967
20
5.581713900
10
38.582824016
20
5.548463878
10
38.636934830
20
5.514049395
10
38.690297686
20
5.478486178
10
38.742888200
20
5.441790475
10
38.794682343
20
5.403979053
10
38.845656448
20
5.365069190
10
38.895787225
20
5.325078665
10
38.945051766
20
5.284025750
10
38.993427562
20
5.241929204
10
39.040892508
20
5.198808261
10
39.087424917
20
5.154682625
10
39.133003526
20
5.109572458
10
39.177607511
20
5.063498372
10
39.221216488
20
5.016481419
10
39.263810534
20
4.968543082
10
39.305370185
20
4.919705266
10
39.345876452
20
4.869990287
10
39.385310826
20
4.819420860
10
39.423655289
20
4.768020091
10
39.460892319
20
4.715811468
10
39.497004904
20
4.662818845
10
39.531976541
20
4.609066436
10
39.565791251
20
4.554578803
10
39.598433584
20
4.499380841
10
39.629888625
20
4.443497774
10
39.660142000
20
4.386955134
10
39.689179886
20
4.329778757
10
39.716989015
20
4.271994770
10
39.743556680
20
4.213629575
10
39.768870742
20
4.154709841
10
39.792919634
20
4.095262489
10
39.815692367
20
4.035314683
10
39.837178537
20
3.974893814
10
39.857368325
20
3.914027491
10
39.876252506
20
3.852743525
10
39.893822452
20
3.791069918
10
39.910070135
20
3.729034850
10
39.924988129
20
3.666666667
10
39.932447126
20
3.635482575
10
39.940570968
20
3.604465041
10
39.949355940
20
3.573628237
10
39.958798031
20
3.542986254
10
39.968892925
20
3.512553093
10
39.979636010
20
3.482342659
10
39.991022377
20
3.452368756
10
40.003046823
20
3.422645080
10
40.015703854
20
3.393185213
10
40.028987686
20
3.364002615
10
40.042892251
20
3.335110621
10
40.057411194
20
3.306522433
10
40.072537881
20
3.278251113
10
40.088265402
20
3.250309579
10
40.104586568
20
3.222710599
10
40.121493923
20
3.195466782
10
40.138979742
20
3.168590578
10
40.157036034
20
3.142094266
10
40.175654549
20
3.115989954
10
40.194826781
20
3.090289570
10
40.214543968
20
3.065004857
10
40.234797101
20
3.040147367
10
40.255576927
20
3.015728459
10
40.276873949
20
2.991759291
10
40.298678438
20
2.968250814
10
40.320980430
20
2.945213771
10
40.343769735
20
2.922658687
10
40.367035940
20
2.900595869
10
40.390768413
20
2.879035398
10
40.414956311
20
2.857987125
10
40.439588581
20
2.837460667
10
40.464653970
20
2.817465405
10
40.490141022
20
2.798010473
10
40.516038094
20
2.779104763
10
40.542333351
20
2.760756911
10
40.569014779
20
2.742975302
10
40.596070186
20
2.725768061
10
40.623487210
20
2.709143050
10
40.651253324
20
2.693107866
10
40.679355840
20
2.677669834
10
40.707781917
20
2.662836011
10
40.736518568
20
2.648613172
10
40.765552661
20
2.635007818
10
40.794870929
20
2.622026165
10
40.824459978
20
2.609674144
10
40.854306286
20
2.597957400
10
40.884396216
20
2.586881286
10
40.914716020
20
2.576450863
10
40.945251843
20
2.566670897
10
40.975989732
20
2.557545857
10
41.006915643
20
2.549079912
10
41.038015446
20
2.541276931
10
41.069274928
20
2.534140479
10
41.100679808
20
2.527673816
10
41.132215736
20
2.521879898
10
41.163868301
20
2.516761372
10
41.195623042
20
2.512320577
10
41.227465448
20
2.508559542
10
41.259380970
20
2.505479985
10
41.291355024
20
2.503083313
10
41.323373002
20
2.501370622
10
41.355420273
20
2.500342695
0
ENDSEC
0
EOF
