0
SECTION
2
HEADER
9
$ACADVER
1
AC1015
9
$INSUNITS
70
4
0
ENDSEC
0
SECTION
2
TABLES
0
TABLE
2
LAYER
70
1
0
LAYER
2
COPPER_L2_INNER1
70
0
62
7
6
CONTINUOUS
0
ENDTAB
0
ENDSEC
0
SECTION
2
ENTITIES
0
LWPOLYLINE
100
AcDbEntity
8
COPPER_L2_INNER1
100
AcDbPolyline
90
220
70
0
38
0.000000000
10
-36.295036546
20
-1.136177404
10
-36.597258088
20
-1.136850610
10
-36.609687716
20
-1.137032828
10
-36.622108973
20
-1.137523990
10
-36.634514180
20
-1.138323792
10
-36.646895671
20
-1.139431741
10
-36.659245791
20
-1.140847152
10
-36.671556907
20
-1.142569149
10
-36.683821410
20
-1.144596668
10
-36.696031718
20
-1.146928457
10
-36.708180284
20
-1.149563073
10
-36.720259599
20
-1.152498888
10
-36.732262196
20
-1.155734087
10
-36.744180657
20
-1.159266672
10
-36.756007614
20
-1.163094458
10
-36.767735757
20
-1.167215079
10
-36.779357837
20
-1.171625988
10
-36.790866670
20
-1.176324459
10
-36.802255141
20
-1.181307587
10
-36.813516213
20
-1.186572293
10
-36.824642923
20
-1.192115322
10
-36.835628395
20
-1.197933248
10
-36.846465839
20
-1.204022475
10
-36.857148554
20
-1.210379239
10
-36.867669939
20
-1.216999610
10
-36.878023490
20
-1.223879498
10
-36.888202806
20
-1.231014648
10
-36.898201597
20
-1.238400651
10
-36.908013682
20
-1.246032941
10
-36.917632995
20
-1.253906801
10
-36.927053591
20
-1.262017364
10
-36.936269647
20
-1.270359616
10
-36.945275466
20
-1.278928401
10
-36.954065482
20
-1.287718423
10
-36.962634261
20
-1.296724248
10
-36.970976508
20
-1.305940309
10
-36.979087064
20
-1.315360910
10
-36.986960918
20
-1.324980229
10
-36.994593202
20
-1.334792318
10
-37.001979198
20
-1.344791114
10
-37.009114342
20
-1.354970435
10
-37.015994223
20
-1.365323990
10
-37.022614587
20
-1.375845379
10
-37.028971344
20
-1.386528099
10
-37.035060564
20
-1.397365546
10
-37.040878483
20
-1.408351022
10
-37.046421505
20
-1.419477736
10
-37.051686203
20
-1.430738811
10
-37.056669325
20
-1.442127286
10
-37.061367788
20
-1.453636122
10
-37.065778690
20
-1.465258204
10
-37.069899303
20
-1.476986350
10
-37.073727081
20
-1.488813310
10
-37.077259658
20
-1.500731773
10
-37.080494850
20
-1.512734372
10
-37.083430657
20
-1.524813689
10
-37.086065265
20
-1.536962257
10
-37.088397046
20
-1.549172566
10
-37.090424557
20
-1.561437070
10
-37.092146546
20
-1.573748187
10
-37.093561948
20
-1.586098309
10
-37.094669889
20
-1.598479800
10
-37.095469684
20
-1.610885008
10
-37.095960838
20
-1.623306265
10
-37.096143047
20
-1.635735893
10
-37.096217808
20
-1.669309273
10
-37.096612224
20
-1.846439914
10
-37.097006639
20
-2.023577566
10
-37.097401055
20
-2.200722229
10
-37.093790969
20
-2.377740245
10
-37.057312714
20
-2.550642919
10
-36.983920044
20
-2.711276586
10
-36.877196845
20
-2.851847416
10
-36.742348690
20
-2.965535769
10
-36.585950100
20
-3.046828154
10
-36.415625132
20
-3.091785775
10
-36.239617881
20
-3.100556381
10
-36.063198947
20
-3.100950797
10
-35.886773002
20
-3.101345212
10
-35.710340046
20
-3.101739628
10
-35.533900078
20
-3.102134044
10
-35.357453099
20
-3.102528459
10
-35.180999109
20
-3.102922875
10
-35.004538107
20
-3.103317291
10
-34.828070094
20
-3.103711707
10
-34.651595070
20
-3.104106122
10
-34.475113034
20
-3.104500538
10
-34.298623987
20
-3.104894954
10
-34.122127929
20
-3.105289369
10
-33.945624860
20
-3.105683785
10
-33.769114779
20
-3.106078201
10
-33.592597687
20
-3.106472617
10
-33.416073583
20
-3.106867032
10
-33.239542468
20
-3.107261448
10
-33.063004342
20
-3.107655864
10
-32.886459204
20
-3.108050279
10
-32.709907056
20
-3.108444695
10
-32.533347895
20
-3.108839111
10
-32.356781724
20
-3.109233527
10
-32.180208541
20
-3.109627942
10
-32.003628347
20
-3.110022358
10
-31.827041141
20
-3.110416774
10
-31.650446925
20
-3.110811189
10
-31.473845697
20
-3.111205605
10
-31.297237457
20
-3.111600021
10
-31.120622206
20
-3.111994437
10
-30.943999944
20
-3.112388852
10
-30.767370671
20
-3.112783268
10
-30.590734386
20
-3.113177684
10
-30.414091090
20
-3.113572099
10
-30.237440783
20
-3.113966515
10
-30.060783464
20
-3.114360931
10
-29.884119134
20
-3.114755347
10
-29.707447793
20
-3.115149762
10
-29.530769440
20
-3.115544178
10
-29.354084076
20
-3.115938594
10
-29.177391701
20
-3.116333009
10
-29.000692314
20
-3.116727425
10
-28.823985916
20
-3.117121841
10
-28.647272507
20
-3.117516257
10
-28.470552086
20
-3.117910672
10
-28.293824654
20
-3.118305088
10
-28.117090211
20
-3.118699504
10
-27.940348756
20
-3.119093919
10
-27.763600290
20
-3.119488335
10
-27.586844813
20
-3.119882751
10
-27.410082324
20
-3.120277167
10
-27.233312825
20
-3.120671582
10
-27.056536313
20
-3.121065998
10
-26.879752791
20
-3.121460414
10
-26.702962257
20
-3.121854829
10
-26.526164712
20
-3.122249245
10
-26.349360155
20
-3.122643661
10
-26.172548587
20
-3.123038077
10
-25.995730008
20
-3.123432492
10
-25.818904418
20
-3.123826908
10
-25.642071816
20
-3.124221324
10
-25.465232203
20
-3.124615739
10
-25.288385578
20
-3.125010155
10
-25.111531943
20
-3.125404571
10
-24.934671295
20
-3.125798987
10
-24.757803637
20
-3.126193402
10
-24.580928967
20
-3.126587818
10
-24.404047286
20
-3.126982234
10
-24.227158594
20
-3.127376649
10
-24.050262890
20
-3.127771065
10
-23.873360175
20
-3.128165481
10
-23.696450449
20
-3.128559897
10
-23.519533711
20
-3.128954312
10
-23.342609962
20
-3.129348728
10
-23.165679202
20
-3.129743144
10
-22.988741430
20
-3.130137559
10
-22.811796647
20
-3.130531975
10
-22.634844853
20
-3.130926391
10
-22.457886047
20
-3.131320807
10
-22.280920230
20
-3.131715222
10
-22.103947402
20
-3.132109638
10
-21.926967562
20
-3.132504054
10
-21.749980711
20
-3.132898469
10
-21.572986849
20
-3.133292885
10
-21.395985975
20
-3.133687301
10
-21.218978090
20
-3.134081717
10
-21.041963194
20
-3.134476132
10
-20.864941286
20
-3.134870548
10
-20.687912368
20
-3.135264964
10
-20.510876437
20
-3.135659379
10
-20.333833496
20
-3.136053795
10
-20.156783543
20
-3.136448211
10
-19.979726579
20
-3.136842627
10
-19.802662603
20
-3.137237042
10
-19.625591616
20
-3.137631458
10
-19.448513618
20
-3.138025874
10
-19.271428609
20
-3.138420289
10
-19.094336588
20
-3.138814705
10
-18.917237556
20
-3.139209121
10
-18.740131512
20
-3.139603537
10
-18.563018458
20
-3.139997952
10
-18.385898391
20
-3.140392368
10
-18.208771314
20
-3.140786784
10
-18.031637225
20
-3.141181199
10
-17.854496125
20
-3.141575615
10
-17.677348014
20
-3.141970031
10
-17.500192891
20
-3.142364447
10
-17.323030757
20
-3.142758862
10
-17.145861612
20
-3.143153278
10
-16.968685455
20
-3.143547694
10
-16.791502287
20
-3.143942109
10
-16.614312108
20
-3.144336525
10
-16.437114917
20
-3.144730941
10
-16.259910715
20
-3.145125357
10
-16.082699502
20
-3.145519772
10
-15.905481277
20
-3.145914188
10
-15.728256041
20
-3.146308604
10
-15.551023794
20
-3.146703019
10
-15.373784535
20
-3.147097435
10
-15.196538265
20
-3.147491851
10
-15.019284984
20
-3.147886267
10
-14.842024691
20
-3.148280682
10
-14.664757387
20
-3.148675098
10
-14.487483072
20
-3.149069514
10
-14.310201746
20
-3.149463929
10
-14.132913408
20
-3.149858345
10
-13.955618058
20
-3.150252761
10
-13.778315698
20
-3.150647177
10
-13.601006326
20
-3.151041592
10
-13.423689943
20
-3.151436008
10
-13.246366548
20
-3.151830424
10
-13.069036142
20
-3.152224839
10
-12.891698725
20
-3.152619255
10
-12.714354297
20
-3.153013671
10
-12.537002857
20
-3.153408087
10
-12.359644406
20
-3.153802502
10
-12.182278943
20
-3.154196918
10
-12.004906470
20
-3.154591334
10
-11.827526985
20
-3.154985749
10
-11.650140488
20
-3.155380165
10
-11.472746980
20
-3.155774581
10
-11.295346461
20
-3.156168997
10
-11.117938931
20
-3.156563412
10
-10.940524389
20
-3.156957828
0
LWPOLYLINE
100
AcDbEntity
8
COPPER_L2_INNER1
100
AcDbPolyline
90
220
70
0
38
0.000000000
10
-10.940524389
20
-3.156957828
10
-10.763102836
20
-3.157352244
10
-10.585674272
20
-3.157746659
10
-10.408238696
20
-3.158141075
10
-10.230796109
20
-3.158535491
10
-10.053346511
20
-3.158929907
10
-9.875889901
20
-3.159324322
10
-9.698426280
20
-3.159718738
10
-9.520955648
20
-3.160113154
10
-9.343478004
20
-3.160507569
10
-9.165993349
20
-3.160901985
10
-8.988501683
20
-3.161296401
10
-8.811003005
20
-3.161690817
10
-8.633497316
20
-3.162085232
10
-8.455984616
20
-3.162479648
10
-8.278464904
20
-3.162874064
10
-8.100938182
20
-3.163268479
10
-7.923404447
20
-3.163662895
10
-7.745863702
20
-3.164057311
10
-7.568315945
20
-3.164451727
10
-7.390761177
20
-3.164846142
10
-7.213199397
20
-3.165240558
10
-7.035630606
20
-3.165634974
10
-6.858054804
20
-3.166029389
10
-6.680471991
20
-3.166423805
10
-6.502882166
20
-3.166818221
10
-6.325285330
20
-3.167212637
10
-6.147681482
20
-3.167607052
10
-5.970070623
20
-3.168001468
10
-5.792452753
20
-3.168395884
10
-5.614827872
20
-3.168790300
10
-5.437195979
20
-3.169184715
10
-5.259557075
20
-3.169579131
10
-5.081911159
20
-3.169973547
10
-4.904258233
20
-3.170367962
10
-4.726598295
20
-3.170762378
10
-4.548931345
20
-3.171156794
10
-4.371257384
20
-3.171551210
10
-4.193576412
20
-3.171945625
10
-4.015888429
20
-3.172340041
10
-3.838193434
20
-3.172734457
10
-3.660491428
20
-3.173128872
10
-3.482782411
20
-3.173523288
10
-3.305066382
20
-3.173917704
10
-3.127343342
20
-3.174312120
10
-2.949613291
20
-3.174706535
10
-2.771876228
20
-3.175100951
10
-2.594132154
20
-3.175495367
10
-2.416381069
20
-3.175889782
10
-2.238622973
20
-3.176284198
10
-2.060857865
20
-3.176678614
10
-1.883085745
20
-3.177073030
10
-1.705306615
20
-3.177467445
10
-1.527520473
20
-3.177861861
10
-1.349727320
20
-3.178256277
10
-1.171927155
20
-3.178650692
10
-0.994119979
20
-3.179045108
10
-0.816305792
20
-3.179439524
10
-0.638484593
20
-3.179833940
10
-0.460656384
20
-3.180228355
10
-0.282821162
20
-3.180622771
10
-0.104978930
20
-3.181017187
10
0.072870314
20
-3.181411602
10
0.250726569
20
-3.181806018
10
0.428589836
20
-3.182200434
10
0.606460113
20
-3.182594850
10
0.784337402
20
-3.182989265
10
0.962221703
20
-3.183383681
10
1.140113015
20
-3.183778097
10
1.318011338
20
-3.184172512
10
1.495916672
20
-3.184566928
10
1.673829018
20
-3.184961344
10
1.851748375
20
-3.185355760
10
2.029674743
20
-3.185750175
10
2.207608123
20
-3.186144591
10
2.385548514
20
-3.186539007
10
2.563495917
20
-3.186933422
10
2.741450330
20
-3.187327838
10
2.919411755
20
-3.187722254
10
3.097380192
20
-3.188116670
10
3.275355639
20
-3.188511085
10
3.453338098
20
-3.188905501
10
3.631327569
20
-3.189299917
10
3.809324050
20
-3.189694332
10
3.987327543
20
-3.190088748
10
4.165338047
20
-3.190483164
10
4.343355563
20
-3.190877580
10
4.521380090
20
-3.191271995
10
4.699411628
20
-3.191666411
10
4.877450178
20
-3.192060827
10
5.055495739
20
-3.192455242
10
5.233548311
20
-3.192849658
10
5.411607894
20
-3.193244074
10
5.589674489
20
-3.193638490
10
5.767748096
20
-3.194032905
10
5.945828713
20
-3.194427321
10
6.123916342
20
-3.194821737
10
6.302010982
20
-3.195216152
10
6.480112634
20
-3.195610568
10
6.658221296
20
-3.196004984
10
6.836336971
20
-3.196399400
10
7.014459656
20
-3.196793815
10
7.192589353
20
-3.197188231
10
7.370726061
20
-3.197582647
10
7.548869780
20
-3.197977062
10
7.727020511
20
-3.198371478
10
7.905178253
20
-3.198765894
10
8.083343007
20
-3.199160310
10
8.261514771
20
-3.199554725
10
8.439693547
20
-3.199949141
10
8.617879335
20
-3.200343557
10
8.796072134
20
-3.200737972
10
8.974271944
20
-3.201132388
10
9.152478765
20
-3.201526804
10
9.330692598
20
-3.201921220
10
9.508913442
20
-3.202315635
10
9.687141297
20
-3.202710051
10
9.865376164
20
-3.203104467
10
10.043618042
20
-3.203498882
10
10.221866931
20
-3.203893298
10
10.400122832
20
-3.204287714
10
10.578385744
20
-3.204682130
10
10.756655667
20
-3.205076545
10
10.934932601
20
-3.205470961
10
11.113216547
20
-3.205865377
10
11.291507505
20
-3.206259792
10
11.469805473
20
-3.206654208
10
11.648110453
20
-3.207048624
10
11.826422444
20
-3.207443040
10
12.004741447
20
-3.207837455
10
12.183067461
20
-3.208231871
10
12.361400486
20
-3.208626287
10
12.539740522
20
-3.209020702
10
12.718087570
20
-3.209415118
10
12.896441629
20
-3.209809534
10
13.074802700
20
-3.210203950
10
13.253170782
20
-3.210598365
10
13.431545875
20
-3.210992781
10
13.609927979
20
-3.211387197
10
13.788317095
20
-3.211781612
10
13.966713222
20
-3.212176028
10
14.145116361
20
-3.212570444
10
14.323526511
20
-3.212964860
10
14.501943672
20
-3.213359275
10
14.680367844
20
-3.213753691
10
14.858799028
20
-3.214148107
10
15.037237223
20
-3.214542522
10
15.215682429
20
-3.214936938
10
15.394134647
20
-3.215331354
10
15.572593876
20
-3.215725770
10
15.751060116
20
-3.216120185
10
15.929533368
20
-3.216514601
10
16.108013631
20
-3.216909017
10
16.286500905
20
-3.217303432
10
16.464995191
20
-3.217697848
10
16.643496488
20
-3.218092264
10
16.822004796
20
-3.218486680
10
17.000520116
20
-3.218881095
10
17.179042447
20
-3.219275511
10
17.357571789
20
-3.219669927
10
17.536108143
20
-3.220064342
10
17.714651508
20
-3.220458758
10
17.893201884
20
-3.220853174
10
18.071759271
20
-3.221247590
10
18.250323670
20
-3.221642005
10
18.428895081
20
-3.222036421
10
18.607473502
20
-3.222430837
10
18.786058935
20
-3.222825252
10
18.964651379
20
-3.223219668
10
19.143250835
20
-3.223614084
10
19.321857302
20
-3.224008500
10
19.500470780
20
-3.224402915
10
19.679091269
20
-3.224797331
10
19.857718770
20
-3.225191747
10
20.036353282
20
-3.225586162
10
20.214994806
20
-3.225980578
10
20.393643340
20
-3.226374994
10
20.572298887
20
-3.226769410
10
20.750961444
20
-3.227163825
10
20.929631013
20
-3.227558241
10
21.108307593
20
-3.227952657
10
21.286991184
20
-3.228347072
10
21.465681787
20
-3.228741488
10
21.644379401
20
-3.229135904
10
21.823084026
20
-3.229530320
10
22.001795663
20
-3.229924735
10
22.180514311
20
-3.230319151
10
22.359239971
20
-3.230713567
10
22.537972641
20
-3.231107982
10
22.716712323
20
-3.231502398
10
22.895459017
20
-3.231896814
10
23.074212721
20
-3.232291230
10
23.252973437
20
-3.232685645
10
23.431741164
20
-3.233080061
10
23.610515903
20
-3.233474477
10
23.789297653
20
-3.233868893
10
23.968086414
20
-3.234263308
10
24.146882187
20
-3.234657724
10
24.325684971
20
-3.235052140
10
24.504494766
20
-3.235446555
10
24.683311573
20
-3.235840971
10
24.862135391
20
-3.236235387
10
25.040966220
20
-3.236629803
10
25.219804060
20
-3.237024218
10
25.398648912
20
-3.237418634
10
25.577500775
20
-3.237813050
10
25.756359650
20
-3.238207465
10
25.935225536
20
-3.238601881
10
26.114098433
20
-3.238996297
10
26.292978341
20
-3.239390713
10
26.471865261
20
-3.239785128
10
26.650759192
20
-3.240179544
10
26.829660135
20
-3.240573960
10
27.008568089
20
-3.240968375
10
27.187483054
20
-3.241362791
10
27.366405030
20
-3.241757207
10
27.545334018
20
-3.242151623
10
27.724270017
20
-3.242546038
10
27.903213027
20
-3.242940454
10
28.082163049
20
-3.243334870
0
LWPOLYLINE
100
AcDbEntity
8
COPPER_L2_INNER1
100
AcDbPolyline
90
220
70
0
38
0.000000000
10
28.082163049
20
-3.243334870
10
28.261120082
20
-3.243729285
10
28.440084127
20
-3.244123701
10
28.619055182
20
-3.244518117
10
28.798033249
20
-3.244912533
10
28.977018328
20
-3.245306948
10
29.156010417
20
-3.245701364
10
29.335009518
20
-3.246095780
10
29.514015631
20
-3.246490195
10
29.693028754
20
-3.246884611
10
29.872048889
20
-3.247279027
10
30.051076036
20
-3.247673443
10
30.230110193
20
-3.248067858
10
30.409151362
20
-3.248462274
10
30.588199542
20
-3.248856690
10
30.767254734
20
-3.249251105
10
30.946316937
20
-3.249645521
10
31.125386151
20
-3.250039937
10
31.304462377
20
-3.250434353
10
31.483545614
20
-3.250828768
10
31.662635862
20
-3.251223184
10
31.841733121
20
-3.251617600
10
32.020837392
20
-3.252012015
10
32.199948674
20
-3.252406431
10
32.379066968
20
-3.252800847
10
32.558192273
20
-3.253195263
10
32.737324589
20
-3.253589678
10
32.916463916
20
-3.253984094
10
33.095610255
20
-3.254378510
10
33.274763605
20
-3.254772925
10
33.453923967
20
-3.255167341
10
33.633091340
20
-3.255561757
10
33.812265724
20
-3.255956173
10
33.991447119
20
-3.256350588
10
34.170635526
20
-3.256745004
10
34.349830944
20
-3.257139420
10
34.529033373
20
-3.257533835
10
34.708242814
20
-3.257928251
10
34.887459266
20
-3.258322667
10
35.066682729
20
-3.258717083
10
35.245913204
20
-3.259111498
10
35.425150690
20
-3.259505914
10
35.604395188
20
-3.259900330
10
35.783646696
20
-3.260294745
10
35.962905216
20
-3.260689161
10
36.142170748
20
-3.261083577
10
36.321443290
20
-3.261477993
10
36.500707575
20
-3.260929246
10
36.677330919
20
-3.232816910
10
36.843251155
20
-3.166331131
10
36.990223431
20
-3.064798238
10
37.110945021
20
-2.933290779
10
37.199419329
20
-2.778375330
10
37.251254969
20
-2.607785799
10
37.264633318
20
-2.430027659
10
37.265027734
20
-2.251480846
10
37.265422150
20
-2.072927021
10
37.265816565
20
-1.894366186
10
37.266210981
20
-1.715798339
10
37.266605397
20
-1.537223480
10
37.266999813
20
-1.358641610
10
37.267394228
20
-1.180052729
10
37.267788644
20
-1.001456837
10
37.268183060
20
-0.822853933
10
37.268577475
20
-0.644244018
10
37.268971891
20
-0.465627092
10
37.269366307
20
-0.287003154
10
37.269760723
20
-0.108372205
10
37.270155138
20
0.070265755
10
37.270549554
20
0.248910727
10
37.270943970
20
0.427562710
10
37.271338385
20
0.606221704
10
37.271732801
20
0.784887710
10
37.272127217
20
0.963560727
10
37.272521633
20
1.142240755
10
37.272916048
20
1.320927795
10
37.273310464
20
1.499621846
10
37.273704880
20
1.678322908
10
37.274099295
20
1.857030982
10
37.274493711
20
2.035746067
10
37.274888127
20
2.214468163
10
37.275282543
20
2.393197270
10
37.269893128
20
2.571701306
10
37.229402327
20
2.745315642
10
37.151621717
20
2.905609674
10
37.040416734
20
3.044666545
10
36.901308258
20
3.155619209
10
36.741199735
20
3.232990701
10
36.568035742
20
3.272965705
10
36.390230260
20
3.278437868
10
36.212226881
20
3.278832284
10
36.034216492
20
3.279226700
10
35.856199091
20
3.279621115
10
35.678174679
20
3.280015531
10
35.500143256
20
3.280409947
10
35.322104821
20
3.280804363
10
35.144059375
20
3.281198778
10
34.966006918
20
3.281593194
10
34.787947449
20
3.281987610
10
34.609880969
20
3.282382025
10
34.431807478
20
3.282776441
10
34.253726976
20
3.283170857
10
34.075639462
20
3.283565273
10
33.897544936
20
3.283959688
10
33.719443400
20
3.284354104
10
33.541334852
20
3.284748520
10
33.363219293
20
3.285142935
10
33.185096722
20
3.285537351
10
33.006967140
20
3.285931767
10
32.828830547
20
3.286326183
10
32.650686942
20
3.286720598
10
32.472536326
20
3.287115014
10
32.294378699
20
3.287509430
10
32.116214061
20
3.287903845
10
31.938042411
20
3.288298261
10
31.759863750
20
3.288692677
10
31.581678077
20
3.289087093
10
31.403485394
20
3.289481508
10
31.225285698
20
3.289875924
10
31.047078992
20
3.290270340
10
30.868865274
20
3.290664755
10
30.690644545
20
3.291059171
10
30.512416805
20
3.291453587
10
30.334182053
20
3.291848003
10
30.155940290
20
3.292242418
10
29.977691515
20
3.292636834
10
29.799435730
20
3.293031250
10
29.621172933
20
3.293425665
10
29.442903124
20
3.293820081
10
29.264626305
20
3.294214497
10
29.086342474
20
3.294608913
10
28.908051631
20
3.295003328
10
28.729753778
20
3.295397744
10
28.551448913
20
3.295792160
10
28.373137036
20
3.296186575
10
28.194818149
20
3.296580991
10
28.016492250
20
3.296975407
10
27.838159339
20
3.297369823
10
27.659819418
20
3.297764238
10
27.481472485
20
3.298158654
10
27.303118541
20
3.298553070
10
27.124757585
20
3.298947485
10
26.946389618
20
3.299341901
10
26.768014640
20
3.299736317
10
26.589632650
20
3.300130733
10
26.411243649
20
3.300525148
10
26.232847637
20
3.300919564
10
26.054444614
20
3.301313980
10
25.876034579
20
3.301708396
10
25.697617533
20
3.302102811
10
25.519193475
20
3.302497227
10
25.340762406
20
3.302891643
10
25.162324326
20
3.303286058
10
24.983879235
20
3.303680474
10
24.805427132
20
3.304074890
10
24.626968018
20
3.304469306
10
24.448501892
20
3.304863721
10
24.270028755
20
3.305258137
10
24.091548607
20
3.305652553
10
23.913061448
20
3.306046968
10
23.734567277
20
3.306441384
10
23.556066095
20
3.306835800
10
23.377557902
20
3.307230216
10
23.199042697
20
3.307624631
10
23.020520481
20
3.308019047
10
22.841991254
20
3.308413463
10
22.663455015
20
3.308807878
10
22.484911765
20
3.309202294
10
22.306361504
20
3.309596710
10
22.127804231
20
3.309991126
10
21.949239947
20
3.310385541
10
21.770668652
20
3.310779957
10
21.592090345
20
3.311174373
10
21.413505027
20
3.311568788
10
21.234912698
20
3.311963204
10
21.056313357
20
3.312357620
10
20.877707005
20
3.312752036
10
20.699093642
20
3.313146451
10
20.520473267
20
3.313540867
10
20.341845881
20
3.313935283
10
20.163211484
20
3.314329698
10
19.984570076
20
3.314724114
10
19.805921656
20
3.315118530
10
19.627266225
20
3.315512946
10
19.448603782
20
3.315907361
10
19.269934328
20
3.316301777
10
19.091257863
20
3.316696193
10
18.912574386
20
3.317090608
10
18.733883899
20
3.317485024
10
18.555186400
20
3.317879440
10
18.376481889
20
3.318273856
10
18.197770367
20
3.318668271
10
18.019051834
20
3.319062687
10
17.840326290
20
3.319457103
10
17.661593734
20
3.319851518
10
17.482854167
20
3.320245934
10
17.304107588
20
3.320640350
10
17.125353999
20
3.321034766
10
16.946593398
20
3.321429181
10
16.767825785
20
3.321823597
10
16.589051161
20
3.322218013
10
16.410269526
20
3.322612428
10
16.231480880
20
3.323006844
10
16.052685222
20
3.323401260
10
15.873882553
20
3.323795676
10
15.695072873
20
3.324190091
10
15.516256181
20
3.324584507
10
15.337432478
20
3.324978923
10
15.158601764
20
3.325373338
10
14.979764038
20
3.325767754
10
14.800919301
20
3.326162170
10
14.622067553
20
3.326556586
10
14.443208794
20
3.326951001
10
14.264343023
20
3.327345417
10
14.085470240
20
3.327739833
10
13.906590447
20
3.328134248
10
13.727703642
20
3.328528664
10
13.548809826
20
3.328923080
10
13.369908998
20
3.329317496
10
13.191001159
20
3.329711911
0
LWPOLYLINE
100
AcDbEntity
8
COPPER_L2_INNER1
100
AcDbPolyline
90
220
70
0
38
0.000000000
10
13.191001159
20
3.329711911
10
13.012086309
20
3.330106327
10
12.833164448
20
3.330500743
10
12.654235575
20
3.330895158
10
12.475299691
20
3.331289574
10
12.296356795
20
3.331683990
10
12.117406888
20
3.332078406
10
11.938449970
20
3.332472821
10
11.759486041
20
3.332867237
10
11.580515100
20
3.333261653
10
11.401537148
20
3.333656068
10
11.222552184
20
3.334050484
10
11.043560209
20
3.334444900
10
10.864561223
20
3.334839316
10
10.685555226
20
3.335233731
10
10.506542217
20
3.335628147
10
10.327522197
20
3.336022563
10
10.148495166
20
3.336416978
10
9.969461123
20
3.336811394
10
9.790420069
20
3.337205810
10
9.611372004
20
3.337600226
10
9.432316927
20
3.337994641
10
9.253254839
20
3.338389057
10
9.074185740
20
3.338783473
10
8.895109629
20
3.339177888
10
8.716026507
20
3.339572304
10
8.536936374
20
3.339966720
10
8.357839229
20
3.340361136
10
8.178735073
20
3.340755551
10
7.999623906
20
3.341149967
10
7.820505727
20
3.341544383
10
7.641380537
20
3.341938798
10
7.462248336
20
3.342333214
10
7.283109123
20
3.342727630
10
7.103962900
20
3.343122046
10
6.924809664
20
3.343516461
10
6.745649418
20
3.343910877
10
6.566482160
20
3.344305293
10
6.387307891
20
3.344699708
10
6.208126610
20
3.345094124
10
6.028938318
20
3.345488540
10
5.849743015
20
3.345882956
10
5.670540701
20
3.346277371
10
5.491331375
20
3.346671787
10
5.312115038
20
3.347066203
10
5.132891689
20
3.347460618
10
4.953661329
20
3.347855034
10
4.774423958
20
3.348249450
10
4.595179576
20
3.348643866
10
4.415928182
20
3.349038281
10
4.236669777
20
3.349432697
10
4.057404361
20
3.349827113
10
3.878131933
20
3.350221528
10
3.698852494
20
3.350615944
10
3.519566043
20
3.351010360
10
3.340272582
20
3.351404776
10
3.160972109
20
3.351799191
10
2.981664624
20
3.352193607
10
2.802350129
20
3.352588023
10
2.623028622
20
3.352982438
10
2.443700103
20
3.353376854
10
2.264364574
20
3.353771270
10
2.085022033
20
3.354165686
10
1.905672480
20
3.354560101
10
1.726315917
20
3.354954517
10
1.546952342
20
3.355348933
10
1.367581756
20
3.355743348
10
1.188204158
20
3.356137764
10
1.008819549
20
3.356532180
10
0.829427929
20
3.356926596
10
0.650029297
20
3.357321011
10
0.470623654
20
3.357715427
10
0.291211000
20
3.358109843
10
0.111791335
20
3.358504258
10
-0.067635342
20
3.358898674
10
-0.247069030
20
3.359293090
10
-0.426509730
20
3.359687506
10
-0.605957441
20
3.360081921
10
-0.785412163
20
3.360476337
10
-0.964873896
20
3.360870753
10
-1.144342641
20
3.361265168
10
-1.323818397
20
3.361659584
10
-1.503301165
20
3.362054000
10
-1.682790944
20
3.362448416
10
-1.862287734
20
3.362842831
10
-2.041791535
20
3.363237247
10
-2.221302348
20
3.363631663
10
-2.400820172
20
3.364026078
10
-2.580345007
20
3.364420494
10
-2.759876854
20
3.364814910
10
-2.939415712
20
3.365209326
10
-3.118961582
20
3.365603741
10
-3.298514462
20
3.365998157
10
-3.478074354
20
3.366392573
10
-3.657641258
20
3.366786988
10
-3.837215172
20
3.367181404
10
-4.016796098
20
3.367575820
10
-4.196384036
20
3.367970236
10
-4.375978984
20
3.368364651
10
-4.555580944
20
3.368759067
10
-4.735189916
20
3.369153483
10
-4.914805898
20
3.369547899
10
-5.094428892
20
3.369942314
10
-5.274058898
20
3.370336730
10
-5.453695914
20
3.370731146
10
-5.633339942
20
3.371125561
10
-5.812990981
20
3.371519977
10
-5.992649032
20
3.371914393
10
-6.172314094
20
3.372308809
10
-6.351986167
20
3.372703224
10
-6.531665252
20
3.373097640
10
-6.711351347
20
3.373492056
10
-6.891044455
20
3.373886471
10
-7.070744573
20
3.374280887
10
-7.250451703
20
3.374675303
10
-7.430165844
20
3.375069719
10
-7.609886997
20
3.375464134
10
-7.789615160
20
3.375858550
10
-7.969350336
20
3.376252966
10
-8.149092522
20
3.376647381
10
-8.328841720
20
3.377041797
10
-8.508597929
20
3.377436213
10
-8.688361149
20
3.377830629
10
-8.868131381
20
3.378225044
10
-9.047908624
20
3.378619460
10
-9.227692879
20
3.379013876
10
-9.407484144
20
3.379408291
10
-9.587282421
20
3.379802707
10
-9.767087710
20
3.380197123
10
-9.946900009
20
3.380591539
10
-10.126719320
20
3.380985954
10
-10.306545643
20
3.381380370
10
-10.486378976
20
3.381774786
10
-10.666219321
20
3.382169201
10
-10.846066678
20
3.382563617
10
-11.025921045
20
3.382958033
10
-11.205782424
20
3.383352449
10
-11.385650815
20
3.383746864
10
-11.565526216
20
3.384141280
10
-11.745408629
20
3.384535696
10
-11.925298054
20
3.384930111
10
-12.105194489
20
3.385324527
10
-12.285097936
20
3.385718943
10
-12.465008394
20
3.386113359
10
-12.644925864
20
3.386507774
10
-12.824850345
20
3.386902190
10
-13.004781837
20
3.387296606
10
-13.184720340
20
3.387691021
10
-13.364665855
20
3.388085437
10
-13.544618382
20
3.388479853
10
-13.724577919
20
3.388874269
10
-13.904544468
20
3.389268684
10
-14.084518028
20
3.389663100
10
-14.264498600
20
3.390057516
10
-14.444486182
20
3.390451931
10
-14.624480776
20
3.390846347
10
-14.804482382
20
3.391240763
10
-14.984490999
20
3.391635179
10
-15.164506627
20
3.392029594
10
-15.344529266
20
3.392424010
10
-15.524558917
20
3.392818426
10
-15.704595579
20
3.393212841
10
-15.884639252
20
3.393607257
10
-16.064689937
20
3.394001673
10
-16.244747633
20
3.394396089
10
-16.424812341
20
3.394790504
10
-16.604884059
20
3.395184920
10
-16.784962789
20
3.395579336
10
-16.965048531
20
3.395973751
10
-17.145141283
20
3.396368167
10
-17.325241047
20
3.396762583
10
-17.505347823
20
3.397156999
10
-17.685461609
20
3.397551414
10
-17.865582407
20
3.397945830
10
-18.045710217
20
3.398340246
10
-18.225845037
20
3.398734661
10
-18.405986869
20
3.399129077
10
-18.586135712
20
3.399523493
10
-18.766291567
20
3.399917909
10
-18.946454433
20
3.400312324
10
-19.126624310
20
3.400706740
10
-19.306801199
20
3.401101156
10
-19.486985099
20
3.401495571
10
-19.667176010
20
3.401889987
10
-19.847373932
20
3.402284403
10
-20.027578866
20
3.402678819
10
-20.207790811
20
3.403073234
10
-20.388009768
20
3.403467650
10
-20.568235736
20
3.403862066
10
-20.748468715
20
3.404256481
10
-20.928708705
20
3.404650897
10
-21.108955707
20
3.405045313
10
-21.289209720
20
3.405439729
10
-21.469470745
20
3.405834144
10
-21.649738780
20
3.406228560
10
-21.830013828
20
3.406622976
10
-22.010295886
20
3.407017391
10
-22.190584956
20
3.407411807
10
-22.370881037
20
3.407806223
10
-22.551184129
20
3.408200639
10
-22.731494233
20
3.408595054
10
-22.911811348
20
3.408989470
10
-23.092135474
20
3.409383886
10
-23.272466612
20
3.409778301
10
-23.452804761
20
3.410172717
10
-23.633149921
20
3.410567133
10
-23.813502093
20
3.410961549
10
-23.993861276
20
3.411355964
10
-24.174227470
20
3.411750380
10
-24.354600676
20
3.412144796
10
-24.534980893
20
3.412539211
10
-24.715368121
20
3.412933627
10
-24.895762361
20
3.413328043
10
-25.076163612
20
3.413722459
10
-25.256571874
20
3.414116874
10
-25.436987148
20
3.414511290
10
-25.617409433
20
3.414905706
10
-25.797838729
20
3.415300121
10
-25.978275036
20
3.415694537
10
-26.158718355
20
3.416088953
0
LWPOLYLINE
100
AcDbEntity
8
COPPER_L2_INNER1
100
AcDbPolyline
90
220
70
0
38
0.000000000
10
-26.158718355
20
3.416088953
10
-26.339168685
20
3.416483369
10
-26.519626027
20
3.416877784
10
-26.700090380
20
3.417272200
10
-26.880561744
20
3.417666616
10
-27.061040120
20
3.418061031
10
-27.241525506
20
3.418455447
10
-27.422017905
20
3.418849863
10
-27.602517314
20
3.419244279
10
-27.783023735
20
3.419638694
10
-27.963537167
20
3.420033110
10
-28.144057610
20
3.420427526
10
-28.324585065
20
3.420821941
10
-28.505119531
20
3.421216357
10
-28.685661009
20
3.421610773
10
-28.866209497
20
3.422005189
10
-29.046764997
20
3.422399604
10
-29.227327509
20
3.422794020
10
-29.407897032
20
3.423188436
10
-29.588473566
20
3.423582851
10
-29.769057111
20
3.423977267
10
-29.949647668
20
3.424371683
10
-30.130245236
20
3.424766099
10
-30.310849815
20
3.425160514
10
-30.491461406
20
3.425554930
10
-30.672080008
20
3.425949346
10
-30.852705621
20
3.426343761
10
-31.033338246
20
3.426738177
10
-31.213977882
20
3.427132593
10
-31.394624529
20
3.427527009
10
-31.575278188
20
3.427921424
10
-31.755938857
20
3.428315840
10
-31.936606539
20
3.428710256
10
-32.117281231
20
3.429104671
10
-32.297962935
20
3.429499087
10
-32.478651650
20
3.429893503
10
-32.659347377
20
3.430287919
10
-32.840050115
20
3.430682334
10
-33.020759864
20
3.431076750
10
-33.201476625
20
3.431471166
10
-33.382200396
20
3.431865581
10
-33.562931180
20
3.432259997
10
-33.743668974
20
3.432654413
10
-33.924413780
20
3.433048829
10
-34.105165597
20
3.433443244
10
-34.285924426
20
3.433837660
10
-34.466690265
20
3.434232076
10
-34.647463116
20
3.434626492
10
-34.828242979
20
3.435020907
10
-35.009029853
20
3.435415323
10
-35.189823738
20
3.435809739
10
-35.370624634
20
3.436204154
10
-35.551432542
20
3.436598570
10
-35.732247461
20
3.436992986
10
-35.913069391
20
3.437387402
10
-36.093898333
20
3.437781817
10
-36.274734286
20
3.438176233
10
-36.455577251
20
3.438570649
10
-36.636427226
20
3.438965064
10
-36.815821014
20
3.419655147
10
-36.986279789
20
3.360808544
10
-37.139184179
20
3.265418816
10
-37.266802811
20
3.138336166
10
-37.362684429
20
2.986018083
10
-37.421985240
20
2.816202454
10
-37.441725974
20
2.637515637
10
-37.442120390
20
2.457398402
10
-37.442514806
20
2.277274156
10
-37.442909222
20
2.097142899
10
-37.443303637
20
1.917004630
10
-37.443698053
20
1.736859350
10
-37.444092469
20
1.556707058
10
-37.444486884
20
1.376547755
10
-37.444881300
20
1.196381441
10
-37.445275716
20
1.016208116
10
-37.445670132
20
0.836027779
10
-37.446064547
20
0.655840431
10
-37.446458963
20
0.475646071
10
-37.446853379
20
0.295444701
10
-37.447247794
20
0.115236319
10
-37.447642210
20
-0.064979075
10
-37.448036626
20
-0.245201479
10
-37.448431042
20
-0.425430895
10
-37.448825457
20
-0.605667323
10
-37.449219873
20
-0.785910762
10
-37.449614289
20
-0.966161212
10
-37.450008704
20
-1.146418673
10
-37.450403120
20
-1.326683146
10
-37.450797536
20
-1.506954630
10
-37.451191952
20
-1.687233125
10
-37.451586367
20
-1.867518631
10
-37.451980783
20
-2.047811149
10
-37.452375199
20
-2.228110679
10
-37.452769614
20
-2.408417219
10
-37.453164030
20
-2.588730771
10
-37.445236285
20
-2.768650577
10
-37.400022096
20
-2.942710021
10
-37.317221109
20
-3.102229274
10
-37.201020463
20
-3.239189728
10
-37.057290959
20
-3.346707852
10
-36.893291690
20
-3.419382361
10
-36.717304610
20
-3.453566800
10
-36.537784179
20
-3.456319356
10
-36.358196356
20
-3.456713772
10
-36.178601523
20
-3.457108187
10
-35.998999678
20
-3.457502603
10
-35.819390821
20
-3.457897019
10
-35.639774953
20
-3.458291434
10
-35.460152074
20
-3.458685850
10
-35.280522184
20
-3.459080266
10
-35.100885282
20
-3.459474682
10
-34.921241369
20
-3.459869097
10
-34.741590445
20
-3.460263513
10
-34.561932509
20
-3.460657929
10
-34.382267562
20
-3.461052344
10
-34.202595604
20
-3.461446760
10
-34.022916634
20
-3.461841176
10
-33.843230653
20
-3.462235592
10
-33.663537661
20
-3.462630007
10
-33.483837658
20
-3.463024423
10
-33.304130643
20
-3.463418839
10
-33.124416616
20
-3.463813254
10
-32.944695579
20
-3.464207670
10
-32.764967530
20
-3.464602086
10
-32.585232470
20
-3.464996502
10
-32.405490398
20
-3.465390917
10
-32.225741315
20
-3.465785333
10
-32.045985221
20
-3.466179749
10
-31.866222116
20
-3.466574164
10
-31.686451999
20
-3.466968580
10
-31.506674871
20
-3.467362996
10
-31.326890731
20
-3.467757412
10
-31.147099580
20
-3.468151827
10
-30.967301418
20
-3.468546243
10
-30.787496245
20
-3.468940659
10
-30.607684060
20
-3.469335074
10
-30.427864864
20
-3.469729490
10
-30.248038656
20
-3.470123906
10
-30.068205437
20
-3.470518322
10
-29.888365207
20
-3.470912737
10
-29.708517966
20
-3.471307153
10
-29.528663713
20
-3.471701569
10
-29.348802449
20
-3.472095984
10
-29.168934174
20
-3.472490400
10
-28.989058887
20
-3.472884816
10
-28.809176589
20
-3.473279232
10
-28.629287280
20
-3.473673647
10
-28.449390959
20
-3.474068063
10
-28.269487627
20
-3.474462479
10
-28.089577284
20
-3.474856894
10
-27.909659929
20
-3.475251310
10
-27.729735563
20
-3.475645726
10
-27.549804186
20
-3.476040142
10
-27.369865797
20
-3.476434557
10
-27.189920397
20
-3.476828973
10
-27.009967986
20
-3.477223389
10
-26.830008563
20
-3.477617804
10
-26.650042129
20
-3.478012220
10
-26.470068684
20
-3.478406636
10
-26.290088228
20
-3.478801052
10
-26.110100760
20
-3.479195467
10
-25.930106280
20
-3.479589883
10
-25.750104790
20
-3.479984299
10
-25.570096288
20
-3.480378714
10
-25.390080775
20
-3.480773130
10
-25.210058250
20
-3.481167546
10
-25.030028714
20
-3.481561962
10
-24.849992167
20
-3.481956377
10
-24.669948609
20
-3.482350793
10
-24.489898039
20
-3.482745209
10
-24.309840458
20
-3.483139624
10
-24.129775865
20
-3.483534040
10
-23.949704262
20
-3.483928456
10
-23.769625646
20
-3.484322872
10
-23.589540020
20
-3.484717287
10
-23.409447382
20
-3.485111703
10
-23.229347733
20
-3.485506119
10
-23.049241073
20
-3.485900534
10
-22.869127401
20
-3.486294950
10
-22.689006718
20
-3.486689366
10
-22.508879024
20
-3.487083782
10
-22.328744318
20
-3.487478197
10
-22.148602601
20
-3.487872613
10
-21.968453872
20
-3.488267029
10
-21.788298133
20
-3.488661444
10
-21.608135382
20
-3.489055860
10
-21.427965619
20
-3.489450276
10
-21.247788846
20
-3.489844692
10
-21.067605061
20
-3.490239107
10
-20.887414265
20
-3.490633523
10
-20.707216457
20
-3.491027939
10
-20.527011638
20
-3.491422354
10
-20.346799808
20
-3.491816770
10
-20.166580966
20
-3.492211186
10
-19.986355113
20
-3.492605602
10
-19.806122249
20
-3.493000017
10
-19.625882373
20
-3.493394433
10
-19.445635486
20
-3.493788849
10
-19.265381588
20
-3.494183264
10
-19.085120679
20
-3.494577680
10
-18.904852758
20
-3.494972096
10
-18.724577826
20
-3.495366512
10
-18.544295882
20
-3.495760927
10
-18.364006927
20
-3.496155343
10
-18.183710961
20
-3.496549759
10
-18.003407984
20
-3.496944174
10
-17.823097995
20
-3.497338590
10
-17.642780995
20
-3.497733006
10
-17.462456983
20
-3.498127422
10
-17.282125960
20
-3.498521837
10
-17.101787926
20
-3.498916253
10
-16.921442881
20
-3.499310669
10
-16.741090824
20
-3.499705084
10
-16.560731756
20
-3.500099500
10
-16.380365677
20
-3.500493916
10
-16.199992586
20
-3.500888332
10
-16.019612484
20
-3.501282747
10
-15.839225370
20
-3.501677163
10
-15.658831246
20
-3.502071579
10
-15.478430110
20
-3.502465995
0
LWPOLYLINE
100
AcDbEntity
8
COPPER_L2_INNER1
100
AcDbPolyline
90
220
70
0
38
0.000000000
10
-15.478430110
20
-3.502465995
10
-15.298021962
20
-3.502860410
10
-15.117606804
20
-3.503254826
10
-14.937184634
20
-3.503649242
10
-14.756755452
20
-3.504043657
10
-14.576319260
20
-3.504438073
10
-14.395876056
20
-3.504832489
10
-14.215425840
20
-3.505226905
10
-14.034968614
20
-3.505621320
10
-13.854504376
20
-3.506015736
10
-13.674033127
20
-3.506410152
10
-13.493554866
20
-3.506804567
10
-13.313069594
20
-3.507198983
10
-13.132577311
20
-3.507593399
10
-12.952078016
20
-3.507987815
10
-12.771571710
20
-3.508382230
10
-12.591058393
20
-3.508776646
10
-12.410538065
20
-3.509171062
10
-12.230010725
20
-3.509565477
10
-12.049476374
20
-3.509959893
10
-11.868935011
20
-3.510354309
10
-11.688386637
20
-3.510748725
10
-11.507831252
20
-3.511143140
10
-11.327268856
20
-3.511537556
10
-11.146699448
20
-3.511931972
10
-10.966123029
20
-3.512326387
10
-10.785539598
20
-3.512720803
10
-10.604949156
20
-3.513115219
10
-10.424351703
20
-3.513509635
10
-10.243747239
20
-3.513904050
10
-10.063135763
20
-3.514298466
10
-9.882517276
20
-3.514692882
10
-9.701891778
20
-3.515087297
10
-9.521259268
20
-3.515481713
10
-9.340619747
20
-3.515876129
10
-9.159973214
20
-3.516270545
10
-8.979319671
20
-3.516664960
10
-8.798659116
20
-3.517059376
10
-8.617991549
20
-3.517453792
10
-8.437316972
20
-3.517848207
10
-8.256635383
20
-3.518242623
10
-8.075946782
20
-3.518637039
10
-7.895251171
20
-3.519031455
10
-7.714548548
20
-3.519425870
10
-7.533838913
20
-3.519820286
10
-7.353122268
20
-3.520214702
10
-7.172398611
20
-3.520609117
10
-6.991667943
20
-3.521003533
10
-6.810930263
20
-3.521397949
10
-6.630185572
20
-3.521792365
10
-6.449433870
20
-3.522186780
10
-6.268675156
20
-3.522581196
10
-6.087909431
20
-3.522975612
10
-5.907136695
20
-3.523370027
10
-5.726356948
20
-3.523764443
10
-5.545570189
20
-3.524158859
10
-5.364776419
20
-3.524553275
10
-5.183975637
20
-3.524947690
10
-5.003167844
20
-3.525342106
10
-4.822353040
20
-3.525736522
10
-4.641531225
20
-3.526130937
10
-4.460702398
20
-3.526525353
10
-4.279866560
20
-3.526919769
10
-4.099023710
20
-3.527314185
10
-3.918173850
20
-3.527708600
10
-3.737316977
20
-3.528103016
10
-3.556453094
20
-3.528497432
10
-3.375582199
20
-3.528891847
10
-3.194704293
20
-3.529286263
10
-3.013819376
20
-3.529680679
10
-2.832927447
20
-3.530075095
10
-2.652028507
20
-3.530469510
10
-2.471122556
20
-3.530863926
10
-2.290209593
20
-3.531258342
10
-2.109289619
20
-3.531652757
10
-1.928362634
20
-3.532047173
10
-1.747428637
20
-3.532441589
10
-1.566487629
20
-3.532836005
10
-1.385539610
20
-3.533230420
10
-1.204584579
20
-3.533624836
10
-1.023622537
20
-3.534019252
10
-0.842653484
20
-3.534413667
10
-0.661677419
20
-3.534808083
10
-0.480694343
20
-3.535202499
10
-0.299704256
20
-3.535596915
10
-0.118707157
20
-3.535991330
10
0.062296953
20
-3.536385746
10
0.243308074
20
-3.536780162
10
0.424326206
20
-3.537174577
10
0.605351350
20
-3.537568993
10
0.786383506
20
-3.537963409
10
0.967422672
20
-3.538357825
10
1.148468850
20
-3.538752240
10
1.329522039
20
-3.539146656
10
1.510582240
20
-3.539541072
10
1.691649451
20
-3.539935487
10
1.872723675
20
-3.540329903
10
2.053804909
20
-3.540724319
10
2.234893155
20
-3.541118735
10
2.415988412
20
-3.541513150
10
2.597090680
20
-3.541907566
10
2.778199960
20
-3.542301982
10
2.959316251
20
-3.542696397
10
3.140439554
20
-3.543090813
10
3.321569868
20
-3.543485229
10
3.502707193
20
-3.543879645
10
3.683851529
20
-3.544274060
10
3.865002877
20
-3.544668476
10
4.046161236
20
-3.545062892
10
4.227326606
20
-3.545457307
10
4.408498988
20
-3.545851723
10
4.589678381
20
-3.546246139
10
4.770864785
20
-3.546640555
10
4.952058201
20
-3.547034970
10
5.133258628
20
-3.547429386
10
5.314466066
20
-3.547823802
10
5.495680516
20
-3.548218217
10
5.676901977
20
-3.548612633
10
5.858130449
20
-3.549007049
10
6.039365933
20
-3.549401465
10
6.220608428
20
-3.549795880
10
6.401857934
20
-3.550190296
10
6.583114451
20
-3.550584712
10
6.764377980
20
-3.550979127
10
6.945648521
20
-3.551373543
10
7.126926072
20
-3.551767959
10
7.308210635
20
-3.552162375
10
7.489502209
20
-3.552556790
10
7.670800795
20
-3.552951206
10
7.852106392
20
-3.553345622
10
8.033419000
20
-3.553740037
10
8.214738619
20
-3.554134453
10
8.396065250
20
-3.554528869
10
8.577398892
20
-3.554923285
10
8.758739546
20
-3.555317700
10
8.940087211
20
-3.555712116
10
9.121441887
20
-3.556106532
10
9.302803574
20
-3.556500947
10
9.484172273
20
-3.556895363
10
9.665547983
20
-3.557289779
10
9.846930704
20
-3.557684195
10
10.028320437
20
-3.558078610
10
10.209717181
20
-3.558473026
10
10.391120937
20
-3.558867442
10
10.572531703
20
-3.559261857
10
10.753949481
20
-3.559656273
10
10.935374271
20
-3.560050689
10
11.116806071
20
-3.560445105
10
11.298244883
20
-3.560839520
10
11.479690707
20
-3.561233936
10
11.661143541
20
-3.561628352
10
11.842603387
20
-3.562022767
10
12.024070245
20
-3.562417183
10
12.205544113
20
-3.562811599
10
12.387024993
20
-3.563206015
10
12.568512885
20
-3.563600430
10
12.750007787
20
-3.563994846
10
12.931509701
20
-3.564389262
10
13.113018626
20
-3.564783677
10
13.294534563
20
-3.565178093
10
13.476057511
20
-3.565572509
10
13.657587470
20
-3.565966925
10
13.839124441
20
-3.566361340
10
14.020668423
20
-3.566755756
10
14.202219416
20
-3.567150172
10
14.383777420
20
-3.567544588
10
14.565342436
20
-3.567939003
10
14.746914463
20
-3.568333419
10
14.928493502
20
-3.568727835
10
15.110079552
20
-3.569122250
10
15.291672613
20
-3.569516666
10
15.473272685
20
-3.569911082
10
15.654879769
20
-3.570305498
10
15.836493864
20
-3.570699913
10
16.018114971
20
-3.571094329
10
16.199743088
20
-3.571488745
10
16.381378217
20
-3.571883160
10
16.563020358
20
-3.572277576
10
16.744669510
20
-3.572671992
10
16.926325673
20
-3.573066408
10
17.107988847
20
-3.573460823
10
17.289659033
20
-3.573855239
10
17.471336230
20
-3.574249655
10
17.653020438
20
-3.574644070
10
17.834711658
20
-3.575038486
10
18.016409889
20
-3.575432902
10
18.198115131
20
-3.575827318
10
18.379827385
20
-3.576221733
10
18.561546650
20
-3.576616149
10
18.743272926
20
-3.577010565
10
18.925006214
20
-3.577404980
10
19.106746513
20
-3.577799396
10
19.288493823
20
-3.578193812
10
19.470248145
20
-3.578588228
10
19.652009478
20
-3.578982643
10
19.833777822
20
-3.579377059
10
20.015553177
20
-3.579771475
10
20.197335544
20
-3.580165890
10
20.379124922
20
-3.580560306
10
20.560921312
20
-3.580954722
10
20.742724713
20
-3.581349138
10
20.924535125
20
-3.581743553
10
21.106352549
20
-3.582137969
10
21.288176983
20
-3.582532385
10
21.470008430
20
-3.582926800
10
21.651846887
20
-3.583321216
10
21.833692356
20
-3.583715632
10
22.015544836
20
-3.584110048
10
22.197404328
20
-3.584504463
10
22.379270830
20
-3.584898879
10
22.561144344
20
-3.585293295
10
22.743024870
20
-3.585687710
10
22.924912407
20
-3.586082126
10
23.106806955
20
-3.586476542
10
23.288708514
20
-3.586870958
10
23.470617085
20
-3.587265373
10
23.652532667
20
-3.587659789
10
23.834455260
20
-3.588054205
10
24.016384865
20
-3.588448620
10
24.198321481
20
-3.588843036
0
LWPOLYLINE
100
AcDbEntity
8
COPPER_L2_INNER1
100
AcDbPolyline
90
220
70
0
38
0.000000000
10
24.198321481
20
-3.588843036
10
24.380265108
20
-3.589237452
10
24.562215747
20
-3.589631868
10
24.744173397
20
-3.590026283
10
24.926138059
20
-3.590420699
10
25.108109731
20
-3.590815115
10
25.290088415
20
-3.591209530
10
25.472074110
20
-3.591603946
10
25.654066817
20
-3.591998362
10
25.836066535
20
-3.592392778
10
26.018073264
20
-3.592787193
10
26.200087005
20
-3.593181609
10
26.382107757
20
-3.593576025
10
26.564135520
20
-3.593970440
10
26.746170295
20
-3.594364856
10
26.928212081
20
-3.594759272
10
27.110260878
20
-3.595153688
10
27.292316686
20
-3.595548103
10
27.474379506
20
-3.595942519
10
27.656449337
20
-3.596336935
10
27.838526180
20
-3.596731350
10
28.020610034
20
-3.597125766
10
28.202700899
20
-3.597520182
10
28.384798775
20
-3.597914598
10
28.566903663
20
-3.598309013
10
28.749015562
20
-3.598703429
10
28.931134473
20
-3.599097845
10
29.113260395
20
-3.599492260
10
29.295393328
20
-3.599886676
10
29.477533272
20
-3.600281092
10
29.659680228
20
-3.600675508
10
29.841834195
20
-3.601069923
10
30.023995173
20
-3.601464339
10
30.206163163
20
-3.601858755
10
30.388338164
20
-3.602253170
10
30.570520177
20
-3.602647586
10
30.752709200
20
-3.603042002
10
30.934905235
20
-3.603436418
10
31.117108282
20
-3.603830833
10
31.299318339
20
-3.604225249
10
31.481535408
20
-3.604619665
10
31.663759489
20
-3.605014080
10
31.845990580
20
-3.605408496
10
32.028228683
20
-3.605802912
10
32.210473798
20
-3.606197328
10
32.392725923
20
-3.606591743
10
32.574985060
20
-3.606986159
10
32.757251208
20
-3.607380575
10
32.939524368
20
-3.607774990
10
33.121804539
20
-3.608169406
10
33.304091721
20
-3.608563822
10
33.486385915
20
-3.608958238
10
33.668687120
20
-3.609352653
10
33.850995336
20
-3.609747069
10
34.033310563
20
-3.610141485
10
34.215632802
20
-3.610535900
10
34.397962053
20
-3.610930316
10
34.580298314
20
-3.611324732
10
34.762641587
20
-3.611719148
10
34.944991871
20
-3.612113563
10
35.127349167
20
-3.612507979
10
35.309713473
20
-3.612902395
10
35.492084791
20
-3.613296810
10
35.674463121
20
-3.613691226
10
35.856848462
20
-3.614085642
10
36.039240814
20
-3.614480058
10
36.221640177
20
-3.614874473
10
36.404046552
20
-3.615268889
10
36.586459938
20
-3.615663305
10
36.768880336
20
-3.616057720
10
36.950669982
20
-3.605112754
10
37.125519557
20
-3.554898702
10
37.284460888
20
-3.466629562
10
37.419317016
20
-3.344872723
10
37.523151419
20
-3.195923303
10
37.590626062
20
-3.027479967
10
37.618277133
20
-2.848248246
10
37.619213046
20
-2.666567231
10
37.619607462
20
-2.484872563
10
37.620001878
20
-2.303170884
10
37.620396293
20
-2.121462194
10
37.620790709
20
-1.939746492
10
37.621185125
20
-1.758023779
10
37.621579540
20
-1.576294054
10
37.621973956
20
-1.394557318
10
37.622368372
20
-1.212813571
10
37.622762788
20
-1.031062813
10
37.623157203
20
-0.849305043
10
37.623551619
20
-0.667540262
10
37.623946035
20
-0.485768469
10
37.624340450
20
-0.303989665
10
37.624734866
20
-0.122203850
10
37.625129282
20
0.059588976
10
37.625523698
20
0.241388814
10
37.625918113
20
0.423195663
10
37.626312529
20
0.605009523
10
37.626706945
20
0.786830395
10
37.627101360
20
0.968658278
10
37.627495776
20
1.150493172
10
37.627890192
20
1.332335078
10
37.628284608
20
1.514183995
10
37.628679023
20
1.696039924
10
37.629073439
20
1.877902863
10
37.629467855
20
2.059772814
10
37.629862270
20
2.241649777
10
37.630256686
20
2.423533750
10
37.630651102
20
2.605424735
10
37.631045518
20
2.787322731
10
37.619603313
20
2.968547507
10
37.568953353
20
3.142729145
10
37.480513267
20
3.300979450
10
37.358833138
20
3.435203532
10
37.210168228
20
3.538536838
10
37.042158682
20
3.605697469
10
36.863438114
20
3.633257466
10
36.682279639
20
3.634200843
10
36.501107372
20
3.634595259
10
36.319928094
20
3.634989675
10
36.138741804
20
3.635384091
10
35.957548504
20
3.635778506
10
35.776348191
20
3.636172922
10
35.595140868
20
3.636567338
10
35.413926533
20
3.636961753
10
35.232705187
20
3.637356169
10
35.051476830
20
3.637750585
10
34.870241461
20
3.638145001
10
34.688999081
20
3.638539416
10
34.507749690
20
3.638933832
10
34.326493287
20
3.639328248
10
34.145229873
20
3.639722663
10
33.963959448
20
3.640117079
10
33.782682011
20
3.640511495
10
33.601397563
20
3.640905911
10
33.420106104
20
3.641300326
10
33.238807633
20
3.641694742
10
33.057502151
20
3.642089158
10
32.876189658
20
3.642483573
10
32.694870153
20
3.642877989
10
32.513543638
20
3.643272405
10
32.332210110
20
3.643666821
10
32.150869572
20
3.644061236
10
31.969522022
20
3.644455652
10
31.788167461
20
3.644850068
10
31.606805888
20
3.645244483
10
31.425437304
20
3.645638899
10
31.244061709
20
3.646033315
10
31.062679103
20
3.646427731
10
30.881289485
20
3.646822146
10
30.699892856
20
3.647216562
10
30.518489215
20
3.647610978
10
30.337078563
20
3.648005393
10
30.155660900
20
3.648399809
10
29.974236226
20
3.648794225
10
29.792804540
20
3.649188641
10
29.611365843
20
3.649583056
10
29.429920134
20
3.649977472
10
29.248467415
20
3.650371888
10
29.067007684
20
3.650766303
10
28.885540941
20
3.651160719
10
28.704067187
20
3.651555135
10
28.522586422
20
3.651949551
10
28.341098646
20
3.652343966
10
28.159603858
20
3.652738382
10
27.978102059
20
3.653132798
10
27.796593249
20
3.653527213
10
27.615077427
20
3.653921629
10
27.433554594
20
3.654316045
10
27.252024750
20
3.654710461
10
27.070487894
20
3.655104876
10
26.888944027
20
3.655499292
10
26.707393149
20
3.655893708
10
26.525835259
20
3.656288123
10
26.344270358
20
3.656682539
10
26.162698446
20
3.657076955
10
25.981119523
20
3.657471371
10
25.799533588
20
3.657865786
10
25.617940641
20
3.658260202
10
25.436340684
20
3.658654618
10
25.254733715
20
3.659049033
10
25.073119735
20
3.659443449
10
24.891498743
20
3.659837865
10
24.709870740
20
3.660232281
10
24.528235726
20
3.660626696
10
24.346593701
20
3.661021112
10
24.164944664
20
3.661415528
10
23.983288616
20
3.661809943
10
23.801625556
20
3.662204359
10
23.619955485
20
3.662598775
10
23.438278403
20
3.662993191
10
23.256594310
20
3.663387606
10
23.074903205
20
3.663782022
10
22.893205089
20
3.664176438
10
22.711499962
20
3.664570853
10
22.529787823
20
3.664965269
10
22.348068673
20
3.665359685
10
22.166342511
20
3.665754101
10
21.984609339
20
3.666148516
10
21.802869155
20
3.666542932
10
21.621121959
20
3.666937348
10
21.439367752
20
3.667331763
10
21.257606534
20
3.667726179
10
21.075838305
20
3.668120595
10
20.894063064
20
3.668515011
10
20.712280812
20
3.668909426
10
20.530491549
20
3.669303842
10
20.348695274
20
3.669698258
10
20.166891989
20
3.670092673
10
19.985081691
20
3.670487089
10
19.803264383
20
3.670881505
10
19.621440063
20
3.671275921
10
19.439608731
20
3.671670336
10
19.257770389
20
3.672064752
10
19.075925035
20
3.672459168
10
18.894072670
20
3.672853583
10
18.712213293
20
3.673247999
10
18.530346905
20
3.673642415
10
18.348473506
20
3.674036831
10
18.166593096
20
3.674431246
10
17.984705674
20
3.674825662
10
17.802811240
20
3.675220078
0
LWPOLYLINE
100
AcDbEntity
8
COPPER_L2_INNER1
100
AcDbPolyline
90
220
70
0
38
0.000000000
10
17.802811240
20
3.675220078
10
17.620909796
20
3.675614493
10
17.439001340
20
3.676008909
10
17.257085873
20
3.676403325
10
17.075163395
20
3.676797741
10
16.893233905
20
3.677192156
10
16.711297404
20
3.677586572
10
16.529353891
20
3.677980988
10
16.347403367
20
3.678375403
10
16.165445832
20
3.678769819
10
15.983481286
20
3.679164235
10
15.801509728
20
3.679558651
10
15.619531159
20
3.679953066
10
15.437545579
20
3.680347482
10
15.255552987
20
3.680741898
10
15.073553384
20
3.681136313
10
14.891546769
20
3.681530729
10
14.709533144
20
3.681925145
10
14.527512507
20
3.682319561
10
14.345484858
20
3.682713976
10
14.163450199
20
3.683108392
10
13.981408528
20
3.683502808
10
13.799359845
20
3.683897223
10
13.617304152
20
3.684291639
10
13.435241447
20
3.684686055
10
13.253171731
20
3.685080471
10
13.071095003
20
3.685474886
10
12.889011264
20
3.685869302
10
12.706920514
20
3.686263718
10
12.524822752
20
3.686658133
10
12.342717979
20
3.687052549
10
12.160606195
20
3.687446965
10
11.978487400
20
3.687841381
10
11.796361593
20
3.688235796
10
11.614228774
20
3.688630212
10
11.432088945
20
3.689024628
10
11.249942104
20
3.689419043
10
11.067788252
20
3.689813459
10
10.885627388
20
3.690207875
10
10.703459514
20
3.690602291
10
10.521284627
20
3.690996706
10
10.339102730
20
3.691391122
10
10.156913821
20
3.691785538
10
9.974717901
20
3.692179953
10
9.792514970
20
3.692574369
10
9.610305027
20
3.692968785
10
9.428088073
20
3.693363201
10
9.245864107
20
3.693757616
10
9.063633131
20
3.694152032
10
8.881395142
20
3.694546448
10
8.699150143
20
3.694940863
10
8.516898132
20
3.695335279
10
8.334639110
20
3.695729695
10
8.152373077
20
3.696124111
10
7.970100032
20
3.696518526
10
7.787819976
20
3.696912942
10
7.605532909
20
3.697307358
10
7.423238830
20
3.697701773
10
7.240937740
20
3.698096189
10
7.058629639
20
3.698490605
10
6.876314526
20
3.698885021
10
6.693992402
20
3.699279436
10
6.511663267
20
3.699673852
10
6.329327120
20
3.700068268
10
6.146983963
20
3.700462684
10
5.964633793
20
3.700857099
10
5.782276613
20
3.701251515
10
5.599912421
20
3.701645931
10
5.417541218
20
3.702040346
10
5.235163003
20
3.702434762
10
5.052777777
20
3.702829178
10
4.870385540
20
3.703223594
10
4.687986291
20
3.703618009
10
4.505580032
20
3.704012425
10
4.323166760
20
3.704406841
10
4.140746478
20
3.704801256
10
3.958319184
20
3.705195672
10
3.775884879
20
3.705590088
10
3.593443562
20
3.705984504
10
3.410995235
20
3.706378919
10
3.228539896
20
3.706773335
10
3.046077545
20
3.707167751
10
2.863608183
20
3.707562166
10
2.681131810
20
3.707956582
10
2.498648426
20
3.708350998
10
2.316158030
20
3.708745414
10
2.133660623
20
3.709139829
10
1.951156205
20
3.709534245
10
1.768644775
20
3.709928661
10
1.586126334
20
3.710323076
10
1.403600882
20
3.710717492
10
1.221068418
20
3.711111908
10
1.038528943
20
3.711506324
10
0.855982457
20
3.711900739
10
0.673428959
20
3.712295155
10
0.490868450
20
3.712689571
10
0.308300930
20
3.713083986
10
0.125726398
20
3.713478402
10
-0.056855145
20
3.713872818
10
-0.239443699
20
3.714267234
10
-0.422039265
20
3.714661649
10
-0.604641842
20
3.715056065
10
-0.787251430
20
3.715450481
10
-0.969868030
20
3.715844896
10
-1.152491641
20
3.716239312
10
-1.335122263
20
3.716633728
10
-1.517759896
20
3.717028144
10
-1.700404541
20
3.717422559
10
-1.883056197
20
3.717816975
10
-2.065714865
20
3.718211391
10
-2.248380544
20
3.718605806
10
-2.431053234
20
3.719000222
10
-2.613732935
20
3.719394638
10
-2.796419648
20
3.719789054
10
-2.979113372
20
3.720183469
10
-3.161814108
20
3.720577885
10
-3.344521855
20
3.720972301
10
-3.527236613
20
3.721366716
10
-3.709958382
20
3.721761132
10
-3.892687163
20
3.722155548
10
-4.075422955
20
3.722549964
10
-4.258165758
20
3.722944379
10
-4.440915573
20
3.723338795
10
-4.623672399
20
3.723733211
10
-4.806436237
20
3.724127626
10
-4.989207085
20
3.724522042
10
-5.171984945
20
3.724916458
10
-5.354769817
20
3.725310874
10
-5.537561699
20
3.725705289
10
-5.720360593
20
3.726099705
10
-5.903166499
20
3.726494121
10
-6.085979415
20
3.726888536
10
-6.268799343
20
3.727282952
10
-6.451626283
20
3.727677368
10
-6.634460233
20
3.728071784
10
-6.817301195
20
3.728466199
10
-7.000149169
20
3.728860615
10
-7.183004153
20
3.729255031
10
-7.365866149
20
3.729649446
10
-7.548735156
20
3.730043862
10
-7.731611175
20
3.730438278
10
-7.914494205
20
3.730832694
10
-8.097384246
20
3.731227109
10
-8.280281299
20
3.731621525
10
-8.463185362
20
3.732015941
10
-8.646096438
20
3.732410356
10
-8.829014524
20
3.732804772
10
-9.011939622
20
3.733199188
10
-9.194871731
20
3.733593604
10
-9.377810852
20
3.733988019
10
-9.560756983
20
3.734382435
10
-9.743710127
20
3.734776851
10
-9.926670281
20
3.735171266
10
-10.109637447
20
3.735565682
10
-10.292611624
20
3.735960098
10
-10.475592812
20
3.736354514
10
-10.658581012
20
3.736748929
10
-10.841576223
20
3.737143345
10
-11.024578446
20
3.737537761
10
-11.207587679
20
3.737932176
10
-11.390603924
20
3.738326592
10
-11.573627181
20
3.738721008
10
-11.756657449
20
3.739115424
10
-11.939694728
20
3.739509839
10
-12.122739018
20
3.739904255
10
-12.305790320
20
3.740298671
10
-12.488848633
20
3.740693086
10
-12.671913957
20
3.741087502
10
-12.854986293
20
3.741481918
10
-13.038065640
20
3.741876334
10
-13.221151998
20
3.742270749
10
-13.404245367
20
3.742665165
10
-13.587345748
20
3.743059581
10
-13.770453141
20
3.743453996
10
-13.953567544
20
3.743848412
10
-14.136688959
20
3.744242828
10
-14.319817385
20
3.744637244
10
-14.502952823
20
3.745031659
10
-14.686095272
20
3.745426075
10
-14.869244732
20
3.745820491
10
-15.052401204
20
3.746214906
10
-15.235564687
20
3.746609322
10
-15.418735181
20
3.747003738
10
-15.601912686
20
3.747398154
10
-15.785097203
20
3.747792569
10
-15.968288731
20
3.748186985
10
-16.151487271
20
3.748581401
10
-16.334692822
20
3.748975816
10
-16.517905384
20
3.749370232
10
-16.701124957
20
3.749764648
10
-16.884351542
20
3.750159064
10
-17.067585138
20
3.750553479
10
-17.250825745
20
3.750947895
10
-17.434073364
20
3.751342311
10
-17.617327994
20
3.751736726
10
-17.800589636
20
3.752131142
10
-17.983858288
20
3.752525558
10
-18.167133952
20
3.752919974
10
-18.350416628
20
3.753314389
10
-18.533706315
20
3.753708805
10
-18.717003013
20
3.754103221
10
-18.900306722
20
3.754497636
10
-19.083617443
20
3.754892052
10
-19.266935175
20
3.755286468
10
-19.450259918
20
3.755680884
10
-19.633591673
20
3.756075299
10
-19.816930439
20
3.756469715
10
-20.000276216
20
3.756864131
10
-20.183629004
20
3.757258546
10
-20.366988804
20
3.757652962
10
-20.550355616
20
3.758047378
10
-20.733729438
20
3.758441794
10
-20.917110272
20
3.758836209
10
-21.100498117
20
3.759230625
10
-21.283892974
20
3.759625041
10
-21.467294842
20
3.760019456
10
-21.650703721
20
3.760413872
10
-21.834119612
20
3.760808288
10
-22.017542513
20
3.761202704
10
-22.200972427
20
3.761597119
0
LWPOLYLINE
100
AcDbEntity
8
COPPER_L2_INNER1
100
AcDbPolyline
90
220
70
0
38
0.000000000
10
-22.200972427
20
3.761597119
10
-22.384409351
20
3.761991535
10
-22.567853287
20
3.762385951
10
-22.751304234
20
3.762780366
10
-22.934762193
20
3.763174782
10
-23.118227162
20
3.763569198
10
-23.301699144
20
3.763963614
10
-23.485178136
20
3.764358029
10
-23.668664140
20
3.764752445
10
-23.852157155
20
3.765146861
10
-24.035657181
20
3.765541276
10
-24.219164219
20
3.765935692
10
-24.402678268
20
3.766330108
10
-24.586199329
20
3.766724524
10
-24.769727400
20
3.767118939
10
-24.953262483
20
3.767513355
10
-25.136804578
20
3.767907771
10
-25.320353683
20
3.768302187
10
-25.503909800
20
3.768696602
10
-25.687472929
20
3.769091018
10
-25.871043068
20
3.769485434
10
-26.054620219
20
3.769879849
10
-26.238204382
20
3.770274265
10
-26.421795555
20
3.770668681
10
-26.605393740
20
3.771063097
10
-26.788998937
20
3.771457512
10
-26.972611144
20
3.771851928
10
-27.156230363
20
3.772246344
10
-27.339856594
20
3.772640759
10
-27.523489835
20
3.773035175
10
-27.707130088
20
3.773429591
10
-27.890777352
20
3.773824007
10
-28.074431628
20
3.774218422
10
-28.258092915
20
3.774612838
10
-28.441761213
20
3.775007254
10
-28.625436522
20
3.775401669
10
-28.809118843
20
3.775796085
10
-28.992808175
20
3.776190501
10
-29.176504519
20
3.776584917
10
-29.360207874
20
3.776979332
10
-29.543918240
20
3.777373748
10
-29.727635617
20
3.777768164
10
-29.911360006
20
3.778162579
10
-30.095091406
20
3.778556995
10
-30.278829818
20
3.778951411
10
-30.462575241
20
3.779345827
10
-30.646327675
20
3.779740242
10
-30.830087120
20
3.780134658
10
-31.013853577
20
3.780529074
10
-31.197627045
20
3.780923489
10
-31.381407524
20
3.781317905
10
-31.565195015
20
3.781712321
10
-31.748989517
20
3.782106737
10
-31.932791031
20
3.782501152
10
-32.116599555
20
3.782895568
10
-32.300415091
20
3.783289984
10
-32.484237639
20
3.783684399
10
-32.668067197
20
3.784078815
10
-32.851903767
20
3.784473231
10
-33.035747349
20
3.784867647
10
-33.219597941
20
3.785262062
10
-33.403455545
20
3.785656478
10
-33.587320160
20
3.786050894
10
-33.771191787
20
3.786445309
10
-33.955070425
20
3.786839725
10
-34.138956074
20
3.787234141
10
-34.322848735
20
3.787628557
10
-34.506748407
20
3.788022972
10
-34.690655090
20
3.788417388
10
-34.874568785
20
3.788811804
10
-35.058489490
20
3.789206219
10
-35.242417208
20
3.789600635
10
-35.426351936
20
3.789995051
10
-35.610293676
20
3.790389467
10
-35.794242427
20
3.790783882
10
-35.978198190
20
3.791178298
10
-36.162160964
20
3.791572714
10
-36.346130749
20
3.791967129
10
-36.530107545
20
3.792361545
10
-36.714091353
20
3.792755961
10
-36.898082172
20
3.793150377
10
-37.081899389
20
3.788650738
10
-37.260866177
20
3.748094360
10
-37.425839775
20
3.667982227
10
-37.568186027
20
3.552532608
10
-37.680456085
20
3.407818247
10
-37.756777498
20
3.241448278
10
-37.793162727
20
3.062169426
10
-37.796305702
20
2.878987333
10
-37.796700118
20
2.695722244
10
-37.797094534
20
2.512450143
10
-37.797488949
20
2.329171030
10
-37.797883365
20
2.145884907
10
-37.798277781
20
1.962591772
10
-37.798672197
20
1.779291626
10
-37.799066612
20
1.595984468
10
-37.799461028
20
1.412670299
10
-37.799855444
20
1.229349119
10
-37.800249859
20
1.046018209
10
-37.800644275
20
0.862679943
10
-37.801038691
20
0.679336170
10
-37.801433107
20
0.495986891
10
-37.801827522
20
0.312632105
10
-37.802221938
20
0.129271812
10
-37.802616354
20
-0.054093987
10
-37.803010769
20
-0.237465293
10
-37.803405185
20
-0.420842106
10
-37.803799601
20
-0.604224425
10
-37.804194017
20
-0.787612251
10
-37.804588432
20
-0.971005584
10
-37.804982848
20
-1.154404424
10
-37.805377264
20
-1.337808770
10
-37.805771679
20
-1.521218622
10
-37.806166095
20
-1.704633982
10
-37.806560511
20
-1.888054848
10
-37.806954927
20
-2.071481221
10
-37.807349342
20
-2.254913100
10
-37.807743758
20
-2.438350487
10
-37.808138174
20
-2.621793380
10
-37.808532589
20
-2.805241779
10
-37.808927005
20
-2.988695685
10
-37.791080341
20
-3.170859758
10
-37.732870479
20
-3.344297250
10
-37.637262751
20
-3.500174776
10
-37.509194941
20
-3.630585703
10
-37.355236700
20
-3.728947331
10
-37.183247059
20
-3.790327564
10
-37.001969178
20
-3.811685527
10
-36.819090767
20
-3.812082331
10
-36.636206847
20
-3.812476747
10
-36.453317421
20
-3.812871162
10
-36.270422488
20
-3.813265578
10
-36.087522048
20
-3.813659994
10
-35.904616102
20
-3.814054409
10
-35.721704649
20
-3.814448825
10
-35.538787689
20
-3.814843241
10
-35.355865223
20
-3.815237657
10
-35.172937250
20
-3.815632072
10
-34.990003770
20
-3.816026488
10
-34.807064783
20
-3.816420904
10
-34.624120290
20
-3.816815319
10
-34.441170291
20
-3.817209735
10
-34.258214784
20
-3.817604151
10
-34.075253771
20
-3.817998567
10
-33.892287251
20
-3.818392982
10
-33.709315225
20
-3.818787398
10
-33.526337691
20
-3.819181814
10
-33.343354651
20
-3.819576229
10
-33.160366105
20
-3.819970645
10
-32.977372052
20
-3.820365061
10
-32.794372492
20
-3.820759477
10
-32.611367425
20
-3.821153892
10
-32.428356852
20
-3.821548308
10
-32.245340772
20
-3.821942724
10
-32.062319185
20
-3.822337139
10
-31.879292092
20
-3.822731555
10
-31.696259492
20
-3.823125971
10
-31.513221385
20
-3.823520387
10
-31.330177772
20
-3.823914802
10
-31.147128652
20
-3.824309218
10
-30.964074025
20
-3.824703634
10
-30.781013892
20
-3.825098049
10
-30.597948252
20
-3.825492465
10
-30.414877105
20
-3.825886881
10
-30.231800451
20
-3.826281297
10
-30.048718291
20
-3.826675712
10
-29.865630624
20
-3.827070128
10
-29.682537451
20
-3.827464544
10
-29.499438771
20
-3.827858959
10
-29.316334584
20
-3.828253375
10
-29.133224890
20
-3.828647791
10
-28.950109690
20
-3.829042207
10
-28.766988983
20
-3.829436622
10
-28.583862770
20
-3.829831038
10
-28.400731049
20
-3.830225454
10
-28.217593822
20
-3.830619869
10
-28.034451089
20
-3.831014285
10
-27.851302848
20
-3.831408701
10
-27.668149101
20
-3.831803117
10
-27.484989848
20
-3.832197532
10
-27.301825087
20
-3.832591948
10
-27.118654820
20
-3.832986364
10
-26.935479047
20
-3.833380779
10
-26.752297766
20
-3.833775195
10
-26.569110979
20
-3.834169611
10
-26.385918685
20
-3.834564027
10
-26.202720885
20
-3.834958442
10
-26.019517578
20
-3.835352858
10
-25.836308764
20
-3.835747274
10
-25.653094444
20
-3.836141690
10
-25.469874616
20
-3.836536105
10
-25.286649283
20
-3.836930521
10
-25.103418442
20
-3.837324937
10
-24.920182095
20
-3.837719352
10
-24.736940241
20
-3.838113768
10
-24.553692880
20
-3.838508184
10
-24.370440013
20
-3.838902600
10
-24.187181639
20
-3.839297015
10
-24.003917759
20
-3.839691431
10
-23.820648371
20
-3.840085847
10
-23.637373477
20
-3.840480262
10
-23.454093077
20
-3.840874678
10
-23.270807169
20
-3.841269094
10
-23.087515755
20
-3.841663510
10
-22.904218835
20
-3.842057925
10
-22.720916407
20
-3.842452341
10
-22.537608473
20
-3.842846757
10
-22.354295032
20
-3.843241172
10
-22.170976085
20
-3.843635588
10
-21.987651631
20
-3.844030004
10
-21.804321670
20
-3.844424420
10
-21.620986203
20
-3.844818835
10
-21.437645228
20
-3.845213251
10
-21.254298748
20
-3.845607667
10
-21.070946760
20
-3.846002082
10
-20.887589266
20
-3.846396498
10
-20.704226265
20
-3.846790914
10
-20.520857758
20
-3.847185330
10
-20.337483743
20
-3.847579745
10
-20.154104222
20
-3.847974161
0
LWPOLYLINE
100
AcDbEntity
8
COPPER_L2_INNER1
100
AcDbPolyline
90
220
70
0
38
0.000000000
10
-20.154104222
20
-3.847974161
10
-19.970719195
20
-3.848368577
10
-19.787328660
20
-3.848762992
10
-19.603932619
20
-3.849157408
10
-19.420531072
20
-3.849551824
10
-19.237124018
20
-3.849946240
10
-19.053711457
20
-3.850340655
10
-18.870293389
20
-3.850735071
10
-18.686869814
20
-3.851129487
10
-18.503440733
20
-3.851523902
10
-18.320006146
20
-3.851918318
10
-18.136566051
20
-3.852312734
10
-17.953120450
20
-3.852707150
10
-17.769669342
20
-3.853101565
10
-17.586212728
20
-3.853495981
10
-17.402750607
20
-3.853890397
10
-17.219282979
20
-3.854284812
10
-17.035809844
20
-3.854679228
10
-16.852331203
20
-3.855073644
10
-16.668847055
20
-3.855468060
10
-16.485357401
20
-3.855862475
10
-16.301862240
20
-3.856256891
10
-16.118361572
20
-3.856651307
10
-15.934855397
20
-3.857045722
10
-15.751343716
20
-3.857440138
10
-15.567826528
20
-3.857834554
10
-15.384303833
20
-3.858228970
10
-15.200775632
20
-3.858623385
10
-15.017241924
20
-3.859017801
10
-14.833702709
20
-3.859412217
10
-14.650157988
20
-3.859806632
10
-14.466607760
20
-3.860201048
10
-14.283052025
20
-3.860595464
10
-14.099490784
20
-3.860989880
10
-13.915924036
20
-3.861384295
10
-13.732351781
20
-3.861778711
10
-13.548774020
20
-3.862173127
10
-13.365190751
20
-3.862567542
10
-13.181601977
20
-3.862961958
10
-12.998007695
20
-3.863356374
10
-12.814407907
20
-3.863750790
10
-12.630802612
20
-3.864145205
10
-12.447191811
20
-3.864539621
10
-12.263575502
20
-3.864934037
10
-12.079953688
20
-3.865328452
10
-11.896326366
20
-3.865722868
10
-11.712693538
20
-3.866117284
10
-11.529055203
20
-3.866511700
10
-11.345411361
20
-3.866906115
10
-11.161762013
20
-3.867300531
10
-10.978107158
20
-3.867694947
10
-10.794446796
20
-3.868089362
10
-10.610780928
20
-3.868483778
10
-10.427109553
20
-3.868878194
10
-10.243432671
20
-3.869272610
10
-10.059750283
20
-3.869667025
10
-9.876062388
20
-3.870061441
10
-9.692368986
20
-3.870455857
10
-9.508670078
20
-3.870850272
10
-9.324965662
20
-3.871244688
10
-9.141255741
20
-3.871639104
10
-8.957540312
20
-3.872033520
10
-8.773819377
20
-3.872427935
10
-8.590092935
20
-3.872822351
10
-8.406360987
20
-3.873216767
10
-8.222623531
20
-3.873611182
10
-8.038880570
20
-3.874005598
10
-7.855132101
20
-3.874400014
10
-7.671378126
20
-3.874794430
10
-7.487618644
20
-3.875188845
10
-7.303853655
20
-3.875583261
10
-7.120083160
20
-3.875977677
10
-6.936307158
20
-3.876372092
10
-6.752525649
20
-3.876766508
10
-6.568738634
20
-3.877160924
10
-6.384946112
20
-3.877555340
10
-6.201148083
20
-3.877949755
10
-6.017344548
20
-3.878344171
10
-5.833535506
20
-3.878738587
10
-5.649720957
20
-3.879133002
10
-5.465900902
20
-3.879527418
10
-5.282075340
20
-3.879921834
10
-5.098244271
20
-3.880316250
10
-4.914407695
20
-3.880710665
10
-4.730565613
20
-3.881105081
10
-4.546718024
20
-3.881499497
10
-4.362864929
20
-3.881893912
10
-4.179006327
20
-3.882288328
10
-3.995142218
20
-3.882682744
10
-3.811272602
20
-3.883077160
10
-3.627397480
20
-3.883471575
10
-3.443516851
20
-3.883865991
10
-3.259630716
20
-3.884260407
10
-3.075739073
20
-3.884654822
10
-2.891841924
20
-3.885049238
10
-2.707939269
20
-3.885443654
10
-2.524031107
20
-3.885838070
10
-2.340117438
20
-3.886232485
10
-2.156198262
20
-3.886626901
10
-1.972273579
20
-3.887021317
10
-1.788343390
20
-3.887415732
10
-1.604407695
20
-3.887810148
10
-1.420466492
20
-3.888204564
10
-1.236519783
20
-3.888598980
10
-1.052567568
20
-3.888993395
10
-0.868609845
20
-3.889387811
10
-0.684646616
20
-3.889782227
10
-0.500677880
20
-3.890176642
10
-0.316703638
20
-3.890571058
10
-0.132723888
20
-3.890965474
10
0.051261367
20
-3.891359890
10
0.235252130
20
-3.891754305
10
0.419248399
20
-3.892148721
10
0.603250175
20
-3.892543137
10
0.787257458
20
-3.892937552
10
0.971270247
20
-3.893331968
10
1.155288543
20
-3.893726384
10
1.339312345
20
-3.894120800
10
1.523341655
20
-3.894515215
10
1.707376471
20
-3.894909631
10
1.891416793
20
-3.895304047
10
2.075462623
20
-3.895698462
10
2.259513959
20
-3.896092878
10
2.443570801
20
-3.896487294
10
2.627633151
20
-3.896881710
10
2.811701007
20
-3.897276125
10
2.995774370
20
-3.897670541
10
3.179853239
20
-3.898064957
10
3.363937615
20
-3.898459372
10
3.548027498
20
-3.898853788
10
3.732122887
20
-3.899248204
10
3.916223784
20
-3.899642620
10
4.100330186
20
-3.900037035
10
4.284442096
20
-3.900431451
10
4.468559512
20
-3.900825867
10
4.652682435
20
-3.901220283
10
4.836810865
20
-3.901614698
10
5.020944801
20
-3.902009114
10
5.205084244
20
-3.902403530
10
5.389229193
20
-3.902797945
10
5.573379650
20
-3.903192361
10
5.757535613
20
-3.903586777
10
5.941697082
20
-3.903981193
10
6.125864059
20
-3.904375608
10
6.310036542
20
-3.904770024
10
6.494214531
20
-3.905164440
10
6.678398028
20
-3.905558855
10
6.862587031
20
-3.905953271
10
7.046781540
20
-3.906347687
10
7.230981557
20
-3.906742103
10
7.415187080
20
-3.907136518
10
7.599398110
20
-3.907530934
10
7.783614646
20
-3.907925350
10
7.967836689
20
-3.908319765
10
8.152064239
20
-3.908714181
10
8.336297296
20
-3.909108597
10
8.520535859
20
-3.909503013
10
8.704779929
20
-3.909897428
10
8.889029505
20
-3.910291844
10
9.073284588
20
-3.910686260
10
9.257545178
20
-3.911080675
10
9.441811275
20
-3.911475091
10
9.626082878
20
-3.911869507
10
9.810359988
20
-3.912263923
10
9.994642605
20
-3.912658338
10
10.178930728
20
-3.913052754
10
10.363224358
20
-3.913447170
10
10.547523495
20
-3.913841585
10
10.731828138
20
-3.914236001
10
10.916138288
20
-3.914630417
10
11.100453945
20
-3.915024833
10
11.284775108
20
-3.915419248
10
11.469101778
20
-3.915813664
10
11.653433955
20
-3.916208080
10
11.837771639
20
-3.916602495
10
12.022114829
20
-3.916996911
10
12.206463525
20
-3.917391327
10
12.390817729
20
-3.917785743
10
12.575177439
20
-3.918180158
10
12.759542656
20
-3.918574574
10
12.943913379
20
-3.918968990
10
13.128289610
20
-3.919363405
10
13.312671347
20
-3.919757821
10
13.497058590
20
-3.920152237
10
13.681451340
20
-3.920546653
10
13.865849597
20
-3.920941068
10
14.050253361
20
-3.921335484
10
14.234662631
20
-3.921729900
10
14.419077408
20
-3.922124315
10
14.603497692
20
-3.922518731
10
14.787923482
20
-3.922913147
10
14.972354779
20
-3.923307563
10
15.156791583
20
-3.923701978
10
15.341233893
20
-3.924096394
10
15.525681710
20
-3.924490810
10
15.710135034
20
-3.924885225
10
15.894593865
20
-3.925279641
10
16.079058202
20
-3.925674057
10
16.263528046
20
-3.926068473
10
16.448003396
20
-3.926462888
10
16.632484253
20
-3.926857304
10
16.816970617
20
-3.927251720
10
17.001462488
20
-3.927646135
10
17.185959865
20
-3.928040551
10
17.370462749
20
-3.928434967
10
17.554971139
20
-3.928829383
10
17.739485036
20
-3.929223798
10
17.924004440
20
-3.929618214
10
18.108529351
20
-3.930012630
10
18.293059768
20
-3.930407045
10
18.477595692
20
-3.930801461
10
18.662137123
20
-3.931195877
10
18.846684060
20
-3.931590293
10
19.031236504
20
-3.931984708
10
19.215794455
20
-3.932379124
10
19.400357912
20
-3.932773540
10
19.584926876
20
-3.933167955
10
19.769501347
20
-3.933562371
10
19.954081324
20
-3.933956787
10
20.138666809
20
-3.934351203
0
LWPOLYLINE
100
AcDbEntity
8
COPPER_L2_INNER1
100
AcDbPolyline
90
220
70
0
38
0.000000000
10
20.138666809
20
-3.934351203
10
20.323257799
20
-3.934745618
10
20.507854297
20
-3.935140034
10
20.692456301
20
-3.935534450
10
20.877063812
20
-3.935928865
10
21.061676829
20
-3.936323281
10
21.246295353
20
-3.936717697
10
21.430919384
20
-3.937112113
10
21.615548922
20
-3.937506528
10
21.800183966
20
-3.937900944
10
21.984824517
20
-3.938295360
10
22.169470575
20
-3.938689775
10
22.354122139
20
-3.939084191
10
22.538779210
20
-3.939478607
10
22.723441787
20
-3.939873023
10
22.908109872
20
-3.940267438
10
23.092783463
20
-3.940661854
10
23.277462560
20
-3.941056270
10
23.462147165
20
-3.941450685
10
23.646837276
20
-3.941845101
10
23.831532893
20
-3.942239517
10
24.016234018
20
-3.942633933
10
24.200940649
20
-3.943028348
10
24.385652787
20
-3.943422764
10
24.570370431
20
-3.943817180
10
24.755093582
20
-3.944211595
10
24.939822240
20
-3.944606011
10
25.124556405
20
-3.945000427
10
25.309296076
20
-3.945394843
10
25.494041254
20
-3.945789258
10
25.678791938
20
-3.946183674
10
25.863548129
20
-3.946578090
10
26.048309827
20
-3.946972505
10
26.233077032
20
-3.947366921
10
26.417849743
20
-3.947761337
10
26.602627961
20
-3.948155753
10
26.787411686
20
-3.948550168
10
26.972200917
20
-3.948944584
10
27.156995655
20
-3.949339000
10
27.341795900
20
-3.949733415
10
27.526601651
20
-3.950127831
10
27.711412909
20
-3.950522247
10
27.896229674
20
-3.950916663
10
28.081051945
20
-3.951311078
10
28.265879723
20
-3.951705494
10
28.450713008
20
-3.952099910
10
28.635551799
20
-3.952494325
10
28.820396097
20
-3.952888741
10
29.005245902
20
-3.953283157
10
29.190101214
20
-3.953677573
10
29.374962032
20
-3.954071988
10
29.559828357
20
-3.954466404
10
29.744700188
20
-3.954860820
10
29.929577526
20
-3.955255235
10
30.114460371
20
-3.955649651
10
30.299348723
20
-3.956044067
10
30.484242581
20
-3.956438483
10
30.669141946
20
-3.956832898
10
30.854046818
20
-3.957227314
10
31.038957196
20
-3.957621730
10
31.223873081
20
-3.958016145
10
31.408794472
20
-3.958410561
10
31.593721371
20
-3.958804977
10
31.778653776
20
-3.959199393
10
31.963591688
20
-3.959593808
10
32.148535106
20
-3.959988224
10
32.333484031
20
-3.960382640
10
32.518438463
20
-3.960777055
10
32.703398401
20
-3.961171471
10
32.888363846
20
-3.961565887
10
33.073334798
20
-3.961960303
10
33.258311256
20
-3.962354718
10
33.443293222
20
-3.962749134
10
33.628280693
20
-3.963143550
10
33.813273672
20
-3.963537965
10
33.998272157
20
-3.963932381
10
34.183276149
20
-3.964326797
10
34.368285647
20
-3.964721213
10
34.553300653
20
-3.965115628
10
34.738321165
20
-3.965510044
10
34.923347183
20
-3.965904460
10
35.108378708
20
-3.966298875
10
35.293415740
20
-3.966693291
10
35.478458279
20
-3.967087707
10
35.663506324
20
-3.967482123
10
35.848559876
20
-3.967876538
10
36.033618935
20
-3.968270954
10
36.218683500
20
-3.968665370
10
36.403753572
20
-3.969059786
10
36.588829151
20
-3.969454201
10
36.773910237
20
-3.969848617
10
36.958996829
20
-3.970243033
10
37.143560302
20
-3.959962237
10
37.322917334
20
-3.915765951
10
37.490599696
20
-3.838439595
10
37.640568595
20
-3.730826477
10
37.767442637
20
-3.596853434
10
37.866688579
20
-3.441384411
10
37.934780404
20
-3.270041237
10
37.969321241
20
-3.088998294
10
37.973792774
20
-2.904606155
10
37.974187190
20
-2.720084042
10
37.974581606
20
-2.535556424
10
37.974976021
20
-2.351023298
10
37.975370437
20
-2.166484666
10
37.975764853
20
-1.981940527
10
37.976159268
20
-1.797390881
10
37.976553684
20
-1.612835729
10
37.976948100
20
-1.428275070
10
37.977342516
20
-1.243708905
10
37.977736931
20
-1.059137232
10
37.978131347
20
-0.874560054
10
37.978525763
20
-0.689977368
10
37.978920178
20
-0.505389176
10
37.979314594
20
-0.320795477
10
37.979709010
20
-0.136196271
10
37.980103426
20
0.048408441
10
37.980497841
20
0.233018660
10
37.980892257
20
0.417634386
10
37.981286673
20
0.602255619
10
37.981681088
20
0.786882358
10
37.982075504
20
0.971514603
10
37.982469920
20
1.156152356
10
37.982864336
20
1.340795615
10
37.983258751
20
1.525444381
10
37.983653167
20
1.710098653
10
37.984047583
20
1.894758432
10
37.984441998
20
2.079423718
10
37.984836414
20
2.264094511
10
37.985230830
20
2.448770810
10
37.985625246
20
2.633452616
10
37.986019661
20
2.818139929
10
37.986410009
20
3.002832744
10
37.969043044
20
3.186404347
10
37.917852951
20
3.363477018
10
37.834674217
20
3.527889596
10
37.722448910
20
3.673940095
10
37.585119402
20
3.796581746
10
37.427487050
20
3.891595110
10
37.255041955
20
3.955730483
10
37.073769942
20
3.986815889
10
36.889715608
20
3.989963818
10
36.705587269
20
3.990358234
10
36.521453423
20
3.990752650
10
36.337314070
20
3.991147066
10
36.153169211
20
3.991541481
10
35.969018845
20
3.991935897
10
35.784862972
20
3.992330313
10
35.600701592
20
3.992724728
10
35.416534706
20
3.993119144
10
35.232362314
20
3.993513560
10
35.048184414
20
3.993907976
10
34.864001008
20
3.994302391
10
34.679812095
20
3.994696807
10
34.495617676
20
3.995091223
10
34.311417750
20
3.995485638
10
34.127212317
20
3.995880054
10
33.943001377
20
3.996274470
10
33.758784931
20
3.996668886
10
33.574562978
20
3.997063301
10
33.390335519
20
3.997457717
10
33.206102552
20
3.997852133
10
33.021864079
20
3.998246548
10
32.837620100
20
3.998640964
10
32.653370613
20
3.999035380
10
32.469115620
20
3.999429796
10
32.284855121
20
3.999824211
10
32.100589114
20
4.000218627
10
31.916317601
20
4.000613043
10
31.732040582
20
4.001007458
10
31.547758055
20
4.001401874
10
31.363470022
20
4.001796290
10
31.179176483
20
4.002190706
10
30.994877436
20
4.002585121
10
30.810572883
20
4.002979537
10
30.626262823
20
4.003373953
10
30.441947257
20
4.003768368
10
30.257626184
20
4.004162784
10
30.073299604
20
4.004557200
10
29.888967517
20
4.004951616
10
29.704629924
20
4.005346031
10
29.520286824
20
4.005740447
10
29.335938218
20
4.006134863
10
29.151584104
20
4.006529278
10
28.967224484
20
4.006923694
10
28.782859358
20
4.007318110
10
28.598488725
20
4.007712526
10
28.414112585
20
4.008106941
10
28.229730938
20
4.008501357
10
28.045343785
20
4.008895773
10
27.860951125
20
4.009290188
10
27.676552958
20
4.009684604
10
27.492149285
20
4.010079020
10
27.307740105
20
4.010473436
10
27.123325418
20
4.010867851
10
26.938905224
20
4.011262267
10
26.754479524
20
4.011656683
10
26.570048318
20
4.012051098
10
26.385611604
20
4.012445514
10
26.201169384
20
4.012839930
10
26.016721657
20
4.013234346
10
25.832268424
20
4.013628761
10
25.647809683
20
4.014023177
10
25.463345437
20
4.014417593
10
25.278875683
20
4.014812008
10
25.094400423
20
4.015206424
10
24.909919656
20
4.015600840
10
24.725433382
20
4.015995256
10
24.540941602
20
4.016389671
10
24.356444315
20
4.016784087
10
24.171941521
20
4.017178503
10
23.987433221
20
4.017572918
10
23.802919414
20
4.017967334
10
23.618400101
20
4.018361750
10
23.433875280
20
4.018756166
10
23.249344953
20
4.019150581
10
23.064809119
20
4.019544997
10
22.880267779
20
4.019939413
10
22.695720932
20
4.020333828
10
22.511168578
20
4.020728244
0
LWPOLYLINE
100
AcDbEntity
8
COPPER_L2_INNER1
100
AcDbPolyline
90
220
70
0
38
0.000000000
10
22.511168578
20
4.020728244
10
22.326610718
20
4.021122660
10
22.142047351
20
4.021517076
10
21.957478477
20
4.021911491
10
21.772904096
20
4.022305907
10
21.588324209
20
4.022700323
10
21.403738815
20
4.023094738
10
21.219147915
20
4.023489154
10
21.034551508
20
4.023883570
10
20.849949594
20
4.024277986
10
20.665342173
20
4.024672401
10
20.480729246
20
4.025066817
10
20.296110812
20
4.025461233
10
20.111486871
20
4.025855648
10
19.926857424
20
4.026250064
10
19.742222470
20
4.026644480
10
19.557582009
20
4.027038896
10
19.372936042
20
4.027433311
10
19.188284568
20
4.027827727
10
19.003627587
20
4.028222143
10
18.818965100
20
4.028616558
10
18.634297106
20
4.029010974
10
18.449623605
20
4.029405390
10
18.264944598
20
4.029799806
10
18.080260084
20
4.030194221
10
17.895570063
20
4.030588637
10
17.710874535
20
4.030983053
10
17.526173501
20
4.031377468
10
17.341466960
20
4.031771884
10
17.156754913
20
4.032166300
10
16.972037359
20
4.032560716
10
16.787314298
20
4.032955131
10
16.602585730
20
4.033349547
10
16.417851656
20
4.033743963
10
16.233112075
20
4.034138379
10
16.048366987
20
4.034532794
10
15.863616393
20
4.034927210
10
15.678860292
20
4.035321626
10
15.494098685
20
4.035716041
10
15.309331570
20
4.036110457
10
15.124558949
20
4.036504873
10
14.939780822
20
4.036899289
10
14.754997187
20
4.037293704
10
14.570208046
20
4.037688120
10
14.385413398
20
4.038082536
10
14.200613244
20
4.038476951
10
14.015807583
20
4.038871367
10
13.830996415
20
4.039265783
10
13.646179741
20
4.039660199
10
13.461357559
20
4.040054614
10
13.276529872
20
4.040449030
10
13.091696677
20
4.040843446
10
12.906857976
20
4.041237861
10
12.722013768
20
4.041632277
10
12.537164054
20
4.042026693
10
12.352308832
20
4.042421109
10
12.167448104
20
4.042815524
10
11.982581870
20
4.043209940
10
11.797710129
20
4.043604356
10
11.612832881
20
4.043998771
10
11.427950126
20
4.044393187
10
11.243061865
20
4.044787603
10
11.058168097
20
4.045182019
10
10.873268822
20
4.045576434
10
10.688364041
20
4.045970850
10
10.503453753
20
4.046365266
10
10.318537958
20
4.046759681
10
10.133616657
20
4.047154097
10
9.948689848
20
4.047548513
10
9.763757534
20
4.047942929
10
9.578819712
20
4.048337344
10
9.393876384
20
4.048731760
10
9.208927549
20
4.049126176
10
9.023973208
20
4.049520591
10
8.839013360
20
4.049915007
10
8.654048005
20
4.050309423
10
8.469077143
20
4.050703839
10
8.284100775
20
4.051098254
10
8.099118900
20
4.051492670
10
7.914131519
20
4.051887086
10
7.729138630
20
4.052281501
10
7.544140235
20
4.052675917
10
7.359136334
20
4.053070333
10
7.174126926
20
4.053464749
10
6.989112011
20
4.053859164
10
6.804091589
20
4.054253580
10
6.619065661
20
4.054647996
10
6.434034226
20
4.055042411
10
6.248997284
20
4.055436827
10
6.063954835
20
4.055831243
10
5.878906880
20
4.056225659
10
5.693853419
20
4.056620074
10
5.508794450
20
4.057014490
10
5.323729975
20
4.057408906
10
5.138659993
20
4.057803321
10
4.953584505
20
4.058197737
10
4.768503510
20
4.058592153
10
4.583417008
20
4.058986569
10
4.398324999
20
4.059380984
10
4.213227484
20
4.059775400
10
4.028124462
20
4.060169816
10
3.843015934
20
4.060564231
10
3.657901898
20
4.060958647
10
3.472782357
20
4.061353063
10
3.287657308
20
4.061747479
10
3.102526753
20
4.062141894
10
2.917390691
20
4.062536310
10
2.732249122
20
4.062930726
10
2.547102047
20
4.063325141
10
2.361949465
20
4.063719557
10
2.176791376
20
4.064113973
10
1.991627781
20
4.064508389
10
1.806458679
20
4.064902804
10
1.621284070
20
4.065297220
10
1.436103954
20
4.065691636
10
1.250918332
20
4.066086051
10
1.065727204
20
4.066480467
10
0.880530568
20
4.066874883
10
0.695328426
20
4.067269299
10
0.510120777
20
4.067663714
10
0.324907622
20
4.068058130
10
0.139688959
20
4.068452546
10
-0.045535209
20
4.068846961
10
-0.230764885
20
4.069241377
10
-0.416000067
20
4.069635793
10
-0.601240756
20
4.070030209
10
-0.786486952
20
4.070424624
10
-0.971738654
20
4.070819040
10
-1.156995863
20
4.071213456
10
-1.342258579
20
4.071607871
10
-1.527526801
20
4.072002287
10
-1.712800530
20
4.072396703
10
-1.898079766
20
4.072791119
10
-2.083364508
20
4.073185534
10
-2.268654757
20
4.073579950
10
-2.453950513
20
4.073974366
10
-2.639251775
20
4.074368781
10
-2.824558544
20
4.074763197
10
-3.009870820
20
4.075157613
10
-3.195188602
20
4.075552029
10
-3.380511891
20
4.075946444
10
-3.565840687
20
4.076340860
10
-3.751174990
20
4.076735276
10
-3.936514799
20
4.077129691
10
-4.121860115
20
4.077524107
10
-4.307210937
20
4.077918523
10
-4.492567266
20
4.078312939
10
-4.677929102
20
4.078707354
10
-4.863296445
20
4.079101770
10
-5.048669294
20
4.079496186
10
-5.234047650
20
4.079890601
10
-5.419431513
20
4.080285017
10
-5.604820882
20
4.080679433
10
-5.790215758
20
4.081073849
10
-5.975616141
20
4.081468264
10
-6.161022030
20
4.081862680
10
-6.346433426
20
4.082257096
10
-6.531850329
20
4.082651511
10
-6.717272738
20
4.083045927
10
-6.902700654
20
4.083440343
10
-7.088134077
20
4.083834759
10
-7.273573006
20
4.084229174
10
-7.459017443
20
4.084623590
10
-7.644467385
20
4.085018006
10
-7.829922835
20
4.085412421
10
-8.015383791
20
4.085806837
10
-8.200850254
20
4.086201253
10
-8.386322223
20
4.086595669
10
-8.571799699
20
4.086990084
10
-8.757282682
20
4.087384500
10
-8.942771172
20
4.087778916
10
-9.128265168
20
4.088173331
10
-9.313764671
20
4.088567747
10
-9.499269681
20
4.088962163
10
-9.684780197
20
4.089356579
10
-9.870296220
20
4.089750994
10
-10.055817750
20
4.090145410
10
-10.241344786
20
4.090539826
10
-10.426877329
20
4.090934241
10
-10.612415379
20
4.091328657
10
-10.797958935
20
4.091723073
10
-10.983507998
20
4.092117489
10
-11.169062568
20
4.092511904
10
-11.354622644
20
4.092906320
10
-11.540188227
20
4.093300736
10
-11.725759317
20
4.093695151
10
-11.911335913
20
4.094089567
10
-12.096918017
20
4.094483983
10
-12.282505626
20
4.094878399
10
-12.468098743
20
4.095272814
10
-12.653697366
20
4.095667230
10
-12.839301496
20
4.096061646
10
-13.024911133
20
4.096456061
10
-13.210526276
20
4.096850477
10
-13.396146926
20
4.097244893
10
-13.581773082
20
4.097639309
10
-13.767404746
20
4.098033724
10
-13.953041915
20
4.098428140
10
-14.138684592
20
4.098822556
10
-14.324332775
20
4.099216971
10
-14.509986465
20
4.099611387
10
-14.695645662
20
4.100005803
10
-14.881310365
20
4.100400219
10
-15.066980576
20
4.100794634
10
-15.252656292
20
4.101189050
10
-15.438337516
20
4.101583466
10
-15.624024246
20
4.101977882
10
-15.809716482
20
4.102372297
10
-15.995414226
20
4.102766713
10
-16.181117476
20
4.103161129
10
-16.366826233
20
4.103555544
10
-16.552540496
20
4.103949960
10
-16.738260267
20
4.104344376
10
-16.923985543
20
4.104738792
10
-17.109716327
20
4.105133207
10
-17.295452617
20
4.105527623
10
-17.481194414
20
4.105922039
10
-17.666941718
20
4.106316454
10
-17.852694528
20
4.106710870
10
-18.038452845
20
4.107105286
0
LWPOLYLINE
100
AcDbEntity
8
COPPER_L2_INNER1
100
AcDbPolyline
90
220
70
0
38
0.000000000
10
-18.038452845
20
4.107105286
10
-18.224216668
20
4.107499702
10
-18.409985999
20
4.107894117
10
-18.595760836
20
4.108288533
10
-18.781541179
20
4.108682949
10
-18.967327030
20
4.109077364
10
-19.153118387
20
4.109471780
10
-19.338915250
20
4.109866196
10
-19.524717621
20
4.110260612
10
-19.710525498
20
4.110655027
10
-19.896338882
20
4.111049443
10
-20.082157772
20
4.111443859
10
-20.267982169
20
4.111838274
10
-20.453812073
20
4.112232690
10
-20.639647483
20
4.112627106
10
-20.825488401
20
4.113021522
10
-21.011334824
20
4.113415937
10
-21.197186755
20
4.113810353
10
-21.383044192
20
4.114204769
10
-21.568907136
20
4.114599184
10
-21.754775587
20
4.114993600
10
-21.940649544
20
4.115388016
10
-22.126529008
20
4.115782432
10
-22.312413978
20
4.116176847
10
-22.498304456
20
4.116571263
10
-22.684200440
20
4.116965679
10
-22.870101930
20
4.117360094
10
-23.056008928
20
4.117754510
10
-23.241921432
20
4.118148926
10
-23.427839442
20
4.118543342
10
-23.613762960
20
4.118937757
10
-23.799691984
20
4.119332173
10
-23.985626514
20
4.119726589
10
-24.171566552
20
4.120121004
10
-24.357512096
20
4.120515420
10
-24.543463147
20
4.120909836
10
-24.729419704
20
4.121304252
10
-24.915381768
20
4.121698667
10
-25.101349339
20
4.122093083
10
-25.287322417
20
4.122487499
10
-25.473301001
20
4.122881914
10
-25.659285092
20
4.123276330
10
-25.845274689
20
4.123670746
10
-26.031269793
20
4.124065162
10
-26.217270404
20
4.124459577
10
-26.403276522
20
4.124853993
10
-26.589288146
20
4.125248409
10
-26.775305277
20
4.125642824
10
-26.961327915
20
4.126037240
10
-27.147356059
20
4.126431656
10
-27.333389710
20
4.126826072
10
-27.519428868
20
4.127220487
10
-27.705473532
20
4.127614903
10
-27.891523703
20
4.128009319
10
-28.077579381
20
4.128403734
10
-28.263640565
20
4.128798150
10
-28.449707256
20
4.129192566
10
-28.635779454
20
4.129586982
10
-28.821857159
20
4.129981397
10
-29.007940370
20
4.130375813
10
-29.194029088
20
4.130770229
10
-29.380123312
20
4.131164644
10
-29.566223043
20
4.131559060
10
-29.752328281
20
4.131953476
10
-29.938439026
20
4.132347892
10
-30.124555277
20
4.132742307
10
-30.310677035
20
4.133136723
10
-30.496804299
20
4.133531139
10
-30.682937071
20
4.133925554
10
-30.869075348
20
4.134319970
10
-31.055219133
20
4.134714386
10
-31.241368424
20
4.135108802
10
-31.427523222
20
4.135503217
10
-31.613683527
20
4.135897633
10
-31.799849338
20
4.136292049
10
-31.986020656
20
4.136686464
10
-32.172197481
20
4.137080880
10
-32.358379812
20
4.137475296
10
-32.544567651
20
4.137869712
10
-32.730760995
20
4.138264127
10
-32.916959847
20
4.138658543
10
-33.103164205
20
4.139052959
10
-33.289374070
20
4.139447374
10
-33.475589441
20
4.139841790
10
-33.661810319
20
4.140236206
10
-33.848036704
20
4.140630622
10
-34.034268596
20
4.141025037
10
-34.220505994
20
4.141419453
10
-34.406748899
20
4.141813869
10
-34.592997310
20
4.142208284
10
-34.779251228
20
4.142602700
10
-34.965510653
20
4.142997116
10
-35.151775585
20
4.143391532
10
-35.338046023
20
4.143785947
10
-35.524321968
20
4.144180363
10
-35.710603420
20
4.144574779
10
-35.896890378
20
4.144969194
10
-36.083182843
20
4.145363610
10
-36.269480815
20
4.145758026
10
-36.455784293
20
4.146152442
10
-36.642093278
20
4.146546857
10
-36.828407770
20
4.146941273
10
-37.014727364
20
4.147241164
10
-37.200026591
20
4.130165367
10
-37.380075851
20
4.083389247
10
-37.550156527
20
4.008178329
10
-37.705823491
20
3.906540175
10
-37.843020413
20
3.781168950
10
-37.958184298
20
3.635372302
10
-38.048336603
20
3.472982614
10
-38.111158635
20
3.298255030
10
-38.145049368
20
3.115754992
10
-38.151279846
20
2.930195533
10
-38.151674262
20
2.744434508
10
-38.152068677
20
2.558667976
10
-38.152463093
20
2.372895937
10
-38.152857509
20
2.187118392
10
-38.153251924
20
2.001335340
10
-38.153646340
20
1.815546782
10
-38.154040756
20
1.629752717
10
-38.154435172
20
1.443953145
10
-38.154829587
20
1.258148066
10
-38.155224003
20
1.072337481
10
-38.155618419
20
0.886521389
10
-38.156012834
20
0.700699790
10
-38.156407250
20
0.514872685
10
-38.156801666
20
0.329040073
10
-38.157196082
20
0.143201954
10
-38.157590497
20
-0.042641671
10
-38.157984913
20
-0.228490803
10
-38.158379329
20
-0.414345442
10
-38.158773744
20
-0.600205588
10
-38.159168160
20
-0.786071240
10
-38.159562576
20
-0.971942398
10
-38.159956992
20
-1.157819064
10
-38.160351407
20
-1.343701236
10
-38.160745823
20
-1.529588915
10
-38.161140239
20
-1.715482100
10
-38.161534654
20
-1.901380792
10
-38.161929070
20
-2.087284991
10
-38.162323486
20
-2.273194697
10
-38.162717902
20
-2.459109909
10
-38.163112317
20
-2.645030628
10
-38.163506733
20
-2.830956854
10
-38.163778621
20
-3.016887993
10
-38.146673585
20
-3.201801511
10
-38.100405550
20
-3.381589276
10
-38.026186343
20
-3.551691254
10
-37.925933761
20
-3.707804726
10
-37.802220270
20
-3.845992328
10
-37.658205403
20
-3.962780277
10
-37.497553660
20
-4.055244386
10
-37.324340086
20
-4.121081765
10
-37.142945981
20
-4.158666487
10
-36.957938341
20
-4.167845306
10
-36.772565582
20
-4.168239722
10
-36.587187316
20
-4.168634137
10
-36.401803544
20
-4.169028553
10
-36.216414265
20
-4.169422969
10
-36.031019479
20
-4.169817385
10
-35.845619187
20
-4.170211800
10
-35.660213387
20
-4.170606216
10
-35.474802082
20
-4.171000632
10
-35.289385269
20
-4.171395047
10
-35.103962950
20
-4.171789463
10
-34.918535124
20
-4.172183879
10
-34.733101792
20
-4.172578295
10
-34.547662953
20
-4.172972710
10
-34.362218607
20
-4.173367126
10
-34.176768754
20
-4.173761542
10
-33.991313395
20
-4.174155957
10
-33.805852529
20
-4.174550373
10
-33.620386156
20
-4.174944789
10
-33.434914277
20
-4.175339205
10
-33.249436891
20
-4.175733620
10
-33.063953999
20
-4.176128036
10
-32.878465599
20
-4.176522452
10
-32.692971693
20
-4.176916867
10
-32.507472281
20
-4.177311283
10
-32.321967361
20
-4.177705699
10
-32.136456935
20
-4.178100115
10
-31.950941003
20
-4.178494530
10
-31.765419563
20
-4.178888946
10
-31.579892617
20
-4.179283362
10
-31.394360164
20
-4.179677777
10
-31.208822205
20
-4.180072193
10
-31.023278739
20
-4.180466609
10
-30.837729766
20
-4.180861025
10
-30.652175286
20
-4.181255440
10
-30.466615300
20
-4.181649856
10
-30.281049807
20
-4.182044272
10
-30.095478808
20
-4.182438687
10
-29.909902302
20
-4.182833103
10
-29.724320289
20
-4.183227519
10
-29.538732769
20
-4.183621935
10
-29.353139743
20
-4.184016350
10
-29.167541210
20
-4.184410766
10
-28.981937170
20
-4.184805182
10
-28.796327624
20
-4.185199597
10
-28.610712571
20
-4.185594013
10
-28.425092012
20
-4.185988429
10
-28.239465945
20
-4.186382845
10
-28.053834372
20
-4.186777260
10
-27.868197292
20
-4.187171676
10
-27.682554706
20
-4.187566092
10
-27.496906613
20
-4.187960507
10
-27.311253013
20
-4.188354923
10
-27.125593907
20
-4.188749339
10
-26.939929294
20
-4.189143755
10
-26.754259174
20
-4.189538170
10
-26.568583547
20
-4.189932586
10
-26.382902414
20
-4.190327002
10
-26.197215774
20
-4.190721417
10
-26.011523628
20
-4.191115833
10
-25.825825975
20
-4.191510249
10
-25.640122815
20
-4.191904665
10
-25.454414148
20
-4.192299080
10
-25.268699975
20
-4.192693496
10
-25.082980295
20
-4.193087912
10
-24.897255109
20
-4.193482327
0
LWPOLYLINE
100
AcDbEntity
8
COPPER_L2_INNER1
100
AcDbPolyline
90
220
70
0
38
0.000000000
10
-24.897255109
20
-4.193482327
10
-24.711524415
20
-4.193876743
10
-24.525788215
20
-4.194271159
10
-24.340046509
20
-4.194665575
10
-24.154299295
20
-4.195059990
10
-23.968546575
20
-4.195454406
10
-23.782788349
20
-4.195848822
10
-23.597024615
20
-4.196243237
10
-23.411255375
20
-4.196637653
10
-23.225480629
20
-4.197032069
10
-23.039700375
20
-4.197426485
10
-22.853914615
20
-4.197820900
10
-22.668123348
20
-4.198215316
10
-22.482326575
20
-4.198609732
10
-22.296524295
20
-4.199004147
10
-22.110716508
20
-4.199398563
10
-21.924903214
20
-4.199792979
10
-21.739084414
20
-4.200187395
10
-21.553260107
20
-4.200581810
10
-21.367430294
20
-4.200976226
10
-21.181594974
20
-4.201370642
10
-20.995754147
20
-4.201765057
10
-20.809907813
20
-4.202159473
10
-20.624055973
20
-4.202553889
10
-20.438198626
20
-4.202948305
10
-20.252335772
20
-4.203342720
10
-20.066467412
20
-4.203737136
10
-19.880593545
20
-4.204131552
10
-19.694714171
20
-4.204525967
10
-19.508829291
20
-4.204920383
10
-19.322938904
20
-4.205314799
10
-19.137043010
20
-4.205709215
10
-18.951141610
20
-4.206103630
10
-18.765234703
20
-4.206498046
10
-18.579322289
20
-4.206892462
10
-18.393404368
20
-4.207286877
10
-18.207480941
20
-4.207681293
10
-18.021552007
20
-4.208075709
10
-17.835617567
20
-4.208470125
10
-17.649677620
20
-4.208864540
10
-17.463732166
20
-4.209258956
10
-17.277781205
20
-4.209653372
10
-17.091824738
20
-4.210047787
10
-16.905862764
20
-4.210442203
10
-16.719895284
20
-4.210836619
10
-16.533922297
20
-4.211231035
10
-16.347943803
20
-4.211625450
10
-16.161959802
20
-4.212019866
10
-15.975970295
20
-4.212414282
10
-15.789975281
20
-4.212808697
10
-15.603974760
20
-4.213203113
10
-15.417968733
20
-4.213597529
10
-15.231957199
20
-4.213991945
10
-15.045940158
20
-4.214386360
10
-14.859917611
20
-4.214780776
10
-14.673889557
20
-4.215175192
10
-14.487855996
20
-4.215569607
10
-14.301816928
20
-4.215964023
10
-14.115772354
20
-4.216358439
10
-13.929722273
20
-4.216752855
10
-13.743666686
20
-4.217147270
10
-13.557605592
20
-4.217541686
10
-13.371538991
20
-4.217936102
10
-13.185466883
20
-4.218330517
10
-12.999389269
20
-4.218724933
10
-12.813306148
20
-4.219119349
10
-12.627217521
20
-4.219513765
10
-12.441123387
20
-4.219908180
10
-12.255023746
20
-4.220302596
10
-12.068918598
20
-4.220697012
10
-11.882807944
20
-4.221091427
10
-11.696691783
20
-4.221485843
10
-11.510570115
20
-4.221880259
10
-11.324442941
20
-4.222274675
10
-11.138310260
20
-4.222669090
10
-10.952172072
20
-4.223063506
10
-10.766028378
20
-4.223457922
10
-10.579879177
20
-4.223852337
10
-10.393724469
20
-4.224246753
10
-10.207564255
20
-4.224641169
10
-10.021398534
20
-4.225035585
10
-9.835227306
20
-4.225430000
10
-9.649050571
20
-4.225824416
10
-9.462868330
20
-4.226218832
10
-9.276680582
20
-4.226613247
10
-9.090487328
20
-4.227007663
10
-8.904288567
20
-4.227402079
10
-8.718084299
20
-4.227796495
10
-8.531874524
20
-4.228190910
10
-8.345659243
20
-4.228585326
10
-8.159438455
20
-4.228979742
10
-7.973212161
20
-4.229374157
10
-7.786980359
20
-4.229768573
10
-7.600743051
20
-4.230162989
10
-7.414500237
20
-4.230557405
10
-7.228251915
20
-4.230951820
10
-7.041998087
20
-4.231346236
10
-6.855738753
20
-4.231740652
10
-6.669473911
20
-4.232135067
10
-6.483203563
20
-4.232529483
10
-6.296927709
20
-4.232923899
10
-6.110646347
20
-4.233318315
10
-5.924359479
20
-4.233712730
10
-5.738067104
20
-4.234107146
10
-5.551769223
20
-4.234501562
10
-5.365465835
20
-4.234895978
10
-5.179156940
20
-4.235290393
10
-4.992842538
20
-4.235684809
10
-4.806522630
20
-4.236079225
10
-4.620197215
20
-4.236473640
10
-4.433866294
20
-4.236868056
10
-4.247529866
20
-4.237262472
10
-4.061187931
20
-4.237656888
10
-3.874840489
20
-4.238051303
10
-3.688487541
20
-4.238445719
10
-3.502129086
20
-4.238840135
10
-3.315765124
20
-4.239234550
10
-3.129395656
20
-4.239628966
10
-2.943020681
20
-4.240023382
10
-2.756640200
20
-4.240417798
10
-2.570254211
20
-4.240812213
10
-2.383862716
20
-4.241206629
10
-2.197465714
20
-4.241601045
10
-2.011063206
20
-4.241995460
10
-1.824655191
20
-4.242389876
10
-1.638241669
20
-4.242784292
10
-1.451822641
20
-4.243178708
10
-1.265398106
20
-4.243573123
10
-1.078968064
20
-4.243967539
10
-0.892532515
20
-4.244361955
10
-0.706091460
20
-4.244756370
10
-0.519644898
20
-4.245150786
10
-0.333192830
20
-4.245545202
10
-0.146735255
20
-4.245939618
10
0.039727827
20
-4.246334033
10
0.226196416
20
-4.246728449
10
0.412670511
20
-4.247122865
10
0.599150113
20
-4.247517280
10
0.785635221
20
-4.247911696
10
0.972125837
20
-4.248306112
10
1.158621959
20
-4.248700528
10
1.345123587
20
-4.249094943
10
1.531630723
20
-4.249489359
10
1.718143365
20
-4.249883775
10
1.904661513
20
-4.250278190
10
2.091185169
20
-4.250672606
10
2.277714331
20
-4.251067022
10
2.464249000
20
-4.251461438
10
2.650789175
20
-4.251855853
10
2.837334857
20
-4.252250269
10
3.023886046
20
-4.252644685
10
3.210442741
20
-4.253039100
10
3.397004943
20
-4.253433516
10
3.583572652
20
-4.253827932
10
3.770145868
20
-4.254222348
10
3.956724590
20
-4.254616763
10
4.143308819
20
-4.255011179
10
4.329898554
20
-4.255405595
10
4.516493797
20
-4.255800010
10
4.703094545
20
-4.256194426
10
4.889700801
20
-4.256588842
10
5.076312563
20
-4.256983258
10
5.262929832
20
-4.257377673
10
5.449552608
20
-4.257772089
10
5.636180890
20
-4.258166505
10
5.822814679
20
-4.258560920
10
6.009453975
20
-4.258955336
10
6.196098777
20
-4.259349752
10
6.382749086
20
-4.259744168
10
6.569404902
20
-4.260138583
10
6.756066224
20
-4.260532999
10
6.942733053
20
-4.260927415
10
7.129405389
20
-4.261321830
10
7.316083232
20
-4.261716246
10
7.502766581
20
-4.262110662
10
7.689455437
20
-4.262505078
10
7.876149799
20
-4.262899493
10
8.062849668
20
-4.263293909
10
8.249555044
20
-4.263688325
10
8.436265927
20
-4.264082740
10
8.622982316
20
-4.264477156
10
8.809704212
20
-4.264871572
10
8.996431614
20
-4.265265988
10
9.183164524
20
-4.265660403
10
9.369902940
20
-4.266054819
10
9.556646862
20
-4.266449235
10
9.743396291
20
-4.266843650
10
9.930151227
20
-4.267238066
10
10.116911670
20
-4.267632482
10
10.303677619
20
-4.268026898
10
10.490449075
20
-4.268421313
10
10.677226038
20
-4.268815729
10
10.864008508
20
-4.269210145
10
11.050796484
20
-4.269604560
10
11.237589966
20
-4.269998976
10
11.424388956
20
-4.270393392
10
11.611193452
20
-4.270787808
10
11.798003455
20
-4.271182223
10
11.984818964
20
-4.271576639
10
12.171639980
20
-4.271971055
10
12.358466503
20
-4.272365470
10
12.545298533
20
-4.272759886
10
12.732136069
20
-4.273154302
10
12.918979112
20
-4.273548718
10
13.105827661
20
-4.273943133
10
13.292681718
20
-4.274337549
10
13.479541280
20
-4.274731965
10
13.666406350
20
-4.275126380
10
13.853276926
20
-4.275520796
10
14.040153009
20
-4.275915212
10
14.227034599
20
-4.276309628
10
14.413921695
20
-4.276704043
10
14.600814298
20
-4.277098459
10
14.787712408
20
-4.277492875
10
14.974616024
20
-4.277887290
10
15.161525147
20
-4.278281706
10
15.348439777
20
-4.278676122
10
15.535359914
20
-4.279070538
10
15.722285557
20
-4.279464953
10
15.909216706
20
-4.279859369
0
LWPOLYLINE
100
AcDbEntity
8
COPPER_L2_INNER1
100
AcDbPolyline
90
220
70
0
38
0.000000000
10
15.909216706
20
-4.279859369
10
16.096153363
20
-4.280253785
10
16.283095526
20
-4.280648200
10
16.470043196
20
-4.281042616
10
16.656996372
20
-4.281437032
10
16.843955056
20
-4.281831448
10
17.030919245
20
-4.282225863
10
17.217888942
20
-4.282620279
10
17.404864145
20
-4.283014695
10
17.591844855
20
-4.283409110
10
17.778831072
20
-4.283803526
10
17.965822795
20
-4.284197942
10
18.152820025
20
-4.284592358
10
18.339822762
20
-4.284986773
10
18.526831005
20
-4.285381189
10
18.713844755
20
-4.285775605
10
18.900864012
20
-4.286170020
10
19.087888775
20
-4.286564436
10
19.274919045
20
-4.286958852
10
19.461954822
20
-4.287353268
10
19.648996105
20
-4.287747683
10
19.836042895
20
-4.288142099
10
20.023095192
20
-4.288536515
10
20.210152995
20
-4.288930930
10
20.397216305
20
-4.289325346
10
20.584285122
20
-4.289719762
10
20.771359446
20
-4.290114178
10
20.958439276
20
-4.290508593
10
21.145524613
20
-4.290903009
10
21.332615456
20
-4.291297425
10
21.519711807
20
-4.291691840
10
21.706813663
20
-4.292086256
10
21.893921027
20
-4.292480672
10
22.081033897
20
-4.292875088
10
22.268152274
20
-4.293269503
10
22.455276158
20
-4.293663919
10
22.642405548
20
-4.294058335
10
22.829540445
20
-4.294452750
10
23.016680849
20
-4.294847166
10
23.203826759
20
-4.295241582
10
23.390978176
20
-4.295635998
10
23.578135100
20
-4.296030413
10
23.765297530
20
-4.296424829
10
23.952465467
20
-4.296819245
10
24.139638911
20
-4.297213660
10
24.326817861
20
-4.297608076
10
24.514002319
20
-4.298002492
10
24.701192282
20
-4.298396908
10
24.888387753
20
-4.298791323
10
25.075588730
20
-4.299185739
10
25.262795214
20
-4.299580155
10
25.450007204
20
-4.299974570
10
25.637224702
20
-4.300368986
10
25.824447705
20
-4.300763402
10
26.011676216
20
-4.301157818
10
26.198910233
20
-4.301552233
10
26.386149757
20
-4.301946649
10
26.573394788
20
-4.302341065
10
26.760645325
20
-4.302735481
10
26.947901369
20
-4.303129896
10
27.135162920
20
-4.303524312
10
27.322429977
20
-4.303918728
10
27.509702541
20
-4.304313143
10
27.696980612
20
-4.304707559
10
27.884264189
20
-4.305101975
10
28.071553273
20
-4.305496391
10
28.258847864
20
-4.305890806
10
28.446147961
20
-4.306285222
10
28.633453565
20
-4.306679638
10
28.820764676
20
-4.307074053
10
29.008081294
20
-4.307468469
10
29.195403418
20
-4.307862885
10
29.382731049
20
-4.308257301
10
29.570064186
20
-4.308651716
10
29.757402830
20
-4.309046132
10
29.944746981
20
-4.309440548
10
30.132096639
20
-4.309834963
10
30.319451803
20
-4.310229379
10
30.506812474
20
-4.310623795
10
30.694178651
20
-4.311018211
10
30.881550336
20
-4.311412626
10
31.068927527
20
-4.311807042
10
31.256310224
20
-4.312201458
10
31.443698429
20
-4.312595873
10
31.631092140
20
-4.312990289
10
31.818491357
20
-4.313384705
10
32.005896082
20
-4.313779121
10
32.193306313
20
-4.314173536
10
32.380722050
20
-4.314567952
10
32.568143295
20
-4.314962368
10
32.755570046
20
-4.315356783
10
32.943002304
20
-4.315751199
10
33.130440068
20
-4.316145615
10
33.317883339
20
-4.316540031
10
33.505332117
20
-4.316934446
10
33.692786401
20
-4.317328862
10
33.880246193
20
-4.317723278
10
34.067711490
20
-4.318117693
10
34.255182295
20
-4.318512109
10
34.442658606
20
-4.318906525
10
34.630140424
20
-4.319300941
10
34.817627749
20
-4.319695356
10
35.005120580
20
-4.320089772
10
35.192618918
20
-4.320484188
10
35.380122763
20
-4.320878603
10
35.567632114
20
-4.321273019
10
35.755146972
20
-4.321667435
10
35.942667336
20
-4.322061851
10
36.130193208
20
-4.322456266
10
36.317724586
20
-4.322850682
10
36.505261471
20
-4.323245098
10
36.692803862
20
-4.323639513
10
36.880351760
20
-4.324033929
10
37.067875418
20
-4.322687933
10
37.253883865
20
-4.300268561
10
37.434822288
20
-4.251850687
10
37.607082629
20
-4.178429792
10
37.767237983
20
-4.081497948
10
37.912110279
20
-3.963012420
10
38.038832722
20
-3.825355148
10
38.144905746
20
-3.671283956
10
38.228245435
20
-3.503876526
10
38.287223474
20
-3.326468263
10
38.320697893
20
-3.142585338
10
38.328766918
20
-2.955866136
10
38.329161333
20
-2.768866197
10
38.329555749
20
-2.581860753
10
38.329950165
20
-2.394849801
10
38.330344581
20
-2.207833343
10
38.330738996
20
-2.020811378
10
38.331133412
20
-1.833783906
10
38.331527828
20
-1.646750928
10
38.331922243
20
-1.459712443
10
38.332316659
20
-1.272668451
10
38.332711075
20
-1.085618953
10
38.333105491
20
-0.898563948
10
38.333499906
20
-0.711503437
10
38.333894322
20
-0.524437418
10
38.334288738
20
-0.337365893
10
38.334683153
20
-0.150288861
10
38.335077569
20
0.036793677
10
38.335471985
20
0.223881722
10
38.335866401
20
0.410975274
10
38.336260816
20
0.598074332
10
38.336655232
20
0.785178897
10
38.337049648
20
0.972288969
10
38.337444063
20
1.159404548
10
38.337838479
20
1.346525633
10
38.338232895
20
1.533652224
10
38.338627311
20
1.720784323
10
38.339021726
20
1.907921928
10
38.339416142
20
2.095065040
10
38.339810558
20
2.282213659
10
38.340204973
20
2.469367784
10
38.340599389
20
2.656527416
10
38.340993805
20
2.843692554
10
38.341033180
20
3.030860477
10
38.324105915
20
3.217081020
10
38.281469502
20
3.399092916
10
38.213978636
20
3.573370751
10
38.122967653
20
3.736546682
10
38.010223118
20
3.885475096
10
37.877947794
20
4.017292684
10
37.728716730
20
4.129472803
10
37.565426364
20
4.219873098
10
37.391237652
20
4.286775513
10
37.209514361
20
4.328917958
10
37.023757731
20
4.345517065
10
36.837141787
20
4.346121209
10
36.650519101
20
4.346515625
10
36.463890909
20
4.346910041
10
36.277257210
20
4.347304456
10
36.090618005
20
4.347698872
10
35.903973293
20
4.348093288
10
35.717323074
20
4.348487703
10
35.530667349
20
4.348882119
10
35.344006116
20
4.349276535
10
35.157339378
20
4.349670951
10
34.970667132
20
4.350065366
10
34.783989380
20
4.350459782
10
34.597306121
20
4.350854198
10
34.410617355
20
4.351248613
10
34.223923083
20
4.351643029
10
34.037223304
20
4.352037445
10
33.850518019
20
4.352431861
10
33.663807226
20
4.352826276
10
33.477090927
20
4.353220692
10
33.290369122
20
4.353615108
10
33.103641809
20
4.354009523
10
32.916908990
20
4.354403939
10
32.730170665
20
4.354798355
10
32.543426832
20
4.355192771
10
32.356677493
20
4.355587186
10
32.169922648
20
4.355981602
10
31.983162295
20
4.356376018
10
31.796396436
20
4.356770433
10
31.609625070
20
4.357164849
10
31.422848198
20
4.357559265
10
31.236065819
20
4.357953681
10
31.049277933
20
4.358348096
10
30.862484540
20
4.358742512
10
30.675685641
20
4.359136928
10
30.488881235
20
4.359531343
10
30.302071323
20
4.359925759
10
30.115255904
20
4.360320175
10
29.928434978
20
4.360714591
10
29.741608545
20
4.361109006
10
29.554776606
20
4.361503422
10
29.367939160
20
4.361897838
10
29.181096207
20
4.362292253
10
28.994247748
20
4.362686669
10
28.807393782
20
4.363081085
10
28.620534309
20
4.363475501
10
28.433669330
20
4.363869916
10
28.246798844
20
4.364264332
10
28.059922851
20
4.364658748
10
27.873041352
20
4.365053163
10
27.686154346
20
4.365447579
10
27.499261833
20
4.365841995
10
27.312363814
20
4.366236411
0
LWPOLYLINE
100
AcDbEntity
8
COPPER_L2_INNER1
100
AcDbPolyline
90
220
70
0
38
0.000000000
10
27.312363814
20
4.366236411
10
27.125460287
20
4.366630826
10
26.938551255
20
4.367025242
10
26.751636715
20
4.367419658
10
26.564716669
20
4.367814074
10
26.377791116
20
4.368208489
10
26.190860057
20
4.368602905
10
26.003923490
20
4.368997321
10
25.816981417
20
4.369391736
10
25.630033838
20
4.369786152
10
25.443080752
20
4.370180568
10
25.256122159
20
4.370574984
10
25.069158059
20
4.370969399
10
24.882188453
20
4.371363815
10
24.695213340
20
4.371758231
10
24.508232720
20
4.372152646
10
24.321246594
20
4.372547062
10
24.134254961
20
4.372941478
10
23.947257821
20
4.373335894
10
23.760255175
20
4.373730309
10
23.573247022
20
4.374124725
10
23.386233362
20
4.374519141
10
23.199214195
20
4.374913556
10
23.012189522
20
4.375307972
10
22.825159343
20
4.375702388
10
22.638123656
20
4.376096804
10
22.451082463
20
4.376491219
10
22.264035763
20
4.376885635
10
22.076983557
20
4.377280051
10
21.889925843
20
4.377674466
10
21.702862624
20
4.378068882
10
21.515793897
20
4.378463298
10
21.328719664
20
4.378857714
10
21.141639924
20
4.379252129
10
20.954554677
20
4.379646545
10
20.767463924
20
4.380040961
10
20.580367664
20
4.380435376
10
20.393265897
20
4.380829792
10
20.206158624
20
4.381224208
10
20.019045844
20
4.381618624
10
19.831927557
20
4.382013039
10
19.644803764
20
4.382407455
10
19.457674464
20
4.382801871
10
19.270539657
20
4.383196286
10
19.083399344
20
4.383590702
10
18.896253524
20
4.383985118
10
18.709102197
20
4.384379534
10
18.521945363
20
4.384773949
10
18.334783023
20
4.385168365
10
18.147615176
20
4.385562781
10
17.960441823
20
4.385957196
10
17.773262963
20
4.386351612
10
17.586078596
20
4.386746028
10
17.398888722
20
4.387140444
10
17.211693342
20
4.387534859
10
17.024492455
20
4.387929275
10
16.837286062
20
4.388323691
10
16.650074161
20
4.388718106
10
16.462856754
20
4.389112522
10
16.275633841
20
4.389506938
10
16.088405421
20
4.389901354
10
15.901171494
20
4.390295769
10
15.713932060
20
4.390690185
10
15.526687119
20
4.391084601
10
15.339436672
20
4.391479016
10
15.152180719
20
4.391873432
10
14.964919258
20
4.392267848
10
14.777652291
20
4.392662264
10
14.590379817
20
4.393056679
10
14.403101837
20
4.393451095
10
14.215818350
20
4.393845511
10
14.028529356
20
4.394239926
10
13.841234856
20
4.394634342
10
13.653934848
20
4.395028758
10
13.466629335
20
4.395423174
10
13.279318314
20
4.395817589
10
13.092001787
20
4.396212005
10
12.904679753
20
4.396606421
10
12.717352212
20
4.397000836
10
12.530019165
20
4.397395252
10
12.342680611
20
4.397789668
10
12.155336551
20
4.398184084
10
11.967986983
20
4.398578499
10
11.780631909
20
4.398972915
10
11.593271329
20
4.399367331
10
11.405905241
20
4.399761746
10
11.218533647
20
4.400156162
10
11.031156547
20
4.400550578
10
10.843773939
20
4.400944994
10
10.656385825
20
4.401339409
10
10.468992204
20
4.401733825
10
10.281593077
20
4.402128241
10
10.094188443
20
4.402522656
10
9.906778302
20
4.402917072
10
9.719362655
20
4.403311488
10
9.531941500
20
4.403705904
10
9.344514840
20
4.404100319
10
9.157082672
20
4.404494735
10
8.969644998
20
4.404889151
10
8.782201817
20
4.405283566
10
8.594753129
20
4.405677982
10
8.407298935
20
4.406072398
10
8.219839234
20
4.406466814
10
8.032374027
20
4.406861229
10
7.844903312
20
4.407255645
10
7.657427091
20
4.407650061
10
7.469945364
20
4.408044476
10
7.282458129
20
4.408438892
10
7.094965388
20
4.408833308
10
6.907467141
20
4.409227724
10
6.719963386
20
4.409622139
10
6.532454125
20
4.410016555
10
6.344939358
20
4.410410971
10
6.157419083
20
4.410805386
10
5.969893302
20
4.411199802
10
5.782362014
20
4.411594218
10
5.594825220
20
4.411988634
10
5.407282919
20
4.412383049
10
5.219735111
20
4.412777465
10
5.032181796
20
4.413171881
10
4.844622975
20
4.413566296
10
4.657058647
20
4.413960712
10
4.469488813
20
4.414355128
10
4.281913472
20
4.414749544
10
4.094332624
20
4.415143959
10
3.906746269
20
4.415538375
10
3.719154408
20
4.415932791
10
3.531557040
20
4.416327206
10
3.343954165
20
4.416721622
10
3.156345784
20
4.417116038
10
2.968731896
20
4.417510454
10
2.781112501
20
4.417904869
10
2.593487600
20
4.418299285
10
2.405857192
20
4.418693701
10
2.218221277
20
4.419088116
10
2.030579856
20
4.419482532
10
1.842932928
20
4.419876948
10
1.655280493
20
4.420271364
10
1.467622551
20
4.420665779
10
1.279959103
20
4.421060195
10
1.092290149
20
4.421454611
10
0.904615687
20
4.421849026
10
0.716935719
20
4.422243442
10
0.529250244
20
4.422637858
10
0.341559263
20
4.423032274
10
0.153862774
20
4.423426689
10
-0.033839221
20
4.423821105
10
-0.221546722
20
4.424215521
10
-0.409259730
20
4.424609936
10
-0.596978245
20
4.425004352
10
-0.784702267
20
4.425398768
10
-0.972431795
20
4.425793184
10
-1.160166830
20
4.426187599
10
-1.347907372
20
4.426582015
10
-1.535653420
20
4.426976431
10
-1.723404975
20
4.427370846
10
-1.911162037
20
4.427765262
10
-2.098924605
20
4.428159678
10
-2.286692680
20
4.428554094
10
-2.474466262
20
4.428948509
10
-2.662245351
20
4.429342925
10
-2.850029946
20
4.429737341
10
-3.037820047
20
4.430131756
10
-3.225615656
20
4.430526172
10
-3.413416771
20
4.430920588
10
-3.601223393
20
4.431315004
10
-3.789035521
20
4.431709419
10
-3.976853157
20
4.432103835
10
-4.164676299
20
4.432498251
10
-4.352504947
20
4.432892666
10
-4.540339102
20
4.433287082
10
-4.728178764
20
4.433681498
10
-4.916023933
20
4.434075914
10
-5.103874608
20
4.434470329
10
-5.291730790
20
4.434864745
10
-5.479592479
20
4.435259161
10
-5.667459674
20
4.435653577
10
-5.855332376
20
4.436047992
10
-6.043210585
20
4.436442408
10
-6.231094300
20
4.436836824
10
-6.418983522
20
4.437231239
10
-6.606878251
20
4.437625655
10
-6.794778486
20
4.438020071
10
-6.982684228
20
4.438414487
10
-7.170595477
20
4.438808902
10
-7.358512233
20
4.439203318
10
-7.546434495
20
4.439597734
10
-7.734362264
20
4.439992149
10
-7.922295539
20
4.440386565
10
-8.110234321
20
4.440780981
10
-8.298178610
20
4.441175397
10
-8.486128406
20
4.441569812
10
-8.674083708
20
4.441964228
10
-8.862044517
20
4.442358644
10
-9.050010832
20
4.442753059
10
-9.237982655
20
4.443147475
10
-9.425959984
20
4.443541891
10
-9.613942819
20
4.443936307
10
-9.801931162
20
4.444330722
10
-9.989925011
20
4.444725138
10
-10.177924366
20
4.445119554
10
-10.365929229
20
4.445513969
10
-10.553939598
20
4.445908385
10
-10.741955473
20
4.446302801
10
-10.929976856
20
4.446697217
10
-11.118003745
20
4.447091632
10
-11.306036141
20
4.447486048
10
-11.494074043
20
4.447880464
10
-11.682117452
20
4.448274879
10
-11.870166368
20
4.448669295
10
-12.058220791
20
4.449063711
10
-12.246280720
20
4.449458127
10
-12.434346156
20
4.449852542
10
-12.622417098
20
4.450246958
10
-12.810493547
20
4.450641374
10
-12.998575503
20
4.451035789
10
-13.186662966
20
4.451430205
10
-13.374755935
20
4.451824621
10
-13.562854411
20
4.452219037
10
-13.750958394
20
4.452613452
0
LWPOLYLINE
100
AcDbEntity
8
COPPER_L2_INNER1
100
AcDbPolyline
90
220
70
0
38
0.000000000
10
-13.750958394
20
4.452613452
10
-13.939067883
20
4.453007868
10
-14.127182879
20
4.453402284
10
-14.315303382
20
4.453796699
10
-14.503429391
20
4.454191115
10
-14.691560907
20
4.454585531
10
-14.879697930
20
4.454979947
10
-15.067840459
20
4.455374362
10
-15.255988495
20
4.455768778
10
-15.444142038
20
4.456163194
10
-15.632301087
20
4.456557609
10
-15.820465643
20
4.456952025
10
-16.008635706
20
4.457346441
10
-16.196811276
20
4.457740857
10
-16.384992352
20
4.458135272
10
-16.573178935
20
4.458529688
10
-16.761371024
20
4.458924104
10
-16.949568620
20
4.459318519
10
-17.137771723
20
4.459712935
10
-17.325980333
20
4.460107351
10
-17.514194449
20
4.460501767
10
-17.702414072
20
4.460896182
10
-17.890639202
20
4.461290598
10
-18.078869838
20
4.461685014
10
-18.267105981
20
4.462079429
10
-18.455347630
20
4.462473845
10
-18.643594787
20
4.462868261
10
-18.831847450
20
4.463262677
10
-19.020105619
20
4.463657092
10
-19.208369296
20
4.464051508
10
-19.396638479
20
4.464445924
10
-19.584913169
20
4.464840339
10
-19.773193365
20
4.465234755
10
-19.961479068
20
4.465629171
10
-20.149770278
20
4.466023587
10
-20.338066994
20
4.466418002
10
-20.526369217
20
4.466812418
10
-20.714676947
20
4.467206834
10
-20.902990184
20
4.467601249
10
-21.091308927
20
4.467995665
10
-21.279633177
20
4.468390081
10
-21.467962933
20
4.468784497
10
-21.656298197
20
4.469178912
10
-21.844638967
20
4.469573328
10
-22.032985243
20
4.469967744
10
-22.221337026
20
4.470362159
10
-22.409694316
20
4.470756575
10
-22.598057113
20
4.471150991
10
-22.786425416
20
4.471545407
10
-22.974799226
20
4.471939822
10
-23.163178543
20
4.472334238
10
-23.351563366
20
4.472728654
10
-23.539953696
20
4.473123069
10
-23.728349533
20
4.473517485
10
-23.916750877
20
4.473911901
10
-24.105157727
20
4.474306317
10
-24.293570083
20
4.474700732
10
-24.481987947
20
4.475095148
10
-24.670411317
20
4.475489564
10
-24.858840194
20
4.475883979
10
-25.047274577
20
4.476278395
10
-25.235714467
20
4.476672811
10
-25.424159864
20
4.477067227
10
-25.612610768
20
4.477461642
10
-25.801067178
20
4.477856058
10
-25.989529095
20
4.478250474
10
-26.177996518
20
4.478644889
10
-26.366469449
20
4.479039305
10
-26.554947886
20
4.479433721
10
-26.743431829
20
4.479828137
10
-26.931921280
20
4.480222552
10
-27.120416237
20
4.480616968
10
-27.308916700
20
4.481011384
10
-27.497422671
20
4.481405799
10
-27.685934148
20
4.481800215
10
-27.874451131
20
4.482194631
10
-28.062973622
20
4.482589047
10
-28.251501619
20
4.482983462
10
-28.440035122
20
4.483377878
10
-28.628574133
20
4.483772294
10
-28.817118650
20
4.484166709
10
-29.005668674
20
4.484561125
10
-29.194224204
20
4.484955541
10
-29.382785241
20
4.485349957
10
-29.571351785
20
4.485744372
10
-29.759923836
20
4.486138788
10
-29.948501393
20
4.486533204
10
-30.137084457
20
4.486927619
10
-30.325673027
20
4.487322035
10
-30.514267105
20
4.487716451
10
-30.702866689
20
4.488110867
10
-30.891471779
20
4.488505282
10
-31.080082377
20
4.488899698
10
-31.268698480
20
4.489294114
10
-31.457320091
20
4.489688529
10
-31.645947208
20
4.490082945
10
-31.834579832
20
4.490477361
10
-32.023217963
20
4.490871777
10
-32.211861601
20
4.491266192
10
-32.400510745
20
4.491660608
10
-32.589165395
20
4.492055024
10
-32.777825553
20
4.492449439
10
-32.966491217
20
4.492843855
10
-33.155162388
20
4.493238271
10
-33.343839065
20
4.493632687
10
-33.532521249
20
4.494027102
10
-33.721208940
20
4.494421518
10
-33.909902138
20
4.494815934
10
-34.098600842
20
4.495210349
10
-34.287305053
20
4.495604765
10
-34.476014770
20
4.495999181
10
-34.664729994
20
4.496393597
10
-34.853450725
20
4.496788012
10
-35.042176963
20
4.497182428
10
-35.230908707
20
4.497576844
10
-35.419645958
20
4.497971259
10
-35.608388716
20
4.498365675
10
-35.797136980
20
4.498760091
10
-35.985890751
20
4.499154507
10
-36.174650029
20
4.499548922
10
-36.363414813
20
4.499943338
10
-36.552185104
20
4.500337754
10
-36.740960902
20
4.500732170
10
-36.929742206
20
4.501126585
10
-37.118405955
20
4.496845131
10
-37.305181271
20
4.470582983
10
-37.487150670
20
4.421133019
10
-37.661452457
20
4.349296374
10
-37.825351170
20
4.256224916
10
-37.976280221
20
4.143402103
10
-38.111881712
20
4.012618712
10
-38.230042820
20
3.865943836
10
-38.328928202
20
3.705691634
10
-38.407007918
20
3.534384373
10
-38.463080478
20
3.354712356
10
-38.496290656
20
3.169491383
10
-38.506253990
20
2.981617962
10
-38.506648405
20
2.793379111
10
-38.507042821
20
2.605134753
10
-38.507437237
20
2.416884889
10
-38.507831652
20
2.228629518
10
-38.508226068
20
2.040368640
10
-38.508620484
20
1.852102255
10
-38.509014900
20
1.663830364
10
-38.509409315
20
1.475552966
10
-38.509803731
20
1.287270061
10
-38.510198147
20
1.098981650
10
-38.510592562
20
0.910687732
10
-38.510986978
20
0.722388307
10
-38.511381394
20
0.534083376
10
-38.511775810
20
0.345772938
10
-38.512170225
20
0.157456993
10
-38.512564641
20
-0.030864458
10
-38.512959057
20
-0.219191416
10
-38.513353472
20
-0.407523881
10
-38.513747888
20
-0.595861852
10
-38.514142304
20
-0.784205331
10
-38.514536720
20
-0.972554315
10
-38.514931135
20
-1.160908807
10
-38.515325551
20
-1.349268805
10
-38.515719967
20
-1.537634310
10
-38.516114382
20
-1.726005321
10
-38.516508798
20
-1.914381840
10
-38.516903214
20
-2.102763865
10
-38.517297630
20
-2.291151396
10
-38.517692045
20
-2.479544434
10
-38.518086461
20
-2.667942979
10
-38.518480877
20
-2.856347031
10
-38.518215921
20
-3.044750112
10
-38.501411660
20
-3.232257341
10
-38.461558207
20
-3.416205066
10
-38.399288578
20
-3.593775580
10
-38.315578030
20
-3.762254311
10
-38.211728143
20
-3.919071071
10
-38.089345961
20
-4.061838947
10
-37.950318563
20
-4.188390239
10
-37.796783442
20
-4.296808910
10
-37.631095190
20
-4.385459074
10
-37.455788996
20
-4.453009108
10
-37.273541548
20
-4.498451034
10
-37.087129921
20
-4.521114910
10
-36.899315883
20
-4.524002697
10
-36.711448778
20
-4.524397112
10
-36.523576166
20
-4.524791528
10
-36.335698048
20
-4.525185944
10
-36.147814423
20
-4.525580360
10
-35.959925291
20
-4.525974775
10
-35.772030652
20
-4.526369191
10
-35.584130507
20
-4.526763607
10
-35.396224855
20
-4.527158022
10
-35.208313697
20
-4.527552438
10
-35.020397031
20
-4.527946854
10
-34.832474860
20
-4.528341270
10
-34.644547181
20
-4.528735685
10
-34.456613996
20
-4.529130101
10
-34.268675304
20
-4.529524517
10
-34.080731105
20
-4.529918932
10
-33.892781400
20
-4.530313348
10
-33.704826188
20
-4.530707764
10
-33.516865469
20
-4.531102180
10
-33.328899244
20
-4.531496595
10
-33.140927512
20
-4.531891011
10
-32.952950273
20
-4.532285427
10
-32.764967528
20
-4.532679842
10
-32.576979276
20
-4.533074258
10
-32.388985517
20
-4.533468674
10
-32.200986252
20
-4.533863090
10
-32.012981479
20
-4.534257505
10
-31.824971201
20
-4.534651921
10
-31.636955415
20
-4.535046337
10
-31.448934123
20
-4.535440752
10
-31.260907324
20
-4.535835168
10
-31.072875019
20
-4.536229584
10
-30.884837207
20
-4.536624000
10
-30.696793888
20
-4.537018415
10
-30.508745062
20
-4.537412831
10
-30.320690730
20
-4.537807247
10
-30.132630891
20
-4.538201662
10
-29.944565545
20
-4.538596078
10
-29.756494693
20
-4.538990494
0
LWPOLYLINE
100
AcDbEntity
8
COPPER_L2_INNER1
100
AcDbPolyline
90
220
70
0
38
0.000000000
10
-29.756494693
20
-4.538990494
10
-29.568418334
20
-4.539384910
10
-29.380336468
20
-4.539779325
10
-29.192249096
20
-4.540173741
10
-29.004156217
20
-4.540568157
10
-28.816057831
20
-4.540962572
10
-28.627953939
20
-4.541356988
10
-28.439844540
20
-4.541751404
10
-28.251729634
20
-4.542145820
10
-28.063609222
20
-4.542540235
10
-27.875483303
20
-4.542934651
10
-27.687351877
20
-4.543329067
10
-27.499214945
20
-4.543723482
10
-27.311072505
20
-4.544117898
10
-27.122924560
20
-4.544512314
10
-26.934771107
20
-4.544906730
10
-26.746612148
20
-4.545301145
10
-26.558447682
20
-4.545695561
10
-26.370277710
20
-4.546089977
10
-26.182102230
20
-4.546484392
10
-25.993921244
20
-4.546878808
10
-25.805734752
20
-4.547273224
10
-25.617542753
20
-4.547667640
10
-25.429345247
20
-4.548062055
10
-25.241142234
20
-4.548456471
10
-25.052933715
20
-4.548850887
10
-24.864719689
20
-4.549245302
10
-24.676500156
20
-4.549639718
10
-24.488275117
20
-4.550034134
10
-24.300044571
20
-4.550428550
10
-24.111808518
20
-4.550822965
10
-23.923566958
20
-4.551217381
10
-23.735319892
20
-4.551611797
10
-23.547067320
20
-4.552006212
10
-23.358809240
20
-4.552400628
10
-23.170545654
20
-4.552795044
10
-22.982276561
20
-4.553189460
10
-22.794001962
20
-4.553583875
10
-22.605721856
20
-4.553978291
10
-22.417436243
20
-4.554372707
10
-22.229145123
20
-4.554767122
10
-22.040848497
20
-4.555161538
10
-21.852546364
20
-4.555555954
10
-21.664238725
20
-4.555950370
10
-21.475925578
20
-4.556344785
10
-21.287606925
20
-4.556739201
10
-21.099282766
20
-4.557133617
10
-20.910953099
20
-4.557528032
10
-20.722617926
20
-4.557922448
10
-20.534277247
20
-4.558316864
10
-20.345931060
20
-4.558711280
10
-20.157579367
20
-4.559105695
10
-19.969222168
20
-4.559500111
10
-19.780859461
20
-4.559894527
10
-19.592491248
20
-4.560288942
10
-19.404117529
20
-4.560683358
10
-19.215738302
20
-4.561077774
10
-19.027353569
20
-4.561472190
10
-18.838963329
20
-4.561866605
10
-18.650567583
20
-4.562261021
10
-18.462166330
20
-4.562655437
10
-18.273759570
20
-4.563049852
10
-18.085347303
20
-4.563444268
10
-17.896929530
20
-4.563838684
10
-17.708506250
20
-4.564233100
10
-17.520077464
20
-4.564627515
10
-17.331643170
20
-4.565021931
10
-17.143203370
20
-4.565416347
10
-16.954758064
20
-4.565810762
10
-16.766307251
20
-4.566205178
10
-16.577850931
20
-4.566599594
10
-16.389389104
20
-4.566994010
10
-16.200921771
20
-4.567388425
10
-16.012448931
20
-4.567782841
10
-15.823970584
20
-4.568177257
10
-15.635486731
20
-4.568571673
10
-15.446997371
20
-4.568966088
10
-15.258502504
20
-4.569360504
10
-15.070002130
20
-4.569754920
10
-14.881496250
20
-4.570149335
10
-14.692984864
20
-4.570543751
10
-14.504467970
20
-4.570938167
10
-14.315945570
20
-4.571332583
10
-14.127417663
20
-4.571726998
10
-13.938884250
20
-4.572121414
10
-13.750345329
20
-4.572515830
10
-13.561800903
20
-4.572910245
10
-13.373250969
20
-4.573304661
10
-13.184695529
20
-4.573699077
10
-12.996134582
20
-4.574093493
10
-12.807568128
20
-4.574487908
10
-12.618996168
20
-4.574882324
10
-12.430418701
20
-4.575276740
10
-12.241835727
20
-4.575671155
10
-12.053247247
20
-4.576065571
10
-11.864653260
20
-4.576459987
10
-11.676053766
20
-4.576854403
10
-11.487448766
20
-4.577248818
10
-11.298838259
20
-4.577643234
10
-11.110222245
20
-4.578037650
10
-10.921600725
20
-4.578432065
10
-10.732973698
20
-4.578826481
10
-10.544341164
20
-4.579220897
10
-10.355703124
20
-4.579615313
10
-10.167059577
20
-4.580009728
10
-9.978410523
20
-4.580404144
10
-9.789755962
20
-4.580798560
10
-9.601095895
20
-4.581192975
10
-9.412430321
20
-4.581587391
10
-9.223759241
20
-4.581981807
10
-9.035082653
20
-4.582376223
10
-8.846400560
20
-4.582770638
10
-8.657712959
20
-4.583165054
10
-8.469019852
20
-4.583559470
10
-8.280321238
20
-4.583953885
10
-8.091617117
20
-4.584348301
10
-7.902907490
20
-4.584742717
10
-7.714192356
20
-4.585137133
10
-7.525471715
20
-4.585531548
10
-7.336745568
20
-4.585925964
10
-7.148013914
20
-4.586320380
10
-6.959276753
20
-4.586714795
10
-6.770534086
20
-4.587109211
10
-6.581785912
20
-4.587503627
10
-6.393032231
20
-4.587898043
10
-6.204273044
20
-4.588292458
10
-6.015508349
20
-4.588686874
10
-5.826738149
20
-4.589081290
10
-5.637962441
20
-4.589475705
10
-5.449181227
20
-4.589870121
10
-5.260394506
20
-4.590264537
10
-5.071602279
20
-4.590658953
10
-4.882804545
20
-4.591053368
10
-4.694001304
20
-4.591447784
10
-4.505192556
20
-4.591842200
10
-4.316378302
20
-4.592236615
10
-4.127558541
20
-4.592631031
10
-3.938733273
20
-4.593025447
10
-3.749902499
20
-4.593419863
10
-3.561066218
20
-4.593814278
10
-3.372224430
20
-4.594208694
10
-3.183377136
20
-4.594603110
10
-2.994524335
20
-4.594997525
10
-2.805666027
20
-4.595391941
10
-2.616802213
20
-4.595786357
10
-2.427932892
20
-4.596180773
10
-2.239058064
20
-4.596575188
10
-2.050177730
20
-4.596969604
10
-1.861291889
20
-4.597364020
10
-1.672400541
20
-4.597758435
10
-1.483503686
20
-4.598152851
10
-1.294601325
20
-4.598547267
10
-1.105693458
20
-4.598941683
10
-0.916780083
20
-4.599336098
10
-0.727861202
20
-4.599730514
10
-0.538936814
20
-4.600124930
10
-0.350006919
20
-4.600519345
10
-0.161071518
20
-4.600913761
10
0.027869390
20
-4.601308177
10
0.216815804
20
-4.601702593
10
0.405767726
20
-4.602097008
10
0.594725154
20
-4.602491424
10
0.783688088
20
-4.602885840
10
0.972656529
20
-4.603280255
10
1.161630477
20
-4.603674671
10
1.350609932
20
-4.604069087
10
1.539594893
20
-4.604463503
10
1.728585362
20
-4.604857918
10
1.917581336
20
-4.605252334
10
2.106582818
20
-4.605646750
10
2.295589806
20
-4.606041165
10
2.484602300
20
-4.606435581
10
2.673620302
20
-4.606829997
10
2.862643810
20
-4.607224413
10
3.051672825
20
-4.607618828
10
3.240707346
20
-4.608013244
10
3.429747375
20
-4.608407660
10
3.618792909
20
-4.608802075
10
3.807843951
20
-4.609196491
10
3.996900499
20
-4.609590907
10
4.185962554
20
-4.609985323
10
4.375030116
20
-4.610379738
10
4.564103184
20
-4.610774154
10
4.753181759
20
-4.611168570
10
4.942265840
20
-4.611562985
10
5.131355429
20
-4.611957401
10
5.320450524
20
-4.612351817
10
5.509551125
20
-4.612746233
10
5.698657234
20
-4.613140648
10
5.887768849
20
-4.613535064
10
6.076885970
20
-4.613929480
10
6.266008599
20
-4.614323895
10
6.455136734
20
-4.614718311
10
6.644270376
20
-4.615112727
10
6.833409524
20
-4.615507143
10
7.022554179
20
-4.615901558
10
7.211704341
20
-4.616295974
10
7.400860009
20
-4.616690390
10
7.590021185
20
-4.617084805
10
7.779187866
20
-4.617479221
10
7.968360055
20
-4.617873637
10
8.157537750
20
-4.618268053
10
8.346720952
20
-4.618662468
10
8.535909661
20
-4.619056884
10
8.725103876
20
-4.619451300
10
8.914303598
20
-4.619845715
10
9.103508826
20
-4.620240131
10
9.292719562
20
-4.620634547
10
9.481935804
20
-4.621028963
10
9.671157552
20
-4.621423378
10
9.860384808
20
-4.621817794
10
10.049617570
20
-4.622212210
10
10.238855838
20
-4.622606625
10
10.428099614
20
-4.623001041
10
10.617348896
20
-4.623395457
10
10.806603684
20
-4.623789873
10
10.995863980
20
-4.624184288
10
11.185129782
20
-4.624578704
10
11.374401091
20
-4.624973120
10
11.563677906
20
-4.625367535
0
LWPOLYLINE
100
AcDbEntity
8
COPPER_L2_INNER1
100
AcDbPolyline
90
220
70
0
38
0.000000000
10
11.563677906
20
-4.625367535
10
11.752960228
20
-4.625761951
10
11.942248057
20
-4.626156367
10
12.131541393
20
-4.626550783
10
12.320840235
20
-4.626945198
10
12.510144584
20
-4.627339614
10
12.699454439
20
-4.627734030
10
12.888769801
20
-4.628128445
10
13.078090670
20
-4.628522861
10
13.267417046
20
-4.628917277
10
13.456748928
20
-4.629311693
10
13.646086317
20
-4.629706108
10
13.835429213
20
-4.630100524
10
14.024777615
20
-4.630494940
10
14.214131524
20
-4.630889355
10
14.403490940
20
-4.631283771
10
14.592855862
20
-4.631678187
10
14.782226291
20
-4.632072603
10
14.971602227
20
-4.632467018
10
15.160983669
20
-4.632861434
10
15.350370618
20
-4.633255850
10
15.539763074
20
-4.633650266
10
15.729161037
20
-4.634044681
10
15.918564506
20
-4.634439097
10
16.107973481
20
-4.634833513
10
16.297387964
20
-4.635227928
10
16.486807953
20
-4.635622344
10
16.676233449
20
-4.636016760
10
16.865664452
20
-4.636411176
10
17.055100961
20
-4.636805591
10
17.244542977
20
-4.637200007
10
17.433990499
20
-4.637594423
10
17.623443528
20
-4.637988838
10
17.812902064
20
-4.638383254
10
18.002366107
20
-4.638777670
10
18.191835656
20
-4.639172086
10
18.381310712
20
-4.639566501
10
18.570791275
20
-4.639960917
10
18.760277344
20
-4.640355333
10
18.949768920
20
-4.640749748
10
19.139266003
20
-4.641144164
10
19.328768592
20
-4.641538580
10
19.518276689
20
-4.641932996
10
19.707790291
20
-4.642327411
10
19.897309401
20
-4.642721827
10
20.086834017
20
-4.643116243
10
20.276364140
20
-4.643510658
10
20.465899769
20
-4.643905074
10
20.655440905
20
-4.644299490
10
20.844987548
20
-4.644693906
10
21.034539698
20
-4.645088321
10
21.224097354
20
-4.645482737
10
21.413660517
20
-4.645877153
10
21.603229186
20
-4.646271568
10
21.792803362
20
-4.646665984
10
21.982383045
20
-4.647060400
10
22.171968235
20
-4.647454816
10
22.361558931
20
-4.647849231
10
22.551155134
20
-4.648243647
10
22.740756844
20
-4.648638063
10
22.930364060
20
-4.649032478
10
23.119976783
20
-4.649426894
10
23.309595013
20
-4.649821310
10
23.499218749
20
-4.650215726
10
23.688847992
20
-4.650610141
10
23.878482742
20
-4.651004557
10
24.068122998
20
-4.651398973
10
24.257768762
20
-4.651793388
10
24.447420031
20
-4.652187804
10
24.637076808
20
-4.652582220
10
24.826739091
20
-4.652976636
10
25.016406881
20
-4.653371051
10
25.206080177
20
-4.653765467
10
25.395758980
20
-4.654159883
10
25.585443290
20
-4.654554298
10
25.775133107
20
-4.654948714
10
25.964828430
20
-4.655343130
10
26.154529260
20
-4.655737546
10
26.344235597
20
-4.656131961
10
26.533947440
20
-4.656526377
10
26.723664790
20
-4.656920793
10
26.913387646
20
-4.657315208
10
27.103116010
20
-4.657709624
10
27.292849880
20
-4.658104040
10
27.482589256
20
-4.658498456
10
27.672334140
20
-4.658892871
10
27.862084530
20
-4.659287287
10
28.051840427
20
-4.659681703
10
28.241601830
20
-4.660076118
10
28.431368740
20
-4.660470534
10
28.621141157
20
-4.660864950
10
28.810919080
20
-4.661259366
10
29.000702510
20
-4.661653781
10
29.190491447
20
-4.662048197
10
29.380285891
20
-4.662442613
10
29.570085841
20
-4.662837028
10
29.759891298
20
-4.663231444
10
29.949702261
20
-4.663625860
10
30.139518731
20
-4.664020276
10
30.329340708
20
-4.664414691
10
30.519168192
20
-4.664809107
10
30.709001182
20
-4.665203523
10
30.898839679
20
-4.665597938
10
31.088683683
20
-4.665992354
10
31.278533193
20
-4.666386770
10
31.468388210
20
-4.666781186
10
31.658248734
20
-4.667175601
10
31.848114764
20
-4.667570017
10
32.037986301
20
-4.667964433
10
32.227863345
20
-4.668358848
10
32.417745895
20
-4.668753264
10
32.607633952
20
-4.669147680
10
32.797527516
20
-4.669542096
10
32.987426586
20
-4.669936511
10
33.177331164
20
-4.670330927
10
33.367241247
20
-4.670725343
10
33.557156838
20
-4.671119758
10
33.747077935
20
-4.671514174
10
33.937004539
20
-4.671908590
10
34.126936649
20
-4.672303006
10
34.316874267
20
-4.672697421
10
34.506817390
20
-4.673091837
10
34.696766021
20
-4.673486253
10
34.886720158
20
-4.673880668
10
35.076679802
20
-4.674275084
10
35.266644953
20
-4.674669500
10
35.456615610
20
-4.675063916
10
35.646591774
20
-4.675458331
10
35.836573445
20
-4.675852747
10
36.026560622
20
-4.676247163
10
36.216553306
20
-4.676641578
10
36.406551497
20
-4.677035994
10
36.596555194
20
-4.677430410
10
36.786564398
20
-4.677824826
10
36.976579109
20
-4.678219241
10
37.166325955
20
-4.670353102
10
37.353949587
20
-4.641276271
10
37.537053852
20
-4.591215221
10
37.713303709
20
-4.520827228
10
37.880455639
20
-4.431027861
10
38.036386008
20
-4.322978630
10
38.179117820
20
-4.198071549
10
38.306845497
20
-4.057910810
10
38.417957402
20
-3.904291832
10
38.511055811
20
-3.739177945
10
38.584974106
20
-3.564675023
10
38.638790968
20
-3.383004402
10
38.671841419
20
-3.196474427
10
38.683724575
20
-3.007450989
10
38.684135477
20
-2.817973250
10
38.684529893
20
-2.628489979
10
38.684924308
20
-2.439001201
10
38.685318724
20
-2.249506917
10
38.685713140
20
-2.060007126
10
38.686107556
20
-1.870501828
10
38.686501971
20
-1.680991024
10
38.686896387
20
-1.491474713
10
38.687290803
20
-1.301952895
10
38.687685218
20
-1.112425571
10
38.688079634
20
-0.922892740
10
38.688474050
20
-0.733354402
10
38.688868466
20
-0.543810558
10
38.689262881
20
-0.354261207
10
38.689657297
20
-0.164706349
10
38.690051713
20
0.024854015
10
38.690446128
20
0.214419886
10
38.690840544
20
0.403991264
10
38.691234960
20
0.593568148
10
38.691629376
20
0.783150540
10
38.692023791
20
0.972738437
10
38.692418207
20
1.162331842
10
38.692812623
20
1.351930753
10
38.693207038
20
1.541535171
10
38.693601454
20
1.731145096
10
38.693995870
20
1.920760527
10
38.694390286
20
2.110381465
10
38.694784701
20
2.300007909
10
38.695179117
20
2.489639861
10
38.695573533
20
2.679277318
10
38.695967948
20
2.868920283
10
38.695351390
20
3.058557119
10
38.678632581
20
3.247338290
10
38.640974844
20
3.433040115
10
38.582865073
20
3.613350849
10
38.505043999
20
3.786029832
10
38.408496328
20
3.948935178
10
38.294437867
20
4.100050155
10
38.164299825
20
4.237507906
10
38.019710503
20
4.359614235
10
37.862474591
20
4.464868167
10
37.694550359
20
4.551980047
10
37.518025024
20
4.619886956
10
37.335088606
20
4.667765279
10
37.148006598
20
4.695040259
10
36.959087871
20
4.701884184
10
36.769976346
20
4.702278600
10
36.580859315
20
4.702673016
10
36.391736777
20
4.703067431
10
36.202608732
20
4.703461847
10
36.013475180
20
4.703856263
10
35.824336122
20
4.704250679
10
35.635191557
20
4.704645094
10
35.446041486
20
4.705039510
10
35.256885907
20
4.705433926
10
35.067724822
20
4.705828341
10
34.878558231
20
4.706222757
10
34.689386133
20
4.706617173
10
34.500208528
20
4.707011589
10
34.311025416
20
4.707406004
10
34.121836798
20
4.707800420
10
33.932642673
20
4.708194836
10
33.743443041
20
4.708589251
10
33.554237903
20
4.708983667
10
33.365027258
20
4.709378083
10
33.175811106
20
4.709772499
10
32.986589448
20
4.710166914
10
32.797362282
20
4.710561330
10
32.608129611
20
4.710955746
10
32.418891432
20
4.711350161
10
32.229647747
20
4.711744577
0
LWPOLYLINE
100
AcDbEntity
8
COPPER_L2_INNER1
100
AcDbPolyline
90
220
70
0
38
0.000000000
10
32.229647747
20
4.711744577
10
32.040398555
20
4.712138993
10
31.851143857
20
4.712533409
10
31.661883652
20
4.712927824
10
31.472617940
20
4.713322240
10
31.283346721
20
4.713716656
10
31.094069996
20
4.714111071
10
30.904787764
20
4.714505487
10
30.715500026
20
4.714899903
10
30.526206780
20
4.715294319
10
30.336908028
20
4.715688734
10
30.147603770
20
4.716083150
10
29.958294005
20
4.716477566
10
29.768978733
20
4.716871981
10
29.579657954
20
4.717266397
10
29.390331669
20
4.717660813
10
29.200999877
20
4.718055229
10
29.011662578
20
4.718449644
10
28.822319772
20
4.718844060
10
28.632971460
20
4.719238476
10
28.443617642
20
4.719632891
10
28.254258316
20
4.720027307
10
28.064893484
20
4.720421723
10
27.875523145
20
4.720816139
10
27.686147300
20
4.721210554
10
27.496765948
20
4.721604970
10
27.307379089
20
4.721999386
10
27.117986723
20
4.722393801
10
26.928588851
20
4.722788217
10
26.739185472
20
4.723182633
10
26.549776587
20
4.723577049
10
26.360362195
20
4.723971464
10
26.170942296
20
4.724365880
10
25.981516890
20
4.724760296
10
25.792085978
20
4.725154711
10
25.602649559
20
4.725549127
10
25.413207633
20
4.725943543
10
25.223760201
20
4.726337959
10
25.034307262
20
4.726732374
10
24.844848816
20
4.727126790
10
24.655384864
20
4.727521206
10
24.465915405
20
4.727915621
10
24.276440439
20
4.728310037
10
24.086959967
20
4.728704453
10
23.897473987
20
4.729098869
10
23.707982502
20
4.729493284
10
23.518485509
20
4.729887700
10
23.328983010
20
4.730282116
10
23.139475004
20
4.730676531
10
22.949961492
20
4.731070947
10
22.760442473
20
4.731465363
10
22.570917947
20
4.731859779
10
22.381387914
20
4.732254194
10
22.191852375
20
4.732648610
10
22.002311329
20
4.733043026
10
21.812764776
20
4.733437441
10
21.623212717
20
4.733831857
10
21.433655151
20
4.734226273
10
21.244092079
20
4.734620689
10
21.054523499
20
4.735015104
10
20.864949413
20
4.735409520
10
20.675369821
20
4.735803936
10
20.485784721
20
4.736198351
10
20.296194115
20
4.736592767
10
20.106598002
20
4.736987183
10
19.916996383
20
4.737381599
10
19.727389257
20
4.737776014
10
19.537776624
20
4.738170430
10
19.348158485
20
4.738564846
10
19.158534839
20
4.738959261
10
18.968905686
20
4.739353677
10
18.779271026
20
4.739748093
10
18.589630860
20
4.740142509
10
18.399985187
20
4.740536924
10
18.210334008
20
4.740931340
10
18.020677322
20
4.741325756
10
17.831015129
20
4.741720171
10
17.641347429
20
4.742114587
10
17.451674223
20
4.742509003
10
17.261995510
20
4.742903419
10
17.072311290
20
4.743297834
10
16.882621564
20
4.743692250
10
16.692926331
20
4.744086666
10
16.503225591
20
4.744481081
10
16.313519345
20
4.744875497
10
16.123807592
20
4.745269913
10
15.934090332
20
4.745664329
10
15.744367566
20
4.746058744
10
15.554639293
20
4.746453160
10
15.364905513
20
4.746847576
10
15.175166227
20
4.747241991
10
14.985421434
20
4.747636407
10
14.795671134
20
4.748030823
10
14.605915327
20
4.748425239
10
14.416154014
20
4.748819654
10
14.226387194
20
4.749214070
10
14.036614868
20
4.749608486
10
13.846837035
20
4.750002901
10
13.657053695
20
4.750397317
10
13.467264848
20
4.750791733
10
13.277470495
20
4.751186149
10
13.087670635
20
4.751580564
10
12.897865268
20
4.751974980
10
12.708054395
20
4.752369396
10
12.518238015
20
4.752763811
10
12.328416129
20
4.753158227
10
12.138588735
20
4.753552643
10
11.948755835
20
4.753947059
10
11.758917429
20
4.754341474
10
11.569073515
20
4.754735890
10
11.379224095
20
4.755130306
10
11.189369168
20
4.755524721
10
10.999508735
20
4.755919137
10
10.809642795
20
4.756313553
10
10.619771348
20
4.756707969
10
10.429894395
20
4.757102384
10
10.240011935
20
4.757496800
10
10.050123968
20
4.757891216
10
9.860230494
20
4.758285631
10
9.670331514
20
4.758680047
10
9.480427027
20
4.759074463
10
9.290517034
20
4.759468879
10
9.100601533
20
4.759863294
10
8.910680526
20
4.760257710
10
8.720754013
20
4.760652126
10
8.530821993
20
4.761046541
10
8.340884466
20
4.761440957
10
8.150941432
20
4.761835373
10
7.960992892
20
4.762229789
10
7.771038845
20
4.762624204
10
7.581079291
20
4.763018620
10
7.391114231
20
4.763413036
10
7.201143664
20
4.763807451
10
7.011167590
20
4.764201867
10
6.821186010
20
4.764596283
10
6.631198922
20
4.764990699
10
6.441206329
20
4.765385114
10
6.251208228
20
4.765779530
10
6.061204621
20
4.766173946
10
5.871195507
20
4.766568361
10
5.681180887
20
4.766962777
10
5.491160760
20
4.767357193
10
5.301135126
20
4.767751609
10
5.111103985
20
4.768146024
10
4.921067338
20
4.768540440
10
4.731025184
20
4.768934856
10
4.540977524
20
4.769329272
10
4.350924356
20
4.769723687
10
4.160865682
20
4.770118103
10
3.970801502
20
4.770512519
10
3.780731814
20
4.770906934
10
3.590656621
20
4.771301350
10
3.400575920
20
4.771695766
10
3.210489713
20
4.772090182
10
3.020397998
20
4.772484597
10
2.830300778
20
4.772879013
10
2.640198050
20
4.773273429
10
2.450089816
20
4.773667844
10
2.259976076
20
4.774062260
10
2.069856828
20
4.774456676
10
1.879732074
20
4.774851092
10
1.689601813
20
4.775245507
10
1.499466046
20
4.775639923
10
1.309324772
20
4.776034339
10
1.119177991
20
4.776428754
10
0.929025703
20
4.776823170
10
0.738867909
20
4.777217586
10
0.548704608
20
4.777612002
10
0.358535801
20
4.778006417
10
0.168361486
20
4.778400833
10
-0.021818335
20
4.778795249
10
-0.212003662
20
4.779189664
10
-0.402194496
20
4.779584080
10
-0.592390837
20
4.779978496
10
-0.782592685
20
4.780372912
10
-0.972800039
20
4.780767327
10
-1.163012900
20
4.781161743
10
-1.353231268
20
4.781556159
10
-1.543455142
20
4.781950574
10
-1.733684523
20
4.782344990
10
-1.923919411
20
4.782739406
10
-2.114159806
20
4.783133822
10
-2.304405707
20
4.783528237
10
-2.494657114
20
4.783922653
10
-2.684914029
20
4.784317069
10
-2.875176450
20
4.784711484
10
-3.065444378
20
4.785105900
10
-3.255717812
20
4.785500316
10
-3.445996754
20
4.785894732
10
-3.636281201
20
4.786289147
10
-3.826571156
20
4.786683563
10
-4.016866617
20
4.787077979
10
-4.207167585
20
4.787472394
10
-4.397474060
20
4.787866810
10
-4.587786041
20
4.788261226
10
-4.778103529
20
4.788655642
10
-4.968426524
20
4.789050057
10
-5.158755025
20
4.789444473
10
-5.349089033
20
4.789838889
10
-5.539428548
20
4.790233304
10
-5.729773569
20
4.790627720
10
-5.920124097
20
4.791022136
10
-6.110480132
20
4.791416552
10
-6.300841673
20
4.791810967
10
-6.491208721
20
4.792205383
10
-6.681581276
20
4.792599799
10
-6.871959337
20
4.792994214
10
-7.062342905
20
4.793388630
10
-7.252731980
20
4.793783046
10
-7.443126562
20
4.794177462
10
-7.633526650
20
4.794571877
10
-7.823932245
20
4.794966293
10
-8.014343346
20
4.795360709
10
-8.204759955
20
4.795755124
10
-8.395182069
20
4.796149540
10
-8.585609691
20
4.796543956
10
-8.776042819
20
4.796938372
10
-8.966481454
20
4.797332787
10
-9.156925596
20
4.797727203
10
-9.347375244
20
4.798121619
0
LWPOLYLINE
100
AcDbEntity
8
COPPER_L2_INNER1
100
AcDbPolyline
90
220
70
0
38
0.000000000
10
-9.347375244
20
4.798121619
10
-9.537830399
20
4.798516034
10
-9.728291061
20
4.798910450
10
-9.918757229
20
4.799304866
10
-10.109228904
20
4.799699282
10
-10.299706086
20
4.800093697
10
-10.490188774
20
4.800488113
10
-10.680676969
20
4.800882529
10
-10.871170671
20
4.801276944
10
-11.061669879
20
4.801671360
10
-11.252174595
20
4.802065776
10
-11.442684816
20
4.802460192
10
-11.633200545
20
4.802854607
10
-11.823721780
20
4.803249023
10
-12.014248522
20
4.803643439
10
-12.204780770
20
4.804037854
10
-12.395318526
20
4.804432270
10
-12.585861787
20
4.804826686
10
-12.776410556
20
4.805221102
10
-12.966964831
20
4.805615517
10
-13.157524613
20
4.806009933
10
-13.348089902
20
4.806404349
10
-13.538660697
20
4.806798764
10
-13.729236999
20
4.807193180
10
-13.919818808
20
4.807587596
10
-14.110406123
20
4.807982012
10
-14.300998945
20
4.808376427
10
-14.491597274
20
4.808770843
10
-14.682201109
20
4.809165259
10
-14.872810451
20
4.809559674
10
-15.063425300
20
4.809954090
10
-15.254045655
20
4.810348506
10
-15.444671517
20
4.810742922
10
-15.635302886
20
4.811137337
10
-15.825939762
20
4.811531753
10
-16.016582144
20
4.811926169
10
-16.207230033
20
4.812320584
10
-16.397883428
20
4.812715000
10
-16.588542330
20
4.813109416
10
-16.779206739
20
4.813503832
10
-16.969876655
20
4.813898247
10
-17.160552077
20
4.814292663
10
-17.351233006
20
4.814687079
10
-17.541919441
20
4.815081494
10
-17.732611384
20
4.815475910
10
-17.923308833
20
4.815870326
10
-18.114011788
20
4.816264742
10
-18.304720251
20
4.816659157
10
-18.495434220
20
4.817053573
10
-18.686153695
20
4.817447989
10
-18.876878678
20
4.817842404
10
-19.067609167
20
4.818236820
10
-19.258345162
20
4.818631236
10
-19.449086665
20
4.819025652
10
-19.639833674
20
4.819420067
10
-19.830586190
20
4.819814483
10
-20.021344212
20
4.820208899
10
-20.212107741
20
4.820603314
10
-20.402876777
20
4.820997730
10
-20.593651319
20
4.821392146
10
-20.784431369
20
4.821786562
10
-20.975216924
20
4.822180977
10
-21.166007987
20
4.822575393
10
-21.356804556
20
4.822969809
10
-21.547606632
20
4.823364224
10
-21.738414215
20
4.823758640
10
-21.929227304
20
4.824153056
10
-22.120045900
20
4.824547472
10
-22.310870003
20
4.824941887
10
-22.501699612
20
4.825336303
10
-22.692534728
20
4.825730719
10
-22.883375350
20
4.826125134
10
-23.074221480
20
4.826519550
10
-23.265073116
20
4.826913966
10
-23.455930259
20
4.827308382
10
-23.646792908
20
4.827702797
10
-23.837661064
20
4.828097213
10
-24.028534727
20
4.828491629
10
-24.219413896
20
4.828886044
10
-24.410298572
20
4.829280460
10
-24.601188755
20
4.829674876
10
-24.792084445
20
4.830069292
10
-24.982985641
20
4.830463707
10
-25.173892344
20
4.830858123
10
-25.364804553
20
4.831252539
10
-25.555722269
20
4.831646954
10
-25.746645492
20
4.832041370
10
-25.937574222
20
4.832435786
10
-26.128508458
20
4.832830202
10
-26.319448201
20
4.833224617
10
-26.510393450
20
4.833619033
10
-26.701344207
20
4.834013449
10
-26.892300470
20
4.834407865
10
-27.083262239
20
4.834802280
10
-27.274229516
20
4.835196696
10
-27.465202299
20
4.835591112
10
-27.656180588
20
4.835985527
10
-27.847164385
20
4.836379943
10
-28.038153688
20
4.836774359
10
-28.229148498
20
4.837168775
10
-28.420148814
20
4.837563190
10
-28.611154637
20
4.837957606
10
-28.802165967
20
4.838352022
10
-28.993182803
20
4.838746437
10
-29.184205146
20
4.839140853
10
-29.375232996
20
4.839535269
10
-29.566266353
20
4.839929685
10
-29.757305216
20
4.840324100
10
-29.948349586
20
4.840718516
10
-30.139399462
20
4.841112932
10
-30.330454846
20
4.841507347
10
-30.521515736
20
4.841901763
10
-30.712582132
20
4.842296179
10
-30.903654035
20
4.842690595
10
-31.094731445
20
4.843085010
10
-31.285814362
20
4.843479426
10
-31.476902785
20
4.843873842
10
-31.667996715
20
4.844268257
10
-31.859096152
20
4.844662673
10
-32.050201095
20
4.845057089
10
-32.241311545
20
4.845451505
10
-32.432427502
20
4.845845920
10
-32.623548965
20
4.846240336
10
-32.814675936
20
4.846634752
10
-33.005808412
20
4.847029167
10
-33.196946396
20
4.847423583
10
-33.388089886
20
4.847817999
10
-33.579238883
20
4.848212415
10
-33.770393386
20
4.848606830
10
-33.961553396
20
4.849001246
10
-34.152718913
20
4.849395662
10
-34.343889937
20
4.849790077
10
-34.535066467
20
4.850184493
10
-34.726248504
20
4.850578909
10
-34.917436047
20
4.850973325
10
-35.108629098
20
4.851367740
10
-35.299827655
20
4.851762156
10
-35.491031718
20
4.852156572
10
-35.682241289
20
4.852550987
10
-35.873456366
20
4.852945403
10
-36.064676949
20
4.853339819
10
-36.255903040
20
4.853734235
10
-36.447134637
20
4.854128650
10
-36.638371740
20
4.854523066
10
-36.829614351
20
4.854917482
10
-37.020862028
20
4.855194602
10
-37.211654490
20
4.843596566
10
-37.400207495
20
4.812441413
10
-37.584524179
20
4.762074262
10
-37.762655641
20
4.693043181
10
-37.932721469
20
4.606092908
10
-38.092929455
20
4.502156521
10
-38.241594335
20
4.382345132
10
-38.377155332
20
4.247935740
10
-38.498192328
20
4.100357369
10
-38.603440511
20
3.941175650
10
-38.691803332
20
3.772076004
10
-38.762363656
20
3.594845629
10
-38.814392985
20
3.411354458
10
-38.847358678
20
3.223535323
10
-38.860929080
20
3.033363502
10
-38.861622549
20
2.842648612
10
-38.862016965
20
2.651926428
10
-38.862411380
20
2.461198738
10
-38.862805796
20
2.270465540
10
-38.863200212
20
2.079726836
10
-38.863594627
20
1.888982626
10
-38.863989043
20
1.698232909
10
-38.864383459
20
1.507477685
10
-38.864777875
20
1.316716954
10
-38.865172290
20
1.125950717
10
-38.865566706
20
0.935178973
10
-38.865961122
20
0.744401722
10
-38.866355537
20
0.553618964
10
-38.866749953
20
0.362830700
10
-38.867144369
20
0.172036930
10
-38.867538785
20
-0.018762348
10
-38.867933200
20
-0.209567132
10
-38.868327616
20
-0.400377423
10
-38.868722032
20
-0.591193220
10
-38.869116447
20
-0.782014524
10
-38.869510863
20
-0.972841335
10
-38.869905279
20
-1.163673653
10
-38.870299695
20
-1.354511477
10
-38.870694110
20
-1.545354808
10
-38.871088526
20
-1.736203645
10
-38.871482942
20
-1.927057990
10
-38.871877357
20
-2.117917840
10
-38.872271773
20
-2.308783198
10
-38.872666189
20
-2.499654062
10
-38.873060605
20
-2.690530433
10
-38.873455020
20
-2.881412311
10
-38.872454821
20
-3.072281758
10
-38.855794657
20
-3.262328436
10
-38.819909743
20
-3.449663385
10
-38.765185994
20
-3.632349563
10
-38.692203583
20
-3.808500980
10
-38.601730501
20
-3.976302083
10
-38.494714184
20
-4.134026334
10
-38.372271325
20
-4.280053828
10
-38.235675966
20
-4.412887746
10
-38.086346005
20
-4.531169497
10
-37.925828267
20
-4.633692382
10
-37.755782292
20
-4.719413657
10
-37.577963017
20
-4.787464874
10
-37.394202524
20
-4.837160400
10
-37.206391066
20
-4.868004027
10
-37.016457540
20
-4.879693627
10
-36.826101806
20
-4.880160087
10
-36.635740355
20
-4.880554503
10
-36.445373397
20
-4.880948919
10
-36.255000932
20
-4.881343335
10
-36.064622961
20
-4.881737750
10
-35.874239483
20
-4.882132166
10
-35.683850499
20
-4.882526582
10
-35.493456008
20
-4.882920997
10
-35.303056010
20
-4.883315413
10
-35.112650505
20
-4.883709829
10
-34.922239494
20
-4.884104245
10
-34.731822976
20
-4.884498660
0
LWPOLYLINE
100
AcDbEntity
8
COPPER_L2_INNER1
100
AcDbPolyline
90
220
70
0
38
0.000000000
10
-34.731822976
20
-4.884498660
10
-34.541400951
20
-4.884893076
10
-34.350973420
20
-4.885287492
10
-34.160540382
20
-4.885681907
10
-33.970101837
20
-4.886076323
10
-33.779657786
20
-4.886470739
10
-33.589208228
20
-4.886865155
10
-33.398753163
20
-4.887259570
10
-33.208292592
20
-4.887653986
10
-33.017826514
20
-4.888048402
10
-32.827354929
20
-4.888442817
10
-32.636877837
20
-4.888837233
10
-32.446395239
20
-4.889231649
10
-32.255907134
20
-4.889626065
10
-32.065413523
20
-4.890020480
10
-31.874914405
20
-4.890414896
10
-31.684409780
20
-4.890809312
10
-31.493899648
20
-4.891203727
10
-31.303384010
20
-4.891598143
10
-31.112862865
20
-4.891992559
10
-30.922336214
20
-4.892386975
10
-30.731804055
20
-4.892781390
10
-30.541266390
20
-4.893175806
10
-30.350723219
20
-4.893570222
10
-30.160174540
20
-4.893964637
10
-29.969620355
20
-4.894359053
10
-29.779060664
20
-4.894753469
10
-29.588495465
20
-4.895147885
10
-29.397924760
20
-4.895542300
10
-29.207348549
20
-4.895936716
10
-29.016766830
20
-4.896331132
10
-28.826179605
20
-4.896725547
10
-28.635586873
20
-4.897119963
10
-28.444988635
20
-4.897514379
10
-28.254384890
20
-4.897908795
10
-28.063775638
20
-4.898303210
10
-27.873160879
20
-4.898697626
10
-27.682540614
20
-4.899092042
10
-27.491914842
20
-4.899486457
10
-27.301283564
20
-4.899880873
10
-27.110646779
20
-4.900275289
10
-26.920004487
20
-4.900669705
10
-26.729356688
20
-4.901064120
10
-26.538703383
20
-4.901458536
10
-26.348044571
20
-4.901852952
10
-26.157380252
20
-4.902247368
10
-25.966710427
20
-4.902641783
10
-25.776035095
20
-4.903036199
10
-25.585354257
20
-4.903430615
10
-25.394667911
20
-4.903825030
10
-25.203976059
20
-4.904219446
10
-25.013278700
20
-4.904613862
10
-24.822575835
20
-4.905008278
10
-24.631867463
20
-4.905402693
10
-24.441153584
20
-4.905797109
10
-24.250434199
20
-4.906191525
10
-24.059709307
20
-4.906585940
10
-23.868978908
20
-4.906980356
10
-23.678243002
20
-4.907374772
10
-23.487501590
20
-4.907769188
10
-23.296754671
20
-4.908163603
10
-23.106002246
20
-4.908558019
10
-22.915244314
20
-4.908952435
10
-22.724480875
20
-4.909346850
10
-22.533711929
20
-4.909741266
10
-22.342937477
20
-4.910135682
10
-22.152157518
20
-4.910530098
10
-21.961372053
20
-4.910924513
10
-21.770581080
20
-4.911318929
10
-21.579784601
20
-4.911713345
10
-21.388982616
20
-4.912107760
10
-21.198175123
20
-4.912502176
10
-21.007362124
20
-4.912896592
10
-20.816543619
20
-4.913291008
10
-20.625719606
20
-4.913685423
10
-20.434890087
20
-4.914079839
10
-20.244055062
20
-4.914474255
10
-20.053214529
20
-4.914868670
10
-19.862368490
20
-4.915263086
10
-19.671516944
20
-4.915657502
10
-19.480659892
20
-4.916051918
10
-19.289797333
20
-4.916446333
10
-19.098929267
20
-4.916840749
10
-18.908055694
20
-4.917235165
10
-18.717176615
20
-4.917629580
10
-18.526292029
20
-4.918023996
10
-18.335401937
20
-4.918418412
10
-18.144506338
20
-4.918812828
10
-17.953605232
20
-4.919207243
10
-17.762698619
20
-4.919601659
10
-17.571786500
20
-4.919996075
10
-17.380868874
20
-4.920390490
10
-17.189945741
20
-4.920784906
10
-16.999017102
20
-4.921179322
10
-16.808082956
20
-4.921573738
10
-16.617143303
20
-4.921968153
10
-16.426198144
20
-4.922362569
10
-16.235247478
20
-4.922756985
10
-16.044291305
20
-4.923151400
10
-15.853329626
20
-4.923545816
10
-15.662362440
20
-4.923940232
10
-15.471389747
20
-4.924334648
10
-15.280411547
20
-4.924729063
10
-15.089427841
20
-4.925123479
10
-14.898438628
20
-4.925517895
10
-14.707443909
20
-4.925912310
10
-14.516443683
20
-4.926306726
10
-14.325437950
20
-4.926701142
10
-14.134426710
20
-4.927095558
10
-13.943409964
20
-4.927489973
10
-13.752387711
20
-4.927884389
10
-13.561359952
20
-4.928278805
10
-13.370326685
20
-4.928673220
10
-13.179287913
20
-4.929067636
10
-12.988243633
20
-4.929462052
10
-12.797193847
20
-4.929856468
10
-12.606138554
20
-4.930250883
10
-12.415077754
20
-4.930645299
10
-12.224011448
20
-4.931039715
10
-12.032939635
20
-4.931434130
10
-11.841862315
20
-4.931828546
10
-11.650779489
20
-4.932222962
10
-11.459691155
20
-4.932617378
10
-11.268597316
20
-4.933011793
10
-11.077497969
20
-4.933406209
10
-10.886393116
20
-4.933800625
10
-10.695282756
20
-4.934195040
10
-10.504166890
20
-4.934589456
10
-10.313045517
20
-4.934983872
10
-10.121918637
20
-4.935378288
10
-9.930786250
20
-4.935772703
10
-9.739648357
20
-4.936167119
10
-9.548504957
20
-4.936561535
10
-9.357356051
20
-4.936955950
10
-9.166201638
20
-4.937350366
10
-8.975041718
20
-4.937744782
10
-8.783876291
20
-4.938139198
10
-8.592705358
20
-4.938533613
10
-8.401528918
20
-4.938928029
10
-8.210346971
20
-4.939322445
10
-8.019159518
20
-4.939716860
10
-7.827966558
20
-4.940111276
10
-7.636768091
20
-4.940505692
10
-7.445564118
20
-4.940900108
10
-7.254354638
20
-4.941294523
10
-7.063139651
20
-4.941688939
10
-6.871919158
20
-4.942083355
10
-6.680693157
20
-4.942477770
10
-6.489461651
20
-4.942872186
10
-6.298224637
20
-4.943266602
10
-6.106982117
20
-4.943661018
10
-5.915734090
20
-4.944055433
10
-5.724480557
20
-4.944449849
10
-5.533221517
20
-4.944844265
10
-5.341956970
20
-4.945238680
10
-5.150686916
20
-4.945633096
10
-4.959411356
20
-4.946027512
10
-4.768130289
20
-4.946421928
10
-4.576843715
20
-4.946816343
10
-4.385551635
20
-4.947210759
10
-4.194254048
20
-4.947605175
10
-4.002950955
20
-4.947999590
10
-3.811642354
20
-4.948394006
10
-3.620328247
20
-4.948788422
10
-3.429008634
20
-4.949182838
10
-3.237683513
20
-4.949577253
10
-3.046352886
20
-4.949971669
10
-2.855016752
20
-4.950366085
10
-2.663675112
20
-4.950760500
10
-2.472327965
20
-4.951154916
10
-2.280975311
20
-4.951549332
10
-2.089617151
20
-4.951943748
10
-1.898253484
20
-4.952338163
10
-1.706884310
20
-4.952732579
10
-1.515509629
20
-4.953126995
10
-1.324129442
20
-4.953521410
10
-1.132743748
20
-4.953915826
10
-0.941352548
20
-4.954310242
10
-0.749955841
20
-4.954704658
10
-0.558553627
20
-4.955099073
10
-0.367145906
20
-4.955493489
10
-0.175732679
20
-4.955887905
10
0.015686055
20
-4.956282320
10
0.207110296
20
-4.956676736
10
0.398540043
20
-4.957071152
10
0.589975297
20
-4.957465568
10
0.781416058
20
-4.957859983
10
0.972862325
20
-4.958254399
10
1.164314099
20
-4.958648815
10
1.355771380
20
-4.959043230
10
1.547234167
20
-4.959437646
10
1.738702461
20
-4.959832062
10
1.930176262
20
-4.960226478
10
2.121655569
20
-4.960620893
10
2.313140383
20
-4.961015309
10
2.504630704
20
-4.961409725
10
2.696126532
20
-4.961804140
10
2.887627866
20
-4.962198556
10
3.079134707
20
-4.962592972
10
3.270647054
20
-4.962987388
10
3.462164908
20
-4.963381803
10
3.653688269
20
-4.963776219
10
3.845217137
20
-4.964170635
10
4.036751511
20
-4.964565050
10
4.228291392
20
-4.964959466
10
4.419836780
20
-4.965353882
10
4.611387674
20
-4.965748298
10
4.802944075
20
-4.966142713
10
4.994505982
20
-4.966537129
10
5.186073397
20
-4.966931545
10
5.377646318
20
-4.967325961
10
5.569224746
20
-4.967720376
10
5.760808680
20
-4.968114792
10
5.952398121
20
-4.968509208
10
6.143993069
20
-4.968903623
10
6.335593523
20
-4.969298039
10
6.527199484
20
-4.969692455
10
6.718810952
20
-4.970086871
10
6.910427926
20
-4.970481286
10
7.102050408
20
-4.970875702
0
LWPOLYLINE
100
AcDbEntity
8
COPPER_L2_INNER1
100
AcDbPolyline
90
220
70
0
38
0.000000000
10
7.102050408
20
-4.970875702
10
7.293678395
20
-4.971270118
10
7.485311890
20
-4.971664533
10
7.676950891
20
-4.972058949
10
7.868595399
20
-4.972453365
10
8.060245413
20
-4.972847781
10
8.251900935
20
-4.973242196
10
8.443561963
20
-4.973636612
10
8.635228497
20
-4.974031028
10
8.826900538
20
-4.974425443
10
9.018578086
20
-4.974819859
10
9.210261141
20
-4.975214275
10
9.401949702
20
-4.975608691
10
9.593643770
20
-4.976003106
10
9.785343345
20
-4.976397522
10
9.977048426
20
-4.976791938
10
10.168759014
20
-4.977186353
10
10.360475109
20
-4.977580769
10
10.552196711
20
-4.977975185
10
10.743923819
20
-4.978369601
10
10.935656433
20
-4.978764016
10
11.127394555
20
-4.979158432
10
11.319138183
20
-4.979552848
10
11.510887318
20
-4.979947263
10
11.702641959
20
-4.980341679
10
11.894402107
20
-4.980736095
10
12.086167762
20
-4.981130511
10
12.277938924
20
-4.981524926
10
12.469715592
20
-4.981919342
10
12.661497767
20
-4.982313758
10
12.853285448
20
-4.982708173
10
13.045078637
20
-4.983102589
10
13.236877332
20
-4.983497005
10
13.428681533
20
-4.983891421
10
13.620491242
20
-4.984285836
10
13.812306457
20
-4.984680252
10
14.004127178
20
-4.985074668
10
14.195953407
20
-4.985469083
10
14.387785142
20
-4.985863499
10
14.579622383
20
-4.986257915
10
14.771465132
20
-4.986652331
10
14.963313387
20
-4.987046746
10
15.155167149
20
-4.987441162
10
15.347026417
20
-4.987835578
10
15.538891192
20
-4.988229993
10
15.730761474
20
-4.988624409
10
15.922637262
20
-4.989018825
10
16.114518557
20
-4.989413241
10
16.306405359
20
-4.989807656
10
16.498297668
20
-4.990202072
10
16.690195483
20
-4.990596488
10
16.882098805
20
-4.990990903
10
17.074007633
20
-4.991385319
10
17.265921969
20
-4.991779735
10
17.457841811
20
-4.992174151
10
17.649767159
20
-4.992568566
10
17.841698015
20
-4.992962982
10
18.033634377
20
-4.993357398
10
18.225576245
20
-4.993751813
10
18.417523620
20
-4.994146229
10
18.609476502
20
-4.994540645
10
18.801434891
20
-4.994935061
10
18.993398787
20
-4.995329476
10
19.185368189
20
-4.995723892
10
19.377343097
20
-4.996118308
10
19.569323513
20
-4.996512723
10
19.761309435
20
-4.996907139
10
19.953300864
20
-4.997301555
10
20.145297799
20
-4.997695971
10
20.337300241
20
-4.998090386
10
20.529308190
20
-4.998484802
10
20.721321646
20
-4.998879218
10
20.913340608
20
-4.999273633
10
21.105365077
20
-4.999668049
10
21.297395052
20
-5.000062465
10
21.489430534
20
-5.000456881
10
21.681471523
20
-5.000851296
10
21.873518019
20
-5.001245712
10
22.065570021
20
-5.001640128
10
22.257627530
20
-5.002034543
10
22.449690546
20
-5.002428959
10
22.641759068
20
-5.002823375
10
22.833833097
20
-5.003217791
10
23.025912633
20
-5.003612206
10
23.217997675
20
-5.004006622
10
23.410088224
20
-5.004401038
10
23.602184280
20
-5.004795453
10
23.794285842
20
-5.005189869
10
23.986392911
20
-5.005584285
10
24.178505487
20
-5.005978701
10
24.370623570
20
-5.006373116
10
24.562747159
20
-5.006767532
10
24.754876254
20
-5.007161948
10
24.947010857
20
-5.007556363
10
25.139150966
20
-5.007950779
10
25.331296582
20
-5.008345195
10
25.523447705
20
-5.008739611
10
25.715604334
20
-5.009134026
10
25.907766470
20
-5.009528442
10
26.099934112
20
-5.009922858
10
26.292107261
20
-5.010317273
10
26.484285917
20
-5.010711689
10
26.676470080
20
-5.011106105
10
26.868659749
20
-5.011500521
10
27.060854925
20
-5.011894936
10
27.253055608
20
-5.012289352
10
27.445261797
20
-5.012683768
10
27.637473493
20
-5.013078183
10
27.829690696
20
-5.013472599
10
28.021913405
20
-5.013867015
10
28.214141622
20
-5.014261431
10
28.406375344
20
-5.014655846
10
28.598614574
20
-5.015050262
10
28.790859310
20
-5.015444678
10
28.983109553
20
-5.015839093
10
29.175365302
20
-5.016233509
10
29.367626558
20
-5.016627925
10
29.559893321
20
-5.017022341
10
29.752165591
20
-5.017416756
10
29.944443367
20
-5.017811172
10
30.136726650
20
-5.018205588
10
30.329015439
20
-5.018600003
10
30.521309735
20
-5.018994419
10
30.713609538
20
-5.019388835
10
30.905914848
20
-5.019783251
10
31.098225664
20
-5.020177666
10
31.290541987
20
-5.020572082
10
31.482863817
20
-5.020966498
10
31.675191153
20
-5.021360913
10
31.867523996
20
-5.021755329
10
32.059862346
20
-5.022149745
10
32.252206202
20
-5.022544161
10
32.444555565
20
-5.022938576
10
32.636910435
20
-5.023332992
10
32.829270812
20
-5.023727408
10
33.021636695
20
-5.024121823
10
33.214008084
20
-5.024516239
10
33.406384981
20
-5.024910655
10
33.598767384
20
-5.025305071
10
33.791155294
20
-5.025699486
10
33.983548710
20
-5.026093902
10
34.175947634
20
-5.026488318
10
34.368352063
20
-5.026882733
10
34.560762000
20
-5.027277149
10
34.753177443
20
-5.027671565
10
34.945598393
20
-5.028065981
10
35.138024850
20
-5.028460396
10
35.330456813
20
-5.028854812
10
35.522894283
20
-5.029249228
10
35.715337260
20
-5.029643643
10
35.907785743
20
-5.030038059
10
36.100239733
20
-5.030432475
10
36.292699230
20
-5.030826891
10
36.485164233
20
-5.031221306
10
36.677634743
20
-5.031615722
10
36.870110760
20
-5.032010138
10
37.062582389
20
-5.031440797
10
37.254410440
20
-5.016816049
10
37.443965836
20
-4.984129451
10
37.629553819
20
-4.933685944
10
37.809517493
20
-4.865948843
10
37.982252551
20
-4.781535351
10
38.146221492
20
-4.681210727
10
38.299967201
20
-4.565881138
10
38.442125773
20
-4.436585283
10
38.571438467
20
-4.294484853
10
38.686762696
20
-4.140853925
10
38.787081946
20
-3.977067388
10
38.871514549
20
-3.804588502
10
38.939321232
20
-3.624955709
10
38.989911379
20
-3.439768813
10
39.022847957
20
-3.250674653
10
39.037851069
20
-3.059352402
10
39.039109621
20
-2.867405199
10
39.039504036
20
-2.675444102
10
39.039898452
20
-2.483477498
10
39.040292868
20
-2.291505388
10
39.040687284
20
-2.099527771
10
39.041081699
20
-1.907544648
10
39.041476115
20
-1.715556017
10
39.041870531
20
-1.523561880
10
39.042264946
20
-1.331562237
10
39.042659362
20
-1.139557086
10
39.043053778
20
-0.947546429
10
39.043448194
20
-0.755530266
10
39.043842609
20
-0.563508595
10
39.044237025
20
-0.371481418
10
39.044631441
20
-0.179448734
10
39.045025856
20
0.012589456
10
39.045420272
20
0.204633153
10
39.045814688
20
0.396682357
10
39.046209104
20
0.588737068
10
39.046603519
20
0.780797285
10
39.046997935
20
0.972863009
10
39.047392351
20
1.164934239
10
39.047786766
20
1.357010976
10
39.048181182
20
1.549093220
10
39.048575598
20
1.741180971
10
39.048970014
20
1.933274228
10
39.049364429
20
2.125372992
10
39.049758845
20
2.317477263
10
39.050153261
20
2.509587040
10
39.050547676
20
2.701702324
10
39.050942092
20
2.893823115
10
39.049536164
20
3.085924266
10
39.032914894
20
3.277230619
10
38.998488327
20
3.466114596
10
38.946569890
20
3.650924733
10
38.877625563
20
3.830047492
10
38.792269479
20
4.001921287
10
38.691258256
20
4.165050013
10
38.575484087
20
4.318015968
10
38.445966680
20
4.459492054
10
38.303844096
20
4.588253151
10
38.150362596
20
4.703186575
10
37.986865562
20
4.803301528
10
37.814781611
20
4.887737455
10
37.635612003
20
4.955771255
10
37.450917444
20
5.006823271
10
37.262304422
20
5.040462017
0
LWPOLYLINE
100
AcDbEntity
8
COPPER_L2_INNER1
100
AcDbPolyline
90
220
70
0
38
0.000000000
10
37.262304422
20
5.040462017
10
37.071411179
20
5.056407614
10
36.879825157
20
5.058041575
10
36.688219287
20
5.058435991
10
36.496607909
20
5.058830406
10
36.304991025
20
5.059224822
10
36.113368634
20
5.059619238
10
35.921740736
20
5.060013654
10
35.730107332
20
5.060408069
10
35.538468421
20
5.060802485
10
35.346824004
20
5.061196901
10
35.155174079
20
5.061591316
10
34.963518648
20
5.061985732
10
34.771857711
20
5.062380148
10
34.580191266
20
5.062774564
10
34.388519315
20
5.063168979
10
34.196841858
20
5.063563395
10
34.005158893
20
5.063957811
10
33.813470422
20
5.064352226
10
33.621776444
20
5.064746642
10
33.430076960
20
5.065141058
10
33.238371969
20
5.065535474
10
33.046661471
20
5.065929889
10
32.854945467
20
5.066324305
10
32.663223955
20
5.066718721
10
32.471496938
20
5.067113136
10
32.279764413
20
5.067507552
10
32.088026382
20
5.067901968
10
31.896282844
20
5.068296384
10
31.704533799
20
5.068690799
10
31.512779248
20
5.069085215
10
31.321019190
20
5.069479631
10
31.129253626
20
5.069874046
10
30.937482554
20
5.070268462
10
30.745705976
20
5.070662878
10
30.553923892
20
5.071057294
10
30.362136300
20
5.071451709
10
30.170343202
20
5.071846125
10
29.978544598
20
5.072240541
10
29.786740486
20
5.072634956
10
29.594930868
20
5.073029372
10
29.403115744
20
5.073423788
10
29.211295112
20
5.073818204
10
29.019468974
20
5.074212619
10
28.827637329
20
5.074607035
10
28.635800178
20
5.075001451
10
28.443957520
20
5.075395866
10
28.252109355
20
5.075790282
10
28.060255683
20
5.076184698
10
27.868396505
20
5.076579114
10
27.676531820
20
5.076973529
10
27.484661629
20
5.077367945
10
27.292785931
20
5.077762361
10
27.100904726
20
5.078156776
10
26.909018014
20
5.078551192
10
26.717125796
20
5.078945608
10
26.525228071
20
5.079340024
10
26.333324839
20
5.079734439
10
26.141416101
20
5.080128855
10
25.949501856
20
5.080523271
10
25.757582104
20
5.080917686
10
25.565656846
20
5.081312102
10
25.373726081
20
5.081706518
10
25.181789809
20
5.082100934
10
24.989848031
20
5.082495349
10
24.797900746
20
5.082889765
10
24.605947954
20
5.083284181
10
24.413989655
20
5.083678596
10
24.222025850
20
5.084073012
10
24.030056539
20
5.084467428
10
23.838081720
20
5.084861844
10
23.646101395
20
5.085256259
10
23.454115563
20
5.085650675
10
23.262124225
20
5.086045091
10
23.070127379
20
5.086439506
10
22.878125027
20
5.086833922
10
22.686117169
20
5.087228338
10
22.494103804
20
5.087622754
10
22.302084932
20
5.088017169
10
22.110060553
20
5.088411585
10
21.918030668
20
5.088806001
10
21.725995276
20
5.089200416
10
21.533954377
20
5.089594832
10
21.341907972
20
5.089989248
10
21.149856060
20
5.090383664
10
20.957798641
20
5.090778079
10
20.765735716
20
5.091172495
10
20.573667284
20
5.091566911
10
20.381593345
20
5.091961326
10
20.189513899
20
5.092355742
10
19.997428947
20
5.092750158
10
19.805338489
20
5.093144574
10
19.613242523
20
5.093538989
10
19.421141051
20
5.093933405
10
19.229034072
20
5.094327821
10
19.036921587
20
5.094722236
10
18.844803594
20
5.095116652
10
18.652680095
20
5.095511068
10
18.460551090
20
5.095905484
10
18.268416578
20
5.096299899
10
18.076276559
20
5.096694315
10
17.884131033
20
5.097088731
10
17.691980001
20
5.097483146
10
17.499823462
20
5.097877562
10
17.307661416
20
5.098271978
10
17.115493864
20
5.098666394
10
16.923320805
20
5.099060809
10
16.731142239
20
5.099455225
10
16.538958167
20
5.099849641
10
16.346768588
20
5.100244057
10
16.154573502
20
5.100638472
10
15.962372910
20
5.101032888
10
15.770166811
20
5.101427304
10
15.577955205
20
5.101821719
10
15.385738092
20
5.102216135
10
15.193515473
20
5.102610551
10
15.001287347
20
5.103004967
10
14.809053715
20
5.103399382
10
14.616814576
20
5.103793798
10
14.424569930
20
5.104188214
10
14.232319777
20
5.104582629
10
14.040064118
20
5.104977045
10
13.847802952
20
5.105371461
10
13.655536280
20
5.105765877
10
13.463264100
20
5.106160292
10
13.270986414
20
5.106554708
10
13.078703222
20
5.106949124
10
12.886414522
20
5.107343539
10
12.694120316
20
5.107737955
10
12.501820604
20
5.108132371
10
12.309515384
20
5.108526787
10
12.117204658
20
5.108921202
10
11.924888426
20
5.109315618
10
11.732566686
20
5.109710034
10
11.540239440
20
5.110104449
10
11.347906687
20
5.110498865
10
11.155568428
20
5.110893281
10
10.963224662
20
5.111287697
10
10.770875389
20
5.111682112
10
10.578520610
20
5.112076528
10
10.386160323
20
5.112470944
10
10.193794531
20
5.112865359
10
10.001423231
20
5.113259775
10
9.809046425
20
5.113654191
10
9.616664112
20
5.114048607
10
9.424276292
20
5.114443022
10
9.231882966
20
5.114837438
10
9.039484133
20
5.115231854
10
8.847079793
20
5.115626269
10
8.654669947
20
5.116020685
10
8.462254594
20
5.116415101
10
8.269833735
20
5.116809517
10
8.077407368
20
5.117203932
10
7.884975495
20
5.117598348
10
7.692538115
20
5.117992764
10
7.500095229
20
5.118387179
10
7.307646836
20
5.118781595
10
7.115192936
20
5.119176011
10
6.922733530
20
5.119570427
10
6.730268617
20
5.119964842
10
6.537798197
20
5.120359258
10
6.345322270
20
5.120753674
10
6.152840837
20
5.121148089
10
5.960353897
20
5.121542505
10
5.767861451
20
5.121936921
10
5.575363498
20
5.122331337
10
5.382860038
20
5.122725752
10
5.190351071
20
5.123120168
10
4.997836598
20
5.123514584
10
4.805316618
20
5.123908999
10
4.612791132
20
5.124303415
10
4.420260138
20
5.124697831
10
4.227723638
20
5.125092247
10
4.035181632
20
5.125486662
10
3.842634118
20
5.125881078
10
3.650081098
20
5.126275494
10
3.457522572
20
5.126669909
10
3.264958538
20
5.127064325
10
3.072388998
20
5.127458741
10
2.879813951
20
5.127853157
10
2.687233398
20
5.128247572
10
2.494647338
20
5.128641988
10
2.302055771
20
5.129036404
10
2.109458698
20
5.129430819
10
1.916856118
20
5.129825235
10
1.724248031
20
5.130219651
10
1.531634437
20
5.130614067
10
1.339015337
20
5.131008482
10
1.146390730
20
5.131402898
10
0.953760617
20
5.131797314
10
0.761124996
20
5.132191729
10
0.568483870
20
5.132586145
10
0.375837236
20
5.132980561
10
0.183185096
20
5.133374977
10
-0.009472551
20
5.133769392
10
-0.202135705
20
5.134163808
10
-0.394804365
20
5.134558224
10
-0.587478532
20
5.134952639
10
-0.780158206
20
5.135347055
10
-0.972843386
20
5.135741471
10
-1.165534073
20
5.136135887
10
-1.358230267
20
5.136530302
10
-1.550931967
20
5.136924718
10
-1.743639174
20
5.137319134
10
-1.936351888
20
5.137713549
10
-2.129070109
20
5.138107965
10
-2.321793836
20
5.138502381
10
-2.514523070
20
5.138896797
10
-2.707257810
20
5.139291212
10
-2.899998057
20
5.139685628
10
-3.092743811
20
5.140080044
10
-3.285495072
20
5.140474459
10
-3.478251839
20
5.140868875
10
-3.671014113
20
5.141263291
10
-3.863781893
20
5.141657707
10
-4.056555181
20
5.142052122
10
-4.249333975
20
5.142446538
10
-4.442118275
20
5.142840954
10
-4.634908082
20
5.143235369
10
-4.827703396
20
5.143629785
0
LWPOLYLINE
100
AcDbEntity
8
COPPER_L2_INNER1
100
AcDbPolyline
90
220
70
0
38
0.000000000
10
-4.827703396
20
5.143629785
10
-5.020504217
20
5.144024201
10
-5.213310544
20
5.144418617
10
-5.406122378
20
5.144813032
10
-5.598939719
20
5.145207448
10
-5.791762567
20
5.145601864
10
-5.984590921
20
5.145996279
10
-6.177424781
20
5.146390695
10
-6.370264149
20
5.146785111
10
-6.563109023
20
5.147179527
10
-6.755959404
20
5.147573942
10
-6.948815291
20
5.147968358
10
-7.141676685
20
5.148362774
10
-7.334543586
20
5.148757189
10
-7.527415994
20
5.149151605
10
-7.720293908
20
5.149546021
10
-7.913177329
20
5.149940437
10
-8.106066256
20
5.150334852
10
-8.298960691
20
5.150729268
10
-8.491860631
20
5.151123684
10
-8.684766079
20
5.151518099
10
-8.877677033
20
5.151912515
10
-9.070593494
20
5.152306931
10
-9.263515462
20
5.152701347
10
-9.456442936
20
5.153095762
10
-9.649375917
20
5.153490178
10
-9.842314405
20
5.153884594
10
-10.035258399
20
5.154279009
10
-10.228207900
20
5.154673425
10
-10.421162908
20
5.155067841
10
-10.614123423
20
5.155462257
10
-10.807089444
20
5.155856672
10
-11.000060971
20
5.156251088
10
-11.193038006
20
5.156645504
10
-11.386020547
20
5.157039919
10
-11.579008595
20
5.157434335
10
-11.772002149
20
5.157828751
10
-11.965001211
20
5.158223167
10
-12.158005778
20
5.158617582
10
-12.351015853
20
5.159011998
10
-12.544031434
20
5.159406414
10
-12.737052522
20
5.159800829
10
-12.930079117
20
5.160195245
10
-13.123111218
20
5.160589661
10
-13.316148826
20
5.160984077
10
-13.509191941
20
5.161378492
10
-13.702240562
20
5.161772908
10
-13.895294690
20
5.162167324
10
-14.088354325
20
5.162561739
10
-14.281419466
20
5.162956155
10
-14.474490114
20
5.163350571
10
-14.667566269
20
5.163744987
10
-14.860647930
20
5.164139402
10
-15.053735098
20
5.164533818
10
-15.246827773
20
5.164928234
10
-15.439925954
20
5.165322649
10
-15.633029642
20
5.165717065
10
-15.826138837
20
5.166111481
10
-16.019253539
20
5.166505897
10
-16.212373747
20
5.166900312
10
-16.405499462
20
5.167294728
10
-16.598630683
20
5.167689144
10
-16.791767412
20
5.168083560
10
-16.984909646
20
5.168477975
10
-17.178057388
20
5.168872391
10
-17.371210636
20
5.169266807
10
-17.564369391
20
5.169661222
10
-17.757533653
20
5.170055638
10
-17.950703421
20
5.170450054
10
-18.143878696
20
5.170844470
10
-18.337059478
20
5.171238885
10
-18.530245766
20
5.171633301
10
-18.723437561
20
5.172027717
10
-18.916634863
20
5.172422132
10
-19.109837671
20
5.172816548
10
-19.303045986
20
5.173210964
10
-19.496259808
20
5.173605380
10
-19.689479136
20
5.173999795
10
-19.882703972
20
5.174394211
10
-20.075934313
20
5.174788627
10
-20.269170162
20
5.175183042
10
-20.462411517
20
5.175577458
10
-20.655658379
20
5.175971874
10
-20.848910747
20
5.176366290
10
-21.042168623
20
5.176760705
10
-21.235432004
20
5.177155121
10
-21.428700893
20
5.177549537
10
-21.621975288
20
5.177943952
10
-21.815255190
20
5.178338368
10
-22.008540599
20
5.178732784
10
-22.201831514
20
5.179127200
10
-22.395127936
20
5.179521615
10
-22.588429865
20
5.179916031
10
-22.781737300
20
5.180310447
10
-22.975050242
20
5.180704862
10
-23.168368691
20
5.181099278
10
-23.361692646
20
5.181493694
10
-23.555022108
20
5.181888110
10
-23.748357077
20
5.182282525
10
-23.941697552
20
5.182676941
10
-24.135043534
20
5.183071357
10
-24.328395023
20
5.183465772
10
-24.521752019
20
5.183860188
10
-24.715114521
20
5.184254604
10
-24.908482530
20
5.184649020
10
-25.101856045
20
5.185043435
10
-25.295235067
20
5.185437851
10
-25.488619596
20
5.185832267
10
-25.682009632
20
5.186226682
10
-25.875405174
20
5.186621098
10
-26.068806223
20
5.187015514
10
-26.262212778
20
5.187409930
10
-26.455624841
20
5.187804345
10
-26.649042410
20
5.188198761
10
-26.842465485
20
5.188593177
10
-27.035894068
20
5.188987592
10
-27.229328157
20
5.189382008
10
-27.422767752
20
5.189776424
10
-27.616212855
20
5.190170840
10
-27.809663464
20
5.190565255
10
-28.003119579
20
5.190959671
10
-28.196581202
20
5.191354087
10
-28.390048331
20
5.191748502
10
-28.583520967
20
5.192142918
10
-28.776999109
20
5.192537334
10
-28.970482758
20
5.192931750
10
-29.163971914
20
5.193326165
10
-29.357466577
20
5.193720581
10
-29.550966746
20
5.194114997
10
-29.744472422
20
5.194509412
10
-29.937983604
20
5.194903828
10
-30.131500293
20
5.195298244
10
-30.325022489
20
5.195692660
10
-30.518550192
20
5.196087075
10
-30.712083401
20
5.196481491
10
-30.905622117
20
5.196875907
10
-31.099166340
20
5.197270322
10
-31.292716069
20
5.197664738
10
-31.486271305
20
5.198059154
10
-31.679832048
20
5.198453570
10
-31.873398297
20
5.198847985
10
-32.066970053
20
5.199242401
10
-32.260547316
20
5.199636817
10
-32.454130085
20
5.200031232
10
-32.647718361
20
5.200425648
10
-32.841312144
20
5.200820064
10
-33.034911433
20
5.201214480
10
-33.228516229
20
5.201608895
10
-33.422126532
20
5.202003311
10
-33.615742342
20
5.202397727
10
-33.809363658
20
5.202792142
10
-34.002990481
20
5.203186558
10
-34.196622810
20
5.203580974
10
-34.390260646
20
5.203975390
10
-34.583903989
20
5.204369805
10
-34.777552839
20
5.204764221
10
-34.971207195
20
5.205158637
10
-35.164867058
20
5.205553052
10
-35.358532428
20
5.205947468
10
-35.552203304
20
5.206341884
10
-35.745879687
20
5.206736300
10
-35.939561576
20
5.207130715
10
-36.133248973
20
5.207525131
10
-36.326941876
20
5.207919547
10
-36.520640285
20
5.208313962
10
-36.714344202
20
5.208708378
10
-36.908053625
20
5.209102794
10
-37.101732575
20
5.207153915
10
-37.294609275
20
5.190165832
10
-37.485230313
20
5.156366371
10
-37.672134933
20
5.106025336
10
-37.853892743
20
5.039538986
10
-38.029114613
20
4.957426761
10
-38.196463235
20
4.860327061
10
-38.354663247
20
4.748992132
10
-38.502510872
20
4.624282094
10
-38.638882975
20
4.487158163
10
-38.762745484
20
4.338675107
10
-38.873161106
20
4.179973026
10
-38.969296293
20
4.012268483
10
-39.050427389
20
3.836845090
10
-39.115945931
20
3.655043600
10
-39.165363060
20
3.468251592
10
-39.198313002
20
3.277892827
10
-39.214555616
20
3.085416352
10
-39.216596692
20
2.892243010
10
-39.216991108
20
2.699043000
10
-39.217385524
20
2.505837484
10
-39.217779940
20
2.312626460
10
-39.218174355
20
2.119409930
10
-39.218568771
20
1.926187894
10
-39.218963187
20
1.732960350
10
-39.219357602
20
1.539727300
10
-39.219752018
20
1.346488744
10
-39.220146434
20
1.153244680
10
-39.220540850
20
0.959995110
10
-39.220935265
20
0.766740034
10
-39.221329681
20
0.573479450
10
-39.221724097
20
0.380213360
10
-39.222118512
20
0.186941763
10
-39.222512928
20
-0.006335340
10
-39.222907344
20
-0.199617950
10
-39.223301760
20
-0.392906067
10
-39.223696175
20
-0.586199691
10
-39.224090591
20
-0.779498821
10
-39.224485007
20
-0.972803458
10
-39.224879422
20
-1.166113601
10
-39.225273838
20
-1.359429252
10
-39.225668254
20
-1.552750408
10
-39.226062670
20
-1.746077072
10
-39.226457085
20
-1.939409242
10
-39.226851501
20
-2.132746919
10
-39.227245917
20
-2.326090103
10
-39.227640332
20
-2.519438793
10
-39.228034748
20
-2.712792990
10
-39.228429164
20
-2.906152694
10
-39.226602191
20
-3.099484840
10
-39.210004887
20
-3.292046691
10
-39.176796563
20
-3.482419142
10
-39.127236962
20
-3.669173637
0
LWPOLYLINE
100
AcDbEntity
8
COPPER_L2_INNER1
100
AcDbPolyline
90
220
70
0
38
0.000000000
10
-39.127236962
20
-3.669173637
10
-39.061708240
20
-3.850910591
10
-38.980711865
20
-4.026269837
10
-38.884864621
20
-4.193940747
10
-38.774893775
20
-4.352671956
10
-38.651631413
20
-4.501280623
10
-38.516008015
20
-4.638661144
10
-38.369045308
20
-4.763793274
10
-38.211848456
20
-4.875749589
10
-38.045597646
20
-4.973702233
10
-37.871539138
20
-5.056928907
10
-37.690975839
20
-5.124818052
10
-37.505257489
20
-5.176873196
10
-37.315770510
20
-5.212716434
10
-37.123927623
20
-5.232091010
10
-36.931146400
20
-5.235923063
10
-36.738296110
20
-5.236317478
10
-36.545440313
20
-5.236711894
10
-36.352579009
20
-5.237106310
10
-36.159712198
20
-5.237500725
10
-35.966839881
20
-5.237895141
10
-35.773962057
20
-5.238289557
10
-35.581078726
20
-5.238683973
10
-35.388189889
20
-5.239078388
10
-35.195295545
20
-5.239472804
10
-35.002395694
20
-5.239867220
10
-34.809490337
20
-5.240261635
10
-34.616579473
20
-5.240656051
10
-34.423663102
20
-5.241050467
10
-34.230741225
20
-5.241444883
10
-34.037813841
20
-5.241839298
10
-33.844880950
20
-5.242233714
10
-33.651942553
20
-5.242628130
10
-33.458998648
20
-5.243022545
10
-33.266049238
20
-5.243416961
10
-33.073094320
20
-5.243811377
10
-32.880133896
20
-5.244205793
10
-32.687167965
20
-5.244600208
10
-32.494196528
20
-5.244994624
10
-32.301219583
20
-5.245389040
10
-32.108237133
20
-5.245783455
10
-31.915249175
20
-5.246177871
10
-31.722255711
20
-5.246572287
10
-31.529256740
20
-5.246966703
10
-31.336252262
20
-5.247361118
10
-31.143242278
20
-5.247755534
10
-30.950226787
20
-5.248149950
10
-30.757205789
20
-5.248544365
10
-30.564179285
20
-5.248938781
10
-30.371147274
20
-5.249333197
10
-30.178109756
20
-5.249727613
10
-29.985066732
20
-5.250122028
10
-29.792018201
20
-5.250516444
10
-29.598964163
20
-5.250910860
10
-29.405904619
20
-5.251305275
10
-29.212839567
20
-5.251699691
10
-29.019769010
20
-5.252094107
10
-28.826692945
20
-5.252488523
10
-28.633611374
20
-5.252882938
10
-28.440524296
20
-5.253277354
10
-28.247431712
20
-5.253671770
10
-28.054333620
20
-5.254066185
10
-27.861230023
20
-5.254460601
10
-27.668120918
20
-5.254855017
10
-27.475006307
20
-5.255249433
10
-27.281886189
20
-5.255643848
10
-27.088760564
20
-5.256038264
10
-26.895629433
20
-5.256432680
10
-26.702492795
20
-5.256827095
10
-26.509350650
20
-5.257221511
10
-26.316202999
20
-5.257615927
10
-26.123049841
20
-5.258010343
10
-25.929891176
20
-5.258404758
10
-25.736727005
20
-5.258799174
10
-25.543557327
20
-5.259193590
10
-25.350382142
20
-5.259588005
10
-25.157201451
20
-5.259982421
10
-24.964015253
20
-5.260376837
10
-24.770823548
20
-5.260771253
10
-24.577626336
20
-5.261165668
10
-24.384423618
20
-5.261560084
10
-24.191215393
20
-5.261954500
10
-23.998001662
20
-5.262348915
10
-23.804782424
20
-5.262743331
10
-23.611557679
20
-5.263137747
10
-23.418327427
20
-5.263532163
10
-23.225091669
20
-5.263926578
10
-23.031850404
20
-5.264320994
10
-22.838603633
20
-5.264715410
10
-22.645351354
20
-5.265109825
10
-22.452093569
20
-5.265504241
10
-22.258830278
20
-5.265898657
10
-22.065561480
20
-5.266293073
10
-21.872287175
20
-5.266687488
10
-21.679007363
20
-5.267081904
10
-21.485722044
20
-5.267476320
10
-21.292431219
20
-5.267870735
10
-21.099134888
20
-5.268265151
10
-20.905833049
20
-5.268659567
10
-20.712525704
20
-5.269053983
10
-20.519212853
20
-5.269448398
10
-20.325894494
20
-5.269842814
10
-20.132570629
20
-5.270237230
10
-19.939241257
20
-5.270631645
10
-19.745906379
20
-5.271026061
10
-19.552565993
20
-5.271420477
10
-19.359220102
20
-5.271814893
10
-19.165868703
20
-5.272209308
10
-18.972511798
20
-5.272603724
10
-18.779149386
20
-5.272998140
10
-18.585781467
20
-5.273392555
10
-18.392408042
20
-5.273786971
10
-18.199029110
20
-5.274181387
10
-18.005644672
20
-5.274575803
10
-17.812254726
20
-5.274970218
10
-17.618859274
20
-5.275364634
10
-17.425458316
20
-5.275759050
10
-17.232051850
20
-5.276153465
10
-17.038639878
20
-5.276547881
10
-16.845222400
20
-5.276942297
10
-16.651799414
20
-5.277336713
10
-16.458370922
20
-5.277731128
10
-16.264936923
20
-5.278125544
10
-16.071497418
20
-5.278519960
10
-15.878052406
20
-5.278914375
10
-15.684601887
20
-5.279308791
10
-15.491145862
20
-5.279703207
10
-15.297684329
20
-5.280097623
10
-15.104217291
20
-5.280492038
10
-14.910744745
20
-5.280886454
10
-14.717266693
20
-5.281280870
10
-14.523783134
20
-5.281675285
10
-14.330294068
20
-5.282069701
10
-14.136799496
20
-5.282464117
10
-13.943299417
20
-5.282858533
10
-13.749793832
20
-5.283252948
10
-13.556282739
20
-5.283647364
10
-13.362766140
20
-5.284041780
10
-13.169244035
20
-5.284436195
10
-12.975716422
20
-5.284830611
10
-12.782183303
20
-5.285225027
10
-12.588644678
20
-5.285619443
10
-12.395100545
20
-5.286013858
10
-12.201550906
20
-5.286408274
10
-12.007995761
20
-5.286802690
10
-11.814435108
20
-5.287197105
10
-11.620868949
20
-5.287591521
10
-11.427297283
20
-5.287985937
10
-11.233720111
20
-5.288380353
10
-11.040137432
20
-5.288774768
10
-10.846549246
20
-5.289169184
10
-10.652955553
20
-5.289563600
10
-10.459356354
20
-5.289958015
10
-10.265751648
20
-5.290352431
10
-10.072141436
20
-5.290746847
10
-9.878525717
20
-5.291141263
10
-9.684904491
20
-5.291535678
10
-9.491277758
20
-5.291930094
10
-9.297645519
20
-5.292324510
10
-9.104007773
20
-5.292718925
10
-8.910364520
20
-5.293113341
10
-8.716715761
20
-5.293507757
10
-8.523061495
20
-5.293902173
10
-8.329401722
20
-5.294296588
10
-8.135736443
20
-5.294691004
10
-7.942065657
20
-5.295085420
10
-7.748389364
20
-5.295479835
10
-7.554707565
20
-5.295874251
10
-7.361020259
20
-5.296268667
10
-7.167327446
20
-5.296663083
10
-6.973629126
20
-5.297057498
10
-6.779925300
20
-5.297451914
10
-6.586215968
20
-5.297846330
10
-6.392501128
20
-5.298240745
10
-6.198780782
20
-5.298635161
10
-6.005054929
20
-5.299029577
10
-5.811323570
20
-5.299423993
10
-5.617586703
20
-5.299818408
10
-5.423844330
20
-5.300212824
10
-5.230096451
20
-5.300607240
10
-5.036343065
20
-5.301001656
10
-4.842584172
20
-5.301396071
10
-4.648819772
20
-5.301790487
10
-4.455049866
20
-5.302184903
10
-4.261274453
20
-5.302579318
10
-4.067493533
20
-5.302973734
10
-3.873707107
20
-5.303368150
10
-3.679915174
20
-5.303762566
10
-3.486117734
20
-5.304156981
10
-3.292314788
20
-5.304551397
10
-3.098506335
20
-5.304945813
10
-2.904692375
20
-5.305340228
10
-2.710872908
20
-5.305734644
10
-2.517047935
20
-5.306129060
10
-2.323217455
20
-5.306523476
10
-2.129381469
20
-5.306917891
10
-1.935539976
20
-5.307312307
10
-1.741692976
20
-5.307706723
10
-1.547840469
20
-5.308101138
10
-1.353982456
20
-5.308495554
10
-1.160118936
20
-5.308889970
10
-0.966249910
20
-5.309284386
10
-0.772375377
20
-5.309678801
10
-0.578495337
20
-5.310073217
10
-0.384609790
20
-5.310467633
10
-0.190718737
20
-5.310862048
10
0.003177823
20
-5.311256464
10
0.197079890
20
-5.311650880
10
0.390987463
20
-5.312045296
10
0.584900543
20
-5.312439711
10
0.778819130
20
-5.312834127
10
0.972743223
20
-5.313228543
10
1.166672823
20
-5.313622958
10
1.360607930
20
-5.314017374
10
1.554548543
20
-5.314411790
10
1.748494664
20
-5.314806206
10
1.942446290
20
-5.315200621
10
2.136403424
20
-5.315595037
10
2.330366064
20
-5.315989453
10
2.524334211
20
-5.316383868
0
LWPOLYLINE
100
AcDbEntity
8
COPPER_L2_INNER1
100
AcDbPolyline
90
220
70
0
38
0.000000000
10
2.524334211
20
-5.316383868
10
2.718307864
20
-5.316778284
10
2.912287024
20
-5.317172700
10
3.106271691
20
-5.317567116
10
3.300261865
20
-5.317961531
10
3.494257545
20
-5.318355947
10
3.688258732
20
-5.318750363
10
3.882265426
20
-5.319144778
10
4.076277626
20
-5.319539194
10
4.270295333
20
-5.319933610
10
4.464318546
20
-5.320328026
10
4.658347267
20
-5.320722441
10
4.852381494
20
-5.321116857
10
5.046421227
20
-5.321511273
10
5.240466468
20
-5.321905688
10
5.434517215
20
-5.322300104
10
5.628573468
20
-5.322694520
10
5.822635229
20
-5.323088936
10
6.016702496
20
-5.323483351
10
6.210775270
20
-5.323877767
10
6.404853550
20
-5.324272183
10
6.598937337
20
-5.324666598
10
6.793026631
20
-5.325061014
10
6.987121432
20
-5.325455430
10
7.181221739
20
-5.325849846
10
7.375327553
20
-5.326244261
10
7.569438873
20
-5.326638677
10
7.763555700
20
-5.327033093
10
7.957678034
20
-5.327427508
10
8.151805875
20
-5.327821924
10
8.345939222
20
-5.328216340
10
8.540078076
20
-5.328610756
10
8.734222437
20
-5.329005171
10
8.928372304
20
-5.329399587
10
9.122527678
20
-5.329794003
10
9.316688559
20
-5.330188418
10
9.510854946
20
-5.330582834
10
9.705026840
20
-5.330977250
10
9.899204241
20
-5.331371666
10
10.093387148
20
-5.331766081
10
10.287575562
20
-5.332160497
10
10.481769483
20
-5.332554913
10
10.675968910
20
-5.332949328
10
10.870173844
20
-5.333343744
10
11.064384285
20
-5.333738160
10
11.258600233
20
-5.334132576
10
11.452821687
20
-5.334526991
10
11.647048648
20
-5.334921407
10
11.841281115
20
-5.335315823
10
12.035519089
20
-5.335710238
10
12.229762570
20
-5.336104654
10
12.424011558
20
-5.336499070
10
12.618266052
20
-5.336893486
10
12.812526053
20
-5.337287901
10
13.006791561
20
-5.337682317
10
13.201062575
20
-5.338076733
10
13.395339096
20
-5.338471148
10
13.589621123
20
-5.338865564
10
13.783908658
20
-5.339259980
10
13.978201699
20
-5.339654396
10
14.172500247
20
-5.340048811
10
14.366804301
20
-5.340443227
10
14.561113862
20
-5.340837643
10
14.755428930
20
-5.341232058
10
14.949749504
20
-5.341626474
10
15.144075585
20
-5.342020890
10
15.338407173
20
-5.342415306
10
15.532744267
20
-5.342809721
10
15.727086869
20
-5.343204137
10
15.921434976
20
-5.343598553
10
16.115788591
20
-5.343992968
10
16.310147712
20
-5.344387384
10
16.504512340
20
-5.344781800
10
16.698882474
20
-5.345176216
10
16.893258116
20
-5.345570631
10
17.087639264
20
-5.345965047
10
17.282025918
20
-5.346359463
10
17.476418079
20
-5.346753878
10
17.670815747
20
-5.347148294
10
17.865218922
20
-5.347542710
10
18.059627603
20
-5.347937126
10
18.254041791
20
-5.348331541
10
18.448461486
20
-5.348725957
10
18.642886687
20
-5.349120373
10
18.837317395
20
-5.349514788
10
19.031753610
20
-5.349909204
10
19.226195332
20
-5.350303620
10
19.420642560
20
-5.350698036
10
19.615095294
20
-5.351092451
10
19.809553536
20
-5.351486867
10
20.004017284
20
-5.351881283
10
20.198486539
20
-5.352275698
10
20.392961300
20
-5.352670114
10
20.587441568
20
-5.353064530
10
20.781927343
20
-5.353458946
10
20.976418625
20
-5.353853361
10
21.170915413
20
-5.354247777
10
21.365417708
20
-5.354642193
10
21.559925510
20
-5.355036608
10
21.754438818
20
-5.355431024
10
21.948957633
20
-5.355825440
10
22.143481954
20
-5.356219856
10
22.338011783
20
-5.356614271
10
22.532547118
20
-5.357008687
10
22.727087959
20
-5.357403103
10
22.921634308
20
-5.357797518
10
23.116186163
20
-5.358191934
10
23.310743524
20
-5.358586350
10
23.505306393
20
-5.358980766
10
23.699874768
20
-5.359375181
10
23.894448650
20
-5.359769597
10
24.089028038
20
-5.360164013
10
24.283612933
20
-5.360558428
10
24.478203335
20
-5.360952844
10
24.672799243
20
-5.361347260
10
24.867400659
20
-5.361741676
10
25.062007580
20
-5.362136091
10
25.256620009
20
-5.362530507
10
25.451237944
20
-5.362924923
10
25.645861386
20
-5.363319338
10
25.840490335
20
-5.363713754
10
26.035124790
20
-5.364108170
10
26.229764752
20
-5.364502586
10
26.424410220
20
-5.364897001
10
26.619061196
20
-5.365291417
10
26.813717678
20
-5.365685833
10
27.008379666
20
-5.366080248
10
27.203047162
20
-5.366474664
10
27.397720164
20
-5.366869080
10
27.592398672
20
-5.367263496
10
27.787082688
20
-5.367657911
10
27.981772210
20
-5.368052327
10
28.176467238
20
-5.368446743
10
28.371167774
20
-5.368841159
10
28.565873816
20
-5.369235574
10
28.760585365
20
-5.369629990
10
28.955302420
20
-5.370024406
10
29.150024982
20
-5.370418821
10
29.344753051
20
-5.370813237
10
29.539486627
20
-5.371207653
10
29.734225709
20
-5.371602069
10
29.928970298
20
-5.371996484
10
30.123720393
20
-5.372390900
10
30.318475995
20
-5.372785316
10
30.513237104
20
-5.373179731
10
30.708003720
20
-5.373574147
10
30.902775842
20
-5.373968563
10
31.097553471
20
-5.374362979
10
31.292336607
20
-5.374757394
10
31.487125249
20
-5.375151810
10
31.681919398
20
-5.375546226
10
31.876719054
20
-5.375940641
10
32.071524216
20
-5.376335057
10
32.266334885
20
-5.376729473
10
32.461151061
20
-5.377123889
10
32.655972743
20
-5.377518304
10
32.850799932
20
-5.377912720
10
33.045632628
20
-5.378307136
10
33.240470831
20
-5.378701551
10
33.435314540
20
-5.379095967
10
33.630163756
20
-5.379490383
10
33.825018478
20
-5.379884799
10
34.019878707
20
-5.380279214
10
34.214744443
20
-5.380673630
10
34.409615686
20
-5.381068046
10
34.604492435
20
-5.381462461
10
34.799374691
20
-5.381856877
10
34.994262453
20
-5.382251293
10
35.189155723
20
-5.382645709
10
35.384054499
20
-5.383040124
10
35.578958781
20
-5.383434540
10
35.773868570
20
-5.383828956
10
35.968783866
20
-5.384223371
10
36.163704669
20
-5.384617787
10
36.358630978
20
-5.385012203
10
36.553562794
20
-5.385406619
10
36.748500117
20
-5.385801034
10
36.943442947
20
-5.386195450
10
37.138313739
20
-5.382578539
10
37.332262674
20
-5.363746068
10
37.524003216
20
-5.329162440
10
37.712259765
20
-5.279067017
10
37.895781410
20
-5.213802116
10
38.073350211
20
-5.133810556
10
38.243789231
20
-5.039632525
10
38.405970289
20
-4.931901829
10
38.558821359
20
-4.811341506
10
38.701333588
20
-4.678758876
10
38.832567871
20
-4.535040036
10
38.951660954
20
-4.381143845
10
39.057831015
20
-4.218095442
10
39.150382698
20
-4.046979346
10
39.228711555
20
-3.868932173
10
39.292307886
20
-3.685135025
10
39.340759934
20
-3.496805612
10
39.373756435
20
-3.305190141
10
39.391088491
20
-3.111555041
10
39.394083764
20
-2.917162046
10
39.394478180
20
-2.722723123
10
39.394872596
20
-2.528278693
10
39.395267011
20
-2.333828757
10
39.395661427
20
-2.139373314
10
39.396055843
20
-1.944912364
10
39.396450259
20
-1.750445908
10
39.396844674
20
-1.555973945
10
39.397239090
20
-1.361496475
10
39.397633506
20
-1.167013499
10
39.398027921
20
-0.972525016
10
39.398422337
20
-0.778031026
10
39.398816753
20
-0.583531529
10
39.399211169
20
-0.389026526
10
39.399392924
20
-0.299391698
10
39.399501075
20
-0.291922347
10
39.399795167
20
-0.284458004
10
39.400275020
20
-0.277003298
10
39.400940335
20
-0.269562851
10
39.401790700
20
-0.262141275
10
39.402825587
20
-0.254743173
10
39.404044355
20
-0.247373132
10
39.405446249
20
-0.240035722
0
LWPOLYLINE
100
AcDbEntity
8
COPPER_L2_INNER1
100
AcDbPolyline
90
57
70
0
38
0.000000000
10
39.405446249
20
-0.240035722
10
39.407030399
20
-0.232735491
10
39.408795822
20
-0.225476966
10
39.410741425
20
-0.218264648
10
39.412866000
20
-0.211103008
10
39.415168231
20
-0.203996488
10
39.417646690
20
-0.196949492
10
39.420299841
20
-0.189966392
10
39.423126037
20
-0.183051515
10
39.426123528
20
-0.176209151
10
39.429290455
20
-0.169443541
10
39.432624853
20
-0.162758880
10
39.436124655
20
-0.156159313
10
39.439787692
20
-0.149648932
10
39.443611692
20
-0.143231773
10
39.447594285
20
-0.136911816
10
39.451733000
20
-0.130692979
10
39.456025272
20
-0.124579117
10
39.460468440
20
-0.118574022
10
39.465059748
20
-0.112681417
10
39.469796349
20
-0.106904956
10
39.474675308
20
-0.101248220
10
39.479693598
20
-0.095714716
10
39.484848109
20
-0.090307876
10
39.490135644
20
-0.085031051
10
39.495552925
20
-0.079887515
10
39.501096593
20
-0.074880455
10
39.506763211
20
-0.070012976
10
39.512549264
20
-0.065288097
10
39.518451167
20
-0.060708747
10
39.524465259
20
-0.056277765
10
39.530587811
20
-0.051997899
10
39.536815028
20
-0.047871802
10
39.543143048
20
-0.043902033
10
39.549567947
20
-0.040091052
10
39.556085742
20
-0.036441224
10
39.562692392
20
-0.032954811
10
39.569383800
20
-0.029633974
10
39.576155818
20
-0.026480773
10
39.583004247
20
-0.023497162
10
39.589924839
20
-0.020684993
10
39.596913305
20
-0.018046007
10
39.603965312
20
-0.015581842
10
39.611076486
20
-0.013294026
10
39.618242419
20
-0.011183976
10
39.625458667
20
-0.009253002
10
39.632720757
20
-0.007502300
10
39.640024185
20
-0.005932957
10
39.647364423
20
-0.004545944
10
39.654736920
20
-0.003342122
10
39.662137105
20
-0.002322238
10
39.669560390
20
-0.001486924
10
39.677002171
20
-0.000836697
10
39.684457835
20
-0.000371961
10
39.691922759
20
-0.000093005
10
39.699392314
20
0.000000000
10
40.400000000
20
0.000000000
0
ENDSEC
0
EOF
