0
SECTION
2
HEADER
9
$ACADVER
1
AC1015
9
$INSUNITS
70
4
0
ENDSEC
0
SECTION
2
TABLES
0
TABLE
2
LAYER
70
1
0
LAYER
2
COPPER_L4_BOTTOM
70
0
62
7
6
CONTINUOUS
0
ENDTAB
0
ENDSEC
0
SECTION
2
ENTITIES
0
LWPOLYLINE
100
AcDbEntity
8
COPPER_L4_BOTTOM
100
AcDbPolyline
90
220
70
0
38
0.000000000
10
-36.295036545
20
1.139740982
10
-36.597258087
20
1.139067947
10
-36.609687715
20
1.138885736
10
-36.622108972
20
1.138394582
10
-36.634514180
20
1.137594786
10
-36.646895672
20
1.136486844
10
-36.659245793
20
1.135071441
10
-36.671556910
20
1.133349450
10
-36.683821414
20
1.131321938
10
-36.696031723
20
1.128990157
10
-36.708180291
20
1.126355547
10
-36.720259607
20
1.123419739
10
-36.732262206
20
1.120184546
10
-36.744180669
20
1.116651969
10
-36.756007628
20
1.112824190
10
-36.767735774
20
1.108703575
10
-36.779357856
20
1.104292673
10
-36.790866691
20
1.099594208
10
-36.802255166
20
1.094611086
10
-36.813516240
20
1.089346387
10
-36.824642954
20
1.083803364
10
-36.835628429
20
1.077985444
10
-36.846465876
20
1.071896224
10
-36.857148595
20
1.065539466
10
-36.867669984
20
1.058919100
10
-36.878023538
20
1.052039219
10
-36.888202859
20
1.044904074
10
-36.898201654
20
1.037518077
10
-36.908013743
20
1.029885792
10
-36.917633061
20
1.022011938
10
-36.927053661
20
1.013901380
10
-36.936269722
20
1.005559133
10
-36.945275546
20
0.996990353
10
-36.954065567
20
0.988200337
10
-36.962634351
20
0.979194517
10
-36.970976603
20
0.969978460
10
-36.979087165
20
0.960557863
10
-36.986961024
20
0.950938549
10
-36.994593313
20
0.941126464
10
-37.001979316
20
0.931127673
10
-37.009114465
20
0.920948355
10
-37.015994351
20
0.910594804
10
-37.022614722
20
0.900073419
10
-37.028971485
20
0.889390703
10
-37.035060711
20
0.878553259
10
-37.040878636
20
0.867567787
10
-37.046421664
20
0.856441076
10
-37.051686369
20
0.845180004
10
-37.056669497
20
0.833791532
10
-37.061367967
20
0.822282699
10
-37.065778875
20
0.810660618
10
-37.069899495
20
0.798932475
10
-37.073727280
20
0.787105517
10
-37.077259863
20
0.775187056
10
-37.080495062
20
0.763184459
10
-37.083430876
20
0.751105144
10
-37.086065491
20
0.738956578
10
-37.088397279
20
0.726746269
10
-37.090424797
20
0.714481767
10
-37.092146793
20
0.702170650
10
-37.093562202
20
0.689820530
10
-37.094670150
20
0.677439039
10
-37.095469952
20
0.665033831
10
-37.095961113
20
0.652612575
10
-37.096143329
20
0.640182947
10
-37.096217808
20
0.606744733
10
-37.096612224
20
0.429659148
10
-37.097006639
20
0.252566551
10
-37.097401055
20
0.075466944
10
-37.097795471
20
-0.101639675
10
-37.098189886
20
-0.278753305
10
-37.098584302
20
-0.455873947
10
-37.098978718
20
-0.633001600
10
-37.099373134
20
-0.810136264
10
-37.099767549
20
-0.987277940
10
-37.100161965
20
-1.164426627
10
-37.100556381
20
-1.341582325
10
-37.100950797
20
-1.518745034
10
-37.101345212
20
-1.695914755
10
-37.101739628
20
-1.873091487
10
-37.102134044
20
-2.050275231
10
-37.102528459
20
-2.227465986
10
-37.096462086
20
-2.404389718
10
-37.055311006
20
-2.576274161
10
-36.977572994
20
-2.734885645
10
-36.867045263
20
-2.872524563
10
-36.729121279
20
-2.982510292
10
-36.570528745
20
-3.059506568
10
-36.399002555
20
-3.099781559
10
-36.222760199
20
-3.105683785
10
-36.046295174
20
-3.106078201
10
-35.869823138
20
-3.106472617
10
-35.693344090
20
-3.106867032
10
-35.516858030
20
-3.107261448
10
-35.340364960
20
-3.107655864
10
-35.163864878
20
-3.108050279
10
-34.987357784
20
-3.108444695
10
-34.810843680
20
-3.108839111
10
-34.634322564
20
-3.109233527
10
-34.457794437
20
-3.109627942
10
-34.281259298
20
-3.110022358
10
-34.104717148
20
-3.110416774
10
-33.928167987
20
-3.110811189
10
-33.751611814
20
-3.111205605
10
-33.575048631
20
-3.111600021
10
-33.398478435
20
-3.111994437
10
-33.221901229
20
-3.112388852
10
-33.045317011
20
-3.112783268
10
-32.868725782
20
-3.113177684
10
-32.692127541
20
-3.113572099
10
-32.515522290
20
-3.113966515
10
-32.338910026
20
-3.114360931
10
-32.162290752
20
-3.114755347
10
-31.985664466
20
-3.115149762
10
-31.809031169
20
-3.115544178
10
-31.632390861
20
-3.115938594
10
-31.455743541
20
-3.116333009
10
-31.279089210
20
-3.116727425
10
-31.102427868
20
-3.117121841
10
-30.925759514
20
-3.117516257
10
-30.749084149
20
-3.117910672
10
-30.572401772
20
-3.118305088
10
-30.395712385
20
-3.118699504
10
-30.219015986
20
-3.119093919
10
-30.042312575
20
-3.119488335
10
-29.865602154
20
-3.119882751
10
-29.688884721
20
-3.120277167
10
-29.512160276
20
-3.120671582
10
-29.335428821
20
-3.121065998
10
-29.158690354
20
-3.121460414
10
-28.981944875
20
-3.121854829
10
-28.805192386
20
-3.122249245
10
-28.628432885
20
-3.122643661
10
-28.451666373
20
-3.123038077
10
-28.274892849
20
-3.123432492
10
-28.098112314
20
-3.123826908
10
-27.921324768
20
-3.124221324
10
-27.744530210
20
-3.124615739
10
-27.567728641
20
-3.125010155
10
-27.390920061
20
-3.125404571
10
-27.214104470
20
-3.125798987
10
-27.037281867
20
-3.126193402
10
-26.860452253
20
-3.126587818
10
-26.683615627
20
-3.126982234
10
-26.506771990
20
-3.127376649
10
-26.329921342
20
-3.127771065
10
-26.153063683
20
-3.128165481
10
-25.976199012
20
-3.128559897
10
-25.799327330
20
-3.128954312
10
-25.622448636
20
-3.129348728
10
-25.445562931
20
-3.129743144
10
-25.268670215
20
-3.130137559
10
-25.091770488
20
-3.130531975
10
-24.914863749
20
-3.130926391
10
-24.737949999
20
-3.131320807
10
-24.561029238
20
-3.131715222
10
-24.384101465
20
-3.132109638
10
-24.207166681
20
-3.132504054
10
-24.030224886
20
-3.132898469
10
-23.853276079
20
-3.133292885
10
-23.676320261
20
-3.133687301
10
-23.499357432
20
-3.134081717
10
-23.322387591
20
-3.134476132
10
-23.145410739
20
-3.134870548
10
-22.968426876
20
-3.135264964
10
-22.791436001
20
-3.135659379
10
-22.614438115
20
-3.136053795
10
-22.437433218
20
-3.136448211
10
-22.260421309
20
-3.136842627
10
-22.083402389
20
-3.137237042
10
-21.906376458
20
-3.137631458
10
-21.729343515
20
-3.138025874
10
-21.552303561
20
-3.138420289
10
-21.375256596
20
-3.138814705
10
-21.198202620
20
-3.139209121
10
-21.021141632
20
-3.139603537
10
-20.844073633
20
-3.139997952
10
-20.666998622
20
-3.140392368
10
-20.489916600
20
-3.140786784
10
-20.312827567
20
-3.141181199
10
-20.135731522
20
-3.141575615
10
-19.958628467
20
-3.141970031
10
-19.781518399
20
-3.142364447
10
-19.604401321
20
-3.142758862
10
-19.427277231
20
-3.143153278
10
-19.250146130
20
-3.143547694
10
-19.073008018
20
-3.143942109
10
-18.895862894
20
-3.144336525
10
-18.718710759
20
-3.144730941
10
-18.541551612
20
-3.145125357
10
-18.364385455
20
-3.145519772
10
-18.187212286
20
-3.145914188
10
-18.010032105
20
-3.146308604
10
-17.832844913
20
-3.146703019
10
-17.655650710
20
-3.147097435
10
-17.478449496
20
-3.147491851
10
-17.301241270
20
-3.147886267
10
-17.124026033
20
-3.148280682
10
-16.946803785
20
-3.148675098
10
-16.769574525
20
-3.149069514
10
-16.592338254
20
-3.149463929
10
-16.415094972
20
-3.149858345
10
-16.237844678
20
-3.150252761
10
-16.060587373
20
-3.150647177
10
-15.883323057
20
-3.151041592
10
-15.706051730
20
-3.151436008
10
-15.528773391
20
-3.151830424
10
-15.351488040
20
-3.152224839
10
-15.174195679
20
-3.152619255
10
-14.996896306
20
-3.153013671
10
-14.819589922
20
-3.153408087
10
-14.642276526
20
-3.153802502
10
-14.464956119
20
-3.154196918
10
-14.287628701
20
-3.154591334
10
-14.110294271
20
-3.154985749
10
-13.932952831
20
-3.155380165
10
-13.755604378
20
-3.155774581
10
-13.578248915
20
-3.156168997
10
-13.400886440
20
-3.156563412
10
-13.223516954
20
-3.156957828
0
LWPOLYLINE
100
AcDbEntity
8
COPPER_L4_BOTTOM
100
AcDbPolyline
90
220
70
0
38
0.000000000
10
-13.223516954
20
-3.156957828
10
-13.046140456
20
-3.157352244
10
-12.868756948
20
-3.157746659
10
-12.691366428
20
-3.158141075
10
-12.513968896
20
-3.158535491
10
-12.336564353
20
-3.158929907
10
-12.159152799
20
-3.159324322
10
-11.981734234
20
-3.159718738
10
-11.804308657
20
-3.160113154
10
-11.626876069
20
-3.160507569
10
-11.449436470
20
-3.160901985
10
-11.271989859
20
-3.161296401
10
-11.094536237
20
-3.161690817
10
-10.917075604
20
-3.162085232
10
-10.739607959
20
-3.162479648
10
-10.562133303
20
-3.162874064
10
-10.384651635
20
-3.163268479
10
-10.207162957
20
-3.163662895
10
-10.029667267
20
-3.164057311
10
-9.852164566
20
-3.164451727
10
-9.674654853
20
-3.164846142
10
-9.497138129
20
-3.165240558
10
-9.319614394
20
-3.165634974
10
-9.142083647
20
-3.166029389
10
-8.964545889
20
-3.166423805
10
-8.787001120
20
-3.166818221
10
-8.609449339
20
-3.167212637
10
-8.431890547
20
-3.167607052
10
-8.254324744
20
-3.168001468
10
-8.076751930
20
-3.168395884
10
-7.899172104
20
-3.168790300
10
-7.721585267
20
-3.169184715
10
-7.543991418
20
-3.169579131
10
-7.366390558
20
-3.169973547
10
-7.188782687
20
-3.170367962
10
-7.011167805
20
-3.170762378
10
-6.833545911
20
-3.171156794
10
-6.655917006
20
-3.171551210
10
-6.478281089
20
-3.171945625
10
-6.300638161
20
-3.172340041
10
-6.122988222
20
-3.172734457
10
-5.945331272
20
-3.173128872
10
-5.767667310
20
-3.173523288
10
-5.589996337
20
-3.173917704
10
-5.412318352
20
-3.174312120
10
-5.234633357
20
-3.174706535
10
-5.056941350
20
-3.175100951
10
-4.879242331
20
-3.175495367
10
-4.701536302
20
-3.175889782
10
-4.523823261
20
-3.176284198
10
-4.346103208
20
-3.176678614
10
-4.168376144
20
-3.177073030
10
-3.990642069
20
-3.177467445
10
-3.812900983
20
-3.177861861
10
-3.635152885
20
-3.178256277
10
-3.457397777
20
-3.178650692
10
-3.279635656
20
-3.179045108
10
-3.101866525
20
-3.179439524
10
-2.924090382
20
-3.179833940
10
-2.746307227
20
-3.180228355
10
-2.568517062
20
-3.180622771
10
-2.390719885
20
-3.181017187
10
-2.212915697
20
-3.181411602
10
-2.035104497
20
-3.181806018
10
-1.857286286
20
-3.182200434
10
-1.679461064
20
-3.182594850
10
-1.501628830
20
-3.182989265
10
-1.323789585
20
-3.183383681
10
-1.145943329
20
-3.183778097
10
-0.968090062
20
-3.184172512
10
-0.790229783
20
-3.184566928
10
-0.612362493
20
-3.184961344
10
-0.434488191
20
-3.185355760
10
-0.256606878
20
-3.185750175
10
-0.078718554
20
-3.186144591
10
0.099176781
20
-3.186539007
10
0.277079128
20
-3.186933422
10
0.454988486
20
-3.187327838
10
0.632904856
20
-3.187722254
10
0.810828236
20
-3.188116670
10
0.988758628
20
-3.188511085
10
1.166696032
20
-3.188905501
10
1.344640447
20
-3.189299917
10
1.522591873
20
-3.189694332
10
1.700550310
20
-3.190088748
10
1.878515759
20
-3.190483164
10
2.056488219
20
-3.190877580
10
2.234467690
20
-3.191271995
10
2.412454173
20
-3.191666411
10
2.590447667
20
-3.192060827
10
2.768448172
20
-3.192455242
10
2.946455689
20
-3.192849658
10
3.124470217
20
-3.193244074
10
3.302491756
20
-3.193638490
10
3.480520307
20
-3.194032905
10
3.658555869
20
-3.194427321
10
3.836598442
20
-3.194821737
10
4.014648026
20
-3.195216152
10
4.192704622
20
-3.195610568
10
4.370768230
20
-3.196004984
10
4.548838848
20
-3.196399400
10
4.726916478
20
-3.196793815
10
4.905001119
20
-3.197188231
10
5.083092772
20
-3.197582647
10
5.261191436
20
-3.197977062
10
5.439297111
20
-3.198371478
10
5.617409797
20
-3.198765894
10
5.795529495
20
-3.199160310
10
5.973656204
20
-3.199554725
10
6.151789925
20
-3.199949141
10
6.329930657
20
-3.200343557
10
6.508078400
20
-3.200737972
10
6.686233154
20
-3.201132388
10
6.864394920
20
-3.201526804
10
7.042563697
20
-3.201921220
10
7.220739486
20
-3.202315635
10
7.398922285
20
-3.202710051
10
7.577112096
20
-3.203104467
10
7.755308919
20
-3.203498882
10
7.933512753
20
-3.203893298
10
8.111723598
20
-3.204287714
10
8.289941454
20
-3.204682130
10
8.468166322
20
-3.205076545
10
8.646398201
20
-3.205470961
10
8.824637091
20
-3.205865377
10
9.002882993
20
-3.206259792
10
9.181135906
20
-3.206654208
10
9.359395830
20
-3.207048624
10
9.537662766
20
-3.207443040
10
9.715936713
20
-3.207837455
10
9.894217671
20
-3.208231871
10
10.072505641
20
-3.208626287
10
10.250800622
20
-3.209020702
10
10.429102614
20
-3.209415118
10
10.607411618
20
-3.209809534
10
10.785727632
20
-3.210203950
10
10.964050659
20
-3.210598365
10
11.142380696
20
-3.210992781
10
11.320717745
20
-3.211387197
10
11.499061805
20
-3.211781612
10
11.677412877
20
-3.212176028
10
11.855770960
20
-3.212570444
10
12.034136054
20
-3.212964860
10
12.212508159
20
-3.213359275
10
12.390887276
20
-3.213753691
10
12.569273404
20
-3.214148107
10
12.747666544
20
-3.214542522
10
12.926066695
20
-3.214936938
10
13.104473857
20
-3.215331354
10
13.282888030
20
-3.215725770
10
13.461309215
20
-3.216120185
10
13.639737411
20
-3.216514601
10
13.818172619
20
-3.216909017
10
13.996614837
20
-3.217303432
10
14.175064067
20
-3.217697848
10
14.353520309
20
-3.218092264
10
14.531983562
20
-3.218486680
10
14.710453826
20
-3.218881095
10
14.888931101
20
-3.219275511
10
15.067415388
20
-3.219669927
10
15.245906686
20
-3.220064342
10
15.424404995
20
-3.220458758
10
15.602910316
20
-3.220853174
10
15.781422648
20
-3.221247590
10
15.959941991
20
-3.221642005
10
16.138468346
20
-3.222036421
10
16.317001712
20
-3.222430837
10
16.495542089
20
-3.222825252
10
16.674089478
20
-3.223219668
10
16.852643878
20
-3.223614084
10
17.031205289
20
-3.224008500
10
17.209773711
20
-3.224402915
10
17.388349145
20
-3.224797331
10
17.566931591
20
-3.225191747
10
17.745521047
20
-3.225586162
10
17.924117515
20
-3.225980578
10
18.102720994
20
-3.226374994
10
18.281331485
20
-3.226769410
10
18.459948987
20
-3.227163825
10
18.638573500
20
-3.227558241
10
18.817205024
20
-3.227952657
10
18.995843560
20
-3.228347072
10
19.174489107
20
-3.228741488
10
19.353141666
20
-3.229135904
10
19.531801236
20
-3.229530320
10
19.710467817
20
-3.229924735
10
19.889141409
20
-3.230319151
10
20.067822013
20
-3.230713567
10
20.246509628
20
-3.231107982
10
20.425204255
20
-3.231502398
10
20.603905892
20
-3.231896814
10
20.782614541
20
-3.232291230
10
20.961330202
20
-3.232685645
10
21.140052873
20
-3.233080061
10
21.318782557
20
-3.233474477
10
21.497519251
20
-3.233868893
10
21.676262957
20
-3.234263308
10
21.855013674
20
-3.234657724
10
22.033771402
20
-3.235052140
10
22.212536142
20
-3.235446555
10
22.391307893
20
-3.235840971
10
22.570086655
20
-3.236235387
10
22.748872429
20
-3.236629803
10
22.927665214
20
-3.237024218
10
23.106465010
20
-3.237418634
10
23.285271817
20
-3.237813050
10
23.464085636
20
-3.238207465
10
23.642906467
20
-3.238601881
10
23.821734308
20
-3.238996297
10
24.000569161
20
-3.239390713
10
24.179411025
20
-3.239785128
10
24.358259901
20
-3.240179544
10
24.537115788
20
-3.240573960
10
24.715978686
20
-3.240968375
10
24.894848596
20
-3.241362791
10
25.073725516
20
-3.241757207
10
25.252609449
20
-3.242151623
10
25.431500392
20
-3.242546038
10
25.610398347
20
-3.242940454
10
25.789303313
20
-3.243334870
0
LWPOLYLINE
100
AcDbEntity
8
COPPER_L4_BOTTOM
100
AcDbPolyline
90
220
70
0
38
0.000000000
10
25.789303313
20
-3.243334870
10
25.968215291
20
-3.243729285
10
26.147134279
20
-3.244123701
10
26.326060279
20
-3.244518117
10
26.504993291
20
-3.244912533
10
26.683933314
20
-3.245306948
10
26.862880348
20
-3.245701364
10
27.041834393
20
-3.246095780
10
27.220795450
20
-3.246490195
10
27.399763518
20
-3.246884611
10
27.578738597
20
-3.247279027
10
27.757720688
20
-3.247673443
10
27.936709790
20
-3.248067858
10
28.115705904
20
-3.248462274
10
28.294709028
20
-3.248856690
10
28.473719164
20
-3.249251105
10
28.652736312
20
-3.249645521
10
28.831760470
20
-3.250039937
10
29.010791640
20
-3.250434353
10
29.189829822
20
-3.250828768
10
29.368875014
20
-3.251223184
10
29.547927218
20
-3.251617600
10
29.726986434
20
-3.252012015
10
29.906052660
20
-3.252406431
10
30.085125898
20
-3.252800847
10
30.264206147
20
-3.253195263
10
30.443293408
20
-3.253589678
10
30.622387680
20
-3.253984094
10
30.801488963
20
-3.254378510
10
30.980597258
20
-3.254772925
10
31.159712563
20
-3.255167341
10
31.338834881
20
-3.255561757
10
31.517964209
20
-3.255956173
10
31.697100549
20
-3.256350588
10
31.876243900
20
-3.256745004
10
32.055394263
20
-3.257139420
10
32.234551637
20
-3.257533835
10
32.413716022
20
-3.257928251
10
32.592887418
20
-3.258322667
10
32.772065826
20
-3.258717083
10
32.951251245
20
-3.259111498
10
33.130443676
20
-3.259505914
10
33.309643117
20
-3.259900330
10
33.488849570
20
-3.260294745
10
33.668063035
20
-3.260689161
10
33.847283511
20
-3.261083577
10
34.026510998
20
-3.261477993
10
34.205745496
20
-3.261872408
10
34.384987006
20
-3.262266824
10
34.564235527
20
-3.262661240
10
34.743491059
20
-3.263055655
10
34.922753603
20
-3.263450071
10
35.102023158
20
-3.263844487
10
35.281299724
20
-3.264238903
10
35.460583302
20
-3.264633318
10
35.639873891
20
-3.265027734
10
35.819171491
20
-3.265422150
10
35.998476103
20
-3.265816565
10
36.177787726
20
-3.266210981
10
36.357106360
20
-3.266605397
10
36.536344872
20
-3.263988685
10
36.711793888
20
-3.229147998
10
36.875072633
20
-3.156352187
10
37.018063473
20
-3.049243754
10
37.133658182
20
-2.913175781
10
37.216112461
20
-2.754945612
10
37.261332603
20
-2.582456475
10
37.269760723
20
-2.404250665
10
37.270155138
20
-2.225657760
10
37.270549554
20
-2.047057844
10
37.270943970
20
-1.868450916
10
37.271338385
20
-1.689836978
10
37.271732801
20
-1.511216027
10
37.272127217
20
-1.332588066
10
37.272521633
20
-1.153953093
10
37.272916048
20
-0.975311109
10
37.273310464
20
-0.796662114
10
37.273704880
20
-0.618006107
10
37.274099295
20
-0.439343089
10
37.274493711
20
-0.260673060
10
37.274888127
20
-0.081996019
10
37.275282543
20
0.096688033
10
37.275676958
20
0.275379096
10
37.276071374
20
0.454077171
10
37.276465790
20
0.632782257
10
37.276860205
20
0.811494354
10
37.277254621
20
0.990213463
10
37.277649037
20
1.168939582
10
37.278043453
20
1.347672714
10
37.278437868
20
1.526412856
10
37.278832284
20
1.705160010
10
37.279226700
20
1.883914175
10
37.279621115
20
2.062675352
10
37.280015531
20
2.241443540
10
37.280409947
20
2.420218739
10
37.272088714
20
2.598571404
10
37.226846594
20
2.771042417
10
37.144675783
20
2.929166072
10
37.029661182
20
3.065128809
10
36.887515282
20
3.172213196
10
36.725295633
20
3.245130979
10
36.551055592
20
3.280285443
10
36.373094866
20
3.283565273
10
36.195045397
20
3.283959688
10
36.016988916
20
3.284354104
10
35.838925423
20
3.284748520
10
35.660854920
20
3.285142935
10
35.482777405
20
3.285537351
10
35.304692878
20
3.285931767
10
35.126601341
20
3.286326183
10
34.948502792
20
3.286720598
10
34.770397231
20
3.287115014
10
34.592284660
20
3.287509430
10
34.414165077
20
3.287903845
10
34.236038483
20
3.288298261
10
34.057904877
20
3.288692677
10
33.879764260
20
3.289087093
10
33.701616632
20
3.289481508
10
33.523461992
20
3.289875924
10
33.345300342
20
3.290270340
10
33.167131679
20
3.290664755
10
32.988956006
20
3.291059171
10
32.810773321
20
3.291453587
10
32.632583625
20
3.291848003
10
32.454386917
20
3.292242418
10
32.276183198
20
3.292636834
10
32.097972468
20
3.293031250
10
31.919754727
20
3.293425665
10
31.741529974
20
3.293820081
10
31.563298210
20
3.294214497
10
31.385059434
20
3.294608913
10
31.206813648
20
3.295003328
10
31.028560850
20
3.295397744
10
30.850301040
20
3.295792160
10
30.672034219
20
3.296186575
10
30.493760387
20
3.296580991
10
30.315479544
20
3.296975407
10
30.137191689
20
3.297369823
10
29.958896823
20
3.297764238
10
29.780594946
20
3.298158654
10
29.602286057
20
3.298553070
10
29.423970157
20
3.298947485
10
29.245647246
20
3.299341901
10
29.067317323
20
3.299736317
10
28.888980389
20
3.300130733
10
28.710636444
20
3.300525148
10
28.532285487
20
3.300919564
10
28.353927519
20
3.301313980
10
28.175562540
20
3.301708396
10
27.997190549
20
3.302102811
10
27.818811548
20
3.302497227
10
27.640425534
20
3.302891643
10
27.462032510
20
3.303286058
10
27.283632474
20
3.303680474
10
27.105225427
20
3.304074890
10
26.926811368
20
3.304469306
10
26.748390298
20
3.304863721
10
26.569962217
20
3.305258137
10
26.391527124
20
3.305652553
10
26.213085021
20
3.306046968
10
26.034635905
20
3.306441384
10
25.856179779
20
3.306835800
10
25.677716641
20
3.307230216
10
25.499246492
20
3.307624631
10
25.320769331
20
3.308019047
10
25.142285160
20
3.308413463
10
24.963793977
20
3.308807878
10
24.785295782
20
3.309202294
10
24.606790576
20
3.309596710
10
24.428278359
20
3.309991126
10
24.249759131
20
3.310385541
10
24.071232891
20
3.310779957
10
23.892699640
20
3.311174373
10
23.714159378
20
3.311568788
10
23.535612104
20
3.311963204
10
23.357057819
20
3.312357620
10
23.178496523
20
3.312752036
10
22.999928215
20
3.313146451
10
22.821352896
20
3.313540867
10
22.642770566
20
3.313935283
10
22.464181224
20
3.314329698
10
22.285584871
20
3.314724114
10
22.106981507
20
3.315118530
10
21.928371131
20
3.315512946
10
21.749753744
20
3.315907361
10
21.571129346
20
3.316301777
10
21.392497936
20
3.316696193
10
21.213859515
20
3.317090608
10
21.035214083
20
3.317485024
10
20.856561639
20
3.317879440
10
20.677902185
20
3.318273856
10
20.499235718
20
3.318668271
10
20.320562241
20
3.319062687
10
20.141881752
20
3.319457103
10
19.963194252
20
3.319851518
10
19.784499740
20
3.320245934
10
19.605798217
20
3.320640350
10
19.427089683
20
3.321034766
10
19.248374138
20
3.321429181
10
19.069651581
20
3.321823597
10
18.890922013
20
3.322218013
10
18.712185433
20
3.322612428
10
18.533441842
20
3.323006844
10
18.354691240
20
3.323401260
10
18.175933627
20
3.323795676
10
17.997169002
20
3.324190091
10
17.818397366
20
3.324584507
10
17.639618719
20
3.324978923
10
17.460833060
20
3.325373338
10
17.282040390
20
3.325767754
10
17.103240709
20
3.326162170
10
16.924434016
20
3.326556586
10
16.745620312
20
3.326951001
10
16.566799596
20
3.327345417
10
16.387971870
20
3.327739833
10
16.209137132
20
3.328134248
10
16.030295382
20
3.328528664
10
15.851446622
20
3.328923080
10
15.672590850
20
3.329317496
10
15.493728066
20
3.329711911
0
LWPOLYLINE
100
AcDbEntity
8
COPPER_L4_BOTTOM
100
AcDbPolyline
90
220
70
0
38
0.000000000
10
15.493728066
20
3.329711911
10
15.314858272
20
3.330106327
10
15.135981466
20
3.330500743
10
14.957097649
20
3.330895158
10
14.778206820
20
3.331289574
10
14.599308980
20
3.331683990
10
14.420404129
20
3.332078406
10
14.241492266
20
3.332472821
10
14.062573392
20
3.332867237
10
13.883647507
20
3.333261653
10
13.704714611
20
3.333656068
10
13.525774703
20
3.334050484
10
13.346827784
20
3.334444900
10
13.167873853
20
3.334839316
10
12.988912911
20
3.335233731
10
12.809944958
20
3.335628147
10
12.630969994
20
3.336022563
10
12.451988018
20
3.336416978
10
12.272999031
20
3.336811394
10
12.094003032
20
3.337205810
10
11.915000022
20
3.337600226
10
11.735990001
20
3.337994641
10
11.556972969
20
3.338389057
10
11.377948925
20
3.338783473
10
11.198917870
20
3.339177888
10
11.019879804
20
3.339572304
10
10.840834726
20
3.339966720
10
10.661782637
20
3.340361136
10
10.482723536
20
3.340755551
10
10.303657425
20
3.341149967
10
10.124584302
20
3.341544383
10
9.945504167
20
3.341938798
10
9.766417022
20
3.342333214
10
9.587322865
20
3.342727630
10
9.408221696
20
3.343122046
10
9.229113517
20
3.343516461
10
9.049998326
20
3.343910877
10
8.870876123
20
3.344305293
10
8.691746910
20
3.344699708
10
8.512610685
20
3.345094124
10
8.333467449
20
3.345488540
10
8.154317201
20
3.345882956
10
7.975159942
20
3.346277371
10
7.795995672
20
3.346671787
10
7.616824390
20
3.347066203
10
7.437646097
20
3.347460618
10
7.258460793
20
3.347855034
10
7.079268478
20
3.348249450
10
6.900069151
20
3.348643866
10
6.720862813
20
3.349038281
10
6.541649463
20
3.349432697
10
6.362429102
20
3.349827113
10
6.183201730
20
3.350221528
10
6.003967347
20
3.350615944
10
5.824725952
20
3.351010360
10
5.645477546
20
3.351404776
10
5.466222128
20
3.351799191
10
5.286959699
20
3.352193607
10
5.107690259
20
3.352588023
10
4.928413808
20
3.352982438
10
4.749130345
20
3.353376854
10
4.569839871
20
3.353771270
10
4.390542386
20
3.354165686
10
4.211237889
20
3.354560101
10
4.031926381
20
3.354954517
10
3.852607862
20
3.355348933
10
3.673282331
20
3.355743348
10
3.493949789
20
3.356137764
10
3.314610235
20
3.356532180
10
3.135263671
20
3.356926596
10
2.955910095
20
3.357321011
10
2.776549507
20
3.357715427
10
2.597181909
20
3.358109843
10
2.417807299
20
3.358504258
10
2.238425678
20
3.358898674
10
2.059037045
20
3.359293090
10
1.879641401
20
3.359687506
10
1.700238746
20
3.360081921
10
1.520829079
20
3.360476337
10
1.341412401
20
3.360870753
10
1.161988712
20
3.361265168
10
0.982558011
20
3.361659584
10
0.803120300
20
3.362054000
10
0.623675576
20
3.362448416
10
0.444223842
20
3.362842831
10
0.264765096
20
3.363237247
10
0.085299339
20
3.363631663
10
-0.094173430
20
3.364026078
10
-0.273653210
20
3.364420494
10
-0.453140001
20
3.364814910
10
-0.632633803
20
3.365209326
10
-0.812134617
20
3.365603741
10
-0.991642442
20
3.365998157
10
-1.171157279
20
3.366392573
10
-1.350679126
20
3.366786988
10
-1.530207985
20
3.367181404
10
-1.709743856
20
3.367575820
10
-1.889286738
20
3.367970236
10
-2.068836631
20
3.368364651
10
-2.248393535
20
3.368759067
10
-2.427957451
20
3.369153483
10
-2.607528378
20
3.369547899
10
-2.787106316
20
3.369942314
10
-2.966691266
20
3.370336730
10
-3.146283227
20
3.370731146
10
-3.325882199
20
3.371125561
10
-3.505488183
20
3.371519977
10
-3.685101178
20
3.371914393
10
-3.864721184
20
3.372308809
10
-4.044348202
20
3.372703224
10
-4.223982231
20
3.373097640
10
-4.403623271
20
3.373492056
10
-4.583271323
20
3.373886471
10
-4.762926386
20
3.374280887
10
-4.942588460
20
3.374675303
10
-5.122257546
20
3.375069719
10
-5.301933643
20
3.375464134
10
-5.481616751
20
3.375858550
10
-5.661306870
20
3.376252966
10
-5.841004001
20
3.376647381
10
-6.020708143
20
3.377041797
10
-6.200419297
20
3.377436213
10
-6.380137462
20
3.377830629
10
-6.559862638
20
3.378225044
10
-6.739594825
20
3.378619460
10
-6.919334024
20
3.379013876
10
-7.099080234
20
3.379408291
10
-7.278833456
20
3.379802707
10
-7.458593689
20
3.380197123
10
-7.638360933
20
3.380591539
10
-7.818135188
20
3.380985954
10
-7.997916455
20
3.381380370
10
-8.177704733
20
3.381774786
10
-8.357500023
20
3.382169201
10
-8.537302323
20
3.382563617
10
-8.717111635
20
3.382958033
10
-8.896927959
20
3.383352449
10
-9.076751294
20
3.383746864
10
-9.256581640
20
3.384141280
10
-9.436418997
20
3.384535696
10
-9.616263366
20
3.384930111
10
-9.796114746
20
3.385324527
10
-9.975973137
20
3.385718943
10
-10.155838540
20
3.386113359
10
-10.335710954
20
3.386507774
10
-10.515590379
20
3.386902190
10
-10.695476816
20
3.387296606
10
-10.875370264
20
3.387691021
10
-11.055270723
20
3.388085437
10
-11.235178193
20
3.388479853
10
-11.415092675
20
3.388874269
10
-11.595014169
20
3.389268684
10
-11.774942673
20
3.389663100
10
-11.954878189
20
3.390057516
10
-12.134820716
20
3.390451931
10
-12.314770255
20
3.390846347
10
-12.494726805
20
3.391240763
10
-12.674690366
20
3.391635179
10
-12.854660939
20
3.392029594
10
-13.034638522
20
3.392424010
10
-13.214623118
20
3.392818426
10
-13.394614724
20
3.393212841
10
-13.574613342
20
3.393607257
10
-13.754618971
20
3.394001673
10
-13.934631611
20
3.394396089
10
-14.114651263
20
3.394790504
10
-14.294677926
20
3.395184920
10
-14.474711601
20
3.395579336
10
-14.654752287
20
3.395973751
10
-14.834799984
20
3.396368167
10
-15.014854692
20
3.396762583
10
-15.194916412
20
3.397156999
10
-15.374985143
20
3.397551414
10
-15.555060885
20
3.397945830
10
-15.735143639
20
3.398340246
10
-15.915233404
20
3.398734661
10
-16.095330180
20
3.399129077
10
-16.275433968
20
3.399523493
10
-16.455544767
20
3.399917909
10
-16.635662578
20
3.400312324
10
-16.815787399
20
3.400706740
10
-16.995919232
20
3.401101156
10
-17.176058076
20
3.401495571
10
-17.356203932
20
3.401889987
10
-17.536356799
20
3.402284403
10
-17.716516677
20
3.402678819
10
-17.896683567
20
3.403073234
10
-18.076857468
20
3.403467650
10
-18.257038380
20
3.403862066
10
-18.437226304
20
3.404256481
10
-18.617421239
20
3.404650897
10
-18.797623185
20
3.405045313
10
-18.977832142
20
3.405439729
10
-19.158048111
20
3.405834144
10
-19.338271091
20
3.406228560
10
-19.518501083
20
3.406622976
10
-19.698738086
20
3.407017391
10
-19.878982100
20
3.407411807
10
-20.059233126
20
3.407806223
10
-20.239491162
20
3.408200639
10
-20.419756210
20
3.408595054
10
-20.600028270
20
3.408989470
10
-20.780307341
20
3.409383886
10
-20.960593423
20
3.409778301
10
-21.140886516
20
3.410172717
10
-21.321186621
20
3.410567133
10
-21.501493737
20
3.410961549
10
-21.681807865
20
3.411355964
10
-21.862129003
20
3.411750380
10
-22.042457153
20
3.412144796
10
-22.222792315
20
3.412539211
10
-22.403134487
20
3.412933627
10
-22.583483672
20
3.413328043
10
-22.763839867
20
3.413722459
10
-22.944203074
20
3.414116874
10
-23.124573292
20
3.414511290
10
-23.304950521
20
3.414905706
10
-23.485334762
20
3.415300121
10
-23.665726014
20
3.415694537
10
-23.846124277
20
3.416088953
0
LWPOLYLINE
100
AcDbEntity
8
COPPER_L4_BOTTOM
100
AcDbPolyline
90
220
70
0
38
0.000000000
10
-23.846124277
20
3.416088953
10
-24.026529551
20
3.416483369
10
-24.206941837
20
3.416877784
10
-24.387361135
20
3.417272200
10
-24.567787443
20
3.417666616
10
-24.748220763
20
3.418061031
10
-24.928661094
20
3.418455447
10
-25.109108437
20
3.418849863
10
-25.289562791
20
3.419244279
10
-25.470024156
20
3.419638694
10
-25.650492533
20
3.420033110
10
-25.830967921
20
3.420427526
10
-26.011450320
20
3.420821941
10
-26.191939730
20
3.421216357
10
-26.372436152
20
3.421610773
10
-26.552939585
20
3.422005189
10
-26.733450030
20
3.422399604
10
-26.913967486
20
3.422794020
10
-27.094491953
20
3.423188436
10
-27.275023431
20
3.423582851
10
-27.455561921
20
3.423977267
10
-27.636107422
20
3.424371683
10
-27.816659935
20
3.424766099
10
-27.997219458
20
3.425160514
10
-28.177785993
20
3.425554930
10
-28.358359540
20
3.425949346
10
-28.538940098
20
3.426343761
10
-28.719527667
20
3.426738177
10
-28.900122247
20
3.427132593
10
-29.080723839
20
3.427527009
10
-29.261332442
20
3.427921424
10
-29.441948056
20
3.428315840
10
-29.622570682
20
3.428710256
10
-29.803200319
20
3.429104671
10
-29.983836967
20
3.429499087
10
-30.164480627
20
3.429893503
10
-30.345131298
20
3.430287919
10
-30.525788980
20
3.430682334
10
-30.706453674
20
3.431076750
10
-30.887125379
20
3.431471166
10
-31.067804095
20
3.431865581
10
-31.248489823
20
3.432259997
10
-31.429182561
20
3.432654413
10
-31.609882312
20
3.433048829
10
-31.790589073
20
3.433443244
10
-31.971302846
20
3.433837660
10
-32.152023630
20
3.434232076
10
-32.332751426
20
3.434626492
10
-32.513486233
20
3.435020907
10
-32.694228051
20
3.435415323
10
-32.874976881
20
3.435809739
10
-33.055732721
20
3.436204154
10
-33.236495574
20
3.436598570
10
-33.417265437
20
3.436992986
10
-33.598042312
20
3.437387402
10
-33.778826198
20
3.437781817
10
-33.959617095
20
3.438176233
10
-34.140415004
20
3.438570649
10
-34.321219924
20
3.438965064
10
-34.502031856
20
3.439359480
10
-34.682850799
20
3.439753896
10
-34.863676753
20
3.440148312
10
-35.044509718
20
3.440542727
10
-35.225349695
20
3.440937143
10
-35.406196683
20
3.441331559
10
-35.587050682
20
3.441725974
10
-35.767911693
20
3.442120390
10
-35.948779715
20
3.442514806
10
-36.129654748
20
3.442909222
10
-36.310536793
20
3.443303637
10
-36.491425849
20
3.443698053
10
-36.672316058
20
3.443594457
10
-36.850864541
20
3.417408784
10
-37.018956721
20
3.352035865
10
-37.168088653
20
3.250805758
10
-37.290716162
20
3.118867361
10
-37.380637673
20
2.962927802
10
-37.433309085
20
2.790912710
10
-37.446853379
20
2.611553114
10
-37.447247794
20
2.431389788
10
-37.447642210
20
2.251219450
10
-37.448036626
20
2.071042101
10
-37.448431042
20
1.890857740
10
-37.448825457
20
1.710666368
10
-37.449219873
20
1.530467985
10
-37.449614289
20
1.350262591
10
-37.450008704
20
1.170050185
10
-37.450403120
20
0.989830768
10
-37.450797536
20
0.809604340
10
-37.451191952
20
0.629370900
10
-37.451586367
20
0.449130449
10
-37.451980783
20
0.268882986
10
-37.452375199
20
0.088628513
10
-37.452769614
20
-0.091632972
10
-37.453164030
20
-0.271901469
10
-37.453558446
20
-0.452176976
10
-37.453952862
20
-0.632459495
10
-37.454347277
20
-0.812749026
10
-37.454741693
20
-0.993045567
10
-37.455136109
20
-1.173349120
10
-37.455530524
20
-1.353659685
10
-37.455924940
20
-1.533977260
10
-37.456319356
20
-1.714301847
10
-37.456713772
20
-1.894633445
10
-37.457108187
20
-2.074972055
10
-37.457502603
20
-2.255317676
10
-37.457897019
20
-2.435670308
10
-37.458291434
20
-2.616029952
10
-37.446862431
20
-2.795717514
10
-37.396825542
20
-2.968485999
10
-37.309602047
20
-3.125666068
10
-37.189604199
20
-3.259352810
10
-37.042897288
20
-3.362824111
10
-36.876894314
20
-3.430879861
10
-36.699982595
20
-3.460104555
10
-36.520371074
20
-3.461446760
10
-36.340737160
20
-3.461841176
10
-36.161096234
20
-3.462235592
10
-35.981448298
20
-3.462630007
10
-35.801793350
20
-3.463024423
10
-35.622131390
20
-3.463418839
10
-35.442462420
20
-3.463813254
10
-35.262786438
20
-3.464207670
10
-35.083103444
20
-3.464602086
10
-34.903413440
20
-3.464996502
10
-34.723716424
20
-3.465390917
10
-34.544012396
20
-3.465785333
10
-34.364301358
20
-3.466179749
10
-34.184583308
20
-3.466574164
10
-34.004858246
20
-3.466968580
10
-33.825126174
20
-3.467362996
10
-33.645387090
20
-3.467757412
10
-33.465640995
20
-3.468151827
10
-33.285887888
20
-3.468546243
10
-33.106127770
20
-3.468940659
10
-32.926360641
20
-3.469335074
10
-32.746586500
20
-3.469729490
10
-32.566805349
20
-3.470123906
10
-32.387017185
20
-3.470518322
10
-32.207222011
20
-3.470912737
10
-32.027419825
20
-3.471307153
10
-31.847610628
20
-3.471701569
10
-31.667794419
20
-3.472095984
10
-31.487971200
20
-3.472490400
10
-31.308140968
20
-3.472884816
10
-31.128303726
20
-3.473279232
10
-30.948459472
20
-3.473673647
10
-30.768608207
20
-3.474068063
10
-30.588749931
20
-3.474462479
10
-30.408884643
20
-3.474856894
10
-30.229012344
20
-3.475251310
10
-30.049133033
20
-3.475645726
10
-29.869246712
20
-3.476040142
10
-29.689353379
20
-3.476434557
10
-29.509453034
20
-3.476828973
10
-29.329545679
20
-3.477223389
10
-29.149631312
20
-3.477617804
10
-28.969709933
20
-3.478012220
10
-28.789781544
20
-3.478406636
10
-28.609846143
20
-3.478801052
10
-28.429903730
20
-3.479195467
10
-28.249954307
20
-3.479589883
10
-28.069997872
20
-3.479984299
10
-27.890034425
20
-3.480378714
10
-27.710063968
20
-3.480773130
10
-27.530086499
20
-3.481167546
10
-27.350102019
20
-3.481561962
10
-27.170110527
20
-3.481956377
10
-26.990112024
20
-3.482350793
10
-26.810106510
20
-3.482745209
10
-26.630093984
20
-3.483139624
10
-26.450074447
20
-3.483534040
10
-26.270047899
20
-3.483928456
10
-26.090014340
20
-3.484322872
10
-25.909973769
20
-3.484717287
10
-25.729926187
20
-3.485111703
10
-25.549871593
20
-3.485506119
10
-25.369809988
20
-3.485900534
10
-25.189741372
20
-3.486294950
10
-25.009665745
20
-3.486689366
10
-24.829583106
20
-3.487083782
10
-24.649493456
20
-3.487478197
10
-24.469396794
20
-3.487872613
10
-24.289293121
20
-3.488267029
10
-24.109182437
20
-3.488661444
10
-23.929064742
20
-3.489055860
10
-23.748940035
20
-3.489450276
10
-23.568808317
20
-3.489844692
10
-23.388669588
20
-3.490239107
10
-23.208523847
20
-3.490633523
10
-23.028371095
20
-3.491027939
10
-22.848211331
20
-3.491422354
10
-22.668044557
20
-3.491816770
10
-22.487870771
20
-3.492211186
10
-22.307689973
20
-3.492605602
10
-22.127502165
20
-3.493000017
10
-21.947307345
20
-3.493394433
10
-21.767105513
20
-3.493788849
10
-21.586896671
20
-3.494183264
10
-21.406680817
20
-3.494577680
10
-21.226457951
20
-3.494972096
10
-21.046228075
20
-3.495366512
10
-20.865991187
20
-3.495760927
10
-20.685747288
20
-3.496155343
10
-20.505496377
20
-3.496549759
10
-20.325238455
20
-3.496944174
10
-20.144973522
20
-3.497338590
10
-19.964701577
20
-3.497733006
10
-19.784422621
20
-3.498127422
10
-19.604136654
20
-3.498521837
10
-19.423843676
20
-3.498916253
10
-19.243543686
20
-3.499310669
10
-19.063236685
20
-3.499705084
10
-18.882922672
20
-3.500099500
10
-18.702601648
20
-3.500493916
10
-18.522273613
20
-3.500888332
10
-18.341938567
20
-3.501282747
10
-18.161596509
20
-3.501677163
10
-17.981247440
20
-3.502071579
10
-17.800891359
20
-3.502465995
0
LWPOLYLINE
100
AcDbEntity
8
COPPER_L4_BOTTOM
100
AcDbPolyline
90
220
70
0
38
0.000000000
10
-17.800891359
20
-3.502465995
10
-17.620528268
20
-3.502860410
10
-17.440158164
20
-3.503254826
10
-17.259781050
20
-3.503649242
10
-17.079396924
20
-3.504043657
10
-16.899005787
20
-3.504438073
10
-16.718607639
20
-3.504832489
10
-16.538202479
20
-3.505226905
10
-16.357790308
20
-3.505621320
10
-16.177371126
20
-3.506015736
10
-15.996944932
20
-3.506410152
10
-15.816511727
20
-3.506804567
10
-15.636071511
20
-3.507198983
10
-15.455624283
20
-3.507593399
10
-15.275170044
20
-3.507987815
10
-15.094708794
20
-3.508382230
10
-14.914240532
20
-3.508776646
10
-14.733765259
20
-3.509171062
10
-14.553282975
20
-3.509565477
10
-14.372793679
20
-3.509959893
10
-14.192297372
20
-3.510354309
10
-14.011794054
20
-3.510748725
10
-13.831283724
20
-3.511143140
10
-13.650766383
20
-3.511537556
10
-13.470242031
20
-3.511931972
10
-13.289710668
20
-3.512326387
10
-13.109172293
20
-3.512720803
10
-12.928626907
20
-3.513115219
10
-12.748074509
20
-3.513509635
10
-12.567515100
20
-3.513904050
10
-12.386948680
20
-3.514298466
10
-12.206375249
20
-3.514692882
10
-12.025794806
20
-3.515087297
10
-11.845207352
20
-3.515481713
10
-11.664612886
20
-3.515876129
10
-11.484011409
20
-3.516270545
10
-11.303402921
20
-3.516664960
10
-11.122787422
20
-3.517059376
10
-10.942164911
20
-3.517453792
10
-10.761535389
20
-3.517848207
10
-10.580898855
20
-3.518242623
10
-10.400255311
20
-3.518637039
10
-10.219604755
20
-3.519031455
10
-10.038947187
20
-3.519425870
10
-9.858282608
20
-3.519820286
10
-9.677611018
20
-3.520214702
10
-9.496932417
20
-3.520609117
10
-9.316246804
20
-3.521003533
10
-9.135554180
20
-3.521397949
10
-8.954854545
20
-3.521792365
10
-8.774147898
20
-3.522186780
10
-8.593434240
20
-3.522581196
10
-8.412713571
20
-3.522975612
10
-8.231985890
20
-3.523370027
10
-8.051251198
20
-3.523764443
10
-7.870509495
20
-3.524158859
10
-7.689760781
20
-3.524553275
10
-7.509005055
20
-3.524947690
10
-7.328242317
20
-3.525342106
10
-7.147472569
20
-3.525736522
10
-6.966695809
20
-3.526130937
10
-6.785912038
20
-3.526525353
10
-6.605121255
20
-3.526919769
10
-6.424323461
20
-3.527314185
10
-6.243518656
20
-3.527708600
10
-6.062706840
20
-3.528103016
10
-5.881888012
20
-3.528497432
10
-5.701062172
20
-3.528891847
10
-5.520229322
20
-3.529286263
10
-5.339389460
20
-3.529680679
10
-5.158542587
20
-3.530075095
10
-4.977688703
20
-3.530469510
10
-4.796827807
20
-3.530863926
10
-4.615959900
20
-3.531258342
10
-4.435084981
20
-3.531652757
10
-4.254203051
20
-3.532047173
10
-4.073314110
20
-3.532441589
10
-3.892418158
20
-3.532836005
10
-3.711515194
20
-3.533230420
10
-3.530605219
20
-3.533624836
10
-3.349688233
20
-3.534019252
10
-3.168764235
20
-3.534413667
10
-2.987833226
20
-3.534808083
10
-2.806895206
20
-3.535202499
10
-2.625950174
20
-3.535596915
10
-2.444998131
20
-3.535991330
10
-2.264039077
20
-3.536385746
10
-2.083073011
20
-3.536780162
10
-1.902099934
20
-3.537174577
10
-1.721119846
20
-3.537568993
10
-1.540132746
20
-3.537963409
10
-1.359138635
20
-3.538357825
10
-1.178137513
20
-3.538752240
10
-0.997129379
20
-3.539146656
10
-0.816114234
20
-3.539541072
10
-0.635092078
20
-3.539935487
10
-0.454062910
20
-3.540329903
10
-0.273026731
20
-3.540724319
10
-0.091983541
20
-3.541118735
10
0.089066660
20
-3.541513150
10
0.270123873
20
-3.541907566
10
0.451188097
20
-3.542301982
10
0.632259333
20
-3.542696397
10
0.813337580
20
-3.543090813
10
0.994422838
20
-3.543485229
10
1.175515107
20
-3.543879645
10
1.356614388
20
-3.544274060
10
1.537720680
20
-3.544668476
10
1.718833984
20
-3.545062892
10
1.899954299
20
-3.545457307
10
2.081081625
20
-3.545851723
10
2.262215962
20
-3.546246139
10
2.443357311
20
-3.546640555
10
2.624505671
20
-3.547034970
10
2.805661042
20
-3.547429386
10
2.986823425
20
-3.547823802
10
3.167992819
20
-3.548218217
10
3.349169225
20
-3.548612633
10
3.530352641
20
-3.549007049
10
3.711543069
20
-3.549401465
10
3.892740509
20
-3.549795880
10
4.073944959
20
-3.550190296
10
4.255156421
20
-3.550584712
10
4.436374895
20
-3.550979127
10
4.617600379
20
-3.551373543
10
4.798832875
20
-3.551767959
10
4.980072383
20
-3.552162375
10
5.161318901
20
-3.552556790
10
5.342572431
20
-3.552951206
10
5.523832973
20
-3.553345622
10
5.705100525
20
-3.553740037
10
5.886375089
20
-3.554134453
10
6.067656664
20
-3.554528869
10
6.248945251
20
-3.554923285
10
6.430240849
20
-3.555317700
10
6.611543458
20
-3.555712116
10
6.792853079
20
-3.556106532
10
6.974169710
20
-3.556500947
10
7.155493354
20
-3.556895363
10
7.336824008
20
-3.557289779
10
7.518161674
20
-3.557684195
10
7.699506351
20
-3.558078610
10
7.880858040
20
-3.558473026
10
8.062216740
20
-3.558867442
10
8.243582451
20
-3.559261857
10
8.424955173
20
-3.559656273
10
8.606334907
20
-3.560050689
10
8.787721652
20
-3.560445105
10
8.969115408
20
-3.560839520
10
9.150516176
20
-3.561233936
10
9.331923955
20
-3.561628352
10
9.513338746
20
-3.562022767
10
9.694760547
20
-3.562417183
10
9.876189361
20
-3.562811599
10
10.057625185
20
-3.563206015
10
10.239068021
20
-3.563600430
10
10.420517868
20
-3.563994846
10
10.601974726
20
-3.564389262
10
10.783438596
20
-3.564783677
10
10.964909477
20
-3.565178093
10
11.146387369
20
-3.565572509
10
11.327872273
20
-3.565966925
10
11.509364188
20
-3.566361340
10
11.690863114
20
-3.566755756
10
11.872369052
20
-3.567150172
10
12.053882000
20
-3.567544588
10
12.235401961
20
-3.567939003
10
12.416928932
20
-3.568333419
10
12.598462915
20
-3.568727835
10
12.780003910
20
-3.569122250
10
12.961551915
20
-3.569516666
10
13.143106932
20
-3.569911082
10
13.324668960
20
-3.570305498
10
13.506238000
20
-3.570699913
10
13.687814051
20
-3.571094329
10
13.869397113
20
-3.571488745
10
14.050987186
20
-3.571883160
10
14.232584271
20
-3.572277576
10
14.414188367
20
-3.572671992
10
14.595799475
20
-3.573066408
10
14.777417594
20
-3.573460823
10
14.959042724
20
-3.573855239
10
15.140674865
20
-3.574249655
10
15.322314018
20
-3.574644070
10
15.503960182
20
-3.575038486
10
15.685613358
20
-3.575432902
10
15.867273544
20
-3.575827318
10
16.048940742
20
-3.576221733
10
16.230614952
20
-3.576616149
10
16.412296173
20
-3.577010565
10
16.593984405
20
-3.577404980
10
16.775679648
20
-3.577799396
10
16.957381903
20
-3.578193812
10
17.139091169
20
-3.578588228
10
17.320807446
20
-3.578982643
10
17.502530735
20
-3.579377059
10
17.684261035
20
-3.579771475
10
17.865998346
20
-3.580165890
10
18.047742669
20
-3.580560306
10
18.229494003
20
-3.580954722
10
18.411252348
20
-3.581349138
10
18.593017705
20
-3.581743553
10
18.774790073
20
-3.582137969
10
18.956569452
20
-3.582532385
10
19.138355842
20
-3.582926800
10
19.320149244
20
-3.583321216
10
19.501949658
20
-3.583715632
10
19.683757082
20
-3.584110048
10
19.865571518
20
-3.584504463
10
20.047392965
20
-3.584898879
10
20.229221424
20
-3.585293295
10
20.411056894
20
-3.585687710
10
20.592899375
20
-3.586082126
10
20.774748867
20
-3.586476542
10
20.956605371
20
-3.586870958
10
21.138468886
20
-3.587265373
10
21.320339413
20
-3.587659789
10
21.502216951
20
-3.588054205
10
21.684101500
20
-3.588448620
10
21.865993060
20
-3.588843036
0
LWPOLYLINE
100
AcDbEntity
8
COPPER_L4_BOTTOM
100
AcDbPolyline
90
220
70
0
38
0.000000000
10
21.865993060
20
-3.588843036
10
22.047891632
20
-3.589237452
10
22.229797215
20
-3.589631868
10
22.411709810
20
-3.590026283
10
22.593629415
20
-3.590420699
10
22.775556032
20
-3.590815115
10
22.957489661
20
-3.591209530
10
23.139430301
20
-3.591603946
10
23.321377952
20
-3.591998362
10
23.503332614
20
-3.592392778
10
23.685294288
20
-3.592787193
10
23.867262973
20
-3.593181609
10
24.049238669
20
-3.593576025
10
24.231221377
20
-3.593970440
10
24.413211096
20
-3.594364856
10
24.595207826
20
-3.594759272
10
24.777211568
20
-3.595153688
10
24.959222321
20
-3.595548103
10
25.141240085
20
-3.595942519
10
25.323264861
20
-3.596336935
10
25.505296648
20
-3.596731350
10
25.687335446
20
-3.597125766
10
25.869381255
20
-3.597520182
10
26.051434076
20
-3.597914598
10
26.233493909
20
-3.598309013
10
26.415560752
20
-3.598703429
10
26.597634607
20
-3.599097845
10
26.779715473
20
-3.599492260
10
26.961803351
20
-3.599886676
10
27.143898240
20
-3.600281092
10
27.326000140
20
-3.600675508
10
27.508109051
20
-3.601069923
10
27.690224974
20
-3.601464339
10
27.872347908
20
-3.601858755
10
28.054477854
20
-3.602253170
10
28.236614811
20
-3.602647586
10
28.418758779
20
-3.603042002
10
28.600909758
20
-3.603436418
10
28.783067749
20
-3.603830833
10
28.965232751
20
-3.604225249
10
29.147404764
20
-3.604619665
10
29.329583789
20
-3.605014080
10
29.511769825
20
-3.605408496
10
29.693962873
20
-3.605802912
10
29.876162931
20
-3.606197328
10
30.058370001
20
-3.606591743
10
30.240584083
20
-3.606986159
10
30.422805176
20
-3.607380575
10
30.605033280
20
-3.607774990
10
30.787268395
20
-3.608169406
10
30.969510522
20
-3.608563822
10
31.151759660
20
-3.608958238
10
31.334015809
20
-3.609352653
10
31.516278970
20
-3.609747069
10
31.698549141
20
-3.610141485
10
31.880826325
20
-3.610535900
10
32.063110519
20
-3.610930316
10
32.245401725
20
-3.611324732
10
32.427699943
20
-3.611719148
10
32.610005171
20
-3.612113563
10
32.792317411
20
-3.612507979
10
32.974636662
20
-3.612902395
10
33.156962925
20
-3.613296810
10
33.339296199
20
-3.613691226
10
33.521636484
20
-3.614085642
10
33.703983780
20
-3.614480058
10
33.886338088
20
-3.614874473
10
34.068699408
20
-3.615268889
10
34.251067738
20
-3.615663305
10
34.433443080
20
-3.616057720
10
34.615825433
20
-3.616452136
10
34.798214798
20
-3.616846552
10
34.980611173
20
-3.617240968
10
35.163014560
20
-3.617635383
10
35.345424959
20
-3.618029799
10
35.527842369
20
-3.618424215
10
35.710266790
20
-3.618818630
10
35.892698222
20
-3.619213046
10
36.075136666
20
-3.619607462
10
36.257582121
20
-3.620001878
10
36.440034587
20
-3.620396293
10
36.622494065
20
-3.620790709
10
36.804960554
20
-3.621185125
10
36.986248512
20
-3.604448706
10
37.159048417
20
-3.547495016
10
37.314466888
20
-3.453113210
10
37.444504415
20
-3.326188402
10
37.542469437
20
-3.173285624
10
37.603323950
20
-3.002311545
10
37.623946035
20
-2.822106836
10
37.624340450
20
-2.640373088
10
37.624734866
20
-2.458632329
10
37.625129282
20
-2.276884558
10
37.625523698
20
-2.095129776
10
37.625918113
20
-1.913367982
10
37.626312529
20
-1.731599177
10
37.626706945
20
-1.549823361
10
37.627101360
20
-1.368040534
10
37.627495776
20
-1.186250695
10
37.627890192
20
-1.004453845
10
37.628284608
20
-0.822649983
10
37.628679023
20
-0.640839111
10
37.629073439
20
-0.459021226
10
37.629467855
20
-0.277196331
10
37.629862270
20
-0.095364424
10
37.630256686
20
0.086474494
10
37.630651102
20
0.268320423
10
37.631045518
20
0.450173364
10
37.631439933
20
0.632033316
10
37.631834349
20
0.813900279
10
37.632228765
20
0.995774254
10
37.632623180
20
1.177655240
10
37.633017596
20
1.359543237
10
37.633412012
20
1.541438246
10
37.633806428
20
1.723340266
10
37.634200843
20
1.905249297
10
37.634595259
20
2.087165340
10
37.634989675
20
2.269088394
10
37.635384091
20
2.451018459
10
37.635778506
20
2.632955536
10
37.636172922
20
2.814899624
10
37.620564251
20
2.995780529
10
37.565029208
20
3.168500260
10
37.472149004
20
3.324221712
10
37.346703832
20
3.454975497
10
37.195145337
20
3.554071505
10
37.025266078
20
3.616442465
10
36.845800085
20
3.638904366
10
36.664588822
20
3.639328248
10
36.483370463
20
3.639722663
10
36.302145094
20
3.640117079
10
36.120912713
20
3.640511495
10
35.939673320
20
3.640905911
10
35.758426916
20
3.641300326
10
35.577173501
20
3.641694742
10
35.395913075
20
3.642089158
10
35.214645637
20
3.642483573
10
35.033371188
20
3.642877989
10
34.852089728
20
3.643272405
10
34.670801256
20
3.643666821
10
34.489505773
20
3.644061236
10
34.308203279
20
3.644455652
10
34.126893773
20
3.644850068
10
33.945577256
20
3.645244483
10
33.764253728
20
3.645638899
10
33.582923188
20
3.646033315
10
33.401585638
20
3.646427731
10
33.220241075
20
3.646822146
10
33.038889502
20
3.647216562
10
32.857530917
20
3.647610978
10
32.676165321
20
3.648005393
10
32.494792713
20
3.648399809
10
32.313413094
20
3.648794225
10
32.132026464
20
3.649188641
10
31.950632822
20
3.649583056
10
31.769232170
20
3.649977472
10
31.587824505
20
3.650371888
10
31.406409830
20
3.650766303
10
31.224988143
20
3.651160719
10
31.043559445
20
3.651555135
10
30.862123735
20
3.651949551
10
30.680681015
20
3.652343966
10
30.499231283
20
3.652738382
10
30.317774539
20
3.653132798
10
30.136310784
20
3.653527213
10
29.954840018
20
3.653921629
10
29.773362241
20
3.654316045
10
29.591877452
20
3.654710461
10
29.410385652
20
3.655104876
10
29.228886841
20
3.655499292
10
29.047381018
20
3.655893708
10
28.865868184
20
3.656288123
10
28.684348338
20
3.656682539
10
28.502821482
20
3.657076955
10
28.321287614
20
3.657471371
10
28.139746734
20
3.657865786
10
27.958198844
20
3.658260202
10
27.776643942
20
3.658654618
10
27.595082028
20
3.659049033
10
27.413513104
20
3.659443449
10
27.231937168
20
3.659837865
10
27.050354221
20
3.660232281
10
26.868764262
20
3.660626696
10
26.687167292
20
3.661021112
10
26.505563311
20
3.661415528
10
26.323952318
20
3.661809943
10
26.142334314
20
3.662204359
10
25.960709299
20
3.662598775
10
25.779077273
20
3.662993191
10
25.597438235
20
3.663387606
10
25.415792185
20
3.663782022
10
25.234139125
20
3.664176438
10
25.052479053
20
3.664570853
10
24.870811970
20
3.664965269
10
24.689137875
20
3.665359685
10
24.507456770
20
3.665754101
10
24.325768652
20
3.666148516
10
24.144073524
20
3.666542932
10
23.962371384
20
3.666937348
10
23.780662233
20
3.667331763
10
23.598946071
20
3.667726179
10
23.417222897
20
3.668120595
10
23.235492712
20
3.668515011
10
23.053755515
20
3.668909426
10
22.872011308
20
3.669303842
10
22.690260089
20
3.669698258
10
22.508501858
20
3.670092673
10
22.326736616
20
3.670487089
10
22.144964363
20
3.670881505
10
21.963185099
20
3.671275921
10
21.781398823
20
3.671670336
10
21.599605536
20
3.672064752
10
21.417805238
20
3.672459168
10
21.235997928
20
3.672853583
10
21.054183607
20
3.673247999
10
20.872362275
20
3.673642415
10
20.690533931
20
3.674036831
10
20.508698576
20
3.674431246
10
20.326856210
20
3.674825662
10
20.145006833
20
3.675220078
0
LWPOLYLINE
100
AcDbEntity
8
COPPER_L4_BOTTOM
100
AcDbPolyline
90
220
70
0
38
0.000000000
10
20.145006833
20
3.675220078
10
19.963150444
20
3.675614493
10
19.781287043
20
3.676008909
10
19.599416632
20
3.676403325
10
19.417539209
20
3.676797741
10
19.235654775
20
3.677192156
10
19.053763329
20
3.677586572
10
18.871864872
20
3.677980988
10
18.689959404
20
3.678375403
10
18.508046925
20
3.678769819
10
18.326127434
20
3.679164235
10
18.144200932
20
3.679558651
10
17.962267418
20
3.679953066
10
17.780326893
20
3.680347482
10
17.598379357
20
3.680741898
10
17.416424810
20
3.681136313
10
17.234463251
20
3.681530729
10
17.052494681
20
3.681925145
10
16.870519099
20
3.682319561
10
16.688536506
20
3.682713976
10
16.506546902
20
3.683108392
10
16.324550287
20
3.683502808
10
16.142546660
20
3.683897223
10
15.960536022
20
3.684291639
10
15.778518373
20
3.684686055
10
15.596493712
20
3.685080471
10
15.414462040
20
3.685474886
10
15.232423357
20
3.685869302
10
15.050377662
20
3.686263718
10
14.868324956
20
3.686658133
10
14.686265239
20
3.687052549
10
14.504198510
20
3.687446965
10
14.322124770
20
3.687841381
10
14.140044019
20
3.688235796
10
13.957956256
20
3.688630212
10
13.775861482
20
3.689024628
10
13.593759697
20
3.689419043
10
13.411650900
20
3.689813459
10
13.229535092
20
3.690207875
10
13.047412273
20
3.690602291
10
12.865282443
20
3.690996706
10
12.683145601
20
3.691391122
10
12.501001747
20
3.691785538
10
12.318850883
20
3.692179953
10
12.136693007
20
3.692574369
10
11.954528120
20
3.692968785
10
11.772356221
20
3.693363201
10
11.590177311
20
3.693757616
10
11.407991390
20
3.694152032
10
11.225798458
20
3.694546448
10
11.043598514
20
3.694940863
10
10.861391559
20
3.695335279
10
10.679177592
20
3.695729695
10
10.496956615
20
3.696124111
10
10.314728625
20
3.696518526
10
10.132493625
20
3.696912942
10
9.950251613
20
3.697307358
10
9.768002590
20
3.697701773
10
9.585746556
20
3.698096189
10
9.403483510
20
3.698490605
10
9.221213453
20
3.698885021
10
9.038936385
20
3.699279436
10
8.856652305
20
3.699673852
10
8.674361214
20
3.700068268
10
8.492063112
20
3.700462684
10
8.309757998
20
3.700857099
10
8.127445873
20
3.701251515
10
7.945126737
20
3.701645931
10
7.762800589
20
3.702040346
10
7.580467430
20
3.702434762
10
7.398127260
20
3.702829178
10
7.215780078
20
3.703223594
10
7.033425885
20
3.703618009
10
6.851064681
20
3.704012425
10
6.668696465
20
3.704406841
10
6.486321238
20
3.704801256
10
6.303939000
20
3.705195672
10
6.121549750
20
3.705590088
10
5.939153490
20
3.705984504
10
5.756750217
20
3.706378919
10
5.574339934
20
3.706773335
10
5.391922639
20
3.707167751
10
5.209498333
20
3.707562166
10
5.027067015
20
3.707956582
10
4.844628686
20
3.708350998
10
4.662183346
20
3.708745414
10
4.479730995
20
3.709139829
10
4.297271632
20
3.709534245
10
4.114805258
20
3.709928661
10
3.932331872
20
3.710323076
10
3.749851476
20
3.710717492
10
3.567364067
20
3.711111908
10
3.384869648
20
3.711506324
10
3.202368217
20
3.711900739
10
3.019859775
20
3.712295155
10
2.837344322
20
3.712689571
10
2.654821857
20
3.713083986
10
2.472292381
20
3.713478402
10
2.289755894
20
3.713872818
10
2.107212395
20
3.714267234
10
1.924661885
20
3.714661649
10
1.742104363
20
3.715056065
10
1.559539831
20
3.715450481
10
1.376968287
20
3.715844896
10
1.194389731
20
3.716239312
10
1.011804165
20
3.716633728
10
0.829211587
20
3.717028144
10
0.646611998
20
3.717422559
10
0.464005397
20
3.717816975
10
0.281391785
20
3.718211391
10
0.098771162
20
3.718605806
10
-0.083856473
20
3.719000222
10
-0.266491119
20
3.719394638
10
-0.449132776
20
3.719789054
10
-0.631781445
20
3.720183469
10
-0.814437124
20
3.720577885
10
-0.997099816
20
3.720972301
10
-1.179769518
20
3.721366716
10
-1.362446232
20
3.721761132
10
-1.545129957
20
3.722155548
10
-1.727820694
20
3.722549964
10
-1.910518442
20
3.722944379
10
-2.093223201
20
3.723338795
10
-2.275934971
20
3.723733211
10
-2.458653753
20
3.724127626
10
-2.641379546
20
3.724522042
10
-2.824112351
20
3.724916458
10
-3.006852166
20
3.725310874
10
-3.189598994
20
3.725705289
10
-3.372352832
20
3.726099705
10
-3.555113682
20
3.726494121
10
-3.737881543
20
3.726888536
10
-3.920656415
20
3.727282952
10
-4.103438299
20
3.727677368
10
-4.286227194
20
3.728071784
10
-4.469023100
20
3.728466199
10
-4.651826018
20
3.728860615
10
-4.834635947
20
3.729255031
10
-5.017452887
20
3.729649446
10
-5.200276839
20
3.730043862
10
-5.383107802
20
3.730438278
10
-5.565945776
20
3.730832694
10
-5.748790762
20
3.731227109
10
-5.931642759
20
3.731621525
10
-6.114501767
20
3.732015941
10
-6.297367787
20
3.732410356
10
-6.480240818
20
3.732804772
10
-6.663120860
20
3.733199188
10
-6.846007914
20
3.733593604
10
-7.028901979
20
3.733988019
10
-7.211803055
20
3.734382435
10
-7.394711142
20
3.734776851
10
-7.577626241
20
3.735171266
10
-7.760548352
20
3.735565682
10
-7.943477473
20
3.735960098
10
-8.126413606
20
3.736354514
10
-8.309356750
20
3.736748929
10
-8.492306906
20
3.737143345
10
-8.675264072
20
3.737537761
10
-8.858228251
20
3.737932176
10
-9.041199440
20
3.738326592
10
-9.224177641
20
3.738721008
10
-9.407162853
20
3.739115424
10
-9.590155076
20
3.739509839
10
-9.773154311
20
3.739904255
10
-9.956160557
20
3.740298671
10
-10.139173815
20
3.740693086
10
-10.322194084
20
3.741087502
10
-10.505221364
20
3.741481918
10
-10.688255655
20
3.741876334
10
-10.871296958
20
3.742270749
10
-11.054345272
20
3.742665165
10
-11.237400597
20
3.743059581
10
-11.420462934
20
3.743453996
10
-11.603532282
20
3.743848412
10
-11.786608641
20
3.744242828
10
-11.969692012
20
3.744637244
10
-12.152782394
20
3.745031659
10
-12.335879787
20
3.745426075
10
-12.518984192
20
3.745820491
10
-12.702095608
20
3.746214906
10
-12.885214035
20
3.746609322
10
-13.068339474
20
3.747003738
10
-13.251471924
20
3.747398154
10
-13.434611385
20
3.747792569
10
-13.617757857
20
3.748186985
10
-13.800911341
20
3.748581401
10
-13.984071837
20
3.748975816
10
-14.167239343
20
3.749370232
10
-14.350413861
20
3.749764648
10
-14.533595390
20
3.750159064
10
-14.716783931
20
3.750553479
10
-14.899979483
20
3.750947895
10
-15.083182046
20
3.751342311
10
-15.266391620
20
3.751736726
10
-15.449608206
20
3.752131142
10
-15.632831803
20
3.752525558
10
-15.816062412
20
3.752919974
10
-15.999300032
20
3.753314389
10
-16.182544663
20
3.753708805
10
-16.365796305
20
3.754103221
10
-16.549054959
20
3.754497636
10
-16.732320624
20
3.754892052
10
-16.915593300
20
3.755286468
10
-17.098872988
20
3.755680884
10
-17.282159687
20
3.756075299
10
-17.465453398
20
3.756469715
10
-17.648754119
20
3.756864131
10
-17.832061852
20
3.757258546
10
-18.015376597
20
3.757652962
10
-18.198698353
20
3.758047378
10
-18.382027120
20
3.758441794
10
-18.565362898
20
3.758836209
10
-18.748705688
20
3.759230625
10
-18.932055489
20
3.759625041
10
-19.115412301
20
3.760019456
10
-19.298776124
20
3.760413872
10
-19.482146959
20
3.760808288
10
-19.665524806
20
3.761202704
10
-19.848909663
20
3.761597119
0
LWPOLYLINE
100
AcDbEntity
8
COPPER_L4_BOTTOM
100
AcDbPolyline
90
220
70
0
38
0.000000000
10
-19.848909663
20
3.761597119
10
-20.032301532
20
3.761991535
10
-20.215700413
20
3.762385951
10
-20.399106304
20
3.762780366
10
-20.582519207
20
3.763174782
10
-20.765939121
20
3.763569198
10
-20.949366047
20
3.763963614
10
-21.132799984
20
3.764358029
10
-21.316240932
20
3.764752445
10
-21.499688891
20
3.765146861
10
-21.683143862
20
3.765541276
10
-21.866605844
20
3.765935692
10
-22.050074838
20
3.766330108
10
-22.233550843
20
3.766724524
10
-22.417033859
20
3.767118939
10
-22.600523886
20
3.767513355
10
-22.784020925
20
3.767907771
10
-22.967524975
20
3.768302187
10
-23.151036037
20
3.768696602
10
-23.334554110
20
3.769091018
10
-23.518079194
20
3.769485434
10
-23.701611289
20
3.769879849
10
-23.885150396
20
3.770274265
10
-24.068696514
20
3.770668681
10
-24.252249643
20
3.771063097
10
-24.435809784
20
3.771457512
10
-24.619376936
20
3.771851928
10
-24.802951099
20
3.772246344
10
-24.986532274
20
3.772640759
10
-25.170120460
20
3.773035175
10
-25.353715657
20
3.773429591
10
-25.537317866
20
3.773824007
10
-25.720927086
20
3.774218422
10
-25.904543317
20
3.774612838
10
-26.088166560
20
3.775007254
10
-26.271796814
20
3.775401669
10
-26.455434079
20
3.775796085
10
-26.639078356
20
3.776190501
10
-26.822729644
20
3.776584917
10
-27.006387943
20
3.776979332
10
-27.190053254
20
3.777373748
10
-27.373725576
20
3.777768164
10
-27.557404909
20
3.778162579
10
-27.741091253
20
3.778556995
10
-27.924784609
20
3.778951411
10
-28.108484976
20
3.779345827
10
-28.292192355
20
3.779740242
10
-28.475906745
20
3.780134658
10
-28.659628146
20
3.780529074
10
-28.843356558
20
3.780923489
10
-29.027091982
20
3.781317905
10
-29.210834417
20
3.781712321
10
-29.394583864
20
3.782106737
10
-29.578340322
20
3.782501152
10
-29.762103791
20
3.782895568
10
-29.945874271
20
3.783289984
10
-30.129651763
20
3.783684399
10
-30.313436266
20
3.784078815
10
-30.497227780
20
3.784473231
10
-30.681026306
20
3.784867647
10
-30.864831843
20
3.785262062
10
-31.048644392
20
3.785656478
10
-31.232463951
20
3.786050894
10
-31.416290522
20
3.786445309
10
-31.600124105
20
3.786839725
10
-31.783964698
20
3.787234141
10
-31.967812303
20
3.787628557
10
-32.151666920
20
3.788022972
10
-32.335528547
20
3.788417388
10
-32.519397186
20
3.788811804
10
-32.703272837
20
3.789206219
10
-32.887155498
20
3.789600635
10
-33.071045171
20
3.789995051
10
-33.254941856
20
3.790389467
10
-33.438845551
20
3.790783882
10
-33.622756258
20
3.791178298
10
-33.806673976
20
3.791572714
10
-33.990598706
20
3.791967129
10
-34.174530447
20
3.792361545
10
-34.358469199
20
3.792755961
10
-34.542414963
20
3.793150377
10
-34.726367738
20
3.793544792
10
-34.910327524
20
3.793939208
10
-35.094294321
20
3.794333624
10
-35.278268130
20
3.794728039
10
-35.462248950
20
3.795122455
10
-35.646236782
20
3.795516871
10
-35.830231625
20
3.795911287
10
-36.014233479
20
3.796305702
10
-36.198242344
20
3.796700118
10
-36.382258221
20
3.797094534
10
-36.566281109
20
3.797488949
10
-36.750311009
20
3.797883365
10
-36.934347919
20
3.798277781
10
-37.117945488
20
3.789730906
10
-37.295223562
20
3.742229489
10
-37.456967551
20
3.655729099
10
-37.594708294
20
3.534785427
10
-37.701148240
20
3.385734343
10
-37.770828403
20
3.216459763
10
-37.800235303
20
3.035867032
10
-37.801433107
20
2.852565135
10
-37.801827522
20
2.669245736
10
-37.802221938
20
2.485920829
10
-37.802616354
20
2.302590417
10
-37.803010769
20
2.119254497
10
-37.803405185
20
1.935913071
10
-37.803799601
20
1.752566138
10
-37.804194017
20
1.569213699
10
-37.804588432
20
1.385855753
10
-37.804982848
20
1.202492300
10
-37.805377264
20
1.019123340
10
-37.805771679
20
0.835748874
10
-37.806166095
20
0.652368901
10
-37.806560511
20
0.468983422
10
-37.806954927
20
0.285592435
10
-37.807349342
20
0.102195942
10
-37.807743758
20
-0.081206057
10
-37.808138174
20
-0.264613564
10
-37.808532589
20
-0.448026577
10
-37.808927005
20
-0.631445096
10
-37.809321421
20
-0.814869123
10
-37.809715837
20
-0.998298656
10
-37.810110252
20
-1.181733695
10
-37.810504668
20
-1.365174242
10
-37.810899084
20
-1.548620295
10
-37.811293499
20
-1.732071855
10
-37.811687915
20
-1.915528921
10
-37.812082331
20
-2.098991494
10
-37.812476747
20
-2.282459574
10
-37.812871162
20
-2.465933161
10
-37.813265578
20
-2.649412254
10
-37.813659994
20
-2.832896854
10
-37.813889480
20
-3.016385853
10
-37.790044032
20
-3.197882076
10
-37.726303810
20
-3.369394481
10
-37.625954047
20
-3.522296820
10
-37.494109685
20
-3.648930888
10
-37.337448361
20
-3.742985756
10
-37.163867019
20
-3.799806659
10
-36.982078611
20
-3.816815319
10
-36.799163997
20
-3.817209735
10
-36.616243878
20
-3.817604151
10
-36.433318251
20
-3.817998567
10
-36.250387118
20
-3.818392982
10
-36.067450478
20
-3.818787398
10
-35.884508331
20
-3.819181814
10
-35.701560678
20
-3.819576229
10
-35.518607518
20
-3.819970645
10
-35.335648851
20
-3.820365061
10
-35.152684678
20
-3.820759477
10
-34.969714998
20
-3.821153892
10
-34.786739811
20
-3.821548308
10
-34.603759118
20
-3.821942724
10
-34.420772918
20
-3.822337139
10
-34.237781211
20
-3.822731555
10
-34.054783997
20
-3.823125971
10
-33.871781277
20
-3.823520387
10
-33.688773050
20
-3.823914802
10
-33.505759317
20
-3.824309218
10
-33.322740077
20
-3.824703634
10
-33.139715330
20
-3.825098049
10
-32.956685076
20
-3.825492465
10
-32.773649316
20
-3.825886881
10
-32.590608049
20
-3.826281297
10
-32.407561276
20
-3.826675712
10
-32.224508996
20
-3.827070128
10
-32.041451209
20
-3.827464544
10
-31.858387915
20
-3.827858959
10
-31.675319115
20
-3.828253375
10
-31.492244808
20
-3.828647791
10
-31.309164994
20
-3.829042207
10
-31.126079674
20
-3.829436622
10
-30.942988847
20
-3.829831038
10
-30.759892513
20
-3.830225454
10
-30.576790673
20
-3.830619869
10
-30.393683326
20
-3.831014285
10
-30.210570472
20
-3.831408701
10
-30.027452111
20
-3.831803117
10
-29.844328244
20
-3.832197532
10
-29.661198871
20
-3.832591948
10
-29.478063990
20
-3.832986364
10
-29.294923603
20
-3.833380779
10
-29.111777709
20
-3.833775195
10
-28.928626309
20
-3.834169611
10
-28.745469401
20
-3.834564027
10
-28.562306987
20
-3.834958442
10
-28.379139067
20
-3.835352858
10
-28.195965640
20
-3.835747274
10
-28.012786706
20
-3.836141690
10
-27.829602265
20
-3.836536105
10
-27.646412318
20
-3.836930521
10
-27.463216864
20
-3.837324937
10
-27.280015903
20
-3.837719352
10
-27.096809436
20
-3.838113768
10
-26.913597462
20
-3.838508184
10
-26.730379981
20
-3.838902600
10
-26.547156994
20
-3.839297015
10
-26.363928500
20
-3.839691431
10
-26.180694499
20
-3.840085847
10
-25.997454992
20
-3.840480262
10
-25.814209978
20
-3.840874678
10
-25.630959457
20
-3.841269094
10
-25.447703429
20
-3.841663510
10
-25.264441895
20
-3.842057925
10
-25.081174854
20
-3.842452341
10
-24.897902307
20
-3.842846757
10
-24.714624253
20
-3.843241172
10
-24.531340692
20
-3.843635588
10
-24.348051624
20
-3.844030004
10
-24.164757050
20
-3.844424420
10
-23.981456969
20
-3.844818835
10
-23.798151382
20
-3.845213251
10
-23.614840287
20
-3.845607667
10
-23.431523686
20
-3.846002082
10
-23.248201579
20
-3.846396498
10
-23.064873965
20
-3.846790914
10
-22.881540844
20
-3.847185330
10
-22.698202216
20
-3.847579745
10
-22.514858081
20
-3.847974161
0
LWPOLYLINE
100
AcDbEntity
8
COPPER_L4_BOTTOM
100
AcDbPolyline
90
220
70
0
38
0.000000000
10
-22.514858081
20
-3.847974161
10
-22.331508440
20
-3.848368577
10
-22.148153293
20
-3.848762992
10
-21.964792638
20
-3.849157408
10
-21.781426477
20
-3.849551824
10
-21.598054810
20
-3.849946240
10
-21.414677635
20
-3.850340655
10
-21.231294954
20
-3.850735071
10
-21.047906766
20
-3.851129487
10
-20.864513072
20
-3.851523902
10
-20.681113871
20
-3.851918318
10
-20.497709163
20
-3.852312734
10
-20.314298948
20
-3.852707150
10
-20.130883227
20
-3.853101565
10
-19.947461999
20
-3.853495981
10
-19.764035264
20
-3.853890397
10
-19.580603023
20
-3.854284812
10
-19.397165275
20
-3.854679228
10
-19.213722021
20
-3.855073644
10
-19.030273259
20
-3.855468060
10
-18.846818991
20
-3.855862475
10
-18.663359217
20
-3.856256891
10
-18.479893935
20
-3.856651307
10
-18.296423147
20
-3.857045722
10
-18.112946853
20
-3.857440138
10
-17.929465051
20
-3.857834554
10
-17.745977743
20
-3.858228970
10
-17.562484928
20
-3.858623385
10
-17.378986607
20
-3.859017801
10
-17.195482779
20
-3.859412217
10
-17.011973444
20
-3.859806632
10
-16.828458603
20
-3.860201048
10
-16.644938255
20
-3.860595464
10
-16.461412400
20
-3.860989880
10
-16.277881038
20
-3.861384295
10
-16.094344170
20
-3.861778711
10
-15.910801795
20
-3.862173127
10
-15.727253914
20
-3.862567542
10
-15.543700525
20
-3.862961958
10
-15.360141630
20
-3.863356374
10
-15.176577229
20
-3.863750790
10
-14.993007321
20
-3.864145205
10
-14.809431906
20
-3.864539621
10
-14.625850984
20
-3.864934037
10
-14.442264556
20
-3.865328452
10
-14.258672621
20
-3.865722868
10
-14.075075179
20
-3.866117284
10
-13.891472231
20
-3.866511700
10
-13.707863776
20
-3.866906115
10
-13.524249814
20
-3.867300531
10
-13.340630345
20
-3.867694947
10
-13.157005370
20
-3.868089362
10
-12.973374889
20
-3.868483778
10
-12.789738900
20
-3.868878194
10
-12.606097405
20
-3.869272610
10
-12.422450403
20
-3.869667025
10
-12.238797895
20
-3.870061441
10
-12.055139879
20
-3.870455857
10
-11.871476358
20
-3.870850272
10
-11.687807329
20
-3.871244688
10
-11.504132794
20
-3.871639104
10
-11.320452752
20
-3.872033520
10
-11.136767203
20
-3.872427935
10
-10.953076148
20
-3.872822351
10
-10.769379586
20
-3.873216767
10
-10.585677517
20
-3.873611182
10
-10.401969942
20
-3.874005598
10
-10.218256860
20
-3.874400014
10
-10.034538271
20
-3.874794430
10
-9.850814176
20
-3.875188845
10
-9.667084574
20
-3.875583261
10
-9.483349465
20
-3.875977677
10
-9.299608850
20
-3.876372092
10
-9.115862728
20
-3.876766508
10
-8.932111099
20
-3.877160924
10
-8.748353964
20
-3.877555340
10
-8.564591322
20
-3.877949755
10
-8.380823173
20
-3.878344171
10
-8.197049517
20
-3.878738587
10
-8.013270355
20
-3.879133002
10
-7.829485686
20
-3.879527418
10
-7.645695511
20
-3.879921834
10
-7.461899829
20
-3.880316250
10
-7.278098640
20
-3.880710665
10
-7.094291944
20
-3.881105081
10
-6.910479742
20
-3.881499497
10
-6.726662033
20
-3.881893912
10
-6.542838817
20
-3.882288328
10
-6.359010095
20
-3.882682744
10
-6.175175866
20
-3.883077160
10
-5.991336130
20
-3.883471575
10
-5.807490888
20
-3.883865991
10
-5.623640139
20
-3.884260407
10
-5.439783883
20
-3.884654822
10
-5.255922121
20
-3.885049238
10
-5.072054852
20
-3.885443654
10
-4.888182076
20
-3.885838070
10
-4.704303794
20
-3.886232485
10
-4.520420005
20
-3.886626901
10
-4.336530709
20
-3.887021317
10
-4.152635906
20
-3.887415732
10
-3.968735597
20
-3.887810148
10
-3.784829781
20
-3.888204564
10
-3.600918459
20
-3.888598980
10
-3.417001630
20
-3.888993395
10
-3.233079294
20
-3.889387811
10
-3.049151451
20
-3.889782227
10
-2.865218102
20
-3.890176642
10
-2.681279246
20
-3.890571058
10
-2.497334883
20
-3.890965474
10
-2.313385014
20
-3.891359890
10
-2.129429638
20
-3.891754305
10
-1.945468756
20
-3.892148721
10
-1.761502366
20
-3.892543137
10
-1.577530470
20
-3.892937552
10
-1.393553068
20
-3.893331968
10
-1.209570158
20
-3.893726384
10
-1.025581742
20
-3.894120800
10
-0.841587819
20
-3.894515215
10
-0.657588390
20
-3.894909631
10
-0.473583454
20
-3.895304047
10
-0.289573011
20
-3.895698462
10
-0.105557062
20
-3.896092878
10
0.078464395
20
-3.896487294
10
0.262491357
20
-3.896881710
10
0.446523827
20
-3.897276125
10
0.630561803
20
-3.897670541
10
0.814605286
20
-3.898064957
10
0.998654275
20
-3.898459372
10
1.182708772
20
-3.898853788
10
1.366768775
20
-3.899248204
10
1.550834284
20
-3.899642620
10
1.734905300
20
-3.900037035
10
1.918981823
20
-3.900431451
10
2.103063853
20
-3.900825867
10
2.287151389
20
-3.901220283
10
2.471244432
20
-3.901614698
10
2.655342982
20
-3.902009114
10
2.839447038
20
-3.902403530
10
3.023556601
20
-3.902797945
10
3.207671671
20
-3.903192361
10
3.391792247
20
-3.903586777
10
3.575918331
20
-3.903981193
10
3.760049920
20
-3.904375608
10
3.944187017
20
-3.904770024
10
4.128329620
20
-3.905164440
10
4.312477730
20
-3.905558855
10
4.496631346
20
-3.905953271
10
4.680790469
20
-3.906347687
10
4.864955099
20
-3.906742103
10
5.049125236
20
-3.907136518
10
5.233300879
20
-3.907530934
10
5.417482029
20
-3.907925350
10
5.601668685
20
-3.908319765
10
5.785860849
20
-3.908714181
10
5.970058519
20
-3.909108597
10
6.154261695
20
-3.909503013
10
6.338470378
20
-3.909897428
10
6.522684568
20
-3.910291844
10
6.706904265
20
-3.910686260
10
6.891129468
20
-3.911080675
10
7.075360178
20
-3.911475091
10
7.259596395
20
-3.911869507
10
7.443838119
20
-3.912263923
10
7.628085349
20
-3.912658338
10
7.812338085
20
-3.913052754
10
7.996596329
20
-3.913447170
10
8.180860079
20
-3.913841585
10
8.365129336
20
-3.914236001
10
8.549404099
20
-3.914630417
10
8.733684369
20
-3.915024833
10
8.917970146
20
-3.915419248
10
9.102261430
20
-3.915813664
10
9.286558220
20
-3.916208080
10
9.470860517
20
-3.916602495
10
9.655168320
20
-3.916996911
10
9.839481631
20
-3.917391327
10
10.023800447
20
-3.917785743
10
10.208124771
20
-3.918180158
10
10.392454601
20
-3.918574574
10
10.576789938
20
-3.918968990
10
10.761130782
20
-3.919363405
10
10.945477132
20
-3.919757821
10
11.129828989
20
-3.920152237
10
11.314186353
20
-3.920546653
10
11.498549223
20
-3.920941068
10
11.682917600
20
-3.921335484
10
11.867291484
20
-3.921729900
10
12.051670875
20
-3.922124315
10
12.236055772
20
-3.922518731
10
12.420446175
20
-3.922913147
10
12.604842086
20
-3.923307563
10
12.789243503
20
-3.923701978
10
12.973650427
20
-3.924096394
10
13.158062857
20
-3.924490810
10
13.342480794
20
-3.924885225
10
13.526904238
20
-3.925279641
10
13.711333189
20
-3.925674057
10
13.895767646
20
-3.926068473
10
14.080207610
20
-3.926462888
10
14.264653081
20
-3.926857304
10
14.449104058
20
-3.927251720
10
14.633560542
20
-3.927646135
10
14.818022532
20
-3.928040551
10
15.002490030
20
-3.928434967
10
15.186963034
20
-3.928829383
10
15.371441544
20
-3.929223798
10
15.555925562
20
-3.929618214
10
15.740415086
20
-3.930012630
10
15.924910117
20
-3.930407045
10
16.109410654
20
-3.930801461
10
16.293916698
20
-3.931195877
10
16.478428249
20
-3.931590293
10
16.662945306
20
-3.931984708
10
16.847467870
20
-3.932379124
10
17.031995941
20
-3.932773540
10
17.216529519
20
-3.933167955
10
17.401068603
20
-3.933562371
10
17.585613194
20
-3.933956787
10
17.770163291
20
-3.934351203
0
LWPOLYLINE
100
AcDbEntity
8
COPPER_L4_BOTTOM
100
AcDbPolyline
90
220
70
0
38
0.000000000
10
17.770163291
20
-3.934351203
10
17.954718895
20
-3.934745618
10
18.139280006
20
-3.935140034
10
18.323846624
20
-3.935534450
10
18.508418748
20
-3.935928865
10
18.692996379
20
-3.936323281
10
18.877579517
20
-3.936717697
10
19.062168161
20
-3.937112113
10
19.246762312
20
-3.937506528
10
19.431361970
20
-3.937900944
10
19.615967134
20
-3.938295360
10
19.800577805
20
-3.938689775
10
19.985193983
20
-3.939084191
10
20.169815667
20
-3.939478607
10
20.354442858
20
-3.939873023
10
20.539075556
20
-3.940267438
10
20.723713760
20
-3.940661854
10
20.908357471
20
-3.941056270
10
21.093006689
20
-3.941450685
10
21.277661414
20
-3.941845101
10
21.462321645
20
-3.942239517
10
21.646987383
20
-3.942633933
10
21.831658627
20
-3.943028348
10
22.016335378
20
-3.943422764
10
22.201017636
20
-3.943817180
10
22.385705401
20
-3.944211595
10
22.570398672
20
-3.944606011
10
22.755097450
20
-3.945000427
10
22.939801735
20
-3.945394843
10
23.124511526
20
-3.945789258
10
23.309226824
20
-3.946183674
10
23.493947628
20
-3.946578090
10
23.678673940
20
-3.946972505
10
23.863405758
20
-3.947366921
10
24.048143082
20
-3.947761337
10
24.232885914
20
-3.948155753
10
24.417634252
20
-3.948550168
10
24.602388097
20
-3.948944584
10
24.787147448
20
-3.949339000
10
24.971912306
20
-3.949733415
10
25.156682671
20
-3.950127831
10
25.341458542
20
-3.950522247
10
25.526239921
20
-3.950916663
10
25.711026805
20
-3.951311078
10
25.895819197
20
-3.951705494
10
26.080617095
20
-3.952099910
10
26.265420500
20
-3.952494325
10
26.450229411
20
-3.952888741
10
26.635043830
20
-3.953283157
10
26.819863755
20
-3.953677573
10
27.004689186
20
-3.954071988
10
27.189520124
20
-3.954466404
10
27.374356569
20
-3.954860820
10
27.559198521
20
-3.955255235
10
27.744045979
20
-3.955649651
10
27.928898944
20
-3.956044067
10
28.113757416
20
-3.956438483
10
28.298621394
20
-3.956832898
10
28.483490879
20
-3.957227314
10
28.668365871
20
-3.957621730
10
28.853246370
20
-3.958016145
10
29.038132375
20
-3.958410561
10
29.223023886
20
-3.958804977
10
29.407920905
20
-3.959199393
10
29.592823430
20
-3.959593808
10
29.777731462
20
-3.959988224
10
29.962645000
20
-3.960382640
10
30.147564045
20
-3.960777055
10
30.332488597
20
-3.961171471
10
30.517418656
20
-3.961565887
10
30.702354221
20
-3.961960303
10
30.887295293
20
-3.962354718
10
31.072241871
20
-3.962749134
10
31.257193957
20
-3.963143550
10
31.442151549
20
-3.963537965
10
31.627114647
20
-3.963932381
10
31.812083253
20
-3.964326797
10
31.997057365
20
-3.964721213
10
32.182036983
20
-3.965115628
10
32.367022109
20
-3.965510044
10
32.552012741
20
-3.965904460
10
32.737008879
20
-3.966298875
10
32.922010525
20
-3.966693291
10
33.107017677
20
-3.967087707
10
33.292030335
20
-3.967482123
10
33.477048501
20
-3.967876538
10
33.662072173
20
-3.968270954
10
33.847101352
20
-3.968665370
10
34.032136037
20
-3.969059786
10
34.217176229
20
-3.969454201
10
34.402221928
20
-3.969848617
10
34.587273134
20
-3.970243033
10
34.772329846
20
-3.970637448
10
34.957392065
20
-3.971031864
10
35.142459790
20
-3.971426280
10
35.327533023
20
-3.971820696
10
35.512611762
20
-3.972215111
10
35.697696007
20
-3.972609527
10
35.882785759
20
-3.973003943
10
36.067881018
20
-3.973398358
10
36.252981784
20
-3.973792774
10
36.438088056
20
-3.974187190
10
36.623199835
20
-3.974581606
10
36.808317121
20
-3.974976021
10
36.993439913
20
-3.975370437
10
37.177573165
20
-3.959471114
10
37.355345419
20
-3.909184553
10
37.520400947
20
-3.826341305
10
37.666858082
20
-3.713952301
10
37.789517057
20
-3.576073962
10
37.884042215
20
-3.417658796
10
37.947112341
20
-3.244375011
10
37.976534015
20
-3.062401807
10
37.978920178
20
-2.877891375
10
37.979314594
20
-2.693333063
10
37.979709010
20
-2.508769243
10
37.980103426
20
-2.324199918
10
37.980497841
20
-2.139625085
10
37.980892257
20
-1.955044746
10
37.981286673
20
-1.770458900
10
37.981681088
20
-1.585867548
10
37.982075504
20
-1.401270688
10
37.982469920
20
-1.216668323
10
37.982864336
20
-1.032060450
10
37.983258751
20
-0.847447071
10
37.983653167
20
-0.662828185
10
37.984047583
20
-0.478203792
10
37.984441998
20
-0.293573893
10
37.984836414
20
-0.108938487
10
37.985230830
20
0.075702426
10
37.985625246
20
0.260348845
10
37.986019661
20
0.445000771
10
37.986414077
20
0.629658204
10
37.986808493
20
0.814321143
10
37.987202908
20
0.998989589
10
37.987597324
20
1.183663542
10
37.987991740
20
1.368343001
10
37.988386156
20
1.553027967
10
37.988780571
20
1.737718440
10
37.989174987
20
1.922414420
10
37.989569403
20
2.107115906
10
37.989963818
20
2.291822898
10
37.990358234
20
2.476535398
10
37.990752650
20
2.661253404
10
37.991147066
20
2.845976917
10
37.991066070
20
3.030701029
10
37.968631759
20
3.213750649
10
37.912726874
20
3.389421497
10
37.825329931
20
3.551663749
10
37.709498387
20
3.694908392
10
37.569258585
20
3.814256628
10
37.409463066
20
3.905645108
10
37.235620409
20
3.965981505
10
37.053703633
20
3.993246021
10
36.869570724
20
3.995091223
10
36.685406185
20
3.995485638
10
36.501236138
20
3.995880054
10
36.317060586
20
3.996274470
10
36.132879526
20
3.996668886
10
35.948692960
20
3.997063301
10
35.764500887
20
3.997457717
10
35.580303307
20
3.997852133
10
35.396100221
20
3.998246548
10
35.211891627
20
3.998640964
10
35.027677528
20
3.999035380
10
34.843457921
20
3.999429796
10
34.659232808
20
3.999824211
10
34.475002188
20
4.000218627
10
34.290766062
20
4.000613043
10
34.106524429
20
4.001007458
10
33.922277289
20
4.001401874
10
33.738024643
20
4.001796290
10
33.553766489
20
4.002190706
10
33.369502830
20
4.002585121
10
33.185233663
20
4.002979537
10
33.000958990
20
4.003373953
10
32.816678810
20
4.003768368
10
32.632393123
20
4.004162784
10
32.448101930
20
4.004557200
10
32.263805230
20
4.004951616
10
32.079503023
20
4.005346031
10
31.895195310
20
4.005740447
10
31.710882090
20
4.006134863
10
31.526563363
20
4.006529278
10
31.342239130
20
4.006923694
10
31.157909390
20
4.007318110
10
30.973574143
20
4.007712526
10
30.789233390
20
4.008106941
10
30.604887130
20
4.008501357
10
30.420535363
20
4.008895773
10
30.236178090
20
4.009290188
10
30.051815310
20
4.009684604
10
29.867447023
20
4.010079020
10
29.683073229
20
4.010473436
10
29.498693929
20
4.010867851
10
29.314309122
20
4.011262267
10
29.129918809
20
4.011656683
10
28.945522989
20
4.012051098
10
28.761121662
20
4.012445514
10
28.576714828
20
4.012839930
10
28.392302488
20
4.013234346
10
28.207884641
20
4.013628761
10
28.023461287
20
4.014023177
10
27.839032427
20
4.014417593
10
27.654598060
20
4.014812008
10
27.470158186
20
4.015206424
10
27.285712806
20
4.015600840
10
27.101261919
20
4.015995256
10
26.916805525
20
4.016389671
10
26.732343625
20
4.016784087
10
26.547876218
20
4.017178503
10
26.363403304
20
4.017572918
10
26.178924884
20
4.017967334
10
25.994440957
20
4.018361750
10
25.809951523
20
4.018756166
10
25.625456582
20
4.019150581
10
25.440956135
20
4.019544997
10
25.256450181
20
4.019939413
10
25.071938721
20
4.020333828
10
24.887421754
20
4.020728244
0
LWPOLYLINE
100
AcDbEntity
8
COPPER_L4_BOTTOM
100
AcDbPolyline
90
220
70
0
38
0.000000000
10
24.887421754
20
4.020728244
10
24.702899280
20
4.021122660
10
24.518371299
20
4.021517076
10
24.333837812
20
4.021911491
10
24.149298818
20
4.022305907
10
23.964754317
20
4.022700323
10
23.780204310
20
4.023094738
10
23.595648796
20
4.023489154
10
23.411087776
20
4.023883570
10
23.226521248
20
4.024277986
10
23.041949214
20
4.024672401
10
22.857371674
20
4.025066817
10
22.672788626
20
4.025461233
10
22.488200072
20
4.025855648
10
22.303606011
20
4.026250064
10
22.119006444
20
4.026644480
10
21.934401370
20
4.027038896
10
21.749790789
20
4.027433311
10
21.565174702
20
4.027827727
10
21.380553108
20
4.028222143
10
21.195926007
20
4.028616558
10
21.011293399
20
4.029010974
10
20.826655285
20
4.029405390
10
20.642011664
20
4.029799806
10
20.457362537
20
4.030194221
10
20.272707902
20
4.030588637
10
20.088047762
20
4.030983053
10
19.903382114
20
4.031377468
10
19.718710960
20
4.031771884
10
19.534034299
20
4.032166300
10
19.349352131
20
4.032560716
10
19.164664457
20
4.032955131
10
18.979971276
20
4.033349547
10
18.795272588
20
4.033743963
10
18.610568394
20
4.034138379
10
18.425858693
20
4.034532794
10
18.241143485
20
4.034927210
10
18.056422771
20
4.035321626
10
17.871696550
20
4.035716041
10
17.686964822
20
4.036110457
10
17.502227587
20
4.036504873
10
17.317484846
20
4.036899289
10
17.132736598
20
4.037293704
10
16.947982844
20
4.037688120
10
16.763223583
20
4.038082536
10
16.578458815
20
4.038476951
10
16.393688540
20
4.038871367
10
16.208912759
20
4.039265783
10
16.024131471
20
4.039660199
10
15.839344677
20
4.040054614
10
15.654552375
20
4.040449030
10
15.469754568
20
4.040843446
10
15.284951253
20
4.041237861
10
15.100142432
20
4.041632277
10
14.915328104
20
4.042026693
10
14.730508269
20
4.042421109
10
14.545682928
20
4.042815524
10
14.360852080
20
4.043209940
10
14.176015725
20
4.043604356
10
13.991173864
20
4.043998771
10
13.806326495
20
4.044393187
10
13.621473621
20
4.044787603
10
13.436615239
20
4.045182019
10
13.251751351
20
4.045576434
10
13.066881956
20
4.045970850
10
12.882007055
20
4.046365266
10
12.697126647
20
4.046759681
10
12.512240732
20
4.047154097
10
12.327349310
20
4.047548513
10
12.142452382
20
4.047942929
10
11.957549947
20
4.048337344
10
11.772642006
20
4.048731760
10
11.587728558
20
4.049126176
10
11.402809603
20
4.049520591
10
11.217885141
20
4.049915007
10
11.032955173
20
4.050309423
10
10.848019698
20
4.050703839
10
10.663078716
20
4.051098254
10
10.478132228
20
4.051492670
10
10.293180233
20
4.051887086
10
10.108222731
20
4.052281501
10
9.923259723
20
4.052675917
10
9.738291208
20
4.053070333
10
9.553317186
20
4.053464749
10
9.368337658
20
4.053859164
10
9.183352623
20
4.054253580
10
8.998362081
20
4.054647996
10
8.813366032
20
4.055042411
10
8.628364477
20
4.055436827
10
8.443357415
20
4.055831243
10
8.258344847
20
4.056225659
10
8.073326772
20
4.056620074
10
7.888303190
20
4.057014490
10
7.703274101
20
4.057408906
10
7.518239506
20
4.057803321
10
7.333199404
20
4.058197737
10
7.148153796
20
4.058592153
10
6.963102680
20
4.058986569
10
6.778046058
20
4.059380984
10
6.592983930
20
4.059775400
10
6.407916294
20
4.060169816
10
6.222843152
20
4.060564231
10
6.037764504
20
4.060958647
10
5.852680348
20
4.061353063
10
5.667590686
20
4.061747479
10
5.482495518
20
4.062141894
10
5.297394842
20
4.062536310
10
5.112288660
20
4.062930726
10
4.927176971
20
4.063325141
10
4.742059776
20
4.063719557
10
4.556937074
20
4.064113973
10
4.371808865
20
4.064508389
10
4.186675150
20
4.064902804
10
4.001535927
20
4.065297220
10
3.816391199
20
4.065691636
10
3.631240963
20
4.066086051
10
3.446085221
20
4.066480467
10
3.260923972
20
4.066874883
10
3.075757216
20
4.067269299
10
2.890584954
20
4.067663714
10
2.705407185
20
4.068058130
10
2.520223910
20
4.068452546
10
2.335035127
20
4.068846961
10
2.149840838
20
4.069241377
10
1.964641043
20
4.069635793
10
1.779435740
20
4.070030209
10
1.594224931
20
4.070424624
10
1.409008616
20
4.070819040
10
1.223786793
20
4.071213456
10
1.038559464
20
4.071607871
10
0.853326628
20
4.072002287
10
0.668088286
20
4.072396703
10
0.482844437
20
4.072791119
10
0.297595081
20
4.073185534
10
0.112340219
20
4.073579950
10
-0.072920151
20
4.073974366
10
-0.258186026
20
4.074368781
10
-0.443457409
20
4.074763197
10
-0.628734298
20
4.075157613
10
-0.814016694
20
4.075552029
10
-0.999304597
20
4.075946444
10
-1.184598006
20
4.076340860
10
-1.369896922
20
4.076735276
10
-1.555201344
20
4.077129691
10
-1.740511274
20
4.077524107
10
-1.925826710
20
4.077918523
10
-2.111147652
20
4.078312939
10
-2.296474102
20
4.078707354
10
-2.481806058
20
4.079101770
10
-2.667143520
20
4.079496186
10
-2.852486490
20
4.079890601
10
-3.037834966
20
4.080285017
10
-3.223188948
20
4.080679433
10
-3.408548438
20
4.081073849
10
-3.593913434
20
4.081468264
10
-3.779283937
20
4.081862680
10
-3.964659946
20
4.082257096
10
-4.150041462
20
4.082651511
10
-4.335428485
20
4.083045927
10
-4.520821015
20
4.083440343
10
-4.706219051
20
4.083834759
10
-4.891622594
20
4.084229174
10
-5.077031643
20
4.084623590
10
-5.262446199
20
4.085018006
10
-5.447866262
20
4.085412421
10
-5.633291832
20
4.085806837
10
-5.818722908
20
4.086201253
10
-6.004159491
20
4.086595669
10
-6.189601581
20
4.086990084
10
-6.375049177
20
4.087384500
10
-6.560502280
20
4.087778916
10
-6.745960890
20
4.088173331
10
-6.931425006
20
4.088567747
10
-7.116894629
20
4.088962163
10
-7.302369759
20
4.089356579
10
-7.487850395
20
4.089750994
10
-7.673336538
20
4.090145410
10
-7.858828188
20
4.090539826
10
-8.044325345
20
4.090934241
10
-8.229828008
20
4.091328657
10
-8.415336177
20
4.091723073
10
-8.600849854
20
4.092117489
10
-8.786369037
20
4.092511904
10
-8.971893727
20
4.092906320
10
-9.157423923
20
4.093300736
10
-9.342959627
20
4.093695151
10
-9.528500837
20
4.094089567
10
-9.714047553
20
4.094483983
10
-9.899599776
20
4.094878399
10
-10.085157506
20
4.095272814
10
-10.270720743
20
4.095667230
10
-10.456289486
20
4.096061646
10
-10.641863736
20
4.096456061
10
-10.827443493
20
4.096850477
10
-11.013028756
20
4.097244893
10
-11.198619526
20
4.097639309
10
-11.384215803
20
4.098033724
10
-11.569817586
20
4.098428140
10
-11.755424876
20
4.098822556
10
-11.941037673
20
4.099216971
10
-12.126655977
20
4.099611387
10
-12.312279787
20
4.100005803
10
-12.497909103
20
4.100400219
10
-12.683543927
20
4.100794634
10
-12.869184257
20
4.101189050
10
-13.054830094
20
4.101583466
10
-13.240481437
20
4.101977882
10
-13.426138288
20
4.102372297
10
-13.611800645
20
4.102766713
10
-13.797468508
20
4.103161129
10
-13.983141878
20
4.103555544
10
-14.168820755
20
4.103949960
10
-14.354505139
20
4.104344376
10
-14.540195029
20
4.104738792
10
-14.725890426
20
4.105133207
10
-14.911591330
20
4.105527623
10
-15.097297740
20
4.105922039
10
-15.283009657
20
4.106316454
10
-15.468727081
20
4.106710870
10
-15.654450011
20
4.107105286
0
LWPOLYLINE
100
AcDbEntity
8
COPPER_L4_BOTTOM
100
AcDbPolyline
90
220
70
0
38
0.000000000
10
-15.654450011
20
4.107105286
10
-15.840178448
20
4.107499702
10
-16.025912392
20
4.107894117
10
-16.211651842
20
4.108288533
10
-16.397396799
20
4.108682949
10
-16.583147263
20
4.109077364
10
-16.768903234
20
4.109471780
10
-16.954664711
20
4.109866196
10
-17.140431695
20
4.110260612
10
-17.326204185
20
4.110655027
10
-17.511982182
20
4.111049443
10
-17.697765686
20
4.111443859
10
-17.883554697
20
4.111838274
10
-18.069349214
20
4.112232690
10
-18.255149238
20
4.112627106
10
-18.440954768
20
4.113021522
10
-18.626765806
20
4.113415937
10
-18.812582350
20
4.113810353
10
-18.998404400
20
4.114204769
10
-19.184231958
20
4.114599184
10
-19.370065022
20
4.114993600
10
-19.555903592
20
4.115388016
10
-19.741747670
20
4.115782432
10
-19.927597254
20
4.116176847
10
-20.113452344
20
4.116571263
10
-20.299312942
20
4.116965679
10
-20.485179046
20
4.117360094
10
-20.671050657
20
4.117754510
10
-20.856927774
20
4.118148926
10
-21.042810398
20
4.118543342
10
-21.228698529
20
4.118937757
10
-21.414592166
20
4.119332173
10
-21.600491311
20
4.119726589
10
-21.786395961
20
4.120121004
10
-21.972306119
20
4.120515420
10
-22.158221783
20
4.120909836
10
-22.344142954
20
4.121304252
10
-22.530069632
20
4.121698667
10
-22.716001816
20
4.122093083
10
-22.901939507
20
4.122487499
10
-23.087882705
20
4.122881914
10
-23.273831409
20
4.123276330
10
-23.459785620
20
4.123670746
10
-23.645745337
20
4.124065162
10
-23.831710562
20
4.124459577
10
-24.017681293
20
4.124853993
10
-24.203657531
20
4.125248409
10
-24.389639275
20
4.125642824
10
-24.575626526
20
4.126037240
10
-24.761619284
20
4.126431656
10
-24.947617548
20
4.126826072
10
-25.133621319
20
4.127220487
10
-25.319630597
20
4.127614903
10
-25.505645382
20
4.128009319
10
-25.691665673
20
4.128403734
10
-25.877691470
20
4.128798150
10
-26.063722775
20
4.129192566
10
-26.249759586
20
4.129586982
10
-26.435801904
20
4.129981397
10
-26.621849729
20
4.130375813
10
-26.807903060
20
4.130770229
10
-26.993961898
20
4.131164644
10
-27.180026242
20
4.131559060
10
-27.366096094
20
4.131953476
10
-27.552171452
20
4.132347892
10
-27.738252316
20
4.132742307
10
-27.924338688
20
4.133136723
10
-28.110430566
20
4.133531139
10
-28.296527950
20
4.133925554
10
-28.482630842
20
4.134319970
10
-28.668739240
20
4.134714386
10
-28.854853144
20
4.135108802
10
-29.040972556
20
4.135503217
10
-29.227097474
20
4.135897633
10
-29.413227899
20
4.136292049
10
-29.599363830
20
4.136686464
10
-29.785505268
20
4.137080880
10
-29.971652213
20
4.137475296
10
-30.157804665
20
4.137869712
10
-30.343962623
20
4.138264127
10
-30.530126088
20
4.138658543
10
-30.716295059
20
4.139052959
10
-30.902469538
20
4.139447374
10
-31.088649522
20
4.139841790
10
-31.274835014
20
4.140236206
10
-31.461026012
20
4.140630622
10
-31.647222517
20
4.141025037
10
-31.833424529
20
4.141419453
10
-32.019632047
20
4.141813869
10
-32.205845072
20
4.142208284
10
-32.392063604
20
4.142602700
10
-32.578287642
20
4.142997116
10
-32.764517187
20
4.143391532
10
-32.950752239
20
4.143785947
10
-33.136992797
20
4.144180363
10
-33.323238862
20
4.144574779
10
-33.509490434
20
4.144969194
10
-33.695747513
20
4.145363610
10
-33.882010098
20
4.145758026
10
-34.068278190
20
4.146152442
10
-34.254551788
20
4.146546857
10
-34.440830893
20
4.146941273
10
-34.627115505
20
4.147335689
10
-34.813405624
20
4.147730104
10
-34.999701249
20
4.148124520
10
-35.186002381
20
4.148518936
10
-35.372309019
20
4.148913352
10
-35.558621165
20
4.149307767
10
-35.744938816
20
4.149702183
10
-35.931261975
20
4.150096599
10
-36.117590640
20
4.150491014
10
-36.303924812
20
4.150885430
10
-36.490264491
20
4.151279846
10
-36.676609676
20
4.151674262
10
-36.862960368
20
4.152068677
10
-37.049301517
20
4.151408069
10
-37.234040142
20
4.128851473
10
-37.412687777
20
4.076883838
10
-37.580603893
20
3.996894678
10
-37.733438775
20
3.890998108
10
-37.867245297
20
3.761975170
10
-37.978579670
20
3.613199157
10
-38.064588647
20
3.448545996
10
-38.123081004
20
3.272292099
10
-38.152581558
20
3.089002394
10
-38.156407250
20
2.903298839
10
-38.156801666
20
2.717501614
10
-38.157196082
20
2.531698882
10
-38.157590497
20
2.345890643
10
-38.157984913
20
2.160076897
10
-38.158379329
20
1.974257645
10
-38.158773744
20
1.788432886
10
-38.159168160
20
1.602602621
10
-38.159562576
20
1.416766849
10
-38.159956992
20
1.230925570
10
-38.160351407
20
1.045078784
10
-38.160745823
20
0.859226492
10
-38.161140239
20
0.673368693
10
-38.161534654
20
0.487505387
10
-38.161929070
20
0.301636575
10
-38.162323486
20
0.115762256
10
-38.162717902
20
-0.070117570
10
-38.163112317
20
-0.256002902
10
-38.163506733
20
-0.441893741
10
-38.163901149
20
-0.627790087
10
-38.164295564
20
-0.813691939
10
-38.164689980
20
-0.999599298
10
-38.165084396
20
-1.185512164
10
-38.165478812
20
-1.371430536
10
-38.165873227
20
-1.557354415
10
-38.166267643
20
-1.743283801
10
-38.166662059
20
-1.929218694
10
-38.167056475
20
-2.115159093
10
-38.167450890
20
-2.301104999
10
-38.167845306
20
-2.487056411
10
-38.168239722
20
-2.673013330
10
-38.168634137
20
-2.858975756
10
-38.168164722
20
-3.044932618
10
-38.146698221
20
-3.229419420
10
-38.096314189
20
-3.408127323
10
-38.018317724
20
-3.576562808
10
-37.914705167
20
-3.730502135
10
-37.788111317
20
-3.866096433
10
-37.641740873
20
-3.979966840
10
-37.479285965
20
-4.069287384
10
-37.304831881
20
-4.131853599
10
-37.122753467
20
-4.166135259
10
-36.937575343
20
-4.172972710
10
-36.752166384
20
-4.173367126
10
-36.566751918
20
-4.173761542
10
-36.381331945
20
-4.174155957
10
-36.195906466
20
-4.174550373
10
-36.010475480
20
-4.174944789
10
-35.825038987
20
-4.175339205
10
-35.639596988
20
-4.175733620
10
-35.454149481
20
-4.176128036
10
-35.268696469
20
-4.176522452
10
-35.083237949
20
-4.176916867
10
-34.897773923
20
-4.177311283
10
-34.712304390
20
-4.177705699
10
-34.526829351
20
-4.178100115
10
-34.341348805
20
-4.178494530
10
-34.155862752
20
-4.178888946
10
-33.970371192
20
-4.179283362
10
-33.784874126
20
-4.179677777
10
-33.599371553
20
-4.180072193
10
-33.413863474
20
-4.180466609
10
-33.228349888
20
-4.180861025
10
-33.042830795
20
-4.181255440
10
-32.857306195
20
-4.181649856
10
-32.671776089
20
-4.182044272
10
-32.486240476
20
-4.182438687
10
-32.300699356
20
-4.182833103
10
-32.115152730
20
-4.183227519
10
-31.929600597
20
-4.183621935
10
-31.744042957
20
-4.184016350
10
-31.558479811
20
-4.184410766
10
-31.372911158
20
-4.184805182
10
-31.187336998
20
-4.185199597
10
-31.001757332
20
-4.185594013
10
-30.816172159
20
-4.185988429
10
-30.630581479
20
-4.186382845
10
-30.444985292
20
-4.186777260
10
-30.259383599
20
-4.187171676
10
-30.073776399
20
-4.187566092
10
-29.888163693
20
-4.187960507
10
-29.702545480
20
-4.188354923
10
-29.516921760
20
-4.188749339
10
-29.331292533
20
-4.189143755
10
-29.145657800
20
-4.189538170
10
-28.960017560
20
-4.189932586
10
-28.774371814
20
-4.190327002
10
-28.588720560
20
-4.190721417
10
-28.403063800
20
-4.191115833
10
-28.217401534
20
-4.191510249
10
-28.031733760
20
-4.191904665
10
-27.846060480
20
-4.192299080
10
-27.660381694
20
-4.192693496
10
-27.474697400
20
-4.193087912
10
-27.289007600
20
-4.193482327
0
LWPOLYLINE
100
AcDbEntity
8
COPPER_L4_BOTTOM
100
AcDbPolyline
90
220
70
0
38
0.000000000
10
-27.289007600
20
-4.193482327
10
-27.103312294
20
-4.193876743
10
-26.917611480
20
-4.194271159
10
-26.731905160
20
-4.194665575
10
-26.546193333
20
-4.195059990
10
-26.360476000
20
-4.195454406
10
-26.174753160
20
-4.195848822
10
-25.989024813
20
-4.196243237
10
-25.803290960
20
-4.196637653
10
-25.617551599
20
-4.197032069
10
-25.431806733
20
-4.197426485
10
-25.246056359
20
-4.197820900
10
-25.060300479
20
-4.198215316
10
-24.874539092
20
-4.198609732
10
-24.688772198
20
-4.199004147
10
-24.502999798
20
-4.199398563
10
-24.317221891
20
-4.199792979
10
-24.131438478
20
-4.200187395
10
-23.945649557
20
-4.200581810
10
-23.759855130
20
-4.200976226
10
-23.574055197
20
-4.201370642
10
-23.388249756
20
-4.201765057
10
-23.202438809
20
-4.202159473
10
-23.016622356
20
-4.202553889
10
-22.830800395
20
-4.202948305
10
-22.644972928
20
-4.203342720
10
-22.459139954
20
-4.203737136
10
-22.273301474
20
-4.204131552
10
-22.087457487
20
-4.204525967
10
-21.901607993
20
-4.204920383
10
-21.715752993
20
-4.205314799
10
-21.529892485
20
-4.205709215
10
-21.344026472
20
-4.206103630
10
-21.158154951
20
-4.206498046
10
-20.972277924
20
-4.206892462
10
-20.786395390
20
-4.207286877
10
-20.600507349
20
-4.207681293
10
-20.414613802
20
-4.208075709
10
-20.228714748
20
-4.208470125
10
-20.042810188
20
-4.208864540
10
-19.856900120
20
-4.209258956
10
-19.670984546
20
-4.209653372
10
-19.485063466
20
-4.210047787
10
-19.299136879
20
-4.210442203
10
-19.113204784
20
-4.210836619
10
-18.927267184
20
-4.211231035
10
-18.741324076
20
-4.211625450
10
-18.555375462
20
-4.212019866
10
-18.369421342
20
-4.212414282
10
-18.183461714
20
-4.212808697
10
-17.997496580
20
-4.213203113
10
-17.811525939
20
-4.213597529
10
-17.625549792
20
-4.213991945
10
-17.439568138
20
-4.214386360
10
-17.253580977
20
-4.214780776
10
-17.067588309
20
-4.215175192
10
-16.881590135
20
-4.215569607
10
-16.695586454
20
-4.215964023
10
-16.509577267
20
-4.216358439
10
-16.323562573
20
-4.216752855
10
-16.137542372
20
-4.217147270
10
-15.951516664
20
-4.217541686
10
-15.765485450
20
-4.217936102
10
-15.579448729
20
-4.218330517
10
-15.393406501
20
-4.218724933
10
-15.207358767
20
-4.219119349
10
-15.021305526
20
-4.219513765
10
-14.835246778
20
-4.219908180
10
-14.649182524
20
-4.220302596
10
-14.463112763
20
-4.220697012
10
-14.277037495
20
-4.221091427
10
-14.090956721
20
-4.221485843
10
-13.904870440
20
-4.221880259
10
-13.718778652
20
-4.222274675
10
-13.532681358
20
-4.222669090
10
-13.346578556
20
-4.223063506
10
-13.160470249
20
-4.223457922
10
-12.974356434
20
-4.223852337
10
-12.788237113
20
-4.224246753
10
-12.602112285
20
-4.224641169
10
-12.415981951
20
-4.225035585
10
-12.229846109
20
-4.225430000
10
-12.043704762
20
-4.225824416
10
-11.857557907
20
-4.226218832
10
-11.671405546
20
-4.226613247
10
-11.485247678
20
-4.227007663
10
-11.299084303
20
-4.227402079
10
-11.112915422
20
-4.227796495
10
-10.926741034
20
-4.228190910
10
-10.740561139
20
-4.228585326
10
-10.554375738
20
-4.228979742
10
-10.368184830
20
-4.229374157
10
-10.181988415
20
-4.229768573
10
-9.995786494
20
-4.230162989
10
-9.809579066
20
-4.230557405
10
-9.623366131
20
-4.230951820
10
-9.437147690
20
-4.231346236
10
-9.250923741
20
-4.231740652
10
-9.064694287
20
-4.232135067
10
-8.878459325
20
-4.232529483
10
-8.692218857
20
-4.232923899
10
-8.505972882
20
-4.233318315
10
-8.319721401
20
-4.233712730
10
-8.133464413
20
-4.234107146
10
-7.947201918
20
-4.234501562
10
-7.760933916
20
-4.234895978
10
-7.574660408
20
-4.235290393
10
-7.388381393
20
-4.235684809
10
-7.202096871
20
-4.236079225
10
-7.015806843
20
-4.236473640
10
-6.829511308
20
-4.236868056
10
-6.643210266
20
-4.237262472
10
-6.456903718
20
-4.237656888
10
-6.270591663
20
-4.238051303
10
-6.084274101
20
-4.238445719
10
-5.897951033
20
-4.238840135
10
-5.711622458
20
-4.239234550
10
-5.525288376
20
-4.239628966
10
-5.338948788
20
-4.240023382
10
-5.152603693
20
-4.240417798
10
-4.966253091
20
-4.240812213
10
-4.779896983
20
-4.241206629
10
-4.593535367
20
-4.241601045
10
-4.407168246
20
-4.241995460
10
-4.220795617
20
-4.242389876
10
-4.034417482
20
-4.242784292
10
-3.848033840
20
-4.243178708
10
-3.661644691
20
-4.243573123
10
-3.475250036
20
-4.243967539
10
-3.288849874
20
-4.244361955
10
-3.102444206
20
-4.244756370
10
-2.916033030
20
-4.245150786
10
-2.729616349
20
-4.245545202
10
-2.543194160
20
-4.245939618
10
-2.356766465
20
-4.246334033
10
-2.170333263
20
-4.246728449
10
-1.983894554
20
-4.247122865
10
-1.797450339
20
-4.247517280
10
-1.611000617
20
-4.247911696
10
-1.424545388
20
-4.248306112
10
-1.238084652
20
-4.248700528
10
-1.051618410
20
-4.249094943
10
-0.865146662
20
-4.249489359
10
-0.678669406
20
-4.249883775
10
-0.492186644
20
-4.250278190
10
-0.305698375
20
-4.250672606
10
-0.119204600
20
-4.251067022
10
0.067294682
20
-4.251461438
10
0.253799471
20
-4.251855853
10
0.440309767
20
-4.252250269
10
0.626825569
20
-4.252644685
10
0.813346878
20
-4.253039100
10
0.999873693
20
-4.253433516
10
1.186406016
20
-4.253827932
10
1.372943845
20
-4.254222348
10
1.559487180
20
-4.254616763
10
1.746036023
20
-4.255011179
10
1.932590372
20
-4.255405595
10
2.119150227
20
-4.255800010
10
2.305715590
20
-4.256194426
10
2.492286459
20
-4.256588842
10
2.678862834
20
-4.256983258
10
2.865444717
20
-4.257377673
10
3.052032106
20
-4.257772089
10
3.238625001
20
-4.258166505
10
3.425223404
20
-4.258560920
10
3.611827313
20
-4.258955336
10
3.798436729
20
-4.259349752
10
3.985051651
20
-4.259744168
10
4.171672080
20
-4.260138583
10
4.358298016
20
-4.260532999
10
4.544929459
20
-4.260927415
10
4.731566408
20
-4.261321830
10
4.918208864
20
-4.261716246
10
5.104856826
20
-4.262110662
10
5.291510296
20
-4.262505078
10
5.478169272
20
-4.262899493
10
5.664833754
20
-4.263293909
10
5.851503743
20
-4.263688325
10
6.038179239
20
-4.264082740
10
6.224860242
20
-4.264477156
10
6.411546751
20
-4.264871572
10
6.598238767
20
-4.265265988
10
6.784936290
20
-4.265660403
10
6.971639319
20
-4.266054819
10
7.158347855
20
-4.266449235
10
7.345061898
20
-4.266843650
10
7.531781448
20
-4.267238066
10
7.718506504
20
-4.267632482
10
7.905237067
20
-4.268026898
10
8.091973136
20
-4.268421313
10
8.278714712
20
-4.268815729
10
8.465461795
20
-4.269210145
10
8.652214384
20
-4.269604560
10
8.838972481
20
-4.269998976
10
9.025736083
20
-4.270393392
10
9.212505193
20
-4.270787808
10
9.399279809
20
-4.271182223
10
9.586059932
20
-4.271576639
10
9.772845562
20
-4.271971055
10
9.959636698
20
-4.272365470
10
10.146433341
20
-4.272759886
10
10.333235491
20
-4.273154302
10
10.520043147
20
-4.273548718
10
10.706856310
20
-4.273943133
10
10.893674980
20
-4.274337549
10
11.080499156
20
-4.274731965
10
11.267328839
20
-4.275126380
10
11.454164029
20
-4.275520796
10
11.641004725
20
-4.275915212
10
11.827850928
20
-4.276309628
10
12.014702638
20
-4.276704043
10
12.201559854
20
-4.277098459
10
12.388422577
20
-4.277492875
10
12.575290807
20
-4.277887290
10
12.762164544
20
-4.278281706
10
12.949043787
20
-4.278676122
10
13.135928537
20
-4.279070538
10
13.322818793
20
-4.279464953
10
13.509714557
20
-4.279859369
0
LWPOLYLINE
100
AcDbEntity
8
COPPER_L4_BOTTOM
100
AcDbPolyline
90
220
70
0
38
0.000000000
10
13.509714557
20
-4.279859369
10
13.696615826
20
-4.280253785
10
13.883522603
20
-4.280648200
10
14.070434886
20
-4.281042616
10
14.257352676
20
-4.281437032
10
14.444275973
20
-4.281831448
10
14.631204776
20
-4.282225863
10
14.818139086
20
-4.282620279
10
15.005078903
20
-4.283014695
10
15.192024226
20
-4.283409110
10
15.378975056
20
-4.283803526
10
15.565931393
20
-4.284197942
10
15.752893236
20
-4.284592358
10
15.939860586
20
-4.284986773
10
16.126833443
20
-4.285381189
10
16.313811806
20
-4.285775605
10
16.500795677
20
-4.286170020
10
16.687785053
20
-4.286564436
10
16.874779937
20
-4.286958852
10
17.061780327
20
-4.287353268
10
17.248786224
20
-4.287747683
10
17.435797627
20
-4.288142099
10
17.622814537
20
-4.288536515
10
17.809836954
20
-4.288930930
10
17.996864878
20
-4.289325346
10
18.183898308
20
-4.289719762
10
18.370937245
20
-4.290114178
10
18.557981689
20
-4.290508593
10
18.745031639
20
-4.290903009
10
18.932087096
20
-4.291297425
10
19.119148060
20
-4.291691840
10
19.306214530
20
-4.292086256
10
19.493286507
20
-4.292480672
10
19.680363991
20
-4.292875088
10
19.867446981
20
-4.293269503
10
20.054535478
20
-4.293663919
10
20.241629482
20
-4.294058335
10
20.428728992
20
-4.294452750
10
20.615834009
20
-4.294847166
10
20.802944533
20
-4.295241582
10
20.990060564
20
-4.295635998
10
21.177182101
20
-4.296030413
10
21.364309144
20
-4.296424829
10
21.551441695
20
-4.296819245
10
21.738579752
20
-4.297213660
10
21.925723316
20
-4.297608076
10
22.112872387
20
-4.298002492
10
22.300026964
20
-4.298396908
10
22.487187048
20
-4.298791323
10
22.674352638
20
-4.299185739
10
22.861523736
20
-4.299580155
10
23.048700339
20
-4.299974570
10
23.235882450
20
-4.300368986
10
23.423070067
20
-4.300763402
10
23.610263191
20
-4.301157818
10
23.797461822
20
-4.301552233
10
23.984665959
20
-4.301946649
10
24.171875604
20
-4.302341065
10
24.359090754
20
-4.302735481
10
24.546311412
20
-4.303129896
10
24.733537576
20
-4.303524312
10
24.920769246
20
-4.303918728
10
25.108006424
20
-4.304313143
10
25.295249108
20
-4.304707559
10
25.482497299
20
-4.305101975
10
25.669750996
20
-4.305496391
10
25.857010200
20
-4.305890806
10
26.044274911
20
-4.306285222
10
26.231545129
20
-4.306679638
10
26.418820853
20
-4.307074053
10
26.606102084
20
-4.307468469
10
26.793388822
20
-4.307862885
10
26.980681066
20
-4.308257301
10
27.167978817
20
-4.308651716
10
27.355282074
20
-4.309046132
10
27.542590839
20
-4.309440548
10
27.729905110
20
-4.309834963
10
27.917224887
20
-4.310229379
10
28.104550172
20
-4.310623795
10
28.291880963
20
-4.311018211
10
28.479217260
20
-4.311412626
10
28.666559065
20
-4.311807042
10
28.853906376
20
-4.312201458
10
29.041259194
20
-4.312595873
10
29.228617518
20
-4.312990289
10
29.415981349
20
-4.313384705
10
29.603350687
20
-4.313779121
10
29.790725531
20
-4.314173536
10
29.978105883
20
-4.314567952
10
30.165491740
20
-4.314962368
10
30.352883105
20
-4.315356783
10
30.540279976
20
-4.315751199
10
30.727682354
20
-4.316145615
10
30.915090239
20
-4.316540031
10
31.102503630
20
-4.316934446
10
31.289922528
20
-4.317328862
10
31.477346932
20
-4.317723278
10
31.664776844
20
-4.318117693
10
31.852212262
20
-4.318512109
10
32.039653186
20
-4.318906525
10
32.227099618
20
-4.319300941
10
32.414551556
20
-4.319695356
10
32.602009000
20
-4.320089772
10
32.789471952
20
-4.320484188
10
32.976940410
20
-4.320878603
10
33.164414374
20
-4.321273019
10
33.351893846
20
-4.321667435
10
33.539378824
20
-4.322061851
10
33.726869309
20
-4.322456266
10
33.914365300
20
-4.322850682
10
34.101866798
20
-4.323245098
10
34.289373803
20
-4.323639513
10
34.476886315
20
-4.324033929
10
34.664404333
20
-4.324428345
10
34.851927858
20
-4.324822761
10
35.039456889
20
-4.325217176
10
35.226991427
20
-4.325611592
10
35.414531472
20
-4.326006008
10
35.602077024
20
-4.326400423
10
35.789628082
20
-4.326794839
10
35.977184647
20
-4.327189255
10
36.164746719
20
-4.327583671
10
36.352314297
20
-4.327978086
10
36.539887382
20
-4.328372502
10
36.727465974
20
-4.328766918
10
36.915050072
20
-4.329161333
10
37.102537759
20
-4.325595903
10
37.287936566
20
-4.298406706
10
37.467627104
20
-4.245448351
10
37.638053475
20
-4.167798801
10
37.795851108
20
-4.067022574
10
37.937912678
20
-3.945138172
10
38.061448650
20
-3.804576675
10
38.164041273
20
-3.648132391
10
38.243691010
20
-3.478906548
10
38.298854521
20
-3.300245203
10
38.328473503
20
-3.115672604
10
38.333894322
20
-2.928787528
10
38.334288738
20
-2.741751389
10
38.334683153
20
-2.554709744
10
38.335077569
20
-2.367662592
10
38.335471985
20
-2.180609934
10
38.335866401
20
-1.993551769
10
38.336260816
20
-1.806488097
10
38.336655232
20
-1.619418918
10
38.337049648
20
-1.432344233
10
38.337444063
20
-1.245264041
10
38.337838479
20
-1.058178343
10
38.338232895
20
-0.871087137
10
38.338627311
20
-0.683990425
10
38.339021726
20
-0.496888207
10
38.339416142
20
-0.309780481
10
38.339810558
20
-0.122667249
10
38.340204973
20
0.064451489
10
38.340599389
20
0.251575735
10
38.340993805
20
0.438705487
10
38.341388221
20
0.625840745
10
38.341782636
20
0.812981511
10
38.342177052
20
1.000127783
10
38.342571468
20
1.187279562
10
38.342965883
20
1.374436847
10
38.343360299
20
1.561599639
10
38.343754715
20
1.748767938
10
38.344149131
20
1.935941743
10
38.344543546
20
2.123121056
10
38.344937962
20
2.310305874
10
38.345332378
20
2.497496200
10
38.345726793
20
2.684692032
10
38.346121209
20
2.871893371
10
38.345218843
20
3.059081243
10
38.324450860
20
3.244941987
10
38.278154334
20
3.426087781
10
38.207248096
20
3.599036129
10
38.113122275
20
3.760469797
10
37.997610032
20
3.907300011
10
37.862950926
20
4.036724974
10
37.711746639
20
4.146282639
10
37.546909973
20
4.233896736
10
37.371608105
20
4.297915217
10
37.189201241
20
4.337140424
10
37.003177850
20
4.350850460
10
36.816524474
20
4.351248613
10
36.629865588
20
4.351643029
10
36.443201196
20
4.352037445
10
36.256531297
20
4.352431861
10
36.069855891
20
4.352826276
10
35.883174979
20
4.353220692
10
35.696488560
20
4.353615108
10
35.509796634
20
4.354009523
10
35.323099202
20
4.354403939
10
35.136396262
20
4.354798355
10
34.949687817
20
4.355192771
10
34.762973864
20
4.355587186
10
34.576254405
20
4.355981602
10
34.389529439
20
4.356376018
10
34.202798967
20
4.356770433
10
34.016062987
20
4.357164849
10
33.829321502
20
4.357559265
10
33.642574509
20
4.357953681
10
33.455822010
20
4.358348096
10
33.269064004
20
4.358742512
10
33.082300491
20
4.359136928
10
32.895531472
20
4.359531343
10
32.708756946
20
4.359925759
10
32.521976913
20
4.360320175
10
32.335191374
20
4.360714591
10
32.148400328
20
4.361109006
10
31.961603775
20
4.361503422
10
31.774801716
20
4.361897838
10
31.587994150
20
4.362292253
10
31.401181077
20
4.362686669
10
31.214362498
20
4.363081085
10
31.027538411
20
4.363475501
10
30.840708819
20
4.363869916
10
30.653873719
20
4.364264332
10
30.467033113
20
4.364658748
10
30.280187000
20
4.365053163
10
30.093335381
20
4.365447579
10
29.906478254
20
4.365841995
10
29.719615622
20
4.366236411
0
LWPOLYLINE
100
AcDbEntity
8
COPPER_L4_BOTTOM
100
AcDbPolyline
90
220
70
0
38
0.000000000
10
29.719615622
20
4.366236411
10
29.532747482
20
4.366630826
10
29.345873836
20
4.367025242
10
29.158994683
20
4.367419658
10
28.972110023
20
4.367814074
10
28.785219857
20
4.368208489
10
28.598324184
20
4.368602905
10
28.411423004
20
4.368997321
10
28.224516318
20
4.369391736
10
28.037604125
20
4.369786152
10
27.850686425
20
4.370180568
10
27.663763219
20
4.370574984
10
27.476834506
20
4.370969399
10
27.289900286
20
4.371363815
10
27.102960560
20
4.371758231
10
26.916015327
20
4.372152646
10
26.729064587
20
4.372547062
10
26.542108341
20
4.372941478
10
26.355146587
20
4.373335894
10
26.168179328
20
4.373730309
10
25.981206561
20
4.374124725
10
25.794228288
20
4.374519141
10
25.607244508
20
4.374913556
10
25.420255222
20
4.375307972
10
25.233260428
20
4.375702388
10
25.046260128
20
4.376096804
10
24.859254322
20
4.376491219
10
24.672243009
20
4.376885635
10
24.485226189
20
4.377280051
10
24.298203862
20
4.377674466
10
24.111176029
20
4.378068882
10
23.924142689
20
4.378463298
10
23.737103842
20
4.378857714
10
23.550059489
20
4.379252129
10
23.363009629
20
4.379646545
10
23.175954262
20
4.380040961
10
22.988893388
20
4.380435376
10
22.801827008
20
4.380829792
10
22.614755122
20
4.381224208
10
22.427677728
20
4.381618624
10
22.240594828
20
4.382013039
10
22.053506421
20
4.382407455
10
21.866412508
20
4.382801871
10
21.679313088
20
4.383196286
10
21.492208161
20
4.383590702
10
21.305097727
20
4.383985118
10
21.117981787
20
4.384379534
10
20.930860340
20
4.384773949
10
20.743733387
20
4.385168365
10
20.556600926
20
4.385562781
10
20.369462959
20
4.385957196
10
20.182319486
20
4.386351612
10
19.995170505
20
4.386746028
10
19.808016019
20
4.387140444
10
19.620856025
20
4.387534859
10
19.433690525
20
4.387929275
10
19.246519518
20
4.388323691
10
19.059343004
20
4.388718106
10
18.872160983
20
4.389112522
10
18.684973456
20
4.389506938
10
18.497780423
20
4.389901354
10
18.310581882
20
4.390295769
10
18.123377835
20
4.390690185
10
17.936168281
20
4.391084601
10
17.748953221
20
4.391479016
10
17.561732654
20
4.391873432
10
17.374506580
20
4.392267848
10
17.187274999
20
4.392662264
10
17.000037912
20
4.393056679
10
16.812795318
20
4.393451095
10
16.625547218
20
4.393845511
10
16.438293610
20
4.394239926
10
16.251034497
20
4.394634342
10
16.063769876
20
4.395028758
10
15.876499749
20
4.395423174
10
15.689224115
20
4.395817589
10
15.501942974
20
4.396212005
10
15.314656327
20
4.396606421
10
15.127364173
20
4.397000836
10
14.940066512
20
4.397395252
10
14.752763345
20
4.397789668
10
14.565454671
20
4.398184084
10
14.378140490
20
4.398578499
10
14.190820802
20
4.398972915
10
14.003495608
20
4.399367331
10
13.816164908
20
4.399761746
10
13.628828700
20
4.400156162
10
13.441486986
20
4.400550578
10
13.254139765
20
4.400944994
10
13.066787038
20
4.401339409
10
12.879428804
20
4.401733825
10
12.692065063
20
4.402128241
10
12.504695815
20
4.402522656
10
12.317321061
20
4.402917072
10
12.129940800
20
4.403311488
10
11.942555032
20
4.403705904
10
11.755163758
20
4.404100319
10
11.567766977
20
4.404494735
10
11.380364690
20
4.404889151
10
11.192956895
20
4.405283566
10
11.005543594
20
4.405677982
10
10.818124787
20
4.406072398
10
10.630700472
20
4.406466814
10
10.443270651
20
4.406861229
10
10.255835323
20
4.407255645
10
10.068394489
20
4.407650061
10
9.880948148
20
4.408044476
10
9.693496300
20
4.408438892
10
9.506038946
20
4.408833308
10
9.318576085
20
4.409227724
10
9.131107717
20
4.409622139
10
8.943633842
20
4.410016555
10
8.756154461
20
4.410410971
10
8.568669573
20
4.410805386
10
8.381179179
20
4.411199802
10
8.193683278
20
4.411594218
10
8.006181870
20
4.411988634
10
7.818674955
20
4.412383049
10
7.631162534
20
4.412777465
10
7.443644606
20
4.413171881
10
7.256121171
20
4.413566296
10
7.068592230
20
4.413960712
10
6.881057782
20
4.414355128
10
6.693517827
20
4.414749544
10
6.505972366
20
4.415143959
10
6.318421398
20
4.415538375
10
6.130864923
20
4.415932791
10
5.943302942
20
4.416327206
10
5.755735454
20
4.416721622
10
5.568162459
20
4.417116038
10
5.380583958
20
4.417510454
10
5.192999950
20
4.417904869
10
5.005410435
20
4.418299285
10
4.817815413
20
4.418693701
10
4.630214885
20
4.419088116
10
4.442608850
20
4.419482532
10
4.254997309
20
4.419876948
10
4.067380261
20
4.420271364
10
3.879757706
20
4.420665779
10
3.692129644
20
4.421060195
10
3.504496076
20
4.421454611
10
3.316857001
20
4.421849026
10
3.129212420
20
4.422243442
10
2.941562331
20
4.422637858
10
2.753906736
20
4.423032274
10
2.566245635
20
4.423426689
10
2.378579026
20
4.423821105
10
2.190906911
20
4.424215521
10
2.003229290
20
4.424609936
10
1.815546161
20
4.425004352
10
1.627857526
20
4.425398768
10
1.440163384
20
4.425793184
10
1.252463736
20
4.426187599
10
1.064758581
20
4.426582015
10
0.877047919
20
4.426976431
10
0.689331751
20
4.427370846
10
0.501610076
20
4.427765262
10
0.313882894
20
4.428159678
10
0.126150205
20
4.428554094
10
-0.061587990
20
4.428948509
10
-0.249331692
20
4.429342925
10
-0.437080900
20
4.429737341
10
-0.624835616
20
4.430131756
10
-0.812595837
20
4.430526172
10
-1.000361566
20
4.430920588
10
-1.188132801
20
4.431315004
10
-1.375909543
20
4.431709419
10
-1.563691792
20
4.432103835
10
-1.751479547
20
4.432498251
10
-1.939272809
20
4.432892666
10
-2.127071578
20
4.433287082
10
-2.314875853
20
4.433681498
10
-2.502685635
20
4.434075914
10
-2.690500924
20
4.434470329
10
-2.878321719
20
4.434864745
10
-3.066148021
20
4.435259161
10
-3.253979830
20
4.435653577
10
-3.441817146
20
4.436047992
10
-3.629659968
20
4.436442408
10
-3.817508297
20
4.436836824
10
-4.005362132
20
4.437231239
10
-4.193221474
20
4.437625655
10
-4.381086323
20
4.438020071
10
-4.568956679
20
4.438414487
10
-4.756832541
20
4.438808902
10
-4.944713910
20
4.439203318
10
-5.132600785
20
4.439597734
10
-5.320493168
20
4.439992149
10
-5.508391056
20
4.440386565
10
-5.696294452
20
4.440780981
10
-5.884203354
20
4.441175397
10
-6.072117763
20
4.441569812
10
-6.260037679
20
4.441964228
10
-6.447963101
20
4.442358644
10
-6.635894030
20
4.442753059
10
-6.823830466
20
4.443147475
10
-7.011772408
20
4.443541891
10
-7.199719858
20
4.443936307
10
-7.387672813
20
4.444330722
10
-7.575631276
20
4.444725138
10
-7.763595245
20
4.445119554
10
-7.951564721
20
4.445513969
10
-8.139539703
20
4.445908385
10
-8.327520192
20
4.446302801
10
-8.515506188
20
4.446697217
10
-8.703497691
20
4.447091632
10
-8.891494700
20
4.447486048
10
-9.079497216
20
4.447880464
10
-9.267505238
20
4.448274879
10
-9.455518767
20
4.448669295
10
-9.643537803
20
4.449063711
10
-9.831562346
20
4.449458127
10
-10.019592395
20
4.449852542
10
-10.207627951
20
4.450246958
10
-10.395669014
20
4.450641374
10
-10.583715583
20
4.451035789
10
-10.771767659
20
4.451430205
10
-10.959825242
20
4.451824621
10
-11.147888331
20
4.452219037
10
-11.335956927
20
4.452613452
0
LWPOLYLINE
100
AcDbEntity
8
COPPER_L4_BOTTOM
100
AcDbPolyline
90
220
70
0
38
0.000000000
10
-11.335956927
20
4.452613452
10
-11.524031030
20
4.453007868
10
-11.712110639
20
4.453402284
10
-11.900195756
20
4.453796699
10
-12.088286378
20
4.454191115
10
-12.276382508
20
4.454585531
10
-12.464484144
20
4.454979947
10
-12.652591287
20
4.455374362
10
-12.840703936
20
4.455768778
10
-13.028822092
20
4.456163194
10
-13.216945755
20
4.456557609
10
-13.405074925
20
4.456952025
10
-13.593209601
20
4.457346441
10
-13.781349784
20
4.457740857
10
-13.969495474
20
4.458135272
10
-14.157646670
20
4.458529688
10
-14.345803373
20
4.458924104
10
-14.533965582
20
4.459318519
10
-14.722133299
20
4.459712935
10
-14.910306522
20
4.460107351
10
-15.098485251
20
4.460501767
10
-15.286669488
20
4.460896182
10
-15.474859231
20
4.461290598
10
-15.663054481
20
4.461685014
10
-15.851255237
20
4.462079429
10
-16.039461500
20
4.462473845
10
-16.227673270
20
4.462868261
10
-16.415890546
20
4.463262677
10
-16.604113329
20
4.463657092
10
-16.792341619
20
4.464051508
10
-16.980575416
20
4.464445924
10
-17.168814719
20
4.464840339
10
-17.357059529
20
4.465234755
10
-17.545309845
20
4.465629171
10
-17.733565668
20
4.466023587
10
-17.921826998
20
4.466418002
10
-18.110093835
20
4.466812418
10
-18.298366178
20
4.467206834
10
-18.486644028
20
4.467601249
10
-18.674927385
20
4.467995665
10
-18.863216248
20
4.468390081
10
-19.051510618
20
4.468784497
10
-19.239810495
20
4.469178912
10
-19.428115878
20
4.469573328
10
-19.616426768
20
4.469967744
10
-19.804743165
20
4.470362159
10
-19.993065068
20
4.470756575
10
-20.181392478
20
4.471150991
10
-20.369725395
20
4.471545407
10
-20.558063818
20
4.471939822
10
-20.746407748
20
4.472334238
10
-20.934757185
20
4.472728654
10
-21.123112129
20
4.473123069
10
-21.311472579
20
4.473517485
10
-21.499838536
20
4.473911901
10
-21.688209999
20
4.474306317
10
-21.876586969
20
4.474700732
10
-22.064969446
20
4.475095148
10
-22.253357430
20
4.475489564
10
-22.441750920
20
4.475883979
10
-22.630149917
20
4.476278395
10
-22.818554421
20
4.476672811
10
-23.006964431
20
4.477067227
10
-23.195379948
20
4.477461642
10
-23.383800971
20
4.477856058
10
-23.572227502
20
4.478250474
10
-23.760659539
20
4.478644889
10
-23.949097082
20
4.479039305
10
-24.137540133
20
4.479433721
10
-24.325988690
20
4.479828137
10
-24.514442754
20
4.480222552
10
-24.702902324
20
4.480616968
10
-24.891367401
20
4.481011384
10
-25.079837985
20
4.481405799
10
-25.268314075
20
4.481800215
10
-25.456795673
20
4.482194631
10
-25.645282776
20
4.482589047
10
-25.833775387
20
4.482983462
10
-26.022273504
20
4.483377878
10
-26.210777128
20
4.483772294
10
-26.399286258
20
4.484166709
10
-26.587800896
20
4.484561125
10
-26.776321040
20
4.484955541
10
-26.964846690
20
4.485349957
10
-27.153377847
20
4.485744372
10
-27.341914511
20
4.486138788
10
-27.530456682
20
4.486533204
10
-27.719004359
20
4.486927619
10
-27.907557543
20
4.487322035
10
-28.096116234
20
4.487716451
10
-28.284680431
20
4.488110867
10
-28.473250135
20
4.488505282
10
-28.661825346
20
4.488899698
10
-28.850406064
20
4.489294114
10
-29.038992288
20
4.489688529
10
-29.227584018
20
4.490082945
10
-29.416181256
20
4.490477361
10
-29.604784000
20
4.490871777
10
-29.793392251
20
4.491266192
10
-29.982006008
20
4.491660608
10
-30.170625272
20
4.492055024
10
-30.359250043
20
4.492449439
10
-30.547880321
20
4.492843855
10
-30.736516105
20
4.493238271
10
-30.925157396
20
4.493632687
10
-31.113804193
20
4.494027102
10
-31.302456498
20
4.494421518
10
-31.491114309
20
4.494815934
10
-31.679777626
20
4.495210349
10
-31.868446451
20
4.495604765
10
-32.057120782
20
4.495999181
10
-32.245800619
20
4.496393597
10
-32.434485964
20
4.496788012
10
-32.623176815
20
4.497182428
10
-32.811873172
20
4.497576844
10
-33.000575037
20
4.497971259
10
-33.189282408
20
4.498365675
10
-33.377995285
20
4.498760091
10
-33.566713670
20
4.499154507
10
-33.755437561
20
4.499548922
10
-33.944166959
20
4.499943338
10
-34.132901863
20
4.500337754
10
-34.321642274
20
4.500732170
10
-34.510388192
20
4.501126585
10
-34.699139617
20
4.501521001
10
-34.887896548
20
4.501915417
10
-35.076658986
20
4.502309832
10
-35.265426930
20
4.502704248
10
-35.454200382
20
4.503098664
10
-35.642979340
20
4.503493080
10
-35.831763804
20
4.503887495
10
-36.020553775
20
4.504281911
10
-36.209349253
20
4.504676327
10
-36.398150238
20
4.505070742
10
-36.586956729
20
4.505465158
10
-36.775768727
20
4.505859574
10
-36.964586232
20
4.506253990
10
-37.153144299
20
4.498844969
10
-37.339303753
20
4.468349763
10
-37.520154004
20
4.414852231
10
-37.692869948
20
4.339211532
10
-37.854759134
20
4.242631360
10
-38.003303439
20
4.126640126
10
-38.136197853
20
3.993066164
10
-38.251385788
20
3.844008347
10
-38.347090385
20
3.681802612
10
-38.421841340
20
3.508984918
10
-38.474496866
20
3.328251248
10
-38.504260462
20
3.142415277
10
-38.511381394
20
2.954357441
10
-38.511775810
20
2.766082389
10
-38.512170225
20
2.577801831
10
-38.512564641
20
2.389515766
10
-38.512959057
20
2.201224195
10
-38.513353472
20
2.012927117
10
-38.513747888
20
1.824624532
10
-38.514142304
20
1.636316440
10
-38.514536720
20
1.448002842
10
-38.514931135
20
1.259683737
10
-38.515325551
20
1.071359125
10
-38.515719967
20
0.883029007
10
-38.516114382
20
0.694693382
10
-38.516508798
20
0.506352250
10
-38.516903214
20
0.318005612
10
-38.517297630
20
0.129653467
10
-38.517692045
20
-0.058704185
10
-38.518086461
20
-0.247067343
10
-38.518480877
20
-0.435436008
10
-38.518875292
20
-0.623810180
10
-38.519269708
20
-0.812189858
10
-38.519664124
20
-1.000575043
10
-38.520058540
20
-1.188965735
10
-38.520452955
20
-1.377361933
10
-38.520847371
20
-1.565763639
10
-38.521241787
20
-1.754170850
10
-38.521636202
20
-1.942583569
10
-38.522030618
20
-2.131001794
10
-38.522425034
20
-2.319425526
10
-38.522819450
20
-2.507854765
10
-38.523213865
20
-2.696289510
10
-38.523608281
20
-2.884729762
10
-38.522246260
20
-3.073147406
10
-38.502001136
20
-3.260344279
10
-38.458845262
20
-3.443576044
10
-38.393457856
20
-3.620054325
10
-38.306855289
20
-3.787098906
10
-38.200374645
20
-3.942178181
10
-38.075652485
20
-4.082947201
10
-37.934599129
20
-4.207282725
10
-37.779368903
20
-4.313314790
10
-37.612326788
20
-4.399454306
10
-37.436012017
20
-4.464416303
10
-37.253099174
20
-4.507238483
10
-37.066357399
20
-4.527294828
10
-36.878480456
20
-4.529130101
10
-36.690577151
20
-4.529524517
10
-36.502668339
20
-4.529918932
10
-36.314754020
20
-4.530313348
10
-36.126834194
20
-4.530707764
10
-35.938908862
20
-4.531102180
10
-35.750978024
20
-4.531496595
10
-35.563041678
20
-4.531891011
10
-35.375099826
20
-4.532285427
10
-35.187152467
20
-4.532679842
10
-34.999199602
20
-4.533074258
10
-34.811241229
20
-4.533468674
10
-34.623277351
20
-4.533863090
10
-34.435307965
20
-4.534257505
10
-34.247333073
20
-4.534651921
10
-34.059352674
20
-4.535046337
10
-33.871366768
20
-4.535440752
10
-33.683375356
20
-4.535835168
10
-33.495378437
20
-4.536229584
10
-33.307376012
20
-4.536624000
10
-33.119368079
20
-4.537018415
10
-32.931354640
20
-4.537412831
10
-32.743335695
20
-4.537807247
10
-32.555311242
20
-4.538201662
10
-32.367281283
20
-4.538596078
10
-32.179245817
20
-4.538990494
0
LWPOLYLINE
100
AcDbEntity
8
COPPER_L4_BOTTOM
100
AcDbPolyline
90
220
70
0
38
0.000000000
10
-32.179245817
20
-4.538990494
10
-31.991204845
20
-4.539384910
10
-31.803158366
20
-4.539779325
10
-31.615106380
20
-4.540173741
10
-31.427048888
20
-4.540568157
10
-31.238985889
20
-4.540962572
10
-31.050917383
20
-4.541356988
10
-30.862843370
20
-4.541751404
10
-30.674763851
20
-4.542145820
10
-30.486678825
20
-4.542540235
10
-30.298588293
20
-4.542934651
10
-30.110492254
20
-4.543329067
10
-29.922390708
20
-4.543723482
10
-29.734283655
20
-4.544117898
10
-29.546171096
20
-4.544512314
10
-29.358053030
20
-4.544906730
10
-29.169929457
20
-4.545301145
10
-28.981800378
20
-4.545695561
10
-28.793665792
20
-4.546089977
10
-28.605525699
20
-4.546484392
10
-28.417380100
20
-4.546878808
10
-28.229228994
20
-4.547273224
10
-28.041072381
20
-4.547667640
10
-27.852910262
20
-4.548062055
10
-27.664742636
20
-4.548456471
10
-27.476569503
20
-4.548850887
10
-27.288390864
20
-4.549245302
10
-27.100206718
20
-4.549639718
10
-26.912017065
20
-4.550034134
10
-26.723821905
20
-4.550428550
10
-26.535621239
20
-4.550822965
10
-26.347415066
20
-4.551217381
10
-26.159203387
20
-4.551611797
10
-25.970986201
20
-4.552006212
10
-25.782763508
20
-4.552400628
10
-25.594535308
20
-4.552795044
10
-25.406301602
20
-4.553189460
10
-25.218062389
20
-4.553583875
10
-25.029817670
20
-4.553978291
10
-24.841567443
20
-4.554372707
10
-24.653311710
20
-4.554767122
10
-24.465050471
20
-4.555161538
10
-24.276783724
20
-4.555555954
10
-24.088511471
20
-4.555950370
10
-23.900233712
20
-4.556344785
10
-23.711950445
20
-4.556739201
10
-23.523661672
20
-4.557133617
10
-23.335367392
20
-4.557528032
10
-23.147067606
20
-4.557922448
10
-22.958762313
20
-4.558316864
10
-22.770451513
20
-4.558711280
10
-22.582135207
20
-4.559105695
10
-22.393813394
20
-4.559500111
10
-22.205486074
20
-4.559894527
10
-22.017153247
20
-4.560288942
10
-21.828814914
20
-4.560683358
10
-21.640471074
20
-4.561077774
10
-21.452121728
20
-4.561472190
10
-21.263766875
20
-4.561866605
10
-21.075406515
20
-4.562261021
10
-20.887040648
20
-4.562655437
10
-20.698669275
20
-4.563049852
10
-20.510292395
20
-4.563444268
10
-20.321910008
20
-4.563838684
10
-20.133522115
20
-4.564233100
10
-19.945128715
20
-4.564627515
10
-19.756729808
20
-4.565021931
10
-19.568325395
20
-4.565416347
10
-19.379915475
20
-4.565810762
10
-19.191500048
20
-4.566205178
10
-19.003079115
20
-4.566599594
10
-18.814652675
20
-4.566994010
10
-18.626220728
20
-4.567388425
10
-18.437783274
20
-4.567782841
10
-18.249340314
20
-4.568177257
10
-18.060891847
20
-4.568571673
10
-17.872437874
20
-4.568966088
10
-17.683978394
20
-4.569360504
10
-17.495513407
20
-4.569754920
10
-17.307042913
20
-4.570149335
10
-17.118566913
20
-4.570543751
10
-16.930085406
20
-4.570938167
10
-16.741598393
20
-4.571332583
10
-16.553105873
20
-4.571726998
10
-16.364607846
20
-4.572121414
10
-16.176104312
20
-4.572515830
10
-15.987595272
20
-4.572910245
10
-15.799080725
20
-4.573304661
10
-15.610560671
20
-4.573699077
10
-15.422035111
20
-4.574093493
10
-15.233504044
20
-4.574487908
10
-15.044967470
20
-4.574882324
10
-14.856425390
20
-4.575276740
10
-14.667877803
20
-4.575671155
10
-14.479324709
20
-4.576065571
10
-14.290766108
20
-4.576459987
10
-14.102202001
20
-4.576854403
10
-13.913632387
20
-4.577248818
10
-13.725057267
20
-4.577643234
10
-13.536476640
20
-4.578037650
10
-13.347890506
20
-4.578432065
10
-13.159298866
20
-4.578826481
10
-12.970701718
20
-4.579220897
10
-12.782099064
20
-4.579615313
10
-12.593490904
20
-4.580009728
10
-12.404877237
20
-4.580404144
10
-12.216258063
20
-4.580798560
10
-12.027633382
20
-4.581192975
10
-11.839003195
20
-4.581587391
10
-11.650367501
20
-4.581981807
10
-11.461726300
20
-4.582376223
10
-11.273079593
20
-4.582770638
10
-11.084427379
20
-4.583165054
10
-10.895769658
20
-4.583559470
10
-10.707106431
20
-4.583953885
10
-10.518437697
20
-4.584348301
10
-10.329763456
20
-4.584742717
10
-10.141083709
20
-4.585137133
10
-9.952398455
20
-4.585531548
10
-9.763707694
20
-4.585925964
10
-9.575011426
20
-4.586320380
10
-9.386309652
20
-4.586714795
10
-9.197602371
20
-4.587109211
10
-9.008889584
20
-4.587503627
10
-8.820171290
20
-4.587898043
10
-8.631447489
20
-4.588292458
10
-8.442718181
20
-4.588686874
10
-8.253983367
20
-4.589081290
10
-8.065243046
20
-4.589475705
10
-7.876497219
20
-4.589870121
10
-7.687745884
20
-4.590264537
10
-7.498989043
20
-4.590658953
10
-7.310226696
20
-4.591053368
10
-7.121458841
20
-4.591447784
10
-6.932685480
20
-4.591842200
10
-6.743906613
20
-4.592236615
10
-6.555122238
20
-4.592631031
10
-6.366332357
20
-4.593025447
10
-6.177536970
20
-4.593419863
10
-5.988736075
20
-4.593814278
10
-5.799929674
20
-4.594208694
10
-5.611117766
20
-4.594603110
10
-5.422300352
20
-4.594997525
10
-5.233477431
20
-4.595391941
10
-5.044649003
20
-4.595786357
10
-4.855815069
20
-4.596180773
10
-4.666975627
20
-4.596575188
10
-4.478130680
20
-4.596969604
10
-4.289280225
20
-4.597364020
10
-4.100424264
20
-4.597758435
10
-3.911562796
20
-4.598152851
10
-3.722695821
20
-4.598547267
10
-3.533823340
20
-4.598941683
10
-3.344945352
20
-4.599336098
10
-3.156061858
20
-4.599730514
10
-2.967172856
20
-4.600124930
10
-2.778278348
20
-4.600519345
10
-2.589378334
20
-4.600913761
10
-2.400472812
20
-4.601308177
10
-2.211561784
20
-4.601702593
10
-2.022645250
20
-4.602097008
10
-1.833723208
20
-4.602491424
10
-1.644795660
20
-4.602885840
10
-1.455862605
20
-4.603280255
10
-1.266924044
20
-4.603674671
10
-1.077979976
20
-4.604069087
10
-0.889030401
20
-4.604463503
10
-0.700075320
20
-4.604857918
10
-0.511114731
20
-4.605252334
10
-0.322148637
20
-4.605646750
10
-0.133177035
20
-4.606041165
10
0.055800073
20
-4.606435581
10
0.244782688
20
-4.606829997
10
0.433770810
20
-4.607224413
10
0.622764438
20
-4.607618828
10
0.811763573
20
-4.608013244
10
1.000768214
20
-4.608407660
10
1.189778363
20
-4.608802075
10
1.378794018
20
-4.609196491
10
1.567815179
20
-4.609590907
10
1.756841848
20
-4.609985323
10
1.945874023
20
-4.610379738
10
2.134911704
20
-4.610774154
10
2.323954893
20
-4.611168570
10
2.513003588
20
-4.611562985
10
2.702057789
20
-4.611957401
10
2.891117498
20
-4.612351817
10
3.080182713
20
-4.612746233
10
3.269253435
20
-4.613140648
10
3.458329663
20
-4.613535064
10
3.647411398
20
-4.613929480
10
3.836498640
20
-4.614323895
10
4.025591389
20
-4.614718311
10
4.214689644
20
-4.615112727
10
4.403793406
20
-4.615507143
10
4.592902674
20
-4.615901558
10
4.782017449
20
-4.616295974
10
4.971137731
20
-4.616690390
10
5.160263520
20
-4.617084805
10
5.349394815
20
-4.617479221
10
5.538531617
20
-4.617873637
10
5.727673926
20
-4.618268053
10
5.916821741
20
-4.618662468
10
6.105975063
20
-4.619056884
10
6.295133892
20
-4.619451300
10
6.484298227
20
-4.619845715
10
6.673468069
20
-4.620240131
10
6.862643418
20
-4.620634547
10
7.051824273
20
-4.621028963
10
7.241010635
20
-4.621423378
10
7.430202504
20
-4.621817794
10
7.619399880
20
-4.622212210
10
7.808602762
20
-4.622606625
10
7.997811150
20
-4.623001041
10
8.187025046
20
-4.623395457
10
8.376244448
20
-4.623789873
10
8.565469357
20
-4.624184288
10
8.754699772
20
-4.624578704
10
8.943935695
20
-4.624973120
10
9.133177124
20
-4.625367535
0
LWPOLYLINE
100
AcDbEntity
8
COPPER_L4_BOTTOM
100
AcDbPolyline
90
220
70
0
38
0.000000000
10
9.133177124
20
-4.625367535
10
9.322424059
20
-4.625761951
10
9.511676501
20
-4.626156367
10
9.700934450
20
-4.626550783
10
9.890197906
20
-4.626945198
10
10.079466868
20
-4.627339614
10
10.268741337
20
-4.627734030
10
10.458021313
20
-4.628128445
10
10.647306795
20
-4.628522861
10
10.836597784
20
-4.628917277
10
11.025894280
20
-4.629311693
10
11.215196282
20
-4.629706108
10
11.404503791
20
-4.630100524
10
11.593816807
20
-4.630494940
10
11.783135330
20
-4.630889355
10
11.972459359
20
-4.631283771
10
12.161788894
20
-4.631678187
10
12.351123937
20
-4.632072603
10
12.540464486
20
-4.632467018
10
12.729810542
20
-4.632861434
10
12.919162104
20
-4.633255850
10
13.108519174
20
-4.633650266
10
13.297881750
20
-4.634044681
10
13.487249832
20
-4.634439097
10
13.676623421
20
-4.634833513
10
13.866002517
20
-4.635227928
10
14.055387120
20
-4.635622344
10
14.244777229
20
-4.636016760
10
14.434172845
20
-4.636411176
10
14.623573968
20
-4.636805591
10
14.812980597
20
-4.637200007
10
15.002392733
20
-4.637594423
10
15.191810376
20
-4.637988838
10
15.381233525
20
-4.638383254
10
15.570662181
20
-4.638777670
10
15.760096344
20
-4.639172086
10
15.949536013
20
-4.639566501
10
16.138981189
20
-4.639960917
10
16.328431872
20
-4.640355333
10
16.517888062
20
-4.640749748
10
16.707349758
20
-4.641144164
10
16.896816961
20
-4.641538580
10
17.086289670
20
-4.641932996
10
17.275767886
20
-4.642327411
10
17.465251609
20
-4.642721827
10
17.654740839
20
-4.643116243
10
17.844235575
20
-4.643510658
10
18.033735818
20
-4.643905074
10
18.223241567
20
-4.644299490
10
18.412752824
20
-4.644693906
10
18.602269587
20
-4.645088321
10
18.791791856
20
-4.645482737
10
18.981319633
20
-4.645877153
10
19.170852916
20
-4.646271568
10
19.360391705
20
-4.646665984
10
19.549936002
20
-4.647060400
10
19.739485805
20
-4.647454816
10
19.929041114
20
-4.647849231
10
20.118601931
20
-4.648243647
10
20.308168254
20
-4.648638063
10
20.497740084
20
-4.649032478
10
20.687317420
20
-4.649426894
10
20.876900263
20
-4.649821310
10
21.066488613
20
-4.650215726
10
21.256082469
20
-4.650610141
10
21.445681833
20
-4.651004557
10
21.635286703
20
-4.651398973
10
21.824897079
20
-4.651793388
10
22.014512962
20
-4.652187804
10
22.204134352
20
-4.652582220
10
22.393761249
20
-4.652976636
10
22.583393652
20
-4.653371051
10
22.773031562
20
-4.653765467
10
22.962674979
20
-4.654159883
10
23.152323902
20
-4.654554298
10
23.341978332
20
-4.654948714
10
23.531638268
20
-4.655343130
10
23.721303712
20
-4.655737546
10
23.910974662
20
-4.656131961
10
24.100651119
20
-4.656526377
10
24.290333082
20
-4.656920793
10
24.480020552
20
-4.657315208
10
24.669713529
20
-4.657709624
10
24.859412012
20
-4.658104040
10
25.049116002
20
-4.658498456
10
25.238825499
20
-4.658892871
10
25.428540503
20
-4.659287287
10
25.618261013
20
-4.659681703
10
25.807987030
20
-4.660076118
10
25.997718553
20
-4.660470534
10
26.187455583
20
-4.660864950
10
26.377198120
20
-4.661259366
10
26.566946164
20
-4.661653781
10
26.756699714
20
-4.662048197
10
26.946458771
20
-4.662442613
10
27.136223334
20
-4.662837028
10
27.325993405
20
-4.663231444
10
27.515768982
20
-4.663625860
10
27.705550065
20
-4.664020276
10
27.895336656
20
-4.664414691
10
28.085128753
20
-4.664809107
10
28.274926356
20
-4.665203523
10
28.464729467
20
-4.665597938
10
28.654538084
20
-4.665992354
10
28.844352208
20
-4.666386770
10
29.034171838
20
-4.666781186
10
29.223996975
20
-4.667175601
10
29.413827619
20
-4.667570017
10
29.603663769
20
-4.667964433
10
29.793505426
20
-4.668358848
10
29.983352590
20
-4.668753264
10
30.173205261
20
-4.669147680
10
30.363063438
20
-4.669542096
10
30.552927122
20
-4.669936511
10
30.742796312
20
-4.670330927
10
30.932671010
20
-4.670725343
10
31.122551213
20
-4.671119758
10
31.312436924
20
-4.671514174
10
31.502328141
20
-4.671908590
10
31.692224865
20
-4.672303006
10
31.882127096
20
-4.672697421
10
32.072034833
20
-4.673091837
10
32.261948077
20
-4.673486253
10
32.451866828
20
-4.673880668
10
32.641791085
20
-4.674275084
10
32.831720849
20
-4.674669500
10
33.021656120
20
-4.675063916
10
33.211596897
20
-4.675458331
10
33.401543181
20
-4.675852747
10
33.591494972
20
-4.676247163
10
33.781452270
20
-4.676641578
10
33.971415074
20
-4.677035994
10
34.161383385
20
-4.677430410
10
34.351357202
20
-4.677824826
10
34.541336526
20
-4.678219241
10
34.731321357
20
-4.678613657
10
34.921311695
20
-4.679008073
10
35.111307539
20
-4.679402488
10
35.301308890
20
-4.679796904
10
35.491315747
20
-4.680191320
10
35.681328112
20
-4.680585736
10
35.871345983
20
-4.680980151
10
36.061369360
20
-4.681374567
10
36.251398244
20
-4.681768983
10
36.441432635
20
-4.682163398
10
36.631472533
20
-4.682557814
10
36.821517937
20
-4.682952230
10
37.011568757
20
-4.683306892
10
37.201143738
20
-4.671683331
10
37.388165606
20
-4.638792167
10
37.570259314
20
-4.585069486
10
37.745116498
20
-4.511215183
10
37.910524596
20
-4.418183402
10
38.064394652
20
-4.307169773
10
38.204787456
20
-4.179595640
10
38.329937704
20
-4.037089487
10
38.438275863
20
-3.881465803
10
38.528447501
20
-3.714701678
10
38.599329821
20
-3.538911420
10
38.650045224
20
-3.356319535
10
38.679971729
20
-3.169232405
10
38.688868466
20
-2.980008578
10
38.689262881
20
-2.790494613
10
38.689657297
20
-2.600975142
10
38.690051713
20
-2.411450164
10
38.690446128
20
-2.221919680
10
38.690840544
20
-2.032383689
10
38.691234960
20
-1.842842191
10
38.691629376
20
-1.653295186
10
38.692023791
20
-1.463742675
10
38.692418207
20
-1.274184657
10
38.692812623
20
-1.084621132
10
38.693207038
20
-0.895052101
10
38.693601454
20
-0.705477563
10
38.693995870
20
-0.515897518
10
38.694390286
20
-0.326311967
10
38.694784701
20
-0.136720909
10
38.695179117
20
0.052875656
10
38.695573533
20
0.242477727
10
38.695967948
20
0.432085305
10
38.696362364
20
0.621698390
10
38.696756780
20
0.811316981
10
38.697151196
20
1.000941079
10
38.697545611
20
1.190570684
10
38.697940027
20
1.380205796
10
38.698334443
20
1.569846414
10
38.698728858
20
1.759492539
10
38.699123274
20
1.949144170
10
38.699517690
20
2.138801308
10
38.699912106
20
2.328463953
10
38.700306521
20
2.518132105
10
38.700700937
20
2.707805763
10
38.701095353
20
2.897484928
10
38.699257349
20
3.087131473
10
38.679414253
20
3.275640244
10
38.638741762
20
3.460736226
10
38.577761303
20
3.640128636
10
38.497244854
20
3.811601208
10
38.398204754
20
3.973039429
10
38.281880565
20
4.122456405
10
38.149723186
20
4.258017078
10
38.003376407
20
4.378060479
10
37.844656141
20
4.481119757
10
37.675527625
20
4.565939751
10
37.498080838
20
4.631491897
10
37.314504491
20
4.676986292
10
37.127058875
20
4.701880788
10
36.938034330
20
4.707011589
10
36.748886605
20
4.707406004
10
36.559733373
20
4.707800420
10
36.370574634
20
4.708194836
10
36.181410389
20
4.708589251
10
35.992240637
20
4.708983667
10
35.803065379
20
4.709378083
10
35.613884614
20
4.709772499
10
35.424698342
20
4.710166914
10
35.235506564
20
4.710561330
10
35.046309278
20
4.710955746
10
34.857106486
20
4.711350161
10
34.667898188
20
4.711744577
0
LWPOLYLINE
100
AcDbEntity
8
COPPER_L4_BOTTOM
100
AcDbPolyline
90
220
70
0
38
0.000000000
10
34.667898188
20
4.711744577
10
34.478684383
20
4.712138993
10
34.289465071
20
4.712533409
10
34.100240252
20
4.712927824
10
33.911009927
20
4.713322240
10
33.721774095
20
4.713716656
10
33.532532756
20
4.714111071
10
33.343285911
20
4.714505487
10
33.154033559
20
4.714899903
10
32.964775700
20
4.715294319
10
32.775512335
20
4.715688734
10
32.586243463
20
4.716083150
10
32.396969084
20
4.716477566
10
32.207689199
20
4.716871981
10
32.018403807
20
4.717266397
10
31.829112908
20
4.717660813
10
31.639816502
20
4.718055229
10
31.450514590
20
4.718449644
10
31.261207171
20
4.718844060
10
31.071894246
20
4.719238476
10
30.882575814
20
4.719632891
10
30.693251875
20
4.720027307
10
30.503922429
20
4.720421723
10
30.314587477
20
4.720816139
10
30.125247018
20
4.721210554
10
29.935901053
20
4.721604970
10
29.746549580
20
4.721999386
10
29.557192601
20
4.722393801
10
29.367830116
20
4.722788217
10
29.178462123
20
4.723182633
10
28.989088624
20
4.723577049
10
28.799709619
20
4.723971464
10
28.610325106
20
4.724365880
10
28.420935087
20
4.724760296
10
28.231539562
20
4.725154711
10
28.042138529
20
4.725549127
10
27.852731990
20
4.725943543
10
27.663319944
20
4.726337959
10
27.473902392
20
4.726732374
10
27.284479333
20
4.727126790
10
27.095050767
20
4.727521206
10
26.905616695
20
4.727915621
10
26.716177115
20
4.728310037
10
26.526732030
20
4.728704453
10
26.337281437
20
4.729098869
10
26.147825338
20
4.729493284
10
25.958363732
20
4.729887700
10
25.768896619
20
4.730282116
10
25.579424000
20
4.730676531
10
25.389945874
20
4.731070947
10
25.200462242
20
4.731465363
10
25.010973102
20
4.731859779
10
24.821478456
20
4.732254194
10
24.631978304
20
4.732648610
10
24.442472644
20
4.733043026
10
24.252961478
20
4.733437441
10
24.063444806
20
4.733831857
10
23.873922626
20
4.734226273
10
23.684394940
20
4.734620689
10
23.494861747
20
4.735015104
10
23.305323048
20
4.735409520
10
23.115778842
20
4.735803936
10
22.926229129
20
4.736198351
10
22.736673910
20
4.736592767
10
22.547113183
20
4.736987183
10
22.357546951
20
4.737381599
10
22.167975211
20
4.737776014
10
21.978397965
20
4.738170430
10
21.788815212
20
4.738564846
10
21.599226953
20
4.738959261
10
21.409633186
20
4.739353677
10
21.220033913
20
4.739748093
10
21.030429134
20
4.740142509
10
20.840818847
20
4.740536924
10
20.651203055
20
4.740931340
10
20.461581755
20
4.741325756
10
20.271954949
20
4.741720171
10
20.082322636
20
4.742114587
10
19.892684816
20
4.742509003
10
19.703041489
20
4.742903419
10
19.513392656
20
4.743297834
10
19.323738317
20
4.743692250
10
19.134078470
20
4.744086666
10
18.944413117
20
4.744481081
10
18.754742257
20
4.744875497
10
18.565065891
20
4.745269913
10
18.375384018
20
4.745664329
10
18.185696638
20
4.746058744
10
17.996003752
20
4.746453160
10
17.806305358
20
4.746847576
10
17.616601458
20
4.747241991
10
17.426892052
20
4.747636407
10
17.237177139
20
4.748030823
10
17.047456719
20
4.748425239
10
16.857730792
20
4.748819654
10
16.667999359
20
4.749214070
10
16.478262419
20
4.749608486
10
16.288519972
20
4.750002901
10
16.098772019
20
4.750397317
10
15.909018559
20
4.750791733
10
15.719259592
20
4.751186149
10
15.529495119
20
4.751580564
10
15.339725139
20
4.751974980
10
15.149949652
20
4.752369396
10
14.960168659
20
4.752763811
10
14.770382159
20
4.753158227
10
14.580590152
20
4.753552643
10
14.390792639
20
4.753947059
10
14.200989618
20
4.754341474
10
14.011181092
20
4.754735890
10
13.821367058
20
4.755130306
10
13.631547518
20
4.755524721
10
13.441722471
20
4.755919137
10
13.251891918
20
4.756313553
10
13.062055857
20
4.756707969
10
12.872214291
20
4.757102384
10
12.682367217
20
4.757496800
10
12.492514637
20
4.757891216
10
12.302656550
20
4.758285631
10
12.112792956
20
4.758680047
10
11.922923856
20
4.759074463
10
11.733049249
20
4.759468879
10
11.543169135
20
4.759863294
10
11.353283515
20
4.760257710
10
11.163392388
20
4.760652126
10
10.973495754
20
4.761046541
10
10.783593614
20
4.761440957
10
10.593685967
20
4.761835373
10
10.403772813
20
4.762229789
10
10.213854153
20
4.762624204
10
10.023929985
20
4.763018620
10
9.834000312
20
4.763413036
10
9.644065131
20
4.763807451
10
9.454124444
20
4.764201867
10
9.264178250
20
4.764596283
10
9.074226550
20
4.764990699
10
8.884269343
20
4.765385114
10
8.694306629
20
4.765779530
10
8.504338408
20
4.766173946
10
8.314364681
20
4.766568361
10
8.124385447
20
4.766962777
10
7.934400706
20
4.767357193
10
7.744410459
20
4.767751609
10
7.554414705
20
4.768146024
10
7.364413444
20
4.768540440
10
7.174406677
20
4.768934856
10
6.984394403
20
4.769329272
10
6.794376622
20
4.769723687
10
6.604353335
20
4.770118103
10
6.414324541
20
4.770512519
10
6.224290240
20
4.770906934
10
6.034250433
20
4.771301350
10
5.844205119
20
4.771695766
10
5.654154298
20
4.772090182
10
5.464097971
20
4.772484597
10
5.274036136
20
4.772879013
10
5.083968796
20
4.773273429
10
4.893895948
20
4.773667844
10
4.703817594
20
4.774062260
10
4.513733733
20
4.774456676
10
4.323644365
20
4.774851092
10
4.133549491
20
4.775245507
10
3.943449110
20
4.775639923
10
3.753343223
20
4.776034339
10
3.563231828
20
4.776428754
10
3.373114928
20
4.776823170
10
3.182992520
20
4.777217586
10
2.992864606
20
4.777612002
10
2.802731185
20
4.778006417
10
2.612592257
20
4.778400833
10
2.422447823
20
4.778795249
10
2.232297882
20
4.779189664
10
2.042142434
20
4.779584080
10
1.851981479
20
4.779978496
10
1.661815018
20
4.780372912
10
1.471643051
20
4.780767327
10
1.281465576
20
4.781161743
10
1.091282595
20
4.781556159
10
0.901094107
20
4.781950574
10
0.710900113
20
4.782344990
10
0.520700612
20
4.782739406
10
0.330495604
20
4.783133822
10
0.140285089
20
4.783528237
10
-0.049930932
20
4.783922653
10
-0.240152460
20
4.784317069
10
-0.430379494
20
4.784711484
10
-0.620612036
20
4.785105900
10
-0.810850084
20
4.785500316
10
-1.001093638
20
4.785894732
10
-1.191342700
20
4.786289147
10
-1.381597268
20
4.786683563
10
-1.571857342
20
4.787077979
10
-1.762122924
20
4.787472394
10
-1.952394012
20
4.787866810
10
-2.142670606
20
4.788261226
10
-2.332952708
20
4.788655642
10
-2.523240316
20
4.789050057
10
-2.713533430
20
4.789444473
10
-2.903832052
20
4.789838889
10
-3.094136180
20
4.790233304
10
-3.284445815
20
4.790627720
10
-3.474760956
20
4.791022136
10
-3.665081604
20
4.791416552
10
-3.855407759
20
4.791810967
10
-4.045739421
20
4.792205383
10
-4.236076589
20
4.792599799
10
-4.426419264
20
4.792994214
10
-4.616767445
20
4.793388630
10
-4.807121134
20
4.793783046
10
-4.997480329
20
4.794177462
10
-5.187845030
20
4.794571877
10
-5.378215238
20
4.794966293
10
-5.568590953
20
4.795360709
10
-5.758972175
20
4.795755124
10
-5.949358903
20
4.796149540
10
-6.139751138
20
4.796543956
10
-6.330148880
20
4.796938372
10
-6.520552128
20
4.797332787
10
-6.710960884
20
4.797727203
10
-6.901375145
20
4.798121619
0
LWPOLYLINE
100
AcDbEntity
8
COPPER_L4_BOTTOM
100
AcDbPolyline
90
220
70
0
38
0.000000000
10
-6.901375145
20
4.798121619
10
-7.091794914
20
4.798516034
10
-7.282220189
20
4.798910450
10
-7.472650971
20
4.799304866
10
-7.663087259
20
4.799699282
10
-7.853529054
20
4.800093697
10
-8.043976356
20
4.800488113
10
-8.234429164
20
4.800882529
10
-8.424887480
20
4.801276944
10
-8.615351301
20
4.801671360
10
-8.805820630
20
4.802065776
10
-8.996295465
20
4.802460192
10
-9.186775807
20
4.802854607
10
-9.377261656
20
4.803249023
10
-9.567753011
20
4.803643439
10
-9.758249873
20
4.804037854
10
-9.948752242
20
4.804432270
10
-10.139260117
20
4.804826686
10
-10.329773499
20
4.805221102
10
-10.520292388
20
4.805615517
10
-10.710816783
20
4.806009933
10
-10.901346685
20
4.806404349
10
-11.091882094
20
4.806798764
10
-11.282423009
20
4.807193180
10
-11.472969431
20
4.807587596
10
-11.663521360
20
4.807982012
10
-11.854078795
20
4.808376427
10
-12.044641738
20
4.808770843
10
-12.235210186
20
4.809165259
10
-12.425784142
20
4.809559674
10
-12.616363604
20
4.809954090
10
-12.806948573
20
4.810348506
10
-12.997539048
20
4.810742922
10
-13.188135031
20
4.811137337
10
-13.378736519
20
4.811531753
10
-13.569343515
20
4.811926169
10
-13.759956017
20
4.812320584
10
-13.950574026
20
4.812715000
10
-14.141197542
20
4.813109416
10
-14.331826564
20
4.813503832
10
-14.522461093
20
4.813898247
10
-14.713101129
20
4.814292663
10
-14.903746671
20
4.814687079
10
-15.094397720
20
4.815081494
10
-15.285054276
20
4.815475910
10
-15.475716338
20
4.815870326
10
-15.666383907
20
4.816264742
10
-15.857056983
20
4.816659157
10
-16.047735565
20
4.817053573
10
-16.238419655
20
4.817447989
10
-16.429109250
20
4.817842404
10
-16.619804353
20
4.818236820
10
-16.810504962
20
4.818631236
10
-17.001211078
20
4.819025652
10
-17.191922700
20
4.819420067
10
-17.382639830
20
4.819814483
10
-17.573362465
20
4.820208899
10
-17.764090608
20
4.820603314
10
-17.954824257
20
4.820997730
10
-18.145563413
20
4.821392146
10
-18.336308076
20
4.821786562
10
-18.527058245
20
4.822180977
10
-18.717813921
20
4.822575393
10
-18.908575104
20
4.822969809
10
-19.099341793
20
4.823364224
10
-19.290113989
20
4.823758640
10
-19.480891692
20
4.824153056
10
-19.671674901
20
4.824547472
10
-19.862463617
20
4.824941887
10
-20.053257840
20
4.825336303
10
-20.244057569
20
4.825730719
10
-20.434862805
20
4.826125134
10
-20.625673548
20
4.826519550
10
-20.816489798
20
4.826913966
10
-21.007311554
20
4.827308382
10
-21.198138817
20
4.827702797
10
-21.388971586
20
4.828097213
10
-21.579809862
20
4.828491629
10
-21.770653645
20
4.828886044
10
-21.961502935
20
4.829280460
10
-22.152357731
20
4.829674876
10
-22.343218034
20
4.830069292
10
-22.534083843
20
4.830463707
10
-22.724955160
20
4.830858123
10
-22.915831983
20
4.831252539
10
-23.106714312
20
4.831646954
10
-23.297602149
20
4.832041370
10
-23.488495492
20
4.832435786
10
-23.679394341
20
4.832830202
10
-23.870298698
20
4.833224617
10
-24.061208561
20
4.833619033
10
-24.252123930
20
4.834013449
10
-24.443044807
20
4.834407865
10
-24.633971190
20
4.834802280
10
-24.824903080
20
4.835196696
10
-25.015840476
20
4.835591112
10
-25.206783379
20
4.835985527
10
-25.397731789
20
4.836379943
10
-25.588685705
20
4.836774359
10
-25.779645129
20
4.837168775
10
-25.970610058
20
4.837563190
10
-26.161580495
20
4.837957606
10
-26.352556438
20
4.838352022
10
-26.543537888
20
4.838746437
10
-26.734524845
20
4.839140853
10
-26.925517308
20
4.839535269
10
-27.116515278
20
4.839929685
10
-27.307518754
20
4.840324100
10
-27.498527738
20
4.840718516
10
-27.689542228
20
4.841112932
10
-27.880562224
20
4.841507347
10
-28.071587728
20
4.841901763
10
-28.262618738
20
4.842296179
10
-28.453655254
20
4.842690595
10
-28.644697278
20
4.843085010
10
-28.835744808
20
4.843479426
10
-29.026797845
20
4.843873842
10
-29.217856388
20
4.844268257
10
-29.408920438
20
4.844662673
10
-29.599989995
20
4.845057089
10
-29.791065058
20
4.845451505
10
-29.982145629
20
4.845845920
10
-30.173231705
20
4.846240336
10
-30.364323289
20
4.846634752
10
-30.555420379
20
4.847029167
10
-30.746522976
20
4.847423583
10
-30.937631080
20
4.847817999
10
-31.128744690
20
4.848212415
10
-31.319863807
20
4.848606830
10
-31.510988430
20
4.849001246
10
-31.702118561
20
4.849395662
10
-31.893254198
20
4.849790077
10
-32.084395341
20
4.850184493
10
-32.275541992
20
4.850578909
10
-32.466694149
20
4.850973325
10
-32.657851812
20
4.851367740
10
-32.849014983
20
4.851762156
10
-33.040183660
20
4.852156572
10
-33.231357843
20
4.852550987
10
-33.422537534
20
4.852945403
10
-33.613722731
20
4.853339819
10
-33.804913435
20
4.853734235
10
-33.996109645
20
4.854128650
10
-34.187311362
20
4.854523066
10
-34.378518586
20
4.854917482
10
-34.569731317
20
4.855311897
10
-34.760949554
20
4.855706313
10
-34.952173298
20
4.856100729
10
-35.143402548
20
4.856495145
10
-35.334637305
20
4.856889560
10
-35.525877569
20
4.857283976
10
-35.717123340
20
4.857678392
10
-35.908374617
20
4.858072807
10
-36.099631401
20
4.858467223
10
-36.290893692
20
4.858861639
10
-36.482161489
20
4.859256055
10
-36.673434793
20
4.859650470
10
-36.864713604
20
4.860044886
10
-37.055989466
20
4.859596616
10
-37.246560538
20
4.844426747
10
-37.434535460
20
4.809792557
10
-37.617934110
20
4.756074016
10
-37.794827651
20
4.683851591
10
-37.963358714
20
4.593899664
10
-38.121760777
20
4.487177929
10
-38.268376522
20
4.364820878
10
-38.401674986
20
4.228125469
10
-38.520267341
20
4.078537141
10
-38.622921122
20
3.917634303
10
-38.708572782
20
3.747111484
10
-38.776338433
20
3.568761324
10
-38.825522676
20
3.384455582
10
-38.855625431
20
3.196125389
10
-38.866346708
20
3.005740930
10
-38.866749953
20
2.814988062
10
-38.867144369
20
2.624229678
10
-38.867538785
20
2.433465787
10
-38.867933200
20
2.242696389
10
-38.868327616
20
2.051921485
10
-38.868722032
20
1.861141074
10
-38.869116447
20
1.670355157
10
-38.869510863
20
1.479563732
10
-38.869905279
20
1.288766801
10
-38.870299695
20
1.097964364
10
-38.870694110
20
0.907156419
10
-38.871088526
20
0.716342968
10
-38.871482942
20
0.525524011
10
-38.871877357
20
0.334699546
10
-38.872271773
20
0.143869575
10
-38.872666189
20
-0.046965902
10
-38.873060605
20
-0.237806887
10
-38.873455020
20
-0.428653378
10
-38.873849436
20
-0.619505376
10
-38.874243852
20
-0.810362880
10
-38.874638267
20
-1.001225891
10
-38.875032683
20
-1.192094409
10
-38.875427099
20
-1.382968433
10
-38.875821515
20
-1.573847965
10
-38.876215930
20
-1.764733002
10
-38.876610346
20
-1.955623547
10
-38.877004762
20
-2.146519598
10
-38.877399177
20
-2.337421156
10
-38.877793593
20
-2.528328221
10
-38.878188009
20
-2.719240792
10
-38.878582425
20
-2.910158870
10
-38.876258553
20
-3.101033705
10
-38.856730884
20
-3.290838002
10
-38.818067328
20
-3.477650680
10
-38.760680398
20
-3.659550219
10
-38.685174642
20
-3.834668596
10
-38.592339985
20
-4.001210372
10
-38.483143182
20
-4.157470970
10
-38.358717486
20
-4.301853968
10
-38.220350637
20
-4.432887230
10
-38.069471306
20
-4.549237701
10
-37.907634135
20
-4.649724753
10
-37.736503534
20
-4.733331904
10
-37.557836407
20
-4.799216847
10
-37.373463987
20
-4.846719647
10
-37.185272962
20
-4.875369065
0
LWPOLYLINE
100
AcDbEntity
8
COPPER_L4_BOTTOM
100
AcDbPolyline
90
220
70
0
38
0.000000000
10
-37.185272962
20
-4.875369065
10
-36.995186095
20
-4.884893076
10
-36.804793950
20
-4.885287492
10
-36.614396299
20
-4.885681907
10
-36.423993140
20
-4.886076323
10
-36.233584476
20
-4.886470739
10
-36.043170304
20
-4.886865155
10
-35.852750626
20
-4.887259570
10
-35.662325441
20
-4.887653986
10
-35.471894750
20
-4.888048402
10
-35.281458551
20
-4.888442817
10
-35.091016847
20
-4.888837233
10
-34.900569635
20
-4.889231649
10
-34.710116917
20
-4.889626065
10
-34.519658692
20
-4.890020480
10
-34.329194960
20
-4.890414896
10
-34.138725722
20
-4.890809312
10
-33.948250977
20
-4.891203727
10
-33.757770725
20
-4.891598143
10
-33.567284967
20
-4.891992559
10
-33.376793702
20
-4.892386975
10
-33.186296930
20
-4.892781390
10
-32.995794652
20
-4.893175806
10
-32.805286867
20
-4.893570222
10
-32.614773575
20
-4.893964637
10
-32.424254777
20
-4.894359053
10
-32.233730471
20
-4.894753469
10
-32.043200660
20
-4.895147885
10
-31.852665341
20
-4.895542300
10
-31.662124516
20
-4.895936716
10
-31.471578184
20
-4.896331132
10
-31.281026346
20
-4.896725547
10
-31.090469001
20
-4.897119963
10
-30.899906149
20
-4.897514379
10
-30.709337790
20
-4.897908795
10
-30.518763925
20
-4.898303210
10
-30.328184553
20
-4.898697626
10
-30.137599674
20
-4.899092042
10
-29.947009289
20
-4.899486457
10
-29.756413397
20
-4.899880873
10
-29.565811998
20
-4.900275289
10
-29.375205093
20
-4.900669705
10
-29.184592681
20
-4.901064120
10
-28.993974762
20
-4.901458536
10
-28.803351337
20
-4.901852952
10
-28.612722405
20
-4.902247368
10
-28.422087966
20
-4.902641783
10
-28.231448021
20
-4.903036199
10
-28.040802569
20
-4.903430615
10
-27.850151610
20
-4.903825030
10
-27.659495145
20
-4.904219446
10
-27.468833172
20
-4.904613862
10
-27.278165694
20
-4.905008278
10
-27.087492708
20
-4.905402693
10
-26.896814216
20
-4.905797109
10
-26.706130217
20
-4.906191525
10
-26.515440712
20
-4.906585940
10
-26.324745699
20
-4.906980356
10
-26.134045180
20
-4.907374772
10
-25.943339155
20
-4.907769188
10
-25.752627623
20
-4.908163603
10
-25.561910584
20
-4.908558019
10
-25.371188038
20
-4.908952435
10
-25.180459986
20
-4.909346850
10
-24.989726427
20
-4.909741266
10
-24.798987361
20
-4.910135682
10
-24.608242789
20
-4.910530098
10
-24.417492710
20
-4.910924513
10
-24.226737124
20
-4.911318929
10
-24.035976031
20
-4.911713345
10
-23.845209432
20
-4.912107760
10
-23.654437327
20
-4.912502176
10
-23.463659714
20
-4.912896592
10
-23.272876595
20
-4.913291008
10
-23.082087969
20
-4.913685423
10
-22.891293837
20
-4.914079839
10
-22.700494198
20
-4.914474255
10
-22.509689052
20
-4.914868670
10
-22.318878399
20
-4.915263086
10
-22.128062240
20
-4.915657502
10
-21.937240574
20
-4.916051918
10
-21.746413402
20
-4.916446333
10
-21.555580722
20
-4.916840749
10
-21.364742536
20
-4.917235165
10
-21.173898844
20
-4.917629580
10
-20.983049644
20
-4.918023996
10
-20.792194939
20
-4.918418412
10
-20.601334726
20
-4.918812828
10
-20.410469007
20
-4.919207243
10
-20.219597780
20
-4.919601659
10
-20.028721048
20
-4.919996075
10
-19.837838808
20
-4.920390490
10
-19.646951062
20
-4.920784906
10
-19.456057810
20
-4.921179322
10
-19.265159050
20
-4.921573738
10
-19.074254784
20
-4.921968153
10
-18.883345011
20
-4.922362569
10
-18.692429732
20
-4.922756985
10
-18.501508946
20
-4.923151400
10
-18.310582653
20
-4.923545816
10
-18.119650853
20
-4.923940232
10
-17.928713547
20
-4.924334648
10
-17.737770734
20
-4.924729063
10
-17.546822415
20
-4.925123479
10
-17.355868588
20
-4.925517895
10
-17.164909256
20
-4.925912310
10
-16.973944416
20
-4.926306726
10
-16.782974070
20
-4.926701142
10
-16.591998217
20
-4.927095558
10
-16.401016857
20
-4.927489973
10
-16.210029991
20
-4.927884389
10
-16.019037618
20
-4.928278805
10
-15.828039738
20
-4.928673220
10
-15.637036352
20
-4.929067636
10
-15.446027459
20
-4.929462052
10
-15.255013059
20
-4.929856468
10
-15.063993152
20
-4.930250883
10
-14.872967739
20
-4.930645299
10
-14.681936820
20
-4.931039715
10
-14.490900393
20
-4.931434130
10
-14.299858460
20
-4.931828546
10
-14.108811020
20
-4.932222962
10
-13.917758074
20
-4.932617378
10
-13.726699620
20
-4.933011793
10
-13.535635661
20
-4.933406209
10
-13.344566194
20
-4.933800625
10
-13.153491221
20
-4.934195040
10
-12.962410741
20
-4.934589456
10
-12.771324754
20
-4.934983872
10
-12.580233261
20
-4.935378288
10
-12.389136261
20
-4.935772703
10
-12.198033755
20
-4.936167119
10
-12.006925741
20
-4.936561535
10
-11.815812221
20
-4.936955950
10
-11.624693195
20
-4.937350366
10
-11.433568661
20
-4.937744782
10
-11.242438621
20
-4.938139198
10
-11.051303074
20
-4.938533613
10
-10.860162021
20
-4.938928029
10
-10.669015461
20
-4.939322445
10
-10.477863394
20
-4.939716860
10
-10.286705821
20
-4.940111276
10
-10.095542741
20
-4.940505692
10
-9.904374154
20
-4.940900108
10
-9.713200060
20
-4.941294523
10
-9.522020460
20
-4.941688939
10
-9.330835353
20
-4.942083355
10
-9.139644740
20
-4.942477770
10
-8.948448620
20
-4.942872186
10
-8.757246993
20
-4.943266602
10
-8.566039859
20
-4.943661018
10
-8.374827219
20
-4.944055433
10
-8.183609072
20
-4.944449849
10
-7.992385418
20
-4.944844265
10
-7.801156258
20
-4.945238680
10
-7.609921591
20
-4.945633096
10
-7.418681417
20
-4.946027512
10
-7.227435737
20
-4.946421928
10
-7.036184550
20
-4.946816343
10
-6.844927856
20
-4.947210759
10
-6.653665656
20
-4.947605175
10
-6.462397949
20
-4.947999590
10
-6.271124735
20
-4.948394006
10
-6.079846015
20
-4.948788422
10
-5.888561788
20
-4.949182838
10
-5.697272054
20
-4.949577253
10
-5.505976813
20
-4.949971669
10
-5.314676066
20
-4.950366085
10
-5.123369812
20
-4.950760500
10
-4.932058052
20
-4.951154916
10
-4.740740785
20
-4.951549332
10
-4.549418011
20
-4.951943748
10
-4.358089730
20
-4.952338163
10
-4.166755943
20
-4.952732579
10
-3.975416649
20
-4.953126995
10
-3.784071848
20
-4.953521410
10
-3.592721541
20
-4.953915826
10
-3.401365727
20
-4.954310242
10
-3.210004407
20
-4.954704658
10
-3.018637579
20
-4.955099073
10
-2.827265245
20
-4.955493489
10
-2.635887405
20
-4.955887905
10
-2.444504057
20
-4.956282320
10
-2.253115203
20
-4.956676736
10
-2.061720842
20
-4.957071152
10
-1.870320975
20
-4.957465568
10
-1.678915601
20
-4.957859983
10
-1.487504720
20
-4.958254399
10
-1.296088333
20
-4.958648815
10
-1.104666439
20
-4.959043230
10
-0.913239038
20
-4.959437646
10
-0.721806130
20
-4.959832062
10
-0.530367716
20
-4.960226478
10
-0.338923795
20
-4.960620893
10
-0.147474368
20
-4.961015309
10
0.043980567
20
-4.961409725
10
0.235441008
20
-4.961804140
10
0.426906955
20
-4.962198556
10
0.618378409
20
-4.962592972
10
0.809855370
20
-4.962987388
10
1.001337838
20
-4.963381803
10
1.192825812
20
-4.963776219
10
1.384319293
20
-4.964170635
10
1.575818281
20
-4.964565050
10
1.767322775
20
-4.964959466
10
1.958832776
20
-4.965353882
10
2.150348284
20
-4.965748298
10
2.341869298
20
-4.966142713
10
2.533395820
20
-4.966537129
10
2.724927847
20
-4.966931545
10
2.916465382
20
-4.967325961
10
3.108008423
20
-4.967720376
10
3.299556971
20
-4.968114792
10
3.491111025
20
-4.968509208
10
3.682670586
20
-4.968903623
10
3.874235654
20
-4.969298039
10
4.065806229
20
-4.969692455
10
4.257382310
20
-4.970086871
10
4.448963898
20
-4.970481286
10
4.640550992
20
-4.970875702
0
LWPOLYLINE
100
AcDbEntity
8
COPPER_L4_BOTTOM
100
AcDbPolyline
90
220
70
0
38
0.000000000
10
4.640550992
20
-4.970875702
10
4.832143594
20
-4.971270118
10
5.023741702
20
-4.971664533
10
5.215345316
20
-4.972058949
10
5.406954437
20
-4.972453365
10
5.598569065
20
-4.972847781
10
5.790189200
20
-4.973242196
10
5.981814841
20
-4.973636612
10
6.173445989
20
-4.974031028
10
6.365082644
20
-4.974425443
10
6.556724806
20
-4.974819859
10
6.748372474
20
-4.975214275
10
6.940025648
20
-4.975608691
10
7.131684330
20
-4.976003106
10
7.323348518
20
-4.976397522
10
7.515018213
20
-4.976791938
10
7.706693414
20
-4.977186353
10
7.898374122
20
-4.977580769
10
8.090060337
20
-4.977975185
10
8.281752059
20
-4.978369601
10
8.473449287
20
-4.978764016
10
8.665152022
20
-4.979158432
10
8.856860263
20
-4.979552848
10
9.048574012
20
-4.979947263
10
9.240293266
20
-4.980341679
10
9.432018028
20
-4.980736095
10
9.623748296
20
-4.981130511
10
9.815484071
20
-4.981524926
10
10.007225353
20
-4.981919342
10
10.198972141
20
-4.982313758
10
10.390724436
20
-4.982708173
10
10.582482238
20
-4.983102589
10
10.774245546
20
-4.983497005
10
10.966014361
20
-4.983891421
10
11.157788683
20
-4.984285836
10
11.349568512
20
-4.984680252
10
11.541353847
20
-4.985074668
10
11.733144688
20
-4.985469083
10
11.924941037
20
-4.985863499
10
12.116742892
20
-4.986257915
10
12.308550254
20
-4.986652331
10
12.500363122
20
-4.987046746
10
12.692181498
20
-4.987441162
10
12.884005379
20
-4.987835578
10
13.075834768
20
-4.988229993
10
13.267669663
20
-4.988624409
10
13.459510065
20
-4.989018825
10
13.651355974
20
-4.989413241
10
13.843207389
20
-4.989807656
10
14.035064311
20
-4.990202072
10
14.226926740
20
-4.990596488
10
14.418794675
20
-4.990990903
10
14.610668117
20
-4.991385319
10
14.802547065
20
-4.991779735
10
14.994431521
20
-4.992174151
10
15.186321483
20
-4.992568566
10
15.378216952
20
-4.992962982
10
15.570117927
20
-4.993357398
10
15.762024409
20
-4.993751813
10
15.953936398
20
-4.994146229
10
16.145853893
20
-4.994540645
10
16.337776895
20
-4.994935061
10
16.529705404
20
-4.995329476
10
16.721639420
20
-4.995723892
10
16.913578942
20
-4.996118308
10
17.105523971
20
-4.996512723
10
17.297474506
20
-4.996907139
10
17.489430548
20
-4.997301555
10
17.681392097
20
-4.997695971
10
17.873359153
20
-4.998090386
10
18.065331715
20
-4.998484802
10
18.257309784
20
-4.998879218
10
18.449293360
20
-4.999273633
10
18.641282442
20
-4.999668049
10
18.833277031
20
-5.000062465
10
19.025277127
20
-5.000456881
10
19.217282729
20
-5.000851296
10
19.409293838
20
-5.001245712
10
19.601310454
20
-5.001640128
10
19.793332576
20
-5.002034543
10
19.985360205
20
-5.002428959
10
20.177393341
20
-5.002823375
10
20.369431983
20
-5.003217791
10
20.561476132
20
-5.003612206
10
20.753525788
20
-5.004006622
10
20.945580951
20
-5.004401038
10
21.137641620
20
-5.004795453
10
21.329707796
20
-5.005189869
10
21.521779478
20
-5.005584285
10
21.713856667
20
-5.005978701
10
21.905939363
20
-5.006373116
10
22.098027566
20
-5.006767532
10
22.290121275
20
-5.007161948
10
22.482220491
20
-5.007556363
10
22.674325214
20
-5.007950779
10
22.866435443
20
-5.008345195
10
23.058551179
20
-5.008739611
10
23.250672422
20
-5.009134026
10
23.442799171
20
-5.009528442
10
23.634931427
20
-5.009922858
10
23.827069190
20
-5.010317273
10
24.019212459
20
-5.010711689
10
24.211361235
20
-5.011106105
10
24.403515518
20
-5.011500521
10
24.595675307
20
-5.011894936
10
24.787840603
20
-5.012289352
10
24.980011406
20
-5.012683768
10
25.172187715
20
-5.013078183
10
25.364369532
20
-5.013472599
10
25.556556854
20
-5.013867015
10
25.748749684
20
-5.014261431
10
25.940948020
20
-5.014655846
10
26.133151863
20
-5.015050262
10
26.325361213
20
-5.015444678
10
26.517576069
20
-5.015839093
10
26.709796432
20
-5.016233509
10
26.902022301
20
-5.016627925
10
27.094253678
20
-5.017022341
10
27.286490561
20
-5.017416756
10
27.478732950
20
-5.017811172
10
27.670980846
20
-5.018205588
10
27.863234249
20
-5.018600003
10
28.055493159
20
-5.018994419
10
28.247757575
20
-5.019388835
10
28.440027499
20
-5.019783251
10
28.632302928
20
-5.020177666
10
28.824583865
20
-5.020572082
10
29.016870308
20
-5.020966498
10
29.209162257
20
-5.021360913
10
29.401459714
20
-5.021755329
10
29.593762677
20
-5.022149745
10
29.786071147
20
-5.022544161
10
29.978385123
20
-5.022938576
10
30.170704607
20
-5.023332992
10
30.363029596
20
-5.023727408
10
30.555360093
20
-5.024121823
10
30.747696096
20
-5.024516239
10
30.940037606
20
-5.024910655
10
31.132384623
20
-5.025305071
10
31.324737146
20
-5.025699486
10
31.517095176
20
-5.026093902
10
31.709458712
20
-5.026488318
10
31.901827756
20
-5.026882733
10
32.094202306
20
-5.027277149
10
32.286582362
20
-5.027671565
10
32.478967926
20
-5.028065981
10
32.671358996
20
-5.028460396
10
32.863755572
20
-5.028854812
10
33.056157656
20
-5.029249228
10
33.248565246
20
-5.029643643
10
33.440978343
20
-5.030038059
10
33.633396946
20
-5.030432475
10
33.825821056
20
-5.030826891
10
34.018250673
20
-5.031221306
10
34.210685796
20
-5.031615722
10
34.403126427
20
-5.032010138
10
34.595572563
20
-5.032404553
10
34.788024207
20
-5.032798969
10
34.980481357
20
-5.033193385
10
35.172944014
20
-5.033587801
10
35.365412178
20
-5.033982216
10
35.557885848
20
-5.034376632
10
35.750365025
20
-5.034771048
10
35.942849708
20
-5.035165464
10
36.135339899
20
-5.035559879
10
36.327835596
20
-5.035954295
10
36.520336799
20
-5.036348711
10
36.712843510
20
-5.036743126
10
36.905355727
20
-5.037137542
10
37.097835816
20
-5.035181720
10
37.289414920
20
-5.017271154
10
37.478420106
20
-4.981379782
10
37.663169717
20
-4.927839623
10
37.842022331
20
-4.857139316
10
38.013391277
20
-4.769919443
10
38.175758621
20
-4.666966514
10
38.327688504
20
-4.549205674
10
38.467839715
20
-4.417692195
10
38.594977382
20
-4.273601843
10
38.707983698
20
-4.118220200
10
38.805867570
20
-3.952931049
10
38.887773124
20
-3.779203917
10
38.952986989
20
-3.598580897
10
39.000944302
20
-3.412662866
10
39.031233379
20
-3.223095222
10
39.043599032
20
-3.031553272
10
39.044237025
20
-2.839562735
10
39.044631441
20
-2.647565437
10
39.045025856
20
-2.455562634
10
39.045420272
20
-2.263554323
10
39.045814688
20
-2.071540506
10
39.046209104
20
-1.879521182
10
39.046603519
20
-1.687496351
10
39.046997935
20
-1.495466014
10
39.047392351
20
-1.303430170
10
39.047786766
20
-1.111388819
10
39.048181182
20
-0.919341962
10
39.048575598
20
-0.727289598
10
39.048970014
20
-0.535231727
10
39.049364429
20
-0.343168350
10
39.049758845
20
-0.151099466
10
39.050153261
20
0.040974925
10
39.050547676
20
0.233054822
10
39.050942092
20
0.425140226
10
39.051336508
20
0.617231137
10
39.051730924
20
0.809327555
10
39.052125339
20
1.001429479
10
39.052519755
20
1.193536909
10
39.052914171
20
1.385649847
10
39.053308586
20
1.577768291
10
39.053703002
20
1.769892242
10
39.054097418
20
1.962021700
10
39.054491834
20
2.154156664
10
39.054886249
20
2.346297135
10
39.055280665
20
2.538443112
10
39.055675081
20
2.730594597
10
39.056069496
20
2.922751588
10
39.053254079
20
3.114854291
10
39.033977709
20
3.305942576
10
38.996969619
20
3.494369489
0
LWPOLYLINE
100
AcDbEntity
8
COPPER_L4_BOTTOM
100
AcDbPolyline
90
220
70
0
38
0.000000000
10
38.996969619
20
3.494369489
10
38.942564239
20
3.678495401
10
38.871246987
20
3.856720397
10
38.783649726
20
4.027498118
10
38.680544969
20
4.189349087
10
38.562838868
20
4.340873424
10
38.431563073
20
4.480762835
10
38.287865513
20
4.607811766
10
38.133000206
20
4.720927641
10
37.968316173
20
4.819140091
10
37.795245560
20
4.901609098
10
37.615291072
20
4.967631991
10
37.430012842
20
5.016649230
10
37.241014827
20
5.048248942
10
37.049930874
20
5.062170169
10
36.858299187
20
5.063168979
10
36.666657116
20
5.063563395
10
36.475009538
20
5.063957811
10
36.283356454
20
5.064352226
10
36.091697862
20
5.064746642
10
35.900033765
20
5.065141058
10
35.708364160
20
5.065535474
10
35.516689049
20
5.065929889
10
35.325008431
20
5.066324305
10
35.133322306
20
5.066718721
10
34.941630675
20
5.067113136
10
34.749933537
20
5.067507552
10
34.558230893
20
5.067901968
10
34.366522741
20
5.068296384
10
34.174809083
20
5.068690799
10
33.983089919
20
5.069085215
10
33.791365247
20
5.069479631
10
33.599635069
20
5.069874046
10
33.407899384
20
5.070268462
10
33.216158193
20
5.070662878
10
33.024411495
20
5.071057294
10
32.832659290
20
5.071451709
10
32.640901579
20
5.071846125
10
32.449138361
20
5.072240541
10
32.257369636
20
5.072634956
10
32.065595404
20
5.073029372
10
31.873815666
20
5.073423788
10
31.682030421
20
5.073818204
10
31.490239670
20
5.074212619
10
31.298443412
20
5.074607035
10
31.106641647
20
5.075001451
10
30.914834375
20
5.075395866
10
30.723021597
20
5.075790282
10
30.531203312
20
5.076184698
10
30.339379520
20
5.076579114
10
30.147550222
20
5.076973529
10
29.955715417
20
5.077367945
10
29.763875105
20
5.077762361
10
29.572029287
20
5.078156776
10
29.380177962
20
5.078551192
10
29.188321130
20
5.078945608
10
28.996458792
20
5.079340024
10
28.804590947
20
5.079734439
10
28.612717595
20
5.080128855
10
28.420838737
20
5.080523271
10
28.228954372
20
5.080917686
10
28.037064500
20
5.081312102
10
27.845169121
20
5.081706518
10
27.653268236
20
5.082100934
10
27.461361844
20
5.082495349
10
27.269449946
20
5.082889765
10
27.077532541
20
5.083284181
10
26.885609629
20
5.083678596
10
26.693681210
20
5.084073012
10
26.501747285
20
5.084467428
10
26.309807853
20
5.084861844
10
26.117862915
20
5.085256259
10
25.925912469
20
5.085650675
10
25.733956517
20
5.086045091
10
25.541995059
20
5.086439506
10
25.350028093
20
5.086833922
10
25.158055621
20
5.087228338
10
24.966077643
20
5.087622754
10
24.774094157
20
5.088017169
10
24.582105165
20
5.088411585
10
24.390110666
20
5.088806001
10
24.198110661
20
5.089200416
10
24.006105149
20
5.089594832
10
23.814094130
20
5.089989248
10
23.622077605
20
5.090383664
10
23.430055573
20
5.090778079
10
23.238028034
20
5.091172495
10
23.045994988
20
5.091566911
10
22.853956436
20
5.091961326
10
22.661912377
20
5.092355742
10
22.469862812
20
5.092750158
10
22.277807739
20
5.093144574
10
22.085747161
20
5.093538989
10
21.893681075
20
5.093933405
10
21.701609483
20
5.094327821
10
21.509532384
20
5.094722236
10
21.317449778
20
5.095116652
10
21.125361666
20
5.095511068
10
20.933268047
20
5.095905484
10
20.741168921
20
5.096299899
10
20.549064289
20
5.096694315
10
20.356954150
20
5.097088731
10
20.164838504
20
5.097483146
10
19.972717352
20
5.097877562
10
19.780590693
20
5.098271978
10
19.588458527
20
5.098666394
10
19.396320854
20
5.099060809
10
19.204177675
20
5.099455225
10
19.012028989
20
5.099849641
10
18.819874797
20
5.100244057
10
18.627715098
20
5.100638472
10
18.435549892
20
5.101032888
10
18.243379179
20
5.101427304
10
18.051202960
20
5.101821719
10
17.859021234
20
5.102216135
10
17.666834002
20
5.102610551
10
17.474641262
20
5.103004967
10
17.282443017
20
5.103399382
10
17.090239264
20
5.103793798
10
16.898030005
20
5.104188214
10
16.705815239
20
5.104582629
10
16.513594966
20
5.104977045
10
16.321369187
20
5.105371461
10
16.129137901
20
5.105765877
10
15.936901108
20
5.106160292
10
15.744658809
20
5.106554708
10
15.552411002
20
5.106949124
10
15.360157690
20
5.107343539
10
15.167898870
20
5.107737955
10
14.975634544
20
5.108132371
10
14.783364711
20
5.108526787
10
14.591089372
20
5.108921202
10
14.398808526
20
5.109315618
10
14.206522173
20
5.109710034
10
14.014230313
20
5.110104449
10
13.821932947
20
5.110498865
10
13.629630074
20
5.110893281
10
13.437321695
20
5.111287697
10
13.245007809
20
5.111682112
10
13.052688416
20
5.112076528
10
12.860363516
20
5.112470944
10
12.668033110
20
5.112865359
10
12.475697197
20
5.113259775
10
12.283355777
20
5.113654191
10
12.091008851
20
5.114048607
10
11.898656418
20
5.114443022
10
11.706298478
20
5.114837438
10
11.513935032
20
5.115231854
10
11.321566079
20
5.115626269
10
11.129191619
20
5.116020685
10
10.936811653
20
5.116415101
10
10.744426180
20
5.116809517
10
10.552035200
20
5.117203932
10
10.359638713
20
5.117598348
10
10.167236720
20
5.117992764
10
9.974829220
20
5.118387179
10
9.782416214
20
5.118781595
10
9.589997701
20
5.119176011
10
9.397573681
20
5.119570427
10
9.205144154
20
5.119964842
10
9.012709121
20
5.120359258
10
8.820268581
20
5.120753674
10
8.627822535
20
5.121148089
10
8.435370981
20
5.121542505
10
8.242913921
20
5.121936921
10
8.050451355
20
5.122331337
10
7.857983281
20
5.122725752
10
7.665509701
20
5.123120168
10
7.473030615
20
5.123514584
10
7.280546021
20
5.123908999
10
7.088055921
20
5.124303415
10
6.895560315
20
5.124697831
10
6.703059201
20
5.125092247
10
6.510552581
20
5.125486662
10
6.318040454
20
5.125881078
10
6.125522821
20
5.126275494
10
5.932999681
20
5.126669909
10
5.740471034
20
5.127064325
10
5.547936880
20
5.127458741
10
5.355397220
20
5.127853157
10
5.162852053
20
5.128247572
10
4.970301380
20
5.128641988
10
4.777745200
20
5.129036404
10
4.585183513
20
5.129430819
10
4.392616319
20
5.129825235
10
4.200043619
20
5.130219651
10
4.007465412
20
5.130614067
10
3.814881698
20
5.131008482
10
3.622292478
20
5.131402898
10
3.429697751
20
5.131797314
10
3.237097518
20
5.132191729
10
3.044491777
20
5.132586145
10
2.851880530
20
5.132980561
10
2.659263776
20
5.133374977
10
2.466641516
20
5.133769392
10
2.274013749
20
5.134163808
10
2.081380475
20
5.134558224
10
1.888741695
20
5.134952639
10
1.696097408
20
5.135347055
10
1.503447614
20
5.135741471
10
1.310792313
20
5.136135887
10
1.118131506
20
5.136530302
10
0.925465192
20
5.136924718
10
0.732793372
20
5.137319134
10
0.540116045
20
5.137713549
10
0.347433211
20
5.138107965
10
0.154744870
20
5.138502381
10
-0.037948977
20
5.138896797
10
-0.230648331
20
5.139291212
10
-0.423353191
20
5.139685628
10
-0.616063559
20
5.140080044
10
-0.808779433
20
5.140474459
10
-1.001500813
20
5.140868875
10
-1.194227701
20
5.141263291
10
-1.386960095
20
5.141657707
10
-1.579697995
20
5.142052122
10
-1.772441403
20
5.142446538
10
-1.965190317
20
5.142840954
10
-2.157944737
20
5.143235369
10
-2.350704665
20
5.143629785
0
LWPOLYLINE
100
AcDbEntity
8
COPPER_L4_BOTTOM
100
AcDbPolyline
90
220
70
0
38
0.000000000
10
-2.350704665
20
5.143629785
10
-2.543470099
20
5.144024201
10
-2.736241040
20
5.144418617
10
-2.929017487
20
5.144813032
10
-3.121799441
20
5.145207448
10
-3.314586902
20
5.145601864
10
-3.507379870
20
5.145996279
10
-3.700178344
20
5.146390695
10
-3.892982325
20
5.146785111
10
-4.085791812
20
5.147179527
10
-4.278606807
20
5.147573942
10
-4.471427307
20
5.147968358
10
-4.664253315
20
5.148362774
10
-4.857084829
20
5.148757189
10
-5.049921850
20
5.149151605
10
-5.242764378
20
5.149546021
10
-5.435612412
20
5.149940437
10
-5.628465953
20
5.150334852
10
-5.821325001
20
5.150729268
10
-6.014189555
20
5.151123684
10
-6.207059616
20
5.151518099
10
-6.399935184
20
5.151912515
10
-6.592816258
20
5.152306931
10
-6.785702839
20
5.152701347
10
-6.978594927
20
5.153095762
10
-7.171492522
20
5.153490178
10
-7.364395623
20
5.153884594
10
-7.557304231
20
5.154279009
10
-7.750218345
20
5.154673425
10
-7.943137966
20
5.155067841
10
-8.136063094
20
5.155462257
10
-8.328993729
20
5.155856672
10
-8.521929870
20
5.156251088
10
-8.714871518
20
5.156645504
10
-8.907818672
20
5.157039919
10
-9.100771334
20
5.157434335
10
-9.293729501
20
5.157828751
10
-9.486693176
20
5.158223167
10
-9.679662357
20
5.158617582
10
-9.872637045
20
5.159011998
10
-10.065617240
20
5.159406414
10
-10.258602941
20
5.159800829
10
-10.451594149
20
5.160195245
10
-10.644590864
20
5.160589661
10
-10.837593085
20
5.160984077
10
-11.030600814
20
5.161378492
10
-11.223614048
20
5.161772908
10
-11.416632790
20
5.162167324
10
-11.609657038
20
5.162561739
10
-11.802686793
20
5.162956155
10
-11.995722054
20
5.163350571
10
-12.188762822
20
5.163744987
10
-12.381809097
20
5.164139402
10
-12.574860879
20
5.164533818
10
-12.767918167
20
5.164928234
10
-12.960980962
20
5.165322649
10
-13.154049263
20
5.165717065
10
-13.347123071
20
5.166111481
10
-13.540202386
20
5.166505897
10
-13.733287208
20
5.166900312
10
-13.926377536
20
5.167294728
10
-14.119473371
20
5.167689144
10
-14.312574713
20
5.168083560
10
-14.505681561
20
5.168477975
10
-14.698793916
20
5.168872391
10
-14.891911778
20
5.169266807
10
-15.085035146
20
5.169661222
10
-15.278164021
20
5.170055638
10
-15.471298403
20
5.170450054
10
-15.664438291
20
5.170844470
10
-15.857583687
20
5.171238885
10
-16.050734588
20
5.171633301
10
-16.243890997
20
5.172027717
10
-16.437052912
20
5.172422132
10
-16.630220334
20
5.172816548
10
-16.823393262
20
5.173210964
10
-17.016571697
20
5.173605380
10
-17.209755639
20
5.173999795
10
-17.402945088
20
5.174394211
10
-17.596140043
20
5.174788627
10
-17.789340505
20
5.175183042
10
-17.982546474
20
5.175577458
10
-18.175757949
20
5.175971874
10
-18.368974931
20
5.176366290
10
-18.562197419
20
5.176760705
10
-18.755425415
20
5.177155121
10
-18.948658917
20
5.177549537
10
-19.141897925
20
5.177943952
10
-19.335142441
20
5.178338368
10
-19.528392463
20
5.178732784
10
-19.721647992
20
5.179127200
10
-19.914909027
20
5.179521615
10
-20.108175569
20
5.179916031
10
-20.301447618
20
5.180310447
10
-20.494725173
20
5.180704862
10
-20.688008235
20
5.181099278
10
-20.881296804
20
5.181493694
10
-21.074590880
20
5.181888110
10
-21.267890462
20
5.182282525
10
-21.461195551
20
5.182676941
10
-21.654506146
20
5.183071357
10
-21.847822248
20
5.183465772
10
-22.041143857
20
5.183860188
10
-22.234470973
20
5.184254604
10
-22.427803595
20
5.184649020
10
-22.621141724
20
5.185043435
10
-22.814485360
20
5.185437851
10
-23.007834502
20
5.185832267
10
-23.201189151
20
5.186226682
10
-23.394549307
20
5.186621098
10
-23.587914969
20
5.187015514
10
-23.781286138
20
5.187409930
10
-23.974662814
20
5.187804345
10
-24.168044996
20
5.188198761
10
-24.361432685
20
5.188593177
10
-24.554825881
20
5.188987592
10
-24.748224583
20
5.189382008
10
-24.941628792
20
5.189776424
10
-25.135038508
20
5.190170840
10
-25.328453731
20
5.190565255
10
-25.521874460
20
5.190959671
10
-25.715300696
20
5.191354087
10
-25.908732438
20
5.191748502
10
-26.102169687
20
5.192142918
10
-26.295612443
20
5.192537334
10
-26.489060706
20
5.192931750
10
-26.682514475
20
5.193326165
10
-26.875973751
20
5.193720581
10
-27.069438534
20
5.194114997
10
-27.262908823
20
5.194509412
10
-27.456384619
20
5.194903828
10
-27.649865922
20
5.195298244
10
-27.843352731
20
5.195692660
10
-28.036845047
20
5.196087075
10
-28.230342870
20
5.196481491
10
-28.423846199
20
5.196875907
10
-28.617355035
20
5.197270322
10
-28.810869378
20
5.197664738
10
-29.004389227
20
5.198059154
10
-29.197914583
20
5.198453570
10
-29.391445446
20
5.198847985
10
-29.584981815
20
5.199242401
10
-29.778523692
20
5.199636817
10
-29.972071074
20
5.200031232
10
-30.165623964
20
5.200425648
10
-30.359182360
20
5.200820064
10
-30.552746263
20
5.201214480
10
-30.746315673
20
5.201608895
10
-30.939890589
20
5.202003311
10
-31.133471012
20
5.202397727
10
-31.327056941
20
5.202792142
10
-31.520648378
20
5.203186558
10
-31.714245320
20
5.203580974
10
-31.907847770
20
5.203975390
10
-32.101455726
20
5.204369805
10
-32.295069189
20
5.204764221
10
-32.488688159
20
5.205158637
10
-32.682312635
20
5.205553052
10
-32.875942618
20
5.205947468
10
-33.069578108
20
5.206341884
10
-33.263219105
20
5.206736300
10
-33.456865608
20
5.207130715
10
-33.650517617
20
5.207525131
10
-33.844175134
20
5.207919547
10
-34.037838157
20
5.208313962
10
-34.231506687
20
5.208708378
10
-34.425180723
20
5.209102794
10
-34.618860266
20
5.209497210
10
-34.812545316
20
5.209891625
10
-35.006235873
20
5.210286041
10
-35.199931936
20
5.210680457
10
-35.393633506
20
5.211074872
10
-35.587340583
20
5.211469288
10
-35.781053166
20
5.211863704
10
-35.974771256
20
5.212258120
10
-36.168494852
20
5.212652535
10
-36.362223956
20
5.213046951
10
-36.555958566
20
5.213441367
10
-36.749698682
20
5.213835782
10
-36.943444306
20
5.214230198
10
-37.137107698
20
5.210376362
10
-37.329722074
20
5.190340762
10
-37.519822182
20
5.153564866
10
-37.705957706
20
5.100340019
10
-37.886710448
20
5.031082744
10
-38.060705083
20
4.946331325
10
-38.226619560
20
4.846741462
10
-38.383195073
20
4.733081058
10
-38.529245519
20
4.606224145
10
-38.663666385
20
4.467144038
10
-38.785442989
20
4.316905739
10
-38.893658012
20
4.156657666
10
-38.987498282
20
3.987622776
10
-39.066260738
20
3.811089135
10
-39.129357553
20
3.628400031
10
-39.176320366
20
3.440943680
10
-39.206803597
20
3.250142631
10
-39.220586828
20
3.057442931
10
-39.221724097
20
2.864218632
10
-39.222118512
20
2.670982422
10
-39.222512928
20
2.477740705
10
-39.222907344
20
2.284493481
10
-39.223301760
20
2.091240751
10
-39.223696175
20
1.897982514
10
-39.224090591
20
1.704718770
10
-39.224485007
20
1.511449520
10
-39.224879422
20
1.318174763
10
-39.225273838
20
1.124894499
10
-39.225668254
20
0.931608729
10
-39.226062670
20
0.738317452
10
-39.226457085
20
0.545020668
10
-39.226851501
20
0.351718378
10
-39.227245917
20
0.158410581
10
-39.227640332
20
-0.034902723
10
-39.228034748
20
-0.228221533
10
-39.228429164
20
-0.421545850
10
-39.228823580
20
-0.614875674
10
-39.229217995
20
-0.808211005
10
-39.229612411
20
-1.001551842
10
-39.230006827
20
-1.194898186
0
LWPOLYLINE
100
AcDbEntity
8
COPPER_L4_BOTTOM
100
AcDbPolyline
90
220
70
0
38
0.000000000
10
-39.230006827
20
-1.194898186
10
-39.230401242
20
-1.388250036
10
-39.230795658
20
-1.581607393
10
-39.231190074
20
-1.774970257
10
-39.231584490
20
-1.968338628
10
-39.231978905
20
-2.161712505
10
-39.232373321
20
-2.355091889
10
-39.232767737
20
-2.548476780
10
-39.233162152
20
-2.741867177
10
-39.233556568
20
-2.935263081
10
-39.230246790
20
-3.128593369
10
-39.211172951
20
-3.320957234
10
-39.175550049
20
-3.510924676
10
-39.123654762
20
-3.697076384
10
-39.055885043
20
-3.878023361
10
-38.972756921
20
-4.052417252
10
-38.874900421
20
-4.218960326
10
-38.763054642
20
-4.376415062
10
-38.638062044
20
-4.523613264
10
-38.500861967
20
-4.659464628
10
-38.352483455
20
-4.782964712
10
-38.194037426
20
-4.893202252
10
-38.026708252
20
-4.989365752
10
-37.851744823
20
-5.070749329
10
-37.670451142
20
-5.136757756
10
-37.484176542
20
-5.186910661
10
-37.294305596
20
-5.220845877
10
-37.102247780
20
-5.238321901
10
-36.909402316
20
-5.241050467
10
-36.716515825
20
-5.241444883
10
-36.523623827
20
-5.241839298
10
-36.330726323
20
-5.242233714
10
-36.137823312
20
-5.242628130
10
-35.944914795
20
-5.243022545
10
-35.752000771
20
-5.243416961
10
-35.559081240
20
-5.243811377
10
-35.366156202
20
-5.244205793
10
-35.173225658
20
-5.244600208
10
-34.980289607
20
-5.244994624
10
-34.787348049
20
-5.245389040
10
-34.594400985
20
-5.245783455
10
-34.401448414
20
-5.246177871
10
-34.208490336
20
-5.246572287
10
-34.015526752
20
-5.246966703
10
-33.822557661
20
-5.247361118
10
-33.629583063
20
-5.247755534
10
-33.436602959
20
-5.248149950
10
-33.243617348
20
-5.248544365
10
-33.050626230
20
-5.248938781
10
-32.857629605
20
-5.249333197
10
-32.664627474
20
-5.249727613
10
-32.471619836
20
-5.250122028
10
-32.278606692
20
-5.250516444
10
-32.085588041
20
-5.250910860
10
-31.892563883
20
-5.251305275
10
-31.699534218
20
-5.251699691
10
-31.506499047
20
-5.252094107
10
-31.313458369
20
-5.252488523
10
-31.120412185
20
-5.252882938
10
-30.927360493
20
-5.253277354
10
-30.734303295
20
-5.253671770
10
-30.541240591
20
-5.254066185
10
-30.348172379
20
-5.254460601
10
-30.155098661
20
-5.254855017
10
-29.962019437
20
-5.255249433
10
-29.768934705
20
-5.255643848
10
-29.575844467
20
-5.256038264
10
-29.382748723
20
-5.256432680
10
-29.189647471
20
-5.256827095
10
-28.996540713
20
-5.257221511
10
-28.803428448
20
-5.257615927
10
-28.610310677
20
-5.258010343
10
-28.417187399
20
-5.258404758
10
-28.224058614
20
-5.258799174
10
-28.030924323
20
-5.259193590
10
-27.837784524
20
-5.259588005
10
-27.644639220
20
-5.259982421
10
-27.451488408
20
-5.260376837
10
-27.258332090
20
-5.260771253
10
-27.065170265
20
-5.261165668
10
-26.872002933
20
-5.261560084
10
-26.678830095
20
-5.261954500
10
-26.485651750
20
-5.262348915
10
-26.292467899
20
-5.262743331
10
-26.099278540
20
-5.263137747
10
-25.906083675
20
-5.263532163
10
-25.712883304
20
-5.263926578
10
-25.519677425
20
-5.264320994
10
-25.326466040
20
-5.264715410
10
-25.133249149
20
-5.265109825
10
-24.940026750
20
-5.265504241
10
-24.746798845
20
-5.265898657
10
-24.553565433
20
-5.266293073
10
-24.360326515
20
-5.266687488
10
-24.167082090
20
-5.267081904
10
-23.973832158
20
-5.267476320
10
-23.780576720
20
-5.267870735
10
-23.587315774
20
-5.268265151
10
-23.394049323
20
-5.268659567
10
-23.200777364
20
-5.269053983
10
-23.007499899
20
-5.269448398
10
-22.814216927
20
-5.269842814
10
-22.620928448
20
-5.270237230
10
-22.427634463
20
-5.270631645
10
-22.234334971
20
-5.271026061
10
-22.041029973
20
-5.271420477
10
-21.847719467
20
-5.271814893
10
-21.654403455
20
-5.272209308
10
-21.461081937
20
-5.272603724
10
-21.267754911
20
-5.272998140
10
-21.074422379
20
-5.273392555
10
-20.881084341
20
-5.273786971
10
-20.687740795
20
-5.274181387
10
-20.494391743
20
-5.274575803
10
-20.301037185
20
-5.274970218
10
-20.107677119
20
-5.275364634
10
-19.914311547
20
-5.275759050
10
-19.720940468
20
-5.276153465
10
-19.527563883
20
-5.276547881
10
-19.334181791
20
-5.276942297
10
-19.140794192
20
-5.277336713
10
-18.947401086
20
-5.277731128
10
-18.754002474
20
-5.278125544
10
-18.560598355
20
-5.278519960
10
-18.367188730
20
-5.278914375
10
-18.173773598
20
-5.279308791
10
-17.980352959
20
-5.279703207
10
-17.786926813
20
-5.280097623
10
-17.593495161
20
-5.280492038
10
-17.400058002
20
-5.280886454
10
-17.206615336
20
-5.281280870
10
-17.013167164
20
-5.281675285
10
-16.819713485
20
-5.282069701
10
-16.626254299
20
-5.282464117
10
-16.432789607
20
-5.282858533
10
-16.239319408
20
-5.283252948
10
-16.045843702
20
-5.283647364
10
-15.852362490
20
-5.284041780
10
-15.658875771
20
-5.284436195
10
-15.465383545
20
-5.284830611
10
-15.271885813
20
-5.285225027
10
-15.078382573
20
-5.285619443
10
-14.884873828
20
-5.286013858
10
-14.691359575
20
-5.286408274
10
-14.497839816
20
-5.286802690
10
-14.304314550
20
-5.287197105
10
-14.110783778
20
-5.287591521
10
-13.917247498
20
-5.287985937
10
-13.723705712
20
-5.288380353
10
-13.530158420
20
-5.288774768
10
-13.336605621
20
-5.289169184
10
-13.143047315
20
-5.289563600
10
-12.949483502
20
-5.289958015
10
-12.755914183
20
-5.290352431
10
-12.562339357
20
-5.290746847
10
-12.368759024
20
-5.291141263
10
-12.175173185
20
-5.291535678
10
-11.981581839
20
-5.291930094
10
-11.787984986
20
-5.292324510
10
-11.594382627
20
-5.292718925
10
-11.400774761
20
-5.293113341
10
-11.207161388
20
-5.293507757
10
-11.013542508
20
-5.293902173
10
-10.819918122
20
-5.294296588
10
-10.626288230
20
-5.294691004
10
-10.432652830
20
-5.295085420
10
-10.239011924
20
-5.295479835
10
-10.045365511
20
-5.295874251
10
-9.851713592
20
-5.296268667
10
-9.658056165
20
-5.296663083
10
-9.464393233
20
-5.297057498
10
-9.270724793
20
-5.297451914
10
-9.077050847
20
-5.297846330
10
-8.883371394
20
-5.298240745
10
-8.689686434
20
-5.298635161
10
-8.495995968
20
-5.299029577
10
-8.302299995
20
-5.299423993
10
-8.108598515
20
-5.299818408
10
-7.914891529
20
-5.300212824
10
-7.721179036
20
-5.300607240
10
-7.527461036
20
-5.301001656
10
-7.333737530
20
-5.301396071
10
-7.140008517
20
-5.301790487
10
-6.946273997
20
-5.302184903
10
-6.752533971
20
-5.302579318
10
-6.558788438
20
-5.302973734
10
-6.365037398
20
-5.303368150
10
-6.171280851
20
-5.303762566
10
-5.977518798
20
-5.304156981
10
-5.783751238
20
-5.304551397
10
-5.589978172
20
-5.304945813
10
-5.396199599
20
-5.305340228
10
-5.202415519
20
-5.305734644
10
-5.008625932
20
-5.306129060
10
-4.814830839
20
-5.306523476
10
-4.621030239
20
-5.306917891
10
-4.427224133
20
-5.307312307
10
-4.233412519
20
-5.307706723
10
-4.039595399
20
-5.308101138
10
-3.845772773
20
-5.308495554
10
-3.651944639
20
-5.308889970
10
-3.458110999
20
-5.309284386
10
-3.264271853
20
-5.309678801
10
-3.070427199
20
-5.310073217
10
-2.876577039
20
-5.310467633
10
-2.682721373
20
-5.310862048
10
-2.488860199
20
-5.311256464
10
-2.294993519
20
-5.311650880
10
-2.101121332
20
-5.312045296
10
-1.907243639
20
-5.312439711
10
-1.713360439
20
-5.312834127
10
-1.519471732
20
-5.313228543
10
-1.325577519
20
-5.313622958
10
-1.131677798
20
-5.314017374
10
-0.937772572
20
-5.314411790
10
-0.743861838
20
-5.314806206
10
-0.549945598
20
-5.315200621
10
-0.356023851
20
-5.315595037
10
-0.162096597
20
-5.315989453
10
0.031836163
20
-5.316383868
0
LWPOLYLINE
100
AcDbEntity
8
COPPER_L4_BOTTOM
100
AcDbPolyline
90
220
70
0
38
0.000000000
10
0.031836163
20
-5.316383868
10
0.225774430
20
-5.316778284
10
0.419718203
20
-5.317172700
10
0.613667484
20
-5.317567116
10
0.807622271
20
-5.317961531
10
1.001582564
20
-5.318355947
10
1.195548365
20
-5.318750363
10
1.389519672
20
-5.319144778
10
1.583496485
20
-5.319539194
10
1.777478806
20
-5.319933610
10
1.971466633
20
-5.320328026
10
2.165459967
20
-5.320722441
10
2.359458807
20
-5.321116857
10
2.553463154
20
-5.321511273
10
2.747473008
20
-5.321905688
10
2.941488368
20
-5.322300104
10
3.135509236
20
-5.322694520
10
3.329535609
20
-5.323088936
10
3.523567490
20
-5.323483351
10
3.717604877
20
-5.323877767
10
3.911647771
20
-5.324272183
10
4.105696172
20
-5.324666598
10
4.299750079
20
-5.325061014
10
4.493809493
20
-5.325455430
10
4.687874413
20
-5.325849846
10
4.881944841
20
-5.326244261
10
5.076020775
20
-5.326638677
10
5.270102215
20
-5.327033093
10
5.464189163
20
-5.327427508
10
5.658281617
20
-5.327821924
10
5.852379577
20
-5.328216340
10
6.046483045
20
-5.328610756
10
6.240592019
20
-5.329005171
10
6.434706499
20
-5.329399587
10
6.628826487
20
-5.329794003
10
6.822951981
20
-5.330188418
10
7.017082982
20
-5.330582834
10
7.211219489
20
-5.330977250
10
7.405361503
20
-5.331371666
10
7.599509024
20
-5.331766081
10
7.793662052
20
-5.332160497
10
7.987820586
20
-5.332554913
10
8.181984627
20
-5.332949328
10
8.376154174
20
-5.333343744
10
8.570329228
20
-5.333738160
10
8.764509789
20
-5.334132576
10
8.958695857
20
-5.334526991
10
9.152887431
20
-5.334921407
10
9.347084512
20
-5.335315823
10
9.541287100
20
-5.335710238
10
9.735495194
20
-5.336104654
10
9.929708795
20
-5.336499070
10
10.123927903
20
-5.336893486
10
10.318152517
20
-5.337287901
10
10.512382638
20
-5.337682317
10
10.706618266
20
-5.338076733
10
10.900859400
20
-5.338471148
10
11.095106041
20
-5.338865564
10
11.289358189
20
-5.339259980
10
11.483615844
20
-5.339654396
10
11.677879005
20
-5.340048811
10
11.872147672
20
-5.340443227
10
12.066421847
20
-5.340837643
10
12.260701528
20
-5.341232058
10
12.454986716
20
-5.341626474
10
12.649277411
20
-5.342020890
10
12.843573612
20
-5.342415306
10
13.037875320
20
-5.342809721
10
13.232182534
20
-5.343204137
10
13.426495255
20
-5.343598553
10
13.620813483
20
-5.343992968
10
13.815137218
20
-5.344387384
10
14.009466459
20
-5.344781800
10
14.203801207
20
-5.345176216
10
14.398141462
20
-5.345570631
10
14.592487223
20
-5.345965047
10
14.786838491
20
-5.346359463
10
14.981195266
20
-5.346753878
10
15.175557547
20
-5.347148294
10
15.369925335
20
-5.347542710
10
15.564298630
20
-5.347937126
10
15.758677432
20
-5.348331541
10
15.953061740
20
-5.348725957
10
16.147451555
20
-5.349120373
10
16.341846876
20
-5.349514788
10
16.536247704
20
-5.349909204
10
16.730654039
20
-5.350303620
10
16.925065881
20
-5.350698036
10
17.119483229
20
-5.351092451
10
17.313906084
20
-5.351486867
10
17.508334445
20
-5.351881283
10
17.702768313
20
-5.352275698
10
17.897207688
20
-5.352670114
10
18.091652570
20
-5.353064530
10
18.286102958
20
-5.353458946
10
18.480558853
20
-5.353853361
10
18.675020255
20
-5.354247777
10
18.869487163
20
-5.354642193
10
19.063959578
20
-5.355036608
10
19.258437500
20
-5.355431024
10
19.452920928
20
-5.355825440
10
19.647409863
20
-5.356219856
10
19.841904305
20
-5.356614271
10
20.036404253
20
-5.357008687
10
20.230909709
20
-5.357403103
10
20.425420670
20
-5.357797518
10
20.619937139
20
-5.358191934
10
20.814459114
20
-5.358586350
10
21.008986596
20
-5.358980766
10
21.203519584
20
-5.359375181
10
21.398058079
20
-5.359769597
10
21.592602081
20
-5.360164013
10
21.787151590
20
-5.360558428
10
21.981706605
20
-5.360952844
10
22.176267127
20
-5.361347260
10
22.370833156
20
-5.361741676
10
22.565404691
20
-5.362136091
10
22.759981733
20
-5.362530507
10
22.954564281
20
-5.362924923
10
23.149152337
20
-5.363319338
10
23.343745899
20
-5.363713754
10
23.538344967
20
-5.364108170
10
23.732949543
20
-5.364502586
10
23.927559625
20
-5.364897001
10
24.122175214
20
-5.365291417
10
24.316796309
20
-5.365685833
10
24.511422911
20
-5.366080248
10
24.706055020
20
-5.366474664
10
24.900692635
20
-5.366869080
10
25.095335757
20
-5.367263496
10
25.289984386
20
-5.367657911
10
25.484638522
20
-5.368052327
10
25.679298164
20
-5.368446743
10
25.873963313
20
-5.368841159
10
26.068633968
20
-5.369235574
10
26.263310130
20
-5.369629990
10
26.457991799
20
-5.370024406
10
26.652678975
20
-5.370418821
10
26.847371657
20
-5.370813237
10
27.042069846
20
-5.371207653
10
27.236773542
20
-5.371602069
10
27.431482744
20
-5.371996484
10
27.626197453
20
-5.372390900
10
27.820917669
20
-5.372785316
10
28.015643391
20
-5.373179731
10
28.210374620
20
-5.373574147
10
28.405111356
20
-5.373968563
10
28.599853598
20
-5.374362979
10
28.794601347
20
-5.374757394
10
28.989354603
20
-5.375151810
10
29.184113365
20
-5.375546226
10
29.378877634
20
-5.375940641
10
29.573647410
20
-5.376335057
10
29.768422693
20
-5.376729473
10
29.963203482
20
-5.377123889
10
30.157989778
20
-5.377518304
10
30.352781580
20
-5.377912720
10
30.547578889
20
-5.378307136
10
30.742381705
20
-5.378701551
10
30.937190028
20
-5.379095967
10
31.132003857
20
-5.379490383
10
31.326823193
20
-5.379884799
10
31.521648036
20
-5.380279214
10
31.716478385
20
-5.380673630
10
31.911314241
20
-5.381068046
10
32.106155604
20
-5.381462461
10
32.301002473
20
-5.381856877
10
32.495854849
20
-5.382251293
10
32.690712732
20
-5.382645709
10
32.885576121
20
-5.383040124
10
33.080445017
20
-5.383434540
10
33.275319420
20
-5.383828956
10
33.470199329
20
-5.384223371
10
33.665084745
20
-5.384617787
10
33.859975668
20
-5.385012203
10
34.054872097
20
-5.385406619
10
34.249774034
20
-5.385801034
10
34.444681476
20
-5.386195450
10
34.639594426
20
-5.386589866
10
34.834512882
20
-5.386984281
10
35.029436845
20
-5.387378697
10
35.224366315
20
-5.387773113
10
35.419301291
20
-5.388167529
10
35.614241774
20
-5.388561944
10
35.809187763
20
-5.388956360
10
36.004139260
20
-5.389350776
10
36.199096262
20
-5.389745191
10
36.394058772
20
-5.390139607
10
36.589026788
20
-5.390534023
10
36.784000311
20
-5.390928439
10
36.978979341
20
-5.391322854
10
37.173810525
20
-5.385393343
10
37.367492801
20
-5.363714737
10
37.558741642
20
-5.326347614
10
37.746289900
20
-5.273548827
10
37.928896449
20
-5.205677225
10
38.105354361
20
-5.123191097
10
38.274498839
20
-5.026644956
10
38.435214848
20
-4.916685705
10
38.586444402
20
-4.794048190
10
38.727193456
20
-4.659550187
10
38.856538358
20
-4.514086853
10
38.973631824
20
-4.358624682
10
39.077708389
20
-4.194194997
10
39.168089314
20
-4.021887039
10
39.244186900
20
-3.842840681
10
39.305508200
20
-3.658238837
10
39.351658096
20
-3.469299597
10
39.382341722
20
-3.277268150
10
39.397366227
20
-3.083408554
10
39.399211169
20
-2.888955753
10
39.399605584
20
-2.694480630
10
39.400000000
20
-2.500000000
10
39.400372982
20
-2.470083170
10
39.401491695
20
-2.440184937
10
39.403355443
20
-2.410323888
10
39.405963070
20
-2.380518584
10
39.409312952
20
-2.350787554
10
39.413403009
20
-2.321149281
10
39.418230696
20
-2.291622187
0
LWPOLYLINE
100
AcDbEntity
8
COPPER_L4_BOTTOM
100
AcDbPolyline
90
58
70
0
38
0.000000000
10
39.418230696
20
-2.291622187
10
39.423793015
20
-2.262224628
10
39.430086505
20
-2.232974879
10
39.437107257
20
-2.203891123
10
39.444850904
20
-2.174991438
10
39.453312633
20
-2.146293791
10
39.462487185
20
-2.117816020
10
39.472368855
20
-2.089575828
10
39.482951502
20
-2.061590771
10
39.494228546
20
-2.033878244
10
39.506192977
20
-2.006455476
10
39.518837359
20
-1.979339513
10
39.532153829
20
-1.952547211
10
39.546134112
20
-1.926095226
10
39.560769515
20
-1.900000000
10
39.576050942
20
-1.874277756
10
39.591968892
20
-1.848944483
10
39.608513471
20
-1.824015930
10
39.625674393
20
-1.799507593
10
39.643440991
20
-1.775434708
10
39.661802221
20
-1.751812238
10
39.680746668
20
-1.728654868
10
39.700262556
20
-1.705976995
10
39.720337754
20
-1.683792715
10
39.740959781
20
-1.662115818
10
39.762115818
20
-1.640959781
10
39.783792715
20
-1.620337754
10
39.805976995
20
-1.600262556
10
39.828654868
20
-1.580746668
10
39.851812238
20
-1.561802221
10
39.875434708
20
-1.543440991
10
39.899507593
20
-1.525674393
10
39.924015930
20
-1.508513471
10
39.948944483
20
-1.491968892
10
39.974277756
20
-1.476050942
10
40.000000000
20
-1.460769515
10
40.026095226
20
-1.446134112
10
40.052547211
20
-1.432153829
10
40.079339513
20
-1.418837359
10
40.106455476
20
-1.406192977
10
40.133878244
20
-1.394228546
10
40.161590771
20
-1.382951502
10
40.189575828
20
-1.372368855
10
40.217816020
20
-1.362487185
10
40.246293791
20
-1.353312633
10
40.274991438
20
-1.344850904
10
40.303891123
20
-1.337107257
10
40.332974879
20
-1.330086505
10
40.362224628
20
-1.323793015
10
40.391622187
20
-1.318230696
10
40.421149281
20
-1.313403009
10
40.450787554
20
-1.309312952
10
40.480518584
20
-1.305963070
10
40.510323888
20
-1.303355443
10
40.540184937
20
-1.301491695
10
40.570083170
20
-1.300372982
10
40.600000000
20
-1.300000000
10
50.500000000
20
-1.300000000
0
ENDSEC
0
EOF
